<?xml version="1.0" standalone="no"?>
<!DOCTYPE svg PUBLIC "-//W3C//DTD SVG 1.1//EN" "http://www.w3.org/Graphics/SVG/1.1/DTD/svg11.dtd" >
<svg xmlns="http://www.w3.org/2000/svg" width="100%" height="100%">
<metadata>
Created by FontXChange 20110222 at Sat Mar 15 23:14:40 2014
 By NC
</metadata>
<defs>
<font id="StitchGothic23-kernedSLIM" horiz-adv-x="292" >
  <font-face 
    font-family="StitchGothic23"
    font-weight="400"
    font-stretch="normal"
    units-per-em="1000"
    panose-1="2 0 5 3 0 0 0 0 0 0"
    ascent="800"
    descent="-200"
    x-height="528"
    cap-height="765"
    bbox="-64 -223 909 842"
    underline-thickness="20"
    underline-position="-133"
    stemh="62.000"
    stemv="95.000"
    unicode-range="U+001B-0161"
  />
    <missing-glyph />
    <glyph glyph-name="uni001B" horiz-adv-x="250" 
 />
    <glyph glyph-name="uni001E" horiz-adv-x="3725" 
 />
    <glyph glyph-name="uni001F" horiz-adv-x="2803" 
 />
    <glyph glyph-name="space" unicode=" " horiz-adv-x="250" 
 />
    <glyph glyph-name="exclam" unicode="!" horiz-adv-x="303" 
d="M203 766l-31 -577h-57l-23 580zM192 0h-102v113h102v-113z" />
    <glyph glyph-name="quotedbl" unicode="&#x22;" horiz-adv-x="358" 
d="M305 576h-99v190h99v-190zM153 576h-98v190h98v-190z" />
    <glyph glyph-name="numbersign" unicode="#" horiz-adv-x="596" 
d="M496 490h-67l-26 -187h61v-59h-70l-31 -224h-75l32 224h-107l-32 -224h-75l32 224h-48v59h56l27 187h-51v59h59l32 224h75l-32 -224h107l32 224h74l-31 -224h58v-59zM354 490h-106l-27 -187h107z" />
    <glyph glyph-name="dollar" unicode="$" horiz-adv-x="555" 
d="M509 220c0 -135 -89 -226 -212 -234v-65h-31v64c-131 4 -215 80 -215 233h101c0 -92 38 -150 114 -156v323c-91 35 -192 59 -192 211c0 107 91 179 192 188v58h31v-57c98 -5 176 -72 175 -177c0 -8 17 -7 -89 -7c1 59 -25 110 -86 116v-225c95 -37 212 -79 212 -272z
M266 505v212c-54 -8 -87 -51 -87 -111c0 -55 37 -80 87 -101zM406 206c0 99 -49 139 -109 166v-310c61 9 109 66 109 144z" />
    <glyph glyph-name="percent" unicode="%" horiz-adv-x="610" 
d="M312 635c0 -40 -24 -87 -110 -87c-88 0 -112 50 -112 86v42c0 54 34 92 114 92c93 0 108 -51 108 -92v-41zM495 755l-294 -753h-75l294 753h75zM546 79c0 -40 -24 -87 -110 -87c-88 0 -111 50 -111 86v42c0 54 33 93 113 93c94 0 108 -52 108 -93v-41zM240 638v35
c0 12 4 46 -36 46c-41 0 -39 -37 -39 -47v-35c0 -13 0 -36 38 -36c37 0 37 24 37 37zM474 82v35c0 12 4 46 -36 46c-41 0 -39 -36 -39 -46v-36c0 -13 0 -35 38 -35c37 0 37 23 37 36z" />
    <glyph glyph-name="ampersand" unicode="&#x26;" horiz-adv-x="653" 
d="M593 240c-30 -47 -56 -93 -87 -133l76 -111h-98c-13 18 -25 35 -37 51c-43 -34 -98 -55 -177 -55c-168 0 -212 136 -159 241c21 42 67 83 115 125c-38 56 -68 116 -68 189c0 124 114 145 164 145s140 -32 140 -143c0 -74 -64 -145 -123 -198l118 -172c26 36 60 82 74 101
zM379 571c-4 39 -20 64 -63 64c-51 0 -78 -37 -81 -73c0 0 -5 -51 24 -94l35 -51c18 16 34 33 49 49c25 28 40 67 36 105zM403 110c-57 81 -91 131 -91 131c-13 18 -27 36 -40 54c-7 -6 -13 -11 -17 -15c-51 -49 -89 -114 -50 -182c26 -45 135 -43 198 12z" />
    <glyph glyph-name="quotesingle" unicode="'" horiz-adv-x="288" 
d="M188 576h-98v190h98v-190z" />
    <glyph glyph-name="parenleft" unicode="(" horiz-adv-x="369" 
d="M269 827c-63 -222 -63 -436 -63 -436s0 -199 61 -435h-39c-139 187 -138 434 -138 434s-1 246 140 437h39z" />
    <glyph glyph-name="parenright" unicode=")" horiz-adv-x="369" 
d="M269 390c0 0 1 -247 -138 -434h-39c61 236 61 435 61 435s0 214 -63 436h39c141 -191 140 -437 140 -437z" />
    <glyph glyph-name="asterisk" unicode="*" horiz-adv-x="535" 
d="M435 534l-36 -66l-103 64l-3 2c0 -111 3 -124 3 -124l-73 2s4 7 4 119c-92 -55 -103 -61 -103 -61l-34 65s8 1 104 53c-90 49 -103 52 -103 52l37 63s5 -6 99 -58l-4 118h75l-5 -122l104 63l36 -65l-108 -49z" />
    <glyph glyph-name="plus" unicode="+" horiz-adv-x="557" 
d="M495 307h-177v-180v-10h-96v10v180h-175v96h175v162v10h96v-10v-162h177v-96z" />
    <glyph glyph-name="comma" unicode="," horiz-adv-x="307" 
d="M207 88c-19 -85 -78 -190 -78 -190l-55 30c15 69 24 177 24 177z" />
    <glyph glyph-name="hyphen" unicode="-" horiz-adv-x="325" 
d="M286 307h-239v96h239v-96z" />
    <glyph glyph-name="period" unicode="." 
d="M192 0h-102v113h102v-113z" />
    <glyph glyph-name="slash" unicode="/" horiz-adv-x="442" 
d="M342 777l-155 -775h-97l160 775h92z" />
    <glyph glyph-name="zero" unicode="0" horiz-adv-x="489" 
d="M459 298c0 -142 -46 -313 -208 -313c-167 0 -210 180 -210 311v148c0 194 64 334 215 334c177 0 203 -186 203 -332v-148zM356 298v148c0 53 9 274 -101 274c-113 0 -106 -234 -106 -276v-150c0 -56 0 -241 105 -241c94 0 102 188 102 245z" />
    <glyph glyph-name="one" unicode="1" horiz-adv-x="306" 
d="M251 0h-97v684l-89 -68v83l89 68h97v-767z" />
    <glyph glyph-name="two" unicode="2" horiz-adv-x="455" 
d="M436 1h-408v71c210 317 241 369 241 369c33 51 58 95 58 157c0 59 -17 104 -84 104c-63 0 -77 -46 -81 -95c-1 -18 -1 -36 -1 -59h-110c0 183 119 224 197 224c76 0 176 -46 176 -173c0 0 -4 -88 -52 -164l-224 -361h288v-73z" />
    <glyph glyph-name="three" unicode="3" horiz-adv-x="497" 
d="M442 220c0 -76 -30 -233 -198 -233c-194 0 -201 143 -201 225h101c0 -103 29 -160 100 -160c54 0 92 62 92 168c0 103 -17 168 -134 168v60c98 0 137 71 137 129c0 76 -16 135 -89 135c-95 0 -100 -91 -100 -162h-90c0 168 104 219 190 219c76 0 181 -56 181 -185
c0 0 0 -136 -95 -164c74 -26 106 -109 106 -200z" />
    <glyph glyph-name="four" unicode="4" horiz-adv-x="482" 
d="M452 161h-68v-158h-102v158h-246v59l173 545h102l-176 -545h147v218h102v-218h68v-59z" />
    <glyph glyph-name="five" unicode="5" horiz-adv-x="470" 
d="M427 244c0 -163 -66 -257 -206 -257c-160 0 -180 121 -180 226h102c-16 -163 84 -163 84 -163c69 0 98 61 98 194s-37 187 -165 134l-95 1v387h322v-54h-226l-1 -280c37 18 72 30 128 30c65 0 139 -67 139 -218z" />
    <glyph glyph-name="six" unicode="6" horiz-adv-x="476" 
d="M433 233c0 -126 -62 -245 -198 -245c-137 0 -192 112 -192 238c0 51 11 100 29 147c51 132 105 263 162 393h92l-132 -334c28 15 59 27 91 27c112 0 148 -136 148 -226zM332 238c0 57 -7 161 -85 161c-24 0 -48 -9 -69 -20c-17 -58 -29 -120 -29 -181
c0 -53 16 -148 84 -148c77 0 99 128 99 188z" />
    <glyph glyph-name="seven" unicode="7" horiz-adv-x="453" 
d="M447 707l-232 -705h-110l246 708h-235v-85h-87v141h418v-59z" />
    <glyph glyph-name="eight" unicode="8" horiz-adv-x="504" 
d="M485 223c0 -146 -86 -239 -236 -239c-145 0 -235 93 -235 236c0 87 38 169 117 210c-57 25 -85 95 -85 154c0 119 94 192 208 192c118 0 195 -72 195 -192c0 -62 -30 -135 -95 -153c88 -25 131 -121 131 -208zM354 592c0 64 -28 137 -103 137c-59 0 -110 -56 -110 -136
c0 -60 43 -133 109 -133c70 0 104 70 104 132zM373 217c0 75 -37 181 -125 181c-81 0 -124 -109 -124 -178c0 -74 32 -172 121 -172c91 0 128 91 128 169z" />
    <glyph glyph-name="nine" unicode="9" horiz-adv-x="507" 
d="M473 601c0 -73 -29 -162 -53 -231c-42 -123 -85 -245 -129 -367h-113l141 363c-33 -10 -67 -17 -102 -17c-108 0 -181 72 -181 180c0 142 76 257 227 257c114 0 210 -63 210 -185zM384 588c4 96 -44 137 -114 142c-89 6 -133 -97 -137 -182s42 -141 120 -141
c30 0 59 7 88 16c20 56 40 105 43 165z" />
    <glyph glyph-name="colon" unicode=":" 
d="M192 415h-102v113h102v-113zM192 0h-102v113h102v-113z" />
    <glyph glyph-name="semicolon" unicode=";" horiz-adv-x="307" 
d="M201 415h-102v113h102v-113zM207 88c-19 -85 -78 -190 -78 -190l-55 30c15 69 24 177 24 177z" />
    <glyph glyph-name="less" unicode="&#x3c;" horiz-adv-x="742" 
d="M657 97l-594 247v62l592 254v-95l-466 -190l468 -193v-85z" />
    <glyph glyph-name="equal" unicode="=" horiz-adv-x="613" 
d="M530 433h-448v96h448v-96zM530 219h-448v96h448v-96z" />
    <glyph glyph-name="greater" unicode="&#x3e;" horiz-adv-x="742" 
d="M657 344l-594 -247v85l468 193l-466 190v95l592 -254v-62z" />
    <glyph glyph-name="question" unicode="?" horiz-adv-x="554" 
d="M454 591c0 -98 -45 -125 -100 -194c-42 -52 -31 -142 -34 -206h-86c0 66 -5 182 31 240c12 20 29 37 45 54c31 35 50 76 50 123c0 51 -26 110 -85 110c-9 0 -20 -3 -28 -7c-45 -20 -58 -68 -58 -114c0 -14 1 -29 3 -43h-102c0 115 53 220 180 220c110 0 184 -73 184 -183
zM328 -2h-102v113h102v-113z" />
    <glyph glyph-name="at" unicode="@" horiz-adv-x="968" 
d="M909 463c0 -98 -48 -185 -120 -250c-43 -39 -101 -68 -160 -68c-65 0 -107 38 -106 104c-36 -16 -76 -29 -116 -29c-84 0 -132 58 -132 139c0 19 3 38 8 57c30 116 129 206 251 206c37 0 115 -16 145 -33l5 -12l-73 -271c-5 -18 -8 -36 -8 -54c0 -23 7 -46 34 -46
c48 0 106 59 131 95c33 49 56 114 56 173c0 157 -160 267 -306 267c-104 0 -209 -49 -270 -134c-50 -69 -79 -166 -79 -251c0 -104 41 -193 130 -250c63 -40 137 -62 212 -62c115 0 229 50 309 132l51 -52c-97 -101 -230 -165 -372 -165c-75 0 -149 18 -216 50
c-143 69 -224 187 -224 346c0 89 29 202 84 274c86 114 222 192 367 192c196 0 399 -150 399 -358zM587 582c-14 4 -28 6 -43 6c-107 0 -171 -137 -171 -230c0 -53 27 -81 81 -81c20 0 40 3 59 8z" />
    <glyph glyph-name="A" unicode="A" horiz-adv-x="570" 
d="M502 0h-119l-31 148h-206l-31 -148h-97l196 765h93zM340 208l-89 424l-87 -424h176z" />
    <glyph glyph-name="B" unicode="B" horiz-adv-x="580" 
d="M550 214c0 -141 -58 -231 -275 -231c-33 0 -139 6 -169 16l-16 17v725l9 17c54 16 144 28 200 28c115 0 195 -75 195 -197c0 -89 -51 -150 -136 -171c6 1 13 1 19 1c116 0 173 -111 173 -205zM396 582c0 126 -72 170 -195 146v-289c91 6 195 40 195 143zM436 213
c0 102 -37 167 -146 167c-19 0 -70 -2 -89 -5v-331c152 -14 235 14 235 169z" />
    <glyph glyph-name="C" unicode="C" horiz-adv-x="566" 
d="M506 254c0 -137 -51 -268 -185 -274c-234 -10 -261 231 -261 404c0 163 54 404 256 404c153 0 186 -138 186 -248l-101 1c0 55 -6 178 -82 178c-122 0 -140 -249 -140 -334c0 -103 -2 -334 132 -334c87 0 87 131 87 203c0 0 108 1 108 0z" />
    <glyph glyph-name="D" unicode="D" horiz-adv-x="610" 
d="M550 386c0 -207 -55 -406 -325 -406c-65 0 -108 11 -125 20c0 0 -10 7 -10 10v719l12 23c62 18 110 31 165 31c219 0 283 -202 283 -397zM440 401c0 127 -21 359 -239 317v-683c234 -11 239 213 239 366z" />
    <glyph glyph-name="E" unicode="E" horiz-adv-x="531" 
d="M471 0h-381v765h369v-52h-261v-269h228v-61h-225v-320h270v-63z" />
    <glyph glyph-name="F" unicode="F" horiz-adv-x="528" 
d="M493 714h-290v-267h241v-63h-241v-384h-113v765h403v-51z" />
    <glyph glyph-name="G" unicode="G" horiz-adv-x="606" 
d="M546 0h-46l-34 33c-34 -37 -80 -49 -128 -49c-231 0 -278 236 -278 417c0 161 90 381 282 381c144 0 196 -109 196 -228h-104c0 63 -18 159 -93 159c-135 0 -154 -219 -154 -313c0 -107 -6 -343 153 -343c84 0 105 47 105 123c0 41 -2 80 -2 121v17h-112v68h215v-386z
" />
    <glyph glyph-name="H" unicode="H" horiz-adv-x="598" 
d="M518 0h-104v378h-222v-378h-102v765h102v-325h222v325h104v-765z" />
    <glyph glyph-name="I" unicode="I" horiz-adv-x="280" 
d="M200 0h-110v765h110v-765z" />
    <glyph glyph-name="J" unicode="J" horiz-adv-x="544" 
d="M480 298c0 -165 -13 -332 -221 -332c-151 0 -218 90 -218 304h112c-18 -238 105 -239 105 -239c122 0 110 241 110 241v493h112v-467z" />
    <glyph glyph-name="K" unicode="K" horiz-adv-x="582" 
d="M582 0h-129l-258 373v-373h-105v765h105v-310l218 310h113l-256 -345z" />
    <glyph glyph-name="L" unicode="L" horiz-adv-x="537" 
d="M512 0h-422v765h2h110v-703h310v-62z" />
    <glyph glyph-name="M" unicode="M" horiz-adv-x="720" 
d="M640 0h-104v625l-137 -363h-60l-150 363v-625h-99v765h139l147 -381l133 381h131v-765z" />
    <glyph glyph-name="N" unicode="N" horiz-adv-x="630" 
d="M550 -1h-107l-253 522c-6 11 -12 40 -12 40s3 -28 3 -43v-519h-91v766h93l274 -572c8 -19 12 -42 12 -42s-5 25 -5 44v570h86v-766z" />
    <glyph glyph-name="O" unicode="O" horiz-adv-x="611" 
d="M551 385c0 -156 -26 -408 -241 -408c-224 0 -250 252 -250 408c0 170 48 391 248 391c206 0 243 -225 243 -391zM431 410c0 112 -15 302 -121 302c-104 0 -125 -190 -125 -302c0 -82 -14 -371 128 -371c120 0 118 289 118 371z" />
    <glyph glyph-name="P" unicode="P" horiz-adv-x="541" 
d="M506 543c0 -150 -169 -251 -307 -216v-327h-109v741l13 17c90 23 174 18 174 18c123 0 229 -71 229 -233zM395 549c0 150 -81 189 -195 167v-325c74 -31 195 17 195 158z" />
    <glyph glyph-name="Q" unicode="Q" horiz-adv-x="627" 
d="M592 -20h-280c-236 0 -252 284 -252 439c0 135 53 361 249 361c206 0 244 -240 244 -377c0 -109 -23 -291 -99 -357h138v-66zM440 416c0 110 -29 297 -128 297c-104 0 -129 -173 -129 -294c0 -80 0 -373 131 -373c120 0 126 290 126 370z" />
    <glyph glyph-name="R" unicode="R" horiz-adv-x="566" 
d="M531 0h-124l-143 350h-70v-350h-104v752l12 15c212 50 397 24 397 -216c0 -112 -87 -175 -140 -186zM396 548c0 207 -106 191 -204 177v-314c83 0 204 12 204 137z" />
    <glyph glyph-name="S" unicode="S" horiz-adv-x="565" 
d="M525 203c0 -143 -98 -218 -232 -218c-137 0 -226 76 -226 233h101c0 -98 45 -157 128 -157c85 0 126 57 126 143c0 182 -337 110 -337 348c0 138 89 233 218 233c102 0 195 -70 195 -204h-89c0 78 -39 127 -108 127c-67 0 -121 -55 -121 -144c0 -163 345 -97 345 -361z
" />
    <glyph glyph-name="T" unicode="T" horiz-adv-x="461" 
d="M461 702h-171v-702h-112v702h-178v63h461v-63z" />
    <glyph glyph-name="U" unicode="U" horiz-adv-x="593" 
d="M513 319c0 -202 -53 -341 -209 -341c-176 0 -214 151 -214 336v451h102v-451c0 -109 6 -258 111 -258c100 0 105 145 105 263v446h105v-446z" />
    <glyph glyph-name="V" unicode="V" horiz-adv-x="506" 
d="M496 764l-175 -765h-135l-176 765h107l155 -658l137 658h87z" />
    <glyph glyph-name="W" unicode="W" horiz-adv-x="702" 
d="M676 765l-161 -766h-95l-82 511l-89 -511v0h-93l-162 766h111l105 -572l101 572h89l89 -571l90 571h97z" />
    <glyph glyph-name="X" unicode="X" horiz-adv-x="517" 
d="M507 0h-126l-136 318l-129 -318h-106l190 400l-171 365h112l118 -267l109 267h95l-159 -338z" />
    <glyph glyph-name="Y" unicode="Y" horiz-adv-x="504" 
d="M494 765l-184 -427v-338h-112v328l-188 437h113l142 -354l141 354h88z" />
    <glyph glyph-name="Z" unicode="Z" horiz-adv-x="483" 
d="M473 693l-349 -631h342v-62h-455l-1 71l1 -1l-1 1l352 631h-323v63h434v-72z" />
    <glyph glyph-name="bracketleft" unicode="[" horiz-adv-x="373" 
d="M273 -43h-183v871h183v-61h-77v-746h77v-64z" />
    <glyph glyph-name="backslash" unicode="\" horiz-adv-x="442" 
d="M342 2h-97l-155 775h92z" />
    <glyph glyph-name="bracketright" unicode="]" horiz-adv-x="373" 
d="M273 -43h-183v64h77v746h-77v61h183v-871z" />
    <glyph glyph-name="asciicircum" unicode="^" horiz-adv-x="776" 
d="M676 341h-95l-198 362l-199 -364h-94l254 461h79z" />
    <glyph glyph-name="underscore" unicode="_" horiz-adv-x="778" 
d="M678 -3h-588v54h588v-54z" />
    <glyph glyph-name="grave" unicode="`" horiz-adv-x="269" 
d="M234 664l-43 -45c-62 33 -125 43 -125 43l45 100c77 -41 123 -98 123 -98z" />
    <glyph glyph-name="a" unicode="a" horiz-adv-x="450" 
d="M411 3l-86 -20l-3 30c-38 -17 -79 -30 -121 -30c-103 0 -140 82 -140 173c0 100 40 187 152 187c35 0 69 -9 101 -22v58c0 50 -5 121 -71 121c-60 0 -68 -55 -68 -102h-89c0 97 60 158 158 158c116 0 167 -82 167 -190v-363zM313 63v204c-24 10 -50 19 -76 19
c-59 0 -77 -53 -77 -103c0 -58 6 -135 82 -135c24 0 48 7 71 15z" />
    <glyph glyph-name="b" unicode="b" horiz-adv-x="484" 
d="M439 260c0 -254 -206 -297 -360 -261l-14 15v751l90 35v-271c175 100 284 -87 284 -269zM343 275c-2 218 -77 265 -187 204v-445c44 0 189 6 187 241z" />
    <glyph glyph-name="c" unicode="c" horiz-adv-x="452" 
d="M410 157c0 -72 -29 -177 -158 -177c-138 0 -207 91 -207 308c0 158 77 266 204 266c0 0 157 6 157 -166h-86c0 50 -7 99 -71 99c-94 0 -98 -156 -98 -197c0 -77 2 -246 89 -246c67 0 84 45 84 113h86z" />
    <glyph glyph-name="d" unicode="d" horiz-adv-x="480" 
d="M409 1l-82 -21l-3 28c-19 -16 -78 -26 -107 -26c-137 0 -188 174 -188 285c0 108 34 290 175 290c31 0 83 -11 111 -23v231l94 35v-799zM315 53v430c-19 11 -64 21 -86 21c-77 1 -91 -152 -91 -216c0 -75 3 -249 102 -249c17 0 60 5 75 14z" />
    <glyph glyph-name="e" unicode="e" horiz-adv-x="463" 
d="M418 266h-267c0 -83 4 -224 95 -224c63 0 78 58 78 116h91c-1 -85 -52 -182 -164 -182c-129 0 -206 99 -206 302c0 197 103 276 195 276c139 0 178 -134 178 -288zM324 322c0 83 -1 163 -86 163c-84 0 -81 -100 -81 -163h167z" />
    <glyph glyph-name="f" unicode="f" 
d="M307 533v-53h-117v-480h-97v480h-93v53h96c0 151 75 275 261 275v-68c-149 0 -170 -104 -170 -207h120z" />
    <glyph glyph-name="g" unicode="g" horiz-adv-x="468" 
d="M233 -223c-88 0 -228 28 -228 154c0 39 22 68 49 88c-17 16 -24 36 -24 60c0 55 35 92 78 109c-34 38 -52 102 -52 153c0 106 88 206 177 206c35 0 53 -4 66 -11c12 -7 21 -16 39 -26c20 35 75 69 120 69v-92c-34 5 -57 2 -80 -13c20 -31 31 -105 31 -139
c0 -116 -73 -194 -173 -194c-21 0 -64 5 -85 17c-22 -7 -44 -13 -44 -42c0 -34 95 -33 116 -33c43 0 84 7 127 7c74 0 123 -36 123 -121c0 -140 -113 -192 -240 -192zM237 485c-55 0 -82 -81 -82 -140c0 -71 16 -141 84 -141c60 0 69 78 69 137c0 60 -14 144 -71 144z
M339 -15c-39 0 -79 -7 -118 -7c-40 0 -90 2 -129 18c-20 -15 -31 -32 -31 -64c0 -58 93 -86 174 -86c56 0 153 33 153 99c0 35 -22 40 -49 40z" />
    <glyph glyph-name="h" unicode="h" horiz-adv-x="480" 
d="M425 0h-102v305c0 109 14 222 -89 201c0 0 -33 -7 -70 -32v-474h-99v765l94 35v-273c49 25 79 31 79 31c73 17 187 12 187 -211v-347z" />
    <glyph glyph-name="i" unicode="i" horiz-adv-x="220" 
d="M158 627h-87v106h87v-106zM165 0h-100v530h100v-530z" />
    <glyph glyph-name="j" unicode="j" horiz-adv-x="200" 
d="M161 628h-87v107h87v-107zM161 150c0 -217 -10 -349 -225 -349v51c129 0 131 108 131 299v378h94v-379z" />
    <glyph glyph-name="k" unicode="k" horiz-adv-x="455" 
d="M471 0h-121l-175 251v-251h-94v765l94 37v-493l162 225h105l-191 -243z" />
    <glyph glyph-name="l" unicode="l" horiz-adv-x="217" 
d="M162 0h-97v765l97 36v-801z" />
    <glyph glyph-name="m" unicode="m" horiz-adv-x="695" 
d="M640 0h-97v402c0 43 -9 114 -102 89c-13 -4 -28 -11 -41 -19c1 -6 4 -12 4 -19v-453h-104v406c0 43 -2 110 -95 85c-12 -3 -26 -10 -38 -17v-474h-102v530h96v-10c14 9 31 21 47 27c53 21 138 23 176 -32c16 10 39 24 60 32c52 21 196 37 196 -173v-374z" />
    <glyph glyph-name="n" unicode="n" horiz-adv-x="487" 
d="M432 0h-98v292c0 104 2 221 -101 200c0 0 -34 -6 -71 -31v-461h-97v530h93v-17c49 25 79 32 79 32c69 30 195 12 195 -211v-334z" />
    <glyph glyph-name="o" unicode="o" horiz-adv-x="507" 
d="M446 279c0 -144 -27 -307 -203 -307c-164 0 -214 169 -214 307c0 142 53 278 214 278c149 0 203 -153 203 -278zM341 279c0 60 -12 225 -98 225c-87 0 -112 -162 -112 -225c0 -68 14 -242 112 -242c95 0 98 177 98 242z" />
    <glyph glyph-name="p" unicode="p" horiz-adv-x="402" 
d="M389 279c0 -108 -44 -270 -180 -270c-26 0 -53 9 -75 22v-172l-99 -38v677l8 13c54 18 95 44 162 45c144 1 184 -161 184 -277zM285 282c0 95 -11 284 -154 212v-415c18 -8 40 -15 60 -15c97 0 94 156 94 218z" />
    <glyph glyph-name="q" unicode="q" horiz-adv-x="456" 
d="M401 -161l-90 -35v226c-26 -13 -54 -21 -83 -21c-139 0 -183 179 -183 289c0 120 47 263 194 256c63 -3 107 -17 154 -45l8 -17v-653zM312 84v393c-151 63 -168 -76 -168 -183c0 -75 8 -221 115 -221c18 0 36 4 53 11z" />
    <glyph glyph-name="r" unicode="r" horiz-adv-x="382" 
d="M356 462c-125 0 -207 -66 -207 -187v-275h-100v530h100v-113c30 59 111 138 207 138v-93z" />
    <glyph glyph-name="s" unicode="s" horiz-adv-x="462" 
d="M417 149c0 -107 -75 -169 -187 -169c-109 0 -185 58 -185 176h97c0 -58 25 -111 92 -111s87 50 87 107c0 46 -32 64 -79 77c-15 4 -31 8 -47 12c-66 16 -134 40 -134 148c0 91 68 171 172 171c96 0 161 -67 161 -174h-93c0 55 -3 108 -71 108c-56 0 -77 -50 -77 -104
c0 -26 14 -40 38 -50c28 -12 60 -18 90 -26c67 -19 136 -47 136 -165z" />
    <glyph glyph-name="t" unicode="t" horiz-adv-x="377" 
d="M342 478h-134v-186v-170c0 -32 6 -75 47 -75c25 0 57 15 79 26v-65c-33 -17 -72 -28 -110 -28c-90 0 -112 84 -112 158v140v200h-77v51h83v129l90 36v-165h134v-51z" />
    <glyph glyph-name="u" unicode="u" horiz-adv-x="447" 
d="M392 1l-74 -22l-9 33c-39 -18 -82 -30 -125 -30c-88 0 -119 55 -119 140v412h88v-398c0 -47 10 -98 68 -98c26 0 59 10 82 22v474h89v-533z" />
    <glyph glyph-name="v" unicode="v" horiz-adv-x="398" 
d="M398 530l-153 -530h-92l-153 530h105l99 -426l98 426h96z" />
    <glyph glyph-name="w" unicode="w" horiz-adv-x="574" 
d="M574 530l-116 -530h-100l-68 348l-63 -348h-90l-137 530h95l93 -401l69 401h65l81 -398l80 398h91z" />
    <glyph glyph-name="x" unicode="x" horiz-adv-x="435" 
d="M419 -1h-119l-99 196l-103 -196h-114l169 280l-154 251h111l90 -172l85 172h99l-137 -248z" />
    <glyph glyph-name="y" unicode="y" horiz-adv-x="466" 
d="M466 529l-277 -729h-118l111 245l-182 484h112l122 -388l127 388h105z" />
    <glyph glyph-name="z" unicode="z" horiz-adv-x="391" 
d="M391 0h-390v65h-1l1 1l284 412h-263v50h364v-54l-281 -426h286v-48z" />
    <glyph glyph-name="braceleft" unicode="{" horiz-adv-x="444" 
d="M344 782c-75 12 -75 -76 -75 -76c0 -89 11 -274 -79 -298c81 -3 81 -179 81 -179c0 -180 -12 -192 71 -200v-56c-55 -8 -177 -19 -177 133c0 119 20 268 -75 268v60c33 9 75 -25 75 276c0 92 40 138 179 127v-55z" />
    <glyph glyph-name="bar" unicode="|" horiz-adv-x="256" 
d="M156 -20h-66v804h66v-804z" />
    <glyph glyph-name="braceright" unicode="}" horiz-adv-x="444" 
d="M344 374c-95 0 -75 -149 -75 -268c0 -152 -122 -141 -177 -133v56c83 8 71 20 71 200c0 0 0 176 81 179c-90 24 -79 209 -79 298c0 0 0 88 -75 76v55c139 11 179 -35 179 -127c0 -301 42 -267 75 -276v-60z" />
    <glyph glyph-name="asciitilde" unicode="~" horiz-adv-x="507" 
d="M404 477c-37 -57 -86 -57 -86 -57c-61 0 -80 45 -124 44c0 0 -33 0 -57 -33l-37 41c17 40 60 80 97 82c53 2 81 -55 129 -53c0 0 29 1 47 23z" />
    <glyph glyph-name="uni0094" horiz-adv-x="261" 
 />
    <glyph glyph-name="uni0096" horiz-adv-x="560" 
 />
    <glyph glyph-name="uni0099" horiz-adv-x="525" 
 />
    <glyph glyph-name="uni009E" horiz-adv-x="492" 
 />
    <glyph glyph-name="yen" unicode="&#xa5;" horiz-adv-x="500" 
d="M402 384c0 -87 -70 -157 -157 -157s-157 70 -157 157c0 86 70 157 157 157s157 -71 157 -157z" />
    <glyph glyph-name="scaron" unicode="&#x161;" horiz-adv-x="733" 
d="M673 351c0 -161 -139 -291 -311 -291s-312 130 -312 291s140 291 312 291s311 -130 311 -291zM594 351c0 122 -103 220 -231 220s-232 -98 -232 -220s104 -221 232 -221s231 99 231 221zM516 207h-101l-76 126h-29l4 -126h-83l-1 271l8 20c56 8 90 9 90 9
c42 4 166 10 166 -87c0 -44 -39 -71 -77 -81zM411 426c0 27 -16 37 -39 41c-21 3 -43 1 -64 -1v-94c48 1 103 4 103 54z" />
    <glyph glyph-name="copyright" unicode="&#xa9;" horiz-adv-x="734" 
d="M674 352c0 -161 -140 -292 -312 -292s-312 131 -312 292s140 291 312 291s312 -130 312 -291zM595 352c0 122 -104 220 -232 220s-232 -98 -232 -220s104 -220 232 -220s232 98 232 220zM523 399h-84c0 45 -24 65 -63 65c-77 0 -89 -67 -89 -102c0 -40 4 -110 84 -110
c2 0 67 0 66 65h83c0 -64 -51 -122 -149 -122c-121 0 -172 76 -172 165c0 96 79 162 178 158c0 0 139 -6 146 -119z" />
    <glyph glyph-name="ordfeminine" unicode="&#xaa;" horiz-adv-x="938" 
d="M878 351h-86v274l2 24l-95 -196h-50l-99 193l3 -21v-274h-90v396h104l107 -220l100 220h104v-396zM399 685h-125v-334h-93v334h-131v63h349v-63z" />
    <glyph glyph-name="guillemotleft" unicode="&#xab;" horiz-adv-x="269" 
d="M238 697c-70 -52 -142 -67 -142 -67l-22 58c57 41 93 94 93 94z" />
    <glyph glyph-name="logicalnot" unicode="&#xac;" horiz-adv-x="487" 
d="M397 688v0v-89h-99v89h99zM226 688v-89h-100v89h100z" />
    <glyph glyph-name="Ccedilla" unicode="&#xc7;" horiz-adv-x="624" 
 />
    <glyph glyph-name="Egrave" unicode="&#xc8;" horiz-adv-x="624" 
 />
    <glyph glyph-name="Eacute" unicode="&#xc9;" horiz-adv-x="748" 
 />
    <glyph glyph-name="Ecircumflex" unicode="&#xca;" horiz-adv-x="326" 
 />
    <glyph glyph-name="Ograve" unicode="&#xd2;" horiz-adv-x="400" 
d="M349 756c-7 -30 -10 -62 -10 -93c0 -13 0 -25 2 -38l-108 17c10 47 33 105 62 145zM182 756c-7 -32 -10 -65 -10 -98c0 -11 0 -22 1 -33l-108 17c10 47 33 105 62 145z" />
    <glyph glyph-name="Oacute" unicode="&#xd3;" horiz-adv-x="474" 
d="M374 770c-10 -47 -33 -105 -62 -145l-55 31c7 32 10 65 10 98c0 11 0 22 -1 33zM206 770c-10 -47 -33 -105 -62 -145l-54 31c7 30 10 62 10 93c0 13 0 25 -2 38z" />
    <glyph glyph-name="Ocircumflex" unicode="&#xd4;" horiz-adv-x="307" 
d="M207 756c-7 -32 -10 -65 -10 -98c0 -11 0 -22 1 -33l-108 17c10 47 33 105 62 145z" />
    <glyph glyph-name="Otilde" unicode="&#xd5;" horiz-adv-x="306" 
d="M206 770c-10 -47 -33 -105 -62 -145l-54 31c7 30 10 62 10 93c0 13 0 25 -2 38z" />
    <glyph glyph-name="adieresis" unicode="&#xe4;" horiz-adv-x="610" 
 />
  </font>
</defs>
</svg>
