<?xml version="1.0" standalone="no"?>
<!DOCTYPE svg PUBLIC "-//W3C//DTD SVG 1.1//EN" "http://www.w3.org/Graphics/SVG/1.1/DTD/svg11.dtd" >
<svg xmlns="http://www.w3.org/2000/svg" width="100%" height="100%">
<metadata>
Created by FontXChange 20110222 at Sat Mar 15 23:48:26 2014
 By NC
</metadata>
<defs>
<font id="Sploit5-Grotesque5" horiz-adv-x="446" >
  <font-face 
    font-family="Sploit5"
    font-weight="400"
    font-stretch="normal"
    units-per-em="1000"
    panose-1="2 0 5 3 0 0 0 0 0 0"
    ascent="800"
    descent="-200"
    x-height="620"
    cap-height="800"
    bbox="-36.0966 -249 873 918"
    underline-thickness="20"
    underline-position="-133"
    stemh="150.686"
    stemv="194.126"
    unicode-range="U+0020-FB02"
  />
    <missing-glyph />
    <glyph glyph-name="Eth" unicode="&#xd0;" 
d="M202 603c-120 0 -167 -84 -167 -188s64 -182 167 -182c113 0 166 78 166 182s-57 188 -166 188z" />
    <glyph glyph-name="eth" unicode="&#xf0;" 
d="M202 603c-120 0 -167 -84 -167 -188s64 -182 167 -182c113 0 166 78 166 182s-57 188 -166 188z" />
    <glyph glyph-name="Lslash" unicode="&#x141;" 
d="M202 603c-120 0 -167 -84 -167 -188s64 -182 167 -182c113 0 166 78 166 182s-57 188 -166 188z" />
    <glyph glyph-name="lslash" unicode="&#x142;" 
d="M202 603c-120 0 -167 -84 -167 -188s64 -182 167 -182c113 0 166 78 166 182s-57 188 -166 188z" />
    <glyph glyph-name="Scaron" unicode="&#x160;" 
d="M202 603c-120 0 -167 -84 -167 -188s64 -182 167 -182c113 0 166 78 166 182s-57 188 -166 188z" />
    <glyph glyph-name="scaron" unicode="&#x161;" 
d="M202 603c-120 0 -167 -84 -167 -188s64 -182 167 -182c113 0 166 78 166 182s-57 188 -166 188z" />
    <glyph glyph-name="Yacute" unicode="&#xdd;" 
d="M202 603c-120 0 -167 -84 -167 -188s64 -182 167 -182c113 0 166 78 166 182s-57 188 -166 188z" />
    <glyph glyph-name="yacute" unicode="&#xfd;" 
d="M202 603c-120 0 -167 -84 -167 -188s64 -182 167 -182c113 0 166 78 166 182s-57 188 -166 188z" />
    <glyph glyph-name="HT" 
d="M202 603c-120 0 -167 -84 -167 -188s64 -182 167 -182c113 0 166 78 166 182s-57 188 -166 188z" />
    <glyph glyph-name="LF" 
d="M202 603c-120 0 -167 -84 -167 -188s64 -182 167 -182c113 0 166 78 166 182s-57 188 -166 188z" />
    <glyph glyph-name="Thorn" unicode="&#xde;" 
d="M202 603c-120 0 -167 -84 -167 -188s64 -182 167 -182c113 0 166 78 166 182s-57 188 -166 188z" />
    <glyph glyph-name="thorn" unicode="&#xfe;" 
d="M202 603c-120 0 -167 -84 -167 -188s64 -182 167 -182c113 0 166 78 166 182s-57 188 -166 188z" />
    <glyph glyph-name="CR" 
d="M202 603c-120 0 -167 -84 -167 -188s64 -182 167 -182c113 0 166 78 166 182s-57 188 -166 188z" />
    <glyph glyph-name="Zcaron" unicode="&#x17d;" 
d="M202 603c-120 0 -167 -84 -167 -188s64 -182 167 -182c113 0 166 78 166 182s-57 188 -166 188z" />
    <glyph glyph-name="zcaron" unicode="&#x17e;" 
d="M202 603c-120 0 -167 -84 -167 -188s64 -182 167 -182c113 0 166 78 166 182s-57 188 -166 188z" />
    <glyph glyph-name="DLE" 
d="M202 603c-120 0 -167 -84 -167 -188s64 -182 167 -182c113 0 166 78 166 182s-57 188 -166 188z" />
    <glyph glyph-name="DC1" 
d="M202 603c-120 0 -167 -84 -167 -188s64 -182 167 -182c113 0 166 78 166 182s-57 188 -166 188z" />
    <glyph glyph-name="DC2" 
d="M202 603c-120 0 -167 -84 -167 -188s64 -182 167 -182c113 0 166 78 166 182s-57 188 -166 188z" />
    <glyph glyph-name="DC3" 
d="M202 603c-120 0 -167 -84 -167 -188s64 -182 167 -182c113 0 166 78 166 182s-57 188 -166 188z" />
    <glyph glyph-name="DC4" 
d="M202 603c-120 0 -167 -84 -167 -188s64 -182 167 -182c113 0 166 78 166 182s-57 188 -166 188z" />
    <glyph glyph-name="onehalf" unicode="&#xbd;" 
d="M202 603c-120 0 -167 -84 -167 -188s64 -182 167 -182c113 0 166 78 166 182s-57 188 -166 188z" />
    <glyph glyph-name="onequarter" unicode="&#xbc;" 
d="M202 603c-120 0 -167 -84 -167 -188s64 -182 167 -182c113 0 166 78 166 182s-57 188 -166 188z" />
    <glyph glyph-name="onesuperior" unicode="&#xb9;" 
d="M202 603c-120 0 -167 -84 -167 -188s64 -182 167 -182c113 0 166 78 166 182s-57 188 -166 188z" />
    <glyph glyph-name="threequarters" unicode="&#xbe;" 
d="M202 603c-120 0 -167 -84 -167 -188s64 -182 167 -182c113 0 166 78 166 182s-57 188 -166 188z" />
    <glyph glyph-name="threesuperior" unicode="&#xb3;" 
d="M202 603c-120 0 -167 -84 -167 -188s64 -182 167 -182c113 0 166 78 166 182s-57 188 -166 188z" />
    <glyph glyph-name="twosuperior" unicode="&#xb2;" 
d="M202 603c-120 0 -167 -84 -167 -188s64 -182 167 -182c113 0 166 78 166 182s-57 188 -166 188z" />
    <glyph glyph-name="brokenbar" unicode="&#xa6;" horiz-adv-x="197" 
d="M127 692c0 0 1 -14 0 -334c0 -180 -1 -227 -1 -227s0 -47 -11 -42c-52 -1 -66 -1 -66 -1s-14 0 -14 44c0 499 1 561 1 561v0s0 46 11 44c52 1 67 1 67 1s14 0 13 -46v0z" />
    <glyph glyph-name="minus" unicode="&#x2212;" 
d="M202 603c-120 0 -167 -84 -167 -188s64 -182 167 -182c113 0 166 78 166 182s-57 188 -166 188z" />
    <glyph glyph-name="multiply" unicode="&#xd7;" 
d="M202 603c-120 0 -167 -84 -167 -188s64 -182 167 -182c113 0 166 78 166 182s-57 188 -166 188z" />
    <glyph glyph-name="RS" 
d="M202 603c-120 0 -167 -84 -167 -188s64 -182 167 -182c113 0 166 78 166 182s-57 188 -166 188z" />
    <glyph glyph-name="US" 
d="M202 603c-120 0 -167 -84 -167 -188s64 -182 167 -182c113 0 166 78 166 182s-57 188 -166 188z" />
    <glyph glyph-name="space" unicode=" " horiz-adv-x="300" 
 />
    <glyph glyph-name="exclam" unicode="!" horiz-adv-x="308" 
d="M227 745v0s0 -17 -11 -154c-16 -222 -22 -254 -22 -331c0 0 -3 -59 -23 -53c-52 -1 -82 -1 -82 -1s-31 0 -29 55c-30 408 -24 485 -24 485h-1s0 59 23 56c110 1 141 1 141 1s30 0 28 -58v0zM191 -4c0 0 -3 -1 -76 0c-41 1 -52 2 -52 2s-10 0 -10 18c1 85 0 109 0 109
s0 23 10 22c114 2 128 -3 128 -3v1s10 0 10 -18c0 -85 1 -109 1 -109s0 -23 -11 -22v0z" />
    <glyph glyph-name="quotedbl" unicode="&#x22;" horiz-adv-x="450" 
d="M130 585v0l43 194c4 14 -3 17 -17 17h-112c-12 0 -16 -4 -13 -21l36 -196c3 -14 9 -17 18 -17h27c12 0 14 6 18 23zM329 585l43 194c3 14 -3 17 -18 17h-111c-13 0 -16 -4 -13 -21l36 -196c2 -14 9 -17 17 -17h28c12 0 13 6 18 23z" />
    <glyph glyph-name="numbersign" unicode="#" horiz-adv-x="833" 
d="M424 736v0s-3 -17 -87 -407c-47 -219 -60 -276 -60 -276s-12 -57 -29 -51c-85 -1 -109 -1 -109 -1s-22 0 -10 53c128 608 147 683 147 683v0s12 57 29 54c85 1 109 1 109 1s23 0 10 -56v0zM683 736v0s-2 -17 -86 -407c-47 -219 -61 -276 -61 -276s-12 -57 -28 -51
c-86 -1 -109 -1 -109 -1s-22 0 -11 53c129 608 148 683 148 683h-1s12 57 29 54c86 1 109 1 109 1s24 0 10 -56v0zM764 458v0s-18 -1 -408 0c-218 0 -275 1 -275 1s-57 0 -49 13c13 64 17 82 17 82s4 16 56 16c609 1 683 -1 683 -1v0s57 0 51 -13c-12 -64 -16 -82 -16 -82
s-4 -17 -60 -16h1zM719 249h-407c-219 0 -276 1 -276 1s-57 0 -48 14c13 63 16 81 16 81s4 16 57 17c609 0 683 -2 683 -2v0s57 0 51 -13c-13 -64 -17 -82 -17 -82s-3 -17 -59 -16v0z" />
    <glyph glyph-name="dollar" unicode="$" horiz-adv-x="605" 
d="M525 262v0c0 166 -124 218 -224 257v168c64 -15 99 -71 126 -84c5 -3 11 -5 13 2l16 139c2 18 -9 23 -9 23c-21 12 -78 47 -146 54v26v0c1 71 -10 71 -10 71s-10 0 -48 -1c-8 4 -8 -69 -8 -69h1c-1 -6 -1 -16 -1 -29c-139 -17 -192 -111 -192 -209
c0 -131 102 -180 191 -222v-204c-74 10 -138 75 -165 103c0 0 -18 18 -16 -6l-18 -144c0 -38 6 -43 6 -43c35 -31 86 -87 193 -95c0 0 1 -15 1 -24c-1 -68 9 -173 9 -173h48c8 -7 8 172 8 172v26c124 14 225 92 225 262zM174 614v0c0 36 23 61 61 71c-1 -41 -1 -89 -1 -138
c-35 17 -60 37 -60 67zM301 189v138v28c38 -22 65 -48 65 -86c0 -43 -29 -68 -65 -80z" />
    <glyph glyph-name="percent" unicode="%" horiz-adv-x="774" 
d="M513 726v0s-9 -19 -240 -437c-94 -171 -129 -230 -129 -230s-34 -59 -58 -60c-43 -2 -65 9 -65 9s-22 13 12 68c361 598 410 673 410 673v1s30 56 59 49c2 6 24 -6 24 -6s22 -13 -13 -68v1zM143 802v0c-81 4 -117 -78 -122 -181c-4 -104 35 -183 104 -187
c77 -3 117 72 122 176c4 103 -30 189 -104 192zM131 537v0c-23 7 -30 43 -28 86s15 78 36 77c20 -1 30 -37 28 -80s-13 -90 -36 -83zM451 359v0c-80 3 -115 -79 -119 -183c-4 -103 36 -182 106 -185c77 -3 115 73 119 177c4 103 -31 189 -106 191zM442 94
c-23 7 -30 43 -29 86c2 43 15 78 35 77c21 -1 31 -36 29 -80c-2 -43 -12 -89 -35 -83z" />
    <glyph glyph-name="ampersand" unicode="&#x26;" horiz-adv-x="923" 
d="M316 799c-83 0 -206 -44 -206 -174c0 -129 108 -199 240 -292c116 -82 186 -191 269 -301c21 -29 44 -29 44 -29h155c22 0 25 27 25 27c2 27 -318 360 -519 464c-72 37 -74 90 -74 110c0 36 25 66 68 66c14 0 63 -15 63 -73c0 -125 -309 -128 -342 -330
c-25 -149 71 -288 283 -288c213 0 371 184 417 625c0 24 -17 24 -17 24h-140c-15 -2 -15 -20 -15 -20c0 -17 -28 -465 -237 -465c-52 0 -115 44 -115 105c0 54 21 99 117 147c145 72 187 151 187 240c0 128 -119 164 -203 164z" />
    <glyph glyph-name="quotesingle" unicode="'" horiz-adv-x="316" 
d="M151 588l43 194c3 14 -3 17 -17 17h-112c-12 0 -16 -3 -13 -21l36 -196c2 -14 9 -16 18 -16h27c12 0 13 6 18 22z" />
    <glyph glyph-name="parenleft" unicode="(" horiz-adv-x="415" 
d="M283 -13c-27 60 -65 222 -65 439c0 213 40 352 63 400c5 12 2 17 -13 17h-55c-17 0 -31 -8 -46 -33c-33 -54 -93 -176 -96 -379c-4 -192 46 -377 117 -452c7 -8 15 -18 40 -18h51c14 0 16 0 4 26z" />
    <glyph glyph-name="parenright" unicode=")" horiz-adv-x="309" 
d="M31 -13c27 60 65 221 65 439c0 213 -40 352 -62 400c-6 12 -3 17 12 17h55c17 0 31 -8 46 -33c33 -54 93 -176 96 -379c4 -192 -45 -377 -117 -452c-7 -8 -14 -18 -40 -18h-51c-13 0 -16 0 -4 26z" />
    <glyph glyph-name="asterisk" unicode="*" horiz-adv-x="493" 
d="M427 694l-37 49c-4 6 -7 6 -18 -5l-109 -102l21 147c2 12 -2 14 -10 14h-61c-7 0 -9 -2 -7 -17l16 -141l-108 104c-9 8 -13 6 -18 0l-35 -50c-4 -5 -3 -9 10 -16l141 -78l-137 -74c-10 -6 -10 -10 -6 -16l37 -49c4 -6 8 -6 19 4l96 91l-20 -141c-2 -12 2 -14 9 -14h61
c7 0 9 3 8 18l-17 141l103 -98c9 -9 13 -7 18 -1l35 50c4 5 3 9 -10 16l-132 73l145 79c11 6 10 10 6 16z" />
    <glyph glyph-name="plus" unicode="+" horiz-adv-x="641" 
d="M212 186v0s-1 11 0 276c0 149 2 188 2 188s0 38 17 35h109s22 0 22 -36c1 -413 -2 -464 -2 -464h1s0 -39 -18 -37h-109s-24 0 -22 38v0zM72 488c0 0 11 1 271 0c146 -1 183 -2 183 -2s38 0 35 -15v-96s0 -19 -35 -19c-405 -1 -455 2 -455 2v-1s-37 0 -36 16v96
s0 20 37 19v0z" />
    <glyph glyph-name="comma" unicode="," horiz-adv-x="274" 
d="M47 9c7 -4 16 -5 18 -16c2 -14 -9 -23 -14 -27c-12 -14 -17 -30 -16 -42c0 0 0 -32 2 -39c6 -24 33 -9 33 -9c51 27 108 78 118 111c0 0 15 54 -1 110c-4 17 -14 17 -14 17h4s-4 2 -128 2c-10 2 -10 -22 -10 -22c0 -8 0 -35 1 -66c0 -12 3 -16 7 -19z" />
    <glyph glyph-name="hyphen" unicode="-" horiz-adv-x="603" 
d="M502 409c0 0 -11 -1 -260 0c-139 0 -176 2 -176 2s-36 0 -32 17c-1 86 -1 110 -1 110s0 22 34 22c388 0 436 -3 436 -3v1s36 0 34 -18v-109s0 -24 -35 -22v0z" />
    <glyph glyph-name="period" unicode="." horiz-adv-x="233" 
d="M143 -2c0 0 -3 -1 -77 0c-41 1 -51 2 -51 2s-10 0 -10 18c1 85 0 109 0 109s0 23 10 22c114 2 128 -2 128 -2v0s10 0 10 -18v-109s0 -23 -10 -22v0z" />
    <glyph glyph-name="slash" unicode="/" horiz-adv-x="521" 
d="M494 723c0 0 -8 -18 -200 -431c-78 -169 -108 -228 -108 -228s-28 -60 -50 -61c-102 -6 -124 5 -124 5s-21 10 7 65c304 593 346 668 346 668v1s25 55 53 51c62 6 83 -5 83 -5s22 -10 -7 -65v0z" />
    <glyph glyph-name="zero" unicode="0" horiz-adv-x="613" 
d="M301 818v0c-181 4 -257 -183 -263 -416c-5 -233 88 -410 244 -413c173 -4 258 168 263 401s-77 424 -244 428zM290 205c-63 17 -85 115 -82 235c3 119 36 216 93 214c56 -1 85 -99 83 -218c-3 -120 -29 -249 -94 -231z" />
    <glyph glyph-name="one" unicode="1" horiz-adv-x="318" 
d="M261 783c-25 0 -80 0 -100 -1c-7 3 -15 0 -25 -11l-114 -133c-7 -9 6 -25 6 -25s15 -19 45 -47c16 -21 32 -7 32 -7c6 6 14 13 21 20c0 0 -7 -196 -18 -505c-1 -51 28 -51 28 -51h136c21 -5 21 50 21 50s-3 54 -5 265c-4 375 0 391 0 391v0c2 54 -27 54 -27 54z" />
    <glyph glyph-name="two" unicode="2" horiz-adv-x="520" 
d="M29 199c-5 -8 -7 -18 -7 -18c-1 -3 -1 -6 -1 -10c0 0 1 -27 -1 -125c0 -21 27 -21 27 -21v1s32 -7 420 -6c27 0 27 25 27 25v130c3 20 -26 21 -26 21s-28 0 -217 -1c0 0 -9 5 -3 13c104 128 245 279 245 400c0 70 -32 191 -212 191c0 0 -266 -2 -234 -217
c0 0 -5 -40 6 -45c89 -18 119 -18 119 -18s19 0 18 25c-4 102 86 102 86 102c23 0 50 -11 50 -52c0 -93 -223 -241 -297 -395z" />
    <glyph glyph-name="three" unicode="3" horiz-adv-x="544" 
d="M300 636l-166 -99c-11 -2 -11 -27 -11 -27s0 -24 1 -70c5 -13 18 -13 18 -13c14 0 93 -10 136 -39c0 0 39 -28 40 -94c1 -64 -51 -109 -105 -107c-73 4 -132 62 -160 91c0 0 -17 18 -15 -6l-18 -137c0 -37 6 -42 6 -42c36 -32 89 -93 209 -93c136 0 254 100 254 256
c0 0 0 218 -162 244c94 51 102 56 102 56s9 7 9 30v142c0 52 -27 51 -27 51h-11c-1 1 -2 1 -4 1c0 0 -38 1 -184 2c-107 1 -119 0 -119 0h1c-38 2 -38 -26 -38 -26s0 -27 1 -99c-2 -20 36 -20 36 -20v1c18 -4 129 2 199 3c16 6 8 -5 8 -5z" />
    <glyph glyph-name="four" unicode="4" horiz-adv-x="537" 
d="M512 419v0c1 17 -37 17 -37 17v-1c-8 1 -18 1 -31 2c-2 76 -4 169 -4 179v-1c-6 109 -6 143 -6 143c-2 35 -123 24 -150 24c0 0 -28 0 -32 -17c-127 -194 -212 -326 -212 -326c-41 -64 -36 -85 -34 -104c0 0 4 -37 32 -37c0 0 41 -6 204 -2h29l-7 -224
c-2 -51 27 -51 27 -51s30 0 136 1c22 -6 22 49 22 49c0 40 -1 162 -2 226h27v0c38 -1 38 21 38 21v101zM216 436c-17 -4 -6 21 -6 21s9 23 63 133c6 15 6 -16 6 -16l-4 -137s-34 0 -59 -1z" />
    <glyph glyph-name="five" unicode="5" horiz-adv-x="514" 
d="M211 561c278 3 278 -305 278 -305c0 -156 -118 -256 -254 -256c-120 0 -173 61 -209 93c0 0 -6 5 -6 42l18 137c-2 24 15 6 15 6c28 -29 87 -87 160 -91c54 -2 107 43 105 107c13 82 -52 126 -52 126c-43 28 -152 31 -165 31c0 0 -14 0 -19 13v47l-1 77v143
c0 51 28 51 28 51h10h4c0 0 38 1 184 3c60 0 71 -1 71 -1v1c37 1 37 -26 37 -26v-113c2 -20 -36 -20 -36 -20v0c-19 -3 -89 15 -160 16c-9 6 -7 -5 -7 -5z" />
    <glyph glyph-name="six" unicode="6" horiz-adv-x="521" 
d="M305 501v0c-60 0 -94 -17 -121 -32c-2 -1 -3 -6 -3 -8c0 11 4 157 65 185c33 15 73 6 88 -55c3 -13 16 -11 16 -11s13 2 116 42c15 4 6 32 6 32c-9 25 -51 160 -234 145c-209 -17 -218 -286 -218 -366c0 -110 -1 -422 246 -422c189 0 230 119 230 254
c0 194 -106 236 -191 236zM291 169c-95 0 -93 78 -100 163c29 31 92 31 92 31c69 0 83 -30 83 -83c0 -80 -36 -111 -75 -111z" />
    <glyph glyph-name="seven" unicode="7" horiz-adv-x="480" 
d="M445 643c-119 -297 -164 -596 -164 -600c-13 -20 -36 -19 -36 -19h-164c-30 0 -33 11 -19 47c13 34 121 391 219 549c0 0 -33 -3 -109 -10c-95 -10 -125 -7 -125 -7s-30 1 -27 23c2 106 2 135 2 135s1 28 29 27c337 -5 376 -9 376 -9v0s29 0 28 -22c-2 -58 -2 -87 -2 -87
c0 -11 -8 -27 -8 -27z" />
    <glyph glyph-name="eight" unicode="8" horiz-adv-x="545" 
d="M417 478v0c67 53 60 151 60 151c-7 93 -60 181 -192 181c-150 0 -215 -74 -215 -181c0 -75 24 -115 67 -151c-117 -36 -117 -225 -117 -225c0 -227 147 -273 270 -273c101 0 230 58 230 261c0 95 -36 201 -103 237zM272 680v0c44 -2 69 -37 67 -80
c-3 -43 -28 -94 -75 -86c-45 9 -68 41 -65 96c2 43 29 72 73 70zM267 139c-84 0 -84 135 -84 135c0 84 53 121 80 120c26 0 92 -19 92 -155c0 0 0 -117 -88 -100z" />
    <glyph glyph-name="nine" unicode="9" horiz-adv-x="499" 
d="M211 306v0c59 -2 93 14 119 28c2 2 3 7 3 8c-1 -11 2 -159 -68 -169c-34 -4 -70 14 -84 44c-2 13 -16 11 -16 11s-13 -2 -114 -39c-15 -3 -6 -31 -6 -31c7 -26 44 -163 223 -152c177 11 203 297 205 376c3 110 12 406 -210 413c-160 5 -231 -107 -242 -246
c-15 -193 108 -241 190 -243zM242 660c96 -2 89 -93 94 -178c-32 -41 -94 -39 -94 -39c-67 2 -82 75 -76 124c6 54 31 95 76 93z" />
    <glyph glyph-name="colon" unicode=":" horiz-adv-x="193" 
d="M158 106v0s-4 -1 -77 0c-41 1 -51 2 -51 2s-10 0 -10 18c1 85 0 109 0 109s0 23 10 22c114 2 128 -2 128 -2v0s10 0 10 -18v-109s0 -23 -10 -22v0zM158 527c0 0 -4 -1 -77 0c-41 1 -51 2 -51 2s-10 0 -10 18c1 85 0 109 0 109s0 23 10 22c114 2 128 -2 128 -2v0
s10 0 10 -18v-109s0 -23 -10 -22v0z" />
    <glyph glyph-name="semicolon" unicode=";" horiz-adv-x="297" 
d="M230 518v0s-4 -1 -77 0c-41 0 -51 2 -51 2s-10 0 -10 17c1 86 0 109 0 109s0 24 10 22c114 3 128 -2 128 -2v1s10 0 10 -18v-109s0 -24 -10 -22v0zM99 114c7 -4 17 -5 19 -17c2 -13 -10 -22 -15 -27c-11 -13 -16 -30 -15 -41c0 0 0 -32 2 -39c6 -24 33 -10 33 -10
c51 28 107 79 117 112c0 0 15 54 0 109c-5 18 -15 18 -15 18l5 -1s-14 5 -128 3c-10 1 -10 -22 -10 -22v-67c0 -11 3 -16 7 -18z" />
    <glyph glyph-name="less" unicode="&#x3c;" horiz-adv-x="449" 
d="M60 380c0 0 28 -35 147 -151c107 -104 132 -133 163 -158c0 0 27 -22 29 -6c-5 105 -5 123 -5 123s1 28 -16 41c-136 132 -212 208 -212 208s53 49 117 98c63 48 91 74 91 74s24 27 19 34c8 92 5 110 5 110s-3 18 -32 -6c-269 -220 -261 -212 -304 -255
c-8 -9 -11 -30 -11 -30s-3 -21 -1 -43c-1 -23 10 -39 10 -39z" />
    <glyph glyph-name="equal" unicode="=" horiz-adv-x="641" 
d="M72 578v0s11 2 271 1c146 -1 183 -2 183 -2s38 0 35 -16v-95s0 -19 -35 -19c-405 -1 -455 2 -455 2v-1s-37 0 -36 16v95s0 21 37 20v-1zM72 347c0 0 11 1 271 0c146 -1 183 -2 183 -2s38 0 35 -15v-96s0 -19 -35 -19c-405 -1 -455 2 -455 2v0s-37 0 -36 15v96s0 20 37 19
v0z" />
    <glyph glyph-name="greater" unicode="&#x3e;" horiz-adv-x="502" 
d="M442 380c0 0 -28 -35 -147 -151c-107 -104 -132 -133 -163 -158c0 0 -27 -22 -29 -6c5 105 5 123 5 123s-1 28 16 41c136 132 212 208 212 208s-53 49 -117 98c-63 48 -91 74 -91 74s-24 27 -19 34c-8 92 -5 110 -5 110s3 18 32 -6c269 -220 261 -212 304 -255
c8 -9 11 -30 11 -30s3 -21 1 -43c1 -23 -10 -39 -10 -39z" />
    <glyph glyph-name="question" unicode="?" horiz-adv-x="590" 
d="M251 204c-5 -3 -11 -3 -17 -3h-72c-16 0 -29 5 -29 26c0 123 54 178 107 219c48 37 104 66 104 135c0 54 -31 85 -90 85c-70 0 -131 -30 -188 -65c-17 -11 -31 -3 -31 15v131c0 21 18 34 22 35c10 5 28 18 58 29s72 20 131 20c184 0 273 -111 273 -233
c0 -125 -66 -178 -131 -220c-59 -39 -126 -71 -126 -153c-2 -11 -6 -17 -11 -21zM263 -13h1s-3 -2 -78 -1c-37 1 -50 2 -52 2s-14 1 -14 23c1 84 0 107 0 107s2 28 15 27c115 3 129 -2 129 -2v-1c6 -1 14 -6 14 -21c-1 -85 0 -108 0 -108s-2 -22 -15 -26z" />
    <glyph glyph-name="at" unicode="@" horiz-adv-x="699" 
d="M579 127v0c-11 11 -8 11 -23 2c-31 -20 -108 -68 -226 -68c-101 0 -230 76 -230 264c0 139 119 236 265 236c133 0 223 -70 223 -199c0 -130 -133 -188 -133 -111c14 69 45 158 59 196c5 15 3 19 -13 19l-41 1c-10 0 -15 1 -20 -14l-12 -36c-18 62 -90 62 -90 62
c-82 0 -129 -75 -150 -131c-22 -55 -19 -162 73 -187s135 59 137 69c-3 -72 70 -72 70 -72c85 0 199 79 199 207c0 139 -112 280 -296 280c-216 0 -352 -149 -366 -295c-21 -202 117 -361 326 -361c175 0 254 69 279 89c7 5 -2 7 -7 19zM395 313c-22 -66 -52 -98 -96 -89
c-42 8 -44 65 -24 114c21 50 53 82 90 76c32 -5 52 -34 30 -101z" />
    <glyph glyph-name="A" unicode="A" horiz-adv-x="555" 
d="M545 28c0 3 -37 152 -41 167l-88 364c-14 54 -33 112 -41 168c-3 14 -13 75 -29 71c-10 4 -66 2 -81 2c-27 0 -54 0 -81 -2c-16 4 -26 -57 -28 -71c-11 -73 -37 -149 -54 -221l-116 -478l-1 -6c0 -29 79 -20 93 -20c33 0 69 -2 102 2c31 3 41 166 43 187
c29 -1 57 -2 86 -2c1 -15 4 -189 38 -189c56 0 123 -5 178 4c17 2 20 7 20 24zM240 361c9 75 20 150 29 225c7 -75 17 -150 25 -225h-54z" />
    <glyph glyph-name="B" unicode="B" horiz-adv-x="510" 
d="M374 746c-83 86 -268 59 -324 54c0 0 -12 -1 -12 -19l-3 -760c0 -12 3 -15 6 -16c3 -3 6 -5 11 -5c65 -1 282 -16 370 90c89 108 73 276 -26 366c57 85 53 211 -22 290zM206 669v0c25 2 70 -15 74 -84s-29 -98 -65 -109c-16 -5 -12 2 -12 11l-7 168c0 13 10 14 10 14z
M214 151c-16 -1 -16 2 -16 12l-1 176c1 8 15 16 15 16c26 15 101 27 103 -95c1 -84 -51 -104 -101 -109z" />
    <glyph glyph-name="C" unicode="C" horiz-adv-x="526" 
d="M492 627c-42 110 -115 181 -220 181c-186 0 -260 -194 -260 -433c0 -250 88 -407 260 -407c126 0 204 77 239 213c0 0 3 12 -10 17l-152 60s-14 5 -18 -9c-12 -40 -30 -76 -58 -69c-52 14 -76 110 -76 210s29 198 77 198c27 0 37 -26 48 -53c0 0 6 -17 20 -10l140 73
c18 9 10 29 10 29z" />
    <glyph glyph-name="D" unicode="D" horiz-adv-x="529" 
d="M214 -9v0c191 0 280 157 280 403c0 251 -96 412 -280 420h-14h-140c-23 3 -23 -57 -23 -57h1s-7 -65 -3 -711c0 -56 28 -56 28 -56s30 2 140 1h11zM224 189c0 0 1 61 1 155c1 160 0 277 0 277c45 -10 85 -51 85 -204c0 -150 -31 -228 -86 -228z" />
    <glyph glyph-name="E" unicode="E" horiz-adv-x="447" 
d="M419 160c2 21 -37 21 -37 21v0c-22 4 -96 5 -168 5c0 0 1 73 2 147v1h13h97v0c34 -2 34 24 34 24v119c2 19 -33 19 -33 19v0c-16 3 -62 4 -112 4v120h34h118v0c38 -2 38 26 38 26s0 28 -1 130c2 21 -37 21 -37 21v0c-33 7 -205 3 -274 3h-48c-23 3 -23 -55 -23 -55v0
s-7 -63 -3 -689c0 -54 29 -54 29 -54c3 0 7 1 11 0h4c0 0 40 -1 193 -2c113 -1 125 0 125 0v0c39 -2 39 27 39 27s0 29 -1 133z" />
    <glyph glyph-name="F" unicode="F" horiz-adv-x="493" 
d="M473 776c2 21 -37 21 -37 21v-1c-33 7 -233 4 -318 4h-57c-23 3 -23 -55 -23 -55v0s-7 -64 -3 -691c0 -54 29 -54 29 -54s31 0 143 1c23 -6 23 52 23 52s0 57 2 279v0h14c138 0 149 1 149 1v-1c34 -1 34 24 34 24v120c2 19 -34 19 -34 19v0c-18 4 -91 4 -163 4v120h34
h170v0c38 -2 38 26 38 26s0 28 -1 131z" />
    <glyph glyph-name="G" unicode="G" horiz-adv-x="566" 
d="M531 385c2 16 -17 16 -17 16s-19 1 -92 2c-129 1 -134 0 -134 0v0c-19 1 -19 -20 -19 -20s1 -22 0 -100c0 -17 18 -17 18 -17v1c3 -1 11 -2 20 -2c-11 -38 -27 -70 -52 -63c-50 13 -72 107 -72 206c0 98 28 199 72 194c7 0 25 -2 35 -29c0 0 6 -17 19 -10l131 72
c19 10 9 28 9 28c-55 105 -98 156 -195 156c-174 0 -244 -191 -244 -426c0 -152 56 -414 218 -414c38 0 75 10 108 27v-4c-2 -22 22 -22 22 -22s24 0 111 1c18 -3 18 20 18 20s1 23 2 110c1 119 -1 153 -1 153s16 0 25 1c18 -2 18 20 18 20v100z" />
    <glyph glyph-name="H" unicode="H" horiz-adv-x="605" 
d="M355 508c1 115 2 213 6 237h-1s0 57 23 54c112 1 143 1 143 1s31 0 29 -57l-1 1s2 -18 1 -412c-1 -222 -3 -279 -3 -279s0 -58 -23 -52c-112 -1 -143 -1 -143 -1s-29 0 -28 54c0 110 -2 242 -2 242c0 16 -2 21 -14 21c0 0 -51 -1 -97 -1c-5 0 -21 1 -21 1
c-8 -1 -17 4 -17 -20c-1 -64 -2 -201 -2 -244c0 0 0 -58 -23 -52c-112 -1 -143 -1 -143 -1s-29 0 -29 54c-4 627 3 691 3 691h-1s0 57 24 54c112 1 142 1 142 1s31 0 29 -57v1v-238c0 -7 -1 -13 10 -12c42 0 83 1 126 0c14 0 12 5 12 14z" />
    <glyph glyph-name="I" unicode="I" horiz-adv-x="257" 
d="M232 744c0 0 2 -18 0 -412c-1 -222 -2 -279 -2 -279s0 -58 -23 -52c-112 -1 -143 -1 -143 -1s-29 0 -29 54c-1 615 3 691 3 691h-1s0 57 24 54c111 1 142 1 142 1s31 0 29 -57v1z" />
    <glyph glyph-name="J" unicode="J" horiz-adv-x="584" 
d="M227 279c0 -48 11 -94 53 -95c0 0 60 -1 58 104c-7 383 1 460 1 460v0s0 55 22 52c108 -1 138 -1 138 -1s29 0 27 -55h-1s2 -16 4 -188c2 -212 0 -268 0 -268c0 -52 0 -291 -255 -288c-216 3 -232 204 -239 274c-3 29 25 29 25 29l142 -2c26 0 25 -22 25 -22z" />
    <glyph glyph-name="K" unicode="K" horiz-adv-x="556" 
d="M354 448c137 313 140 327 140 327c2 13 -3 16 -11 18c-8 3 -128 0 -147 0c0 0 -18 0 -24 -10l-90 -263c-11 -18 -12 1 -12 10c-2 193 -3 235 -5 258c0 0 -1 13 -9 11c0 0 -58 10 -146 1c0 0 -12 -1 -12 -19l-3 -762s-1 -20 10 -17c148 1 166 -1 166 -1s14 -1 11 15
l-11 285v12s6 13 11 -8c98 -239 106 -273 106 -273s9 -38 23 -32c145 1 176 1 176 1s24 0 10 29l-180 398s-6 9 -3 20z" />
    <glyph glyph-name="L" unicode="L" horiz-adv-x="541" 
d="M254 184c108 1 208 1 230 -4v0s32 0 31 -23c-1 -98 1 -128 1 -128s0 -31 -33 -29v0s-10 -1 -194 0c-128 1 -161 3 -161 3h-3c-25 0 -49 -1 -61 -1c0 0 -31 0 -29 57v0s-1 17 0 410c1 221 3 279 3 279s0 57 23 51c111 1 142 1 142 1s28 0 29 -54c1 -337 1 -543 1 -543
c-6 -19 21 -19 21 -19z" />
    <glyph glyph-name="M" unicode="M" horiz-adv-x="638" 
d="M35 752c4 -610 8 -698 8 -698c0 -54 29 -54 29 -54s30 0 142 1c23 -6 23 52 23 52s0 57 -3 281c-1 26 7 2 7 2l48 -176c6 -19 15 -21 15 -21s11 -4 47 0c9 -2 17 30 17 30s9 39 32 157c8 41 12 2 12 2l4 -278c1 -48 25 -48 25 -48h135c27 -10 27 60 27 60
c0 69 -8 690 -14 703c-5 14 2 35 -38 35h-138c-18 4 -25 -25 -25 -25s-8 -29 -68 -177c-7 -33 -17 0 -17 0s-10 33 -69 183c-12 19 -35 19 -35 19h-135c-29 6 -29 -48 -29 -48z" />
    <glyph glyph-name="N" unicode="N" horiz-adv-x="612" 
d="M545 800c0 0 -31 0 -142 -2c-23 3 -23 -54 -23 -54h1c-4 -29 9 -232 10 -379c-42 103 -140 375 -145 387v0c-18 48 -38 45 -38 45c-3 0 -5 1 -8 1c0 0 -31 0 -142 -2c-23 3 -23 -54 -23 -54h1s-7 -63 1 -688c0 -54 29 -54 29 -54s30 0 142 2c23 -6 23 51 23 51
s1 58 0 279c0 32 -1 70 -1 70s67 -165 139 -342c6 -17 16 -30 16 -30c3 -14 10 -28 26 -28c0 0 31 0 142 2c23 -6 23 52 23 52s1 57 1 278c-1 393 -3 410 -3 410v0c2 56 -29 56 -29 56z" />
    <glyph glyph-name="O" unicode="O" horiz-adv-x="573" 
d="M282 820v0c-184 0 -257 -191 -257 -427s98 -413 257 -413c175 0 256 177 256 413s-87 427 -256 427zM283 216c-53 13 -73 93 -73 192c0 98 26 178 73 178c46 0 72 -80 72 -178c0 -99 -18 -206 -72 -192z" />
    <glyph glyph-name="P" unicode="P" horiz-adv-x="518" 
d="M244 329v0s76 -3 162 58c111 79 117 266 16 358c-95 87 -306 60 -370 55c0 0 -14 -1 -14 -19l-3 -763s-1 -20 12 -17c155 -3 176 -1 176 -1s15 1 14 43l-1 280c-2 7 8 6 8 6zM241 475c-16 -10 -14 2 -14 10l-8 170c0 12 11 13 11 13c29 2 79 -9 78 -79
c0 -60 -27 -91 -67 -114z" />
    <glyph glyph-name="Q" unicode="Q" horiz-adv-x="595" 
d="M537 176v0c-8 0 -25 1 -44 1c19 62 29 136 29 217c0 235 -88 426 -256 426c-183 0 -256 -191 -256 -426c0 -213 80 -377 213 -407c2 -1 5 -1 9 -1c7 -2 14 -3 21 -3c0 0 71 -6 282 -3c24 -2 24 29 24 29s0 31 1 144c3 23 -23 23 -23 23zM267 587c47 0 72 -80 72 -178
s-18 -205 -72 -192c-52 13 -72 94 -72 192s26 178 72 178z" />
    <glyph glyph-name="R" unicode="R" horiz-adv-x="553" 
d="M514 30v0l-153 384c93 81 102 239 14 331c-83 87 -268 60 -325 55c0 0 -12 -1 -12 -19l-3 -762s-1 -20 10 -16c148 0 166 -2 166 -2s14 -1 11 15l-11 286v11s5 13 11 -8c74 -239 83 -273 83 -273s9 -38 23 -32c145 1 176 1 176 1s24 0 10 29zM216 475
c-14 -9 -12 2 -12 11l-7 169c-1 13 10 13 10 13c25 2 69 -9 68 -78c0 -60 -24 -92 -59 -115z" />
    <glyph glyph-name="S" unicode="S" horiz-adv-x="538" 
d="M424 596c5 -2 11 -4 13 2l17 143c2 18 -9 23 -9 23c-25 13 -95 56 -176 56c-182 0 -248 -107 -248 -217c0 -236 298 -210 298 -346c0 -61 -37 -79 -96 -79c-86 0 -143 66 -174 97c0 0 -19 18 -17 -6l-19 -146c0 -39 6 -44 6 -44c40 -34 98 -99 228 -99
c148 0 255 105 255 271c0 284 -311 238 -311 357c0 47 47 66 80 66c89 0 120 -63 153 -78z" />
    <glyph glyph-name="T" unicode="T" horiz-adv-x="560" 
d="M369 332c-2 -222 -2 -279 -2 -279s0 -58 -23 -52c-112 -1 -143 -1 -143 -1s-30 0 -29 54c4 473 12 536 12 536c1 23 -17 19 -17 19s-19 -3 -104 0c-48 -3 -48 50 -48 50s1 54 0 108c-1 33 40 33 40 33s43 0 455 -2c25 0 25 -46 25 -46s0 -46 -4 -119
c2 -24 -27 -24 -27 -24s-29 1 -121 2c-14 1 -14 -17 -14 -17v-262z" />
    <glyph glyph-name="U" unicode="U" horiz-adv-x="581" 
d="M296 0c250 3 250 237 250 288c0 0 2 56 0 268c-2 172 -4 188 -4 188h1c2 55 -28 55 -28 55s-30 0 -140 1c-23 3 -24 -52 -24 -52h1s-9 -77 -1 -460c2 -105 -60 -104 -60 -104c-16 0 -30 7 -42 18c0 0 -20 30 -19 85c6 383 -1 459 -1 459v0s0 55 -23 52
c-110 0 -140 -1 -140 -1s-30 0 -28 -54v0s-1 -17 -3 -188c-2 -213 0 -268 0 -268c0 -53 -2 -298 259 -287h2z" />
    <glyph glyph-name="V" unicode="V" horiz-adv-x="604" 
d="M553 793c-119 11 -165 7 -165 7s-36 -2 -37 -49v-6c-2 -10 -37 -248 -58 -392c-15 144 -58 380 -60 391v3c-3 47 -37 49 -37 49s-46 4 -166 -3c-24 -1 -12 -57 -12 -57v0s7 -62 162 -689c13 -52 40 -47 40 -47c13 2 50 4 72 4s52 -2 65 -4c0 0 31 -6 40 47
c166 626 169 689 169 689v0s12 56 -13 57z" />
    <glyph glyph-name="W" unicode="W" horiz-adv-x="791" 
d="M612 48c148 610 144 698 144 698c2 54 -29 54 -29 54s-31 0 -149 -1c-30 12 -38 -52 -38 -52s-9 -57 -41 -251c-3 -22 -9 -2 -9 -2l-60 146c-7 18 -14 21 -14 21s-11 4 -55 0c-9 2 -17 -30 -17 -30s-10 -39 -53 -130c-8 -26 -11 -2 -11 -2l-42 251c-3 48 -35 48 -35 48
h-161c-27 10 -27 -60 -27 -60c0 -69 132 -690 138 -703c6 -14 -2 -35 38 -35h97c17 -5 30 23 30 23s13 28 62 148c8 32 18 0 18 0s9 -33 61 -152c12 -19 35 -19 35 -19h81c27 -7 37 48 37 48z" />
    <glyph glyph-name="X" unicode="X" horiz-adv-x="667" 
d="M631 32c-100 236 -191 433 -191 433c40 88 91 172 151 306c13 28 -54 29 -54 29s-65 -1 -119 -4c-32 -1 -43 -28 -43 -28c-2 -6 -18 -64 -42 -116c-23 52 -39 110 -41 116c0 0 -11 27 -43 28c-54 3 -119 4 -119 4s-67 -1 -54 -29c59 -134 111 -218 151 -306
c0 0 -91 -197 -191 -433c-7 -28 22 -32 22 -32s29 -4 166 0c18 4 32 40 32 40c9 23 13 51 77 191c65 -140 69 -168 78 -191c0 0 14 -36 32 -40c137 -4 166 0 166 0s29 4 22 32z" />
    <glyph glyph-name="Y" unicode="Y" horiz-adv-x="484" 
d="M328 395c41 87 104 242 164 376c12 28 -54 29 -54 29s-65 -1 -119 -4c-32 -1 -43 -28 -43 -28c-3 -6 -26 -105 -40 -202c-11 83 -41 196 -43 202c0 0 -11 27 -43 28c-55 3 -119 4 -119 4s-67 -1 -54 -29c59 -134 124 -292 164 -379c0 -127 1 -331 12 -360
c0 -32 33 -32 33 -32s32 1 111 0c26 0 33 47 33 47c6 46 1 207 -2 348z" />
    <glyph glyph-name="Z" unicode="Z" horiz-adv-x="513" 
d="M451 795c0 0 -29 2 -143 3c-202 3 -211 2 -211 2v0c-29 2 -29 -27 -29 -27s1 -28 -1 -132c-1 -22 28 -22 28 -22v1c14 -4 82 -6 154 -6c0 0 -73 -146 -205 -425c-4 -9 -6 -19 -6 -19c-2 -3 -2 -6 -2 -11c0 0 1 -28 -1 -132c0 -22 29 -22 29 -22v1s33 -7 366 -6
c28 0 29 27 29 27v132c3 22 -27 22 -27 22s-31 0 -148 3c-9 1 -24 0 -24 0s30 58 62 123c141 290 147 303 147 303v0c5 10 7 23 7 23c1 2 1 5 1 8c0 0 1 28 1 132c3 22 -27 22 -27 22z" />
    <glyph glyph-name="bracketleft" unicode="[" horiz-adv-x="316" 
d="M236 115c1 15 -13 15 -13 15v-1c-8 2 -37 2 -70 3c2 122 1 346 1 465h65v0c14 -1 14 19 14 19s-1 20 0 93c0 15 -14 15 -14 15v-1s-18 4 -170 2c-13 2 -13 -18 -13 -18s-1 -20 0 -93v-5s-1 -77 -1 -183v-371v0c0 -21 4 -36 4 -36c0 -3 0 -14 13 -15c0 0 14 -1 69 -1
c97 -1 102 0 102 0v0c13 -1 13 19 13 19v93z" />
    <glyph glyph-name="backslash" unicode="\" horiz-adv-x="587" 
d="M82 658c0 0 7 -17 182 -393c71 -153 97 -207 97 -207s26 -54 47 -55c92 -5 111 5 111 5s20 9 -5 59c-277 539 -315 607 -315 607v0s-23 51 -48 47c-57 5 -76 -4 -76 -4s-20 -10 7 -59v0z" />
    <glyph glyph-name="bracketright" unicode="]" horiz-adv-x="316" 
d="M35 115c-1 15 14 15 14 15v-1c7 2 37 2 69 3c-1 122 -1 346 -1 465h-64v0c-14 -1 -14 19 -14 19v93c0 15 13 15 13 15v-1s19 4 171 2c13 2 13 -18 13 -18v-93c0 -2 -1 -5 -1 -5s1 -77 1 -183c1 -355 0 -371 0 -371v0c1 -21 -4 -36 -4 -36c0 -3 0 -14 -13 -15
c0 0 -14 -1 -69 -1c-97 -1 -101 0 -101 0v0c-14 -1 -14 19 -14 19v93z" />
    <glyph glyph-name="asciicircum" unicode="^" horiz-adv-x="496" 
d="M283 602c5 -19 31 -19 31 -19h142c23 0 2 37 2 37s-22 35 -156 154c-17 14 -32 15 -32 15h-47s-14 -1 -31 -15c-135 -119 -157 -154 -157 -154s-21 -37 3 -37h136s31 0 34 21l23 58h31z" />
    <glyph glyph-name="underscore" unicode="_" horiz-adv-x="625" 
d="M580 -3c0 0 -14 -1 -328 0c-176 1 -222 2 -222 2s-46 0 -41 18c-1 85 -1 109 -1 109s0 22 43 22c490 1 550 -2 550 -2v0s46 0 43 -18c1 -85 1 -109 1 -109s0 -23 -45 -22v0z" />
    <glyph glyph-name="grave" unicode="`" horiz-adv-x="613" 
d="M487 639c0 0 -10 -2 -234 -53c-123 -28 -158 -35 -158 -35s-35 -8 -35 8c-1 42 1 63 1 63s4 23 30 26c357 126 405 132 405 132h-1s36 8 40 -14c-4 -57 -5 -87 -5 -87s-1 -37 -34 -37z" />
    <glyph glyph-name="a" unicode="a" horiz-adv-x="552" 
d="M439 629c-32 0 -64 -4 -97 -4c-5 0 -10 -2 -14 -5c-15 3 -30 6 -45 6c-84 0 -148 -30 -191 -93c-59 -87 -75 -232 -52 -347c21 -110 81 -186 200 -186c27 0 56 4 76 20c0 -2 -1 -5 0 -8c3 -13 21 -13 30 -14c24 -1 47 -1 70 -1c24 0 49 -1 72 1c14 1 20 7 25 19
c2 7 1 114 1 125c-1 153 -2 307 -4 460c0 2 0 3 -1 5c-5 26 -52 22 -70 22zM224 248c-10 49 -5 98 7 142c5 17 14 50 29 60c6 4 13 5 20 5c15 0 26 -9 33 -23c-1 -72 1 -144 1 -216c0 -18 -5 -36 -26 -36c-41 0 -58 33 -64 68z" />
    <glyph glyph-name="b" unicode="b" horiz-adv-x="592" 
d="M345 646c-20 0 -39 -3 -58 -8l-2 203c0 7 -1 14 -2 21c-2 9 -7 26 -19 26c-2 0 -4 -1 -5 -1c-43 0 -87 3 -131 4c-22 1 -37 -19 -37 -40l4 -507c-10 6 -25 16 -37 16c-13 0 -9 -22 -8 -31c7 -34 28 -78 45 -110v-190c0 -5 0 -10 1 -15c1 -7 5 -16 14 -16c3 0 5 1 7 2
c30 -1 59 -2 88 -2c20 0 53 -1 69 7c28 -10 57 -14 84 -14c228 0 259 241 222 431c-25 129 -91 224 -235 224zM328 149c-14 0 -26 6 -36 18c-2 88 -2 176 -2 264c9 20 30 32 54 32c36 0 48 -41 54 -68c12 -61 16 -127 -1 -182c-10 -32 -29 -64 -69 -64z" />
    <glyph glyph-name="c" unicode="c" horiz-adv-x="489" 
d="M329 412c-20 0 -15 41 -49 41c-21 0 -33 -22 -40 -38c-21 -50 -25 -129 -13 -187c5 -28 18 -67 54 -67c39 0 27 50 48 50c8 0 122 -42 137 -48c5 -2 9 -4 10 -9c0 -2 0 -4 -1 -6c-30 -101 -94 -167 -210 -167c-125 0 -201 77 -225 197c-8 41 -9 81 -8 121
c4 166 54 337 248 337c95 0 152 -54 187 -142c1 -2 1 -3 2 -5c1 -10 -4 -15 -11 -19c-18 -8 -116 -58 -129 -58z" />
    <glyph glyph-name="d" unicode="d" horiz-adv-x="615" 
d="M494 880c-34 0 -68 -1 -102 -3c-1 0 -2 1 -4 1c-17 0 -20 -35 -21 -47c-2 -24 -1 -49 -2 -73l-2 -128c-20 6 -40 9 -60 9c-193 0 -243 -172 -247 -337c-1 -39 0 -80 8 -120c24 -121 100 -196 224 -196c30 0 58 5 84 15c16 -10 55 -8 72 -8c28 0 56 3 85 2c2 0 4 -1 7 -1
c15 0 15 19 15 30c2 273 6 545 9 817c0 4 0 7 -1 11c-6 33 -42 28 -65 28zM250 237c-12 59 -16 198 30 232c13 10 32 13 51 13c11 0 23 -1 33 -8c-1 -37 -1 -73 -2 -110c-1 -38 -2 -77 -2 -115c0 -5 1 -50 0 -51c-5 -18 -21 -35 -42 -35c-45 0 -61 37 -68 74z" />
    <glyph glyph-name="e" unicode="e" horiz-adv-x="538" 
d="M329 207c-16 0 -18 -39 -52 -39c-43 0 -60 46 -67 81c-2 13 -3 25 -4 38h289c13 0 19 4 19 16c1 31 -5 79 -11 112c-23 120 -102 221 -234 221c-188 0 -243 -169 -244 -332c0 -31 2 -62 8 -94c24 -122 102 -228 237 -228c104 0 182 57 214 149c0 1 0 5 -1 7
c-1 8 -9 13 -17 16c-14 6 -131 53 -137 53zM214 400c7 29 22 65 58 65c34 0 48 -38 55 -65h-113z" />
    <glyph glyph-name="f" unicode="f" horiz-adv-x="517" 
d="M112 -7h200c1 93 6 346 3 439h121c20 0 69 -7 59 24c1 35 4 120 -1 149c-4 17 -9 19 -23 19c-48 0 -95 1 -143 1c4 33 17 72 54 75c10 1 25 1 25 14l-4 166c0 4 1 6 1 9c-2 11 -8 18 -19 18c-195 0 -241 -60 -255 -243c-1 -13 -2 -25 -2 -39c-13 0 -28 0 -40 -3
c-4 -2 -31 -23 -31 -28c-3 -27 -7 -114 -2 -139c4 -18 10 -22 25 -22h33c2 -93 -3 -346 -1 -440v0z" />
    <glyph glyph-name="g" unicode="g" horiz-adv-x="603" 
d="M366 619c-23 7 -45 11 -67 11c-186 0 -247 -138 -256 -301c-2 -35 -1 -72 6 -109c23 -117 106 -173 219 -173c20 0 40 3 59 7c0 -44 7 -143 -56 -143c-23 0 -42 10 -47 35c-2 14 2 27 -1 41c-3 16 -12 18 -25 20l-139 23c-16 3 -25 -21 -26 -33c-3 -19 -2 -40 1 -60
c24 -119 131 -174 239 -174c183 0 236 70 240 245c4 114 9 228 13 342c2 54 3 108 3 162c0 29 1 59 -5 88c-2 14 -10 22 -26 22c-36 1 -72 2 -108 2c-3 0 -24 0 -24 -5zM297 206c-40 0 -56 34 -62 67c-11 58 -5 112 19 160c10 20 24 35 49 35c22 0 33 -12 37 -33
c5 -22 -8 -154 -9 -183c-1 -22 -9 -46 -34 -46z" />
    <glyph glyph-name="h" unicode="h" horiz-adv-x="564" 
d="M421 624c-48 0 -93 -11 -128 -38l-2 281c0 4 1 6 0 10c-5 26 -41 27 -59 27c-36 0 -72 -1 -107 -2c-2 1 -4 1 -5 1c-17 0 -20 -35 -20 -47c-3 -27 -1 -56 -2 -84v-180c0 -185 1 -370 0 -554c-1 -4 -1 -7 0 -11c6 -33 67 -27 89 -27c28 0 56 3 85 2c2 0 4 -1 7 -1
c15 0 15 19 15 30c1 36 0 72 0 108l-1 214l2 -7c0 24 6 72 38 72c16 0 25 -14 28 -28c2 -9 1 -17 1 -26c-2 -74 -4 -149 -5 -224c-1 -38 0 -76 -2 -114c0 -3 -1 -4 -1 -7c5 -23 64 -18 79 -18c30 0 60 2 90 1c2 0 4 -1 7 -1c11 0 15 10 16 20c-4 18 -2 70 -1 89
c0 87 3 174 5 261c1 36 0 74 -7 111c-10 50 -32 112 -88 134c-9 4 -25 8 -34 8z" />
    <glyph glyph-name="i" unicode="i" horiz-adv-x="345" 
d="M119 628c-16 0 -21 -19 -24 -31c-4 -13 -2 -31 -2 -45v-98c0 -144 1 -287 2 -431c-1 -2 -1 -5 0 -7c4 -21 65 -17 80 -17c30 0 61 2 92 1c2 0 5 -1 8 -1c12 0 15 10 17 20c2 11 0 38 0 50l-1 123c0 131 -1 262 -2 393c0 5 0 11 -1 16c-4 18 -16 24 -32 25
c-27 2 -56 1 -83 1c-18 0 -36 1 -54 1zM255 852c-38 0 -75 -1 -113 -1c-13 0 -33 -2 -42 -11c-1 -35 -6 -87 1 -122c3 -15 6 -22 21 -22c28 0 56 -2 84 -2h25c17 0 35 0 51 3c15 15 3 111 -2 134c-3 14 -10 21 -25 21z" />
    <glyph glyph-name="j" unicode="j" horiz-adv-x="395" 
d="M148 634c-19 0 -22 -48 -22 -62c-4 -58 -2 -118 -2 -177c2 -108 5 -217 8 -325c1 -41 -5 -112 -58 -112c-10 0 -23 -2 -22 -13l3 -166c0 -3 -1 -5 0 -9c1 -6 12 -19 18 -19c69 0 154 9 199 56c51 54 60 185 60 262c1 98 -1 197 -3 295c-1 68 -3 136 -7 204
c0 10 1 20 -1 30c-3 13 -13 35 -30 35c-48 0 -95 1 -143 1zM270 865c-34 0 -67 -1 -100 -1c-13 0 -37 -3 -45 -12c-2 -34 -6 -87 1 -122c3 -15 6 -21 21 -21c27 0 55 -2 82 -2h25c16 0 34 0 49 3c16 13 6 112 2 133c-3 18 -21 22 -35 22z" />
    <glyph glyph-name="k" unicode="k" horiz-adv-x="574" 
d="M578 603c-4 20 -45 16 -57 16c-42 0 -84 1 -126 -1c-10 -1 -34 -4 -38 -14l-70 -162l2 382c0 5 1 9 0 15c-5 28 -46 23 -65 23c-33 0 -66 -1 -99 -3c-1 0 -3 1 -4 1c-17 0 -20 -34 -21 -46c-3 -30 -1 -62 -2 -92l-1 -154c-1 -176 -1 -352 -4 -528v-11
c7 -31 61 -26 82 -26c30 0 59 1 88 2c2 -1 5 -2 8 -2c14 0 14 20 14 30c-1 75 -3 150 -3 225c22 -46 41 -93 60 -140c9 -23 29 -66 33 -89c6 -10 14 -25 26 -25c56 0 111 1 167 1c16 0 34 3 30 23c-1 5 -3 8 -6 12c-12 23 -171 304 -171 307c-2 10 162 230 157 256z" />
    <glyph glyph-name="l" unicode="l" horiz-adv-x="341" 
d="M132 898c-2 0 -3 1 -4 1c-18 0 -20 -34 -22 -46c-2 -28 -1 -58 -1 -86c-1 -59 -2 -119 -3 -179c-1 -181 -2 -364 -5 -545c0 -4 -1 -6 0 -10c6 -31 63 -26 84 -26c30 0 59 2 89 2c15 0 17 15 18 27c3 25 1 59 1 84l2 182c2 187 1 375 4 561c1 5 2 9 1 14
c-6 27 -39 24 -58 24c-36 0 -71 -1 -106 -3z" />
    <glyph glyph-name="m" unicode="m" horiz-adv-x="804" 
d="M591 637c-61 0 -111 -21 -144 -66c-22 38 -53 59 -95 59c-46 0 -89 -11 -123 -36c0 4 0 8 -1 12c-5 28 -57 23 -76 23c-30 0 -59 -3 -88 -3c-15 0 -21 -18 -24 -30c-3 -11 -1 -36 -1 -49v-117c1 -134 4 -270 3 -404c0 -3 -1 -4 -1 -7c4 -21 56 -17 70 -17
c32 0 66 -1 98 1c16 1 21 4 24 19c1 8 0 19 0 27v72l-1 169c0 28 -1 56 -1 83c1 22 10 56 37 56c15 0 24 -13 27 -27c1 -9 1 -17 1 -26c-4 -117 -5 -235 -7 -353c0 -2 -1 -4 0 -6c4 -22 65 -17 80 -17c29 0 58 1 88 1c13 0 18 6 19 18s1 25 1 38l1 81c0 77 1 153 2 229
c0 24 4 70 36 70c16 0 26 -14 28 -28c2 -9 2 -17 1 -25c-4 -119 -1 -240 -5 -359c0 -3 -1 -4 -1 -7c5 -22 58 -17 73 -17c30 0 61 -1 92 1c13 1 21 5 23 18c1 6 -2 27 -2 34v77c0 87 2 174 4 260c1 35 0 72 -7 108c-14 73 -47 138 -131 138z" />
    <glyph glyph-name="n" unicode="n" horiz-adv-x="561" 
d="M388 640c-48 0 -92 -11 -127 -37c0 3 1 6 0 9c-6 33 -52 27 -75 27c-31 0 -63 -3 -94 -3c-16 0 -22 -19 -25 -31c-3 -11 0 -37 0 -49l1 -120l4 -281c1 -45 3 -90 3 -135c0 -3 -2 -4 -1 -7c4 -23 65 -18 80 -18c31 0 62 2 92 1c3 0 6 -1 8 -1c12 0 16 10 17 20
c2 9 0 21 0 30l-2 64c-2 58 -3 117 -4 175c-1 31 -3 63 -2 94c1 22 10 56 37 56c17 0 26 -14 29 -29c1 -9 1 -17 1 -26c-1 -85 0 -169 -1 -254c0 -36 1 -72 0 -108c0 -3 -1 -4 -1 -7c5 -23 64 -18 80 -18c29 0 59 2 89 1c2 0 5 -1 7 -1c11 0 15 10 16 20c1 6 -2 15 -2 20
l-3 45c-4 104 0 207 3 309c2 36 0 74 -7 111c-10 52 -33 115 -92 136c-9 4 -22 7 -31 7z" />
    <glyph glyph-name="o" unicode="o" horiz-adv-x="538" 
d="M270 -13c-136 0 -213 106 -237 229c-6 31 -8 62 -8 92c1 163 55 333 244 333c138 0 212 -107 236 -230c7 -35 10 -70 9 -104c0 -160 -61 -320 -244 -320zM271 456c-71 0 -71 -149 -60 -203c6 -35 23 -81 67 -81c64 0 63 153 54 203c-6 30 -21 81 -61 81z" />
    <glyph glyph-name="p" unicode="p" horiz-adv-x="632" 
d="M356 -1c-27 0 -54 4 -81 13l-1 -179c0 -9 0 -24 -12 -24c-3 0 -5 1 -8 2h-64c-25 0 -52 -1 -78 2c-13 2 -27 6 -30 21v7l4 353c-18 34 -39 79 -46 115c-2 8 -6 31 7 31c10 0 31 -14 40 -21l5 276c0 12 2 39 19 39c38 0 78 1 118 -1c4 0 7 -1 9 -4c2 -2 2 -8 2 -10
c31 20 66 32 106 32c140 0 207 -92 232 -218c16 -86 16 -170 -2 -249c-25 -110 -97 -185 -220 -185zM340 472c-22 0 -61 -7 -61 -34l-2 -223c10 -22 29 -41 53 -41c80 0 83 146 71 206c-4 18 -17 66 -29 80c-9 11 -20 12 -32 12z" />
    <glyph glyph-name="q" unicode="q" horiz-adv-x="566" 
d="M468 622c-45 0 -90 -1 -134 -1c-6 0 -10 -3 -13 -7c-19 5 -39 8 -57 8c-187 0 -247 -153 -253 -316c-2 -37 -1 -75 7 -113c24 -123 79 -201 212 -201c29 0 67 4 84 27c0 -63 0 -127 1 -190v-8c4 -18 18 -23 33 -23c46 0 93 1 140 -3c3 0 5 -1 7 -1c17 0 17 16 17 29
c-2 256 -5 511 -7 767c0 3 0 5 -1 8c-4 19 -20 24 -36 24zM275 175c-45 0 -63 28 -71 69c-12 62 -6 120 18 171c7 15 19 36 39 36s41 -6 50 -28l1 -217c0 -1 -1 -1 -1 -2c-8 -14 -15 -29 -36 -29z" />
    <glyph glyph-name="r" unicode="r" horiz-adv-x="412" 
d="M373 634c-36 0 -82 -40 -104 -61c-1 10 0 20 -2 30c-3 16 -19 18 -32 19c-18 1 -35 1 -53 1c-28 0 -55 -1 -83 -1c-16 0 -22 -18 -25 -31c-3 -15 -1 -39 -1 -56c-1 -35 -1 -70 -1 -106c1 -137 4 -274 2 -411c0 -3 -1 -4 0 -7c4 -23 65 -18 80 -18c32 0 64 1 96 1
c14 0 19 7 21 19c2 10 1 23 1 34l-1 76l-1 239c16 38 59 48 101 48c3 0 6 1 9 2c5 3 9 6 9 13l4 179c0 5 -1 10 -2 15c-2 14 -7 15 -18 15z" />
    <glyph glyph-name="s" unicode="s" horiz-adv-x="462" 
d="M255 483c-26 0 -45 -9 -39 -37c11 -59 213 -67 247 -243c26 -132 -29 -217 -165 -217c-55 0 -167 20 -215 61c-11 10 -31 23 -33 37c-2 9 -2 18 -1 26l13 131c0 7 -1 16 8 16c7 0 33 -24 38 -29c35 -32 108 -77 152 -77c28 0 42 13 36 42c-14 73 -200 69 -231 231
c-3 16 -5 33 -5 49c1 101 45 158 147 168c20 2 41 1 62 1c43 0 105 -18 145 -43c7 -4 10 -8 12 -16c2 -13 -14 -130 -17 -151c0 -4 -5 -7 -9 -7c-3 0 -7 1 -10 2c-9 4 -17 11 -25 17c-23 19 -83 39 -110 39z" />
    <glyph glyph-name="t" unicode="t" horiz-adv-x="524" 
d="M472 622l-141 2c1 77 2 155 2 233c0 4 -1 7 -1 11c-5 25 -25 28 -45 28c-43 0 -84 -2 -127 -2c-17 0 -20 -35 -21 -48c-2 -25 -1 -51 -2 -76l-2 -147c-15 0 -33 1 -48 -2c-4 -3 -30 -23 -31 -29c-2 -26 -6 -88 -1 -113c4 -22 12 -20 25 -21l54 -5l-2 -417
c0 -4 -1 -6 0 -10c6 -33 65 -28 88 -28c28 0 58 1 86 3c17 1 22 12 23 28c2 47 2 95 3 143c1 92 2 184 3 277c41 -3 82 -6 123 -6c16 0 50 -2 43 21l-1 4c-1 32 1 101 -5 134c-2 8 -6 21 -17 21c-2 0 -4 -1 -6 -1z" />
    <glyph glyph-name="u" unicode="u" horiz-adv-x="532" 
d="M309 597h-1c1 17 7 37 27 37c43 0 85 -1 128 -1c15 0 24 -16 26 -29c2 -6 1 -12 2 -18c2 -55 3 -110 5 -165c1 -70 1 -140 0 -209c0 -18 0 -35 -3 -52c-16 -124 -100 -174 -227 -174c-108 0 -196 41 -219 160c-4 23 -5 44 -6 66c-2 125 -1 250 -1 375c1 20 3 42 26 46
c13 2 31 0 46 0c31 1 62 1 93 1c14 0 19 -17 21 -27c9 -49 5 -131 4 -179c-1 -62 -4 -123 -5 -185c0 -10 0 -21 2 -31c5 -23 17 -41 42 -41c37 0 40 57 40 84c1 114 -2 228 0 342z" />
    <glyph glyph-name="v" unicode="v" horiz-adv-x="610" 
d="M224 585c3 -17 9 -35 12 -52c9 -35 16 -70 23 -105c9 -48 17 -95 24 -142l45 304c3 23 6 36 33 40h12c34 0 68 -2 102 -4c12 0 26 0 38 -2c11 -2 13 -9 15 -18c2 -10 2 -20 1 -30l-2 1h1c-4 -26 -10 -51 -16 -76c-10 -42 -21 -83 -32 -124c-31 -116 -63 -231 -96 -345
c-6 -18 -16 -37 -38 -37c-7 0 -15 2 -22 2c-12 1 -25 1 -38 1c-22 0 -43 0 -64 -3h-5c-21 0 -30 21 -36 38c-33 105 -63 211 -94 316c-22 75 -47 152 -62 227h-1l-1 4c-3 15 -7 43 12 45c36 3 75 3 112 3c38 0 67 8 77 -43z" />
    <glyph glyph-name="w" unicode="w" horiz-adv-x="691" 
d="M482 -6c-26 0 -52 1 -79 1c-10 0 -27 6 -34 16c-5 9 -10 20 -15 29c-15 30 -28 59 -41 89c-1 3 -2 8 -6 8s-5 -6 -6 -8l-58 -115c-5 -9 -12 -20 -25 -20c-30 0 -62 1 -93 1c-7 0 -28 1 -32 11c-2 6 -4 11 -6 17c-14 37 -23 76 -32 114c-13 53 -25 106 -37 159
c-15 69 -31 138 -44 207c-4 21 -11 47 -10 67c0 14 2 49 21 49c51 0 103 -1 154 -1c19 0 29 -12 33 -29c1 -3 0 -7 1 -10l38 -195c0 -2 1 -4 2 -6c10 19 62 133 71 134c10 1 21 1 32 1c6 0 12 0 19 -1c7 -4 11 -11 14 -18c19 -39 37 -79 57 -118c1 2 2 4 2 6l39 195
c3 16 11 43 31 43h144c15 0 25 -13 27 -27c12 -61 -115 -495 -134 -560c-4 -15 -14 -39 -33 -39z" />
    <glyph glyph-name="x" unicode="x" horiz-adv-x="577" 
d="M409 359c27 -39 215 -326 219 -342c5 -30 -63 -23 -82 -23c-24 0 -48 0 -72 1c-10 0 -20 -1 -30 0c-14 2 -30 21 -37 32c-6 9 -18 33 -25 45c-20 33 -40 67 -61 100c-17 -34 -34 -69 -47 -106c-6 -18 -11 -38 -21 -54c-4 -6 -14 -16 -22 -17c-10 -1 -21 0 -31 0
c-26 -1 -53 -1 -79 -1c-17 0 -74 -7 -79 20c0 3 0 7 1 9c14 38 32 76 49 113c33 75 68 149 103 223c-22 29 -169 233 -171 243c-3 18 43 20 54 20c39 0 78 -2 117 -3c18 0 37 -6 47 -24c5 -8 9 -17 13 -25c10 -20 21 -40 32 -60c7 20 15 40 22 61c2 8 5 17 8 25
c8 15 24 22 42 23c38 2 78 3 116 3c10 0 56 -6 59 -18c2 -13 -111 -216 -125 -245z" />
    <glyph glyph-name="y" unicode="y" horiz-adv-x="559" 
d="M8 611l151 -475l-63 -291c-2 -9 -6 -15 -4 -25c2 -12 12 -17 23 -17h144c18 0 24 15 27 30c15 76 28 147 48 221c54 194 129 375 218 551c2 3 5 8 4 12c-1 7 -8 8 -14 8h-171c-19 0 -29 -9 -35 -25c-9 -25 -16 -52 -24 -78c-18 -62 -34 -126 -50 -190l-33 253
c0 3 0 6 -1 9c-4 23 -21 33 -42 33h-171c-8 0 -9 -10 -7 -16z" />
    <glyph glyph-name="z" unicode="z" horiz-adv-x="521" 
d="M72 28c-4 17 -10 81 -10 96c0 8 4 17 7 24c18 35 39 68 59 102l120 206c-33 0 -65 0 -98 1c-18 0 -37 0 -55 2l1 1c-1 -1 -3 -1 -4 -1c-12 0 -29 6 -32 20c-6 33 -13 104 -9 135c2 17 16 21 33 21c73 0 145 -1 218 -1c28 0 55 1 82 1c9 0 90 0 93 -17
c2 -11 10 -106 8 -114c-1 -7 -4 -13 -7 -19c-31 -64 -64 -127 -98 -189c-19 -34 -42 -67 -63 -100c16 0 32 3 49 3l101 -1c7 0 29 -3 31 -14c1 -2 0 -4 1 -6l12 -151c-6 -12 -15 -22 -30 -22c-79 0 -158 0 -237 1c-45 1 -91 -1 -137 3c-13 1 -32 2 -35 19z" />
    <glyph glyph-name="braceleft" unicode="{" horiz-adv-x="322" 
d="M224 -53c-120 6 -196 77 -196 182c0 83 98 112 98 184c0 37 -62 67 -94 78c-14 6 -15 11 -17 20v28c0 14 7 19 19 23c54 19 108 36 108 91c0 62 -92 73 -92 163s124 124 173 136c14 3 20 -4 20 -15v-72c0 -7 -1 -18 -19 -14c-26 4 -71 4 -71 -39c0 -62 103 -77 103 -159
c0 -61 -40 -98 -120 -127c117 -17 117 -110 117 -110c0 -121 -119 -108 -119 -185c0 -57 56 -68 90 -69c18 0 25 0 25 -14v-82c0 -22 -14 -19 -25 -19z" />
    <glyph glyph-name="bar" unicode="|" 
d="M202 603c-120 0 -167 -84 -167 -188s64 -182 167 -182c113 0 166 78 166 182s-57 188 -166 188z" />
    <glyph glyph-name="braceright" unicode="}" horiz-adv-x="409" 
d="M137 -45c121 6 196 76 196 181c0 84 -97 112 -97 185c0 36 62 66 93 78c14 5 16 10 18 20v28c0 13 -7 18 -19 23c-54 18 -108 35 -108 91c0 62 92 72 92 163c0 90 -124 123 -173 135c-14 4 -20 -4 -20 -14v-72c0 -8 1 -18 19 -15c26 5 71 4 71 -39
c0 -61 -103 -76 -103 -158c0 -61 40 -99 120 -128c-117 -17 -117 -110 -117 -110c0 -120 119 -108 119 -185c0 -56 -56 -68 -90 -68c-18 -1 -25 -1 -25 -14v-82c0 -23 14 -20 24 -19z" />
    <glyph glyph-name="asciitilde" unicode="~" horiz-adv-x="595" 
d="M530 642c-17 -6 -47 -15 -102 -15c-94 0 -140 50 -219 50c-63 0 -112 -23 -138 -37c-11 -6 -19 -4 -19 6v81c0 15 3 15 13 20c48 22 99 27 148 27c66 0 138 -50 211 -50c43 0 81 14 104 23c15 6 21 4 21 -15v-56c0 -21 -6 -29 -19 -34z" />
    <glyph glyph-name="DEL" 
d="M202 603c-120 0 -167 -84 -167 -188s64 -182 167 -182c113 0 166 78 166 182s-57 188 -166 188z" />
    <glyph glyph-name="Adieresis" unicode="&#xc4;" 
d="M202 603c-120 0 -167 -84 -167 -188s64 -182 167 -182c113 0 166 78 166 182s-57 188 -166 188z" />
    <glyph glyph-name="Aring" unicode="&#xc5;" 
d="M202 603c-120 0 -167 -84 -167 -188s64 -182 167 -182c113 0 166 78 166 182s-57 188 -166 188z" />
    <glyph glyph-name="Ccedilla" unicode="&#xc7;" 
d="M202 603c-120 0 -167 -84 -167 -188s64 -182 167 -182c113 0 166 78 166 182s-57 188 -166 188z" />
    <glyph glyph-name="Eacute" unicode="&#xc9;" 
d="M202 603c-120 0 -167 -84 -167 -188s64 -182 167 -182c113 0 166 78 166 182s-57 188 -166 188z" />
    <glyph glyph-name="Ntilde" unicode="&#xd1;" 
d="M202 603c-120 0 -167 -84 -167 -188s64 -182 167 -182c113 0 166 78 166 182s-57 188 -166 188z" />
    <glyph glyph-name="Odieresis" unicode="&#xd6;" 
d="M202 603c-120 0 -167 -84 -167 -188s64 -182 167 -182c113 0 166 78 166 182s-57 188 -166 188z" />
    <glyph glyph-name="Udieresis" unicode="&#xdc;" 
d="M202 603c-120 0 -167 -84 -167 -188s64 -182 167 -182c113 0 166 78 166 182s-57 188 -166 188z" />
    <glyph glyph-name="aacute" unicode="&#xe1;" 
d="M202 603c-120 0 -167 -84 -167 -188s64 -182 167 -182c113 0 166 78 166 182s-57 188 -166 188z" />
    <glyph glyph-name="agrave" unicode="&#xe0;" 
d="M202 603c-120 0 -167 -84 -167 -188s64 -182 167 -182c113 0 166 78 166 182s-57 188 -166 188z" />
    <glyph glyph-name="acircumflex" unicode="&#xe2;" 
d="M202 603c-120 0 -167 -84 -167 -188s64 -182 167 -182c113 0 166 78 166 182s-57 188 -166 188z" />
    <glyph glyph-name="adieresis" unicode="&#xe4;" 
d="M202 603c-120 0 -167 -84 -167 -188s64 -182 167 -182c113 0 166 78 166 182s-57 188 -166 188z" />
    <glyph glyph-name="atilde" unicode="&#xe3;" 
d="M202 603c-120 0 -167 -84 -167 -188s64 -182 167 -182c113 0 166 78 166 182s-57 188 -166 188z" />
    <glyph glyph-name="aring" unicode="&#xe5;" 
d="M202 603c-120 0 -167 -84 -167 -188s64 -182 167 -182c113 0 166 78 166 182s-57 188 -166 188z" />
    <glyph glyph-name="ccedilla" unicode="&#xe7;" 
d="M202 603c-120 0 -167 -84 -167 -188s64 -182 167 -182c113 0 166 78 166 182s-57 188 -166 188z" />
    <glyph glyph-name="eacute" unicode="&#xe9;" 
d="M202 603c-120 0 -167 -84 -167 -188s64 -182 167 -182c113 0 166 78 166 182s-57 188 -166 188z" />
    <glyph glyph-name="egrave" unicode="&#xe8;" 
d="M202 603c-120 0 -167 -84 -167 -188s64 -182 167 -182c113 0 166 78 166 182s-57 188 -166 188z" />
    <glyph glyph-name="ecircumflex" unicode="&#xea;" 
d="M202 603c-120 0 -167 -84 -167 -188s64 -182 167 -182c113 0 166 78 166 182s-57 188 -166 188z" />
    <glyph glyph-name="edieresis" unicode="&#xeb;" 
d="M202 603c-120 0 -167 -84 -167 -188s64 -182 167 -182c113 0 166 78 166 182s-57 188 -166 188z" />
    <glyph glyph-name="iacute" unicode="&#xed;" 
d="M202 603c-120 0 -167 -84 -167 -188s64 -182 167 -182c113 0 166 78 166 182s-57 188 -166 188z" />
    <glyph glyph-name="igrave" unicode="&#xec;" 
d="M202 603c-120 0 -167 -84 -167 -188s64 -182 167 -182c113 0 166 78 166 182s-57 188 -166 188z" />
    <glyph glyph-name="icircumflex" unicode="&#xee;" 
d="M202 603c-120 0 -167 -84 -167 -188s64 -182 167 -182c113 0 166 78 166 182s-57 188 -166 188z" />
    <glyph glyph-name="idieresis" unicode="&#xef;" 
d="M202 603c-120 0 -167 -84 -167 -188s64 -182 167 -182c113 0 166 78 166 182s-57 188 -166 188z" />
    <glyph glyph-name="ntilde" unicode="&#xf1;" 
d="M202 603c-120 0 -167 -84 -167 -188s64 -182 167 -182c113 0 166 78 166 182s-57 188 -166 188z" />
    <glyph glyph-name="oacute" unicode="&#xf3;" 
d="M202 603c-120 0 -167 -84 -167 -188s64 -182 167 -182c113 0 166 78 166 182s-57 188 -166 188z" />
    <glyph glyph-name="ograve" unicode="&#xf2;" 
d="M202 603c-120 0 -167 -84 -167 -188s64 -182 167 -182c113 0 166 78 166 182s-57 188 -166 188z" />
    <glyph glyph-name="ocircumflex" unicode="&#xf4;" 
d="M202 603c-120 0 -167 -84 -167 -188s64 -182 167 -182c113 0 166 78 166 182s-57 188 -166 188z" />
    <glyph glyph-name="odieresis" unicode="&#xf6;" 
d="M202 603c-120 0 -167 -84 -167 -188s64 -182 167 -182c113 0 166 78 166 182s-57 188 -166 188z" />
    <glyph glyph-name="otilde" unicode="&#xf5;" 
d="M202 603c-120 0 -167 -84 -167 -188s64 -182 167 -182c113 0 166 78 166 182s-57 188 -166 188z" />
    <glyph glyph-name="uacute" unicode="&#xfa;" 
d="M202 603c-120 0 -167 -84 -167 -188s64 -182 167 -182c113 0 166 78 166 182s-57 188 -166 188z" />
    <glyph glyph-name="ugrave" unicode="&#xf9;" 
d="M202 603c-120 0 -167 -84 -167 -188s64 -182 167 -182c113 0 166 78 166 182s-57 188 -166 188z" />
    <glyph glyph-name="ucircumflex" unicode="&#xfb;" 
d="M202 603c-120 0 -167 -84 -167 -188s64 -182 167 -182c113 0 166 78 166 182s-57 188 -166 188z" />
    <glyph glyph-name="udieresis" unicode="&#xfc;" 
d="M202 603c-120 0 -167 -84 -167 -188s64 -182 167 -182c113 0 166 78 166 182s-57 188 -166 188z" />
    <glyph glyph-name="dagger" unicode="&#x2020;" 
d="M202 603c-120 0 -167 -84 -167 -188s64 -182 167 -182c113 0 166 78 166 182s-57 188 -166 188z" />
    <glyph glyph-name="degree" unicode="&#xb0;" 
d="M202 603c-120 0 -167 -84 -167 -188s64 -182 167 -182c113 0 166 78 166 182s-57 188 -166 188z" />
    <glyph glyph-name="cent" unicode="&#xa2;" 
d="M202 603c-120 0 -167 -84 -167 -188s64 -182 167 -182c113 0 166 78 166 182s-57 188 -166 188z" />
    <glyph glyph-name="sterling" unicode="&#xa3;" 
d="M202 603c-120 0 -167 -84 -167 -188s64 -182 167 -182c113 0 166 78 166 182s-57 188 -166 188z" />
    <glyph glyph-name="section" unicode="&#xa7;" 
d="M202 603c-120 0 -167 -84 -167 -188s64 -182 167 -182c113 0 166 78 166 182s-57 188 -166 188z" />
    <glyph glyph-name="bullet" unicode="&#x2022;" 
d="M202 603c-120 0 -167 -84 -167 -188s64 -182 167 -182c113 0 166 78 166 182s-57 188 -166 188z" />
    <glyph glyph-name="paragraph" unicode="&#xb6;" 
d="M202 603c-120 0 -167 -84 -167 -188s64 -182 167 -182c113 0 166 78 166 182s-57 188 -166 188z" />
    <glyph glyph-name="germandbls" unicode="&#xdf;" 
d="M202 603c-120 0 -167 -84 -167 -188s64 -182 167 -182c113 0 166 78 166 182s-57 188 -166 188z" />
    <glyph glyph-name="registered" unicode="&#xae;" 
d="M202 603c-120 0 -167 -84 -167 -188s64 -182 167 -182c113 0 166 78 166 182s-57 188 -166 188z" />
    <glyph glyph-name="copyright" unicode="&#xa9;" 
d="M202 603c-120 0 -167 -84 -167 -188s64 -182 167 -182c113 0 166 78 166 182s-57 188 -166 188z" />
    <glyph glyph-name="trademark" unicode="&#x2122;" 
d="M202 603c-120 0 -167 -84 -167 -188s64 -182 167 -182c113 0 166 78 166 182s-57 188 -166 188z" />
    <glyph glyph-name="acute" unicode="&#xb4;" 
d="M202 603c-120 0 -167 -84 -167 -188s64 -182 167 -182c113 0 166 78 166 182s-57 188 -166 188z" />
    <glyph glyph-name="dieresis" unicode="&#xa8;" 
d="M202 603c-120 0 -167 -84 -167 -188s64 -182 167 -182c113 0 166 78 166 182s-57 188 -166 188z" />
    <glyph glyph-name="notequal" unicode="&#x2260;" 
d="M202 603c-120 0 -167 -84 -167 -188s64 -182 167 -182c113 0 166 78 166 182s-57 188 -166 188z" />
    <glyph glyph-name="AE" unicode="&#xc6;" 
d="M202 603c-120 0 -167 -84 -167 -188s64 -182 167 -182c113 0 166 78 166 182s-57 188 -166 188z" />
    <glyph glyph-name="Oslash" unicode="&#xd8;" 
d="M202 603c-120 0 -167 -84 -167 -188s64 -182 167 -182c113 0 166 78 166 182s-57 188 -166 188z" />
    <glyph glyph-name="infinity" unicode="&#x221e;" 
d="M202 603c-120 0 -167 -84 -167 -188s64 -182 167 -182c113 0 166 78 166 182s-57 188 -166 188z" />
    <glyph glyph-name="plusminus" unicode="&#xb1;" 
d="M202 603c-120 0 -167 -84 -167 -188s64 -182 167 -182c113 0 166 78 166 182s-57 188 -166 188z" />
    <glyph glyph-name="lessequal" unicode="&#x2264;" 
d="M202 603c-120 0 -167 -84 -167 -188s64 -182 167 -182c113 0 166 78 166 182s-57 188 -166 188z" />
    <glyph glyph-name="greaterequal" unicode="&#x2265;" 
d="M202 603c-120 0 -167 -84 -167 -188s64 -182 167 -182c113 0 166 78 166 182s-57 188 -166 188z" />
    <glyph glyph-name="yen" unicode="&#xa5;" 
d="M202 603c-120 0 -167 -84 -167 -188s64 -182 167 -182c113 0 166 78 166 182s-57 188 -166 188z" />
    <glyph glyph-name="mu" unicode="&#x3bc;" 
d="M202 603c-120 0 -167 -84 -167 -188s64 -182 167 -182c113 0 166 78 166 182s-57 188 -166 188z" />
    <glyph glyph-name="partialdiff" unicode="&#x2202;" 
d="M202 603c-120 0 -167 -84 -167 -188s64 -182 167 -182c113 0 166 78 166 182s-57 188 -166 188z" />
    <glyph glyph-name="summation" unicode="&#x2211;" 
d="M202 603c-120 0 -167 -84 -167 -188s64 -182 167 -182c113 0 166 78 166 182s-57 188 -166 188z" />
    <glyph glyph-name="product" unicode="&#x220f;" 
d="M202 603c-120 0 -167 -84 -167 -188s64 -182 167 -182c113 0 166 78 166 182s-57 188 -166 188z" />
    <glyph glyph-name="pi" unicode="&#x3c0;" 
d="M202 603c-120 0 -167 -84 -167 -188s64 -182 167 -182c113 0 166 78 166 182s-57 188 -166 188z" />
    <glyph glyph-name="integral" unicode="&#x222b;" 
d="M202 603c-120 0 -167 -84 -167 -188s64 -182 167 -182c113 0 166 78 166 182s-57 188 -166 188z" />
    <glyph glyph-name="ordfeminine" unicode="&#xaa;" 
d="M202 603c-120 0 -167 -84 -167 -188s64 -182 167 -182c113 0 166 78 166 182s-57 188 -166 188z" />
    <glyph glyph-name="ordmasculine" unicode="&#xba;" 
d="M202 603c-120 0 -167 -84 -167 -188s64 -182 167 -182c113 0 166 78 166 182s-57 188 -166 188z" />
    <glyph glyph-name="Omega" unicode="&#x3a9;" 
d="M202 603c-120 0 -167 -84 -167 -188s64 -182 167 -182c113 0 166 78 166 182s-57 188 -166 188z" />
    <glyph glyph-name="ae" unicode="&#xe6;" 
d="M202 603c-120 0 -167 -84 -167 -188s64 -182 167 -182c113 0 166 78 166 182s-57 188 -166 188z" />
    <glyph glyph-name="oslash" unicode="&#xf8;" 
d="M202 603c-120 0 -167 -84 -167 -188s64 -182 167 -182c113 0 166 78 166 182s-57 188 -166 188z" />
    <glyph glyph-name="questiondown" unicode="&#xbf;" horiz-adv-x="669" 
d="M286 802v0s3 1 76 0c41 -1 52 -2 52 -2s10 0 10 -18c-1 -85 0 -109 0 -109s0 -23 -10 -22c-114 -2 -128 3 -128 3v-1s-10 0 -10 18v109s0 23 10 22v0zM291 565c0 -168 -256 -129 -256 -377c0 -120 86 -231 267 -231c116 0 166 39 188 49c3 1 18 13 18 32v132
c0 14 -9 20 -23 11c-30 -19 -104 -67 -191 -67c-61 0 -94 34 -94 91c0 143 210 114 210 358c0 18 -9 21 -23 21h-72c-13 0 -19 1 -24 -19z" />
    <glyph glyph-name="exclamdown" unicode="&#xa1;" horiz-adv-x="574" 
d="M159 53v0s1 17 11 154c17 222 18 254 22 331c0 0 3 59 23 53c52 1 83 1 83 1s30 0 28 -55c31 -408 25 -485 25 -485v0s0 -59 -22 -56c-111 -1 -142 -1 -142 -1s-30 0 -28 58v0zM195 802c0 0 4 1 77 0c41 -1 51 -2 51 -2s10 0 10 -18c-1 -85 0 -109 0 -109s0 -23 -10 -22
c-114 -2 -128 3 -128 3v-1s-10 0 -10 18v109s0 23 10 22v0z" />
    <glyph glyph-name="logicalnot" unicode="&#xac;" 
d="M202 603c-120 0 -167 -84 -167 -188s64 -182 167 -182c113 0 166 78 166 182s-57 188 -166 188z" />
    <glyph glyph-name="radical" unicode="&#x221a;" 
d="M202 603c-120 0 -167 -84 -167 -188s64 -182 167 -182c113 0 166 78 166 182s-57 188 -166 188z" />
    <glyph glyph-name="florin" unicode="&#x192;" 
d="M202 603c-120 0 -167 -84 -167 -188s64 -182 167 -182c113 0 166 78 166 182s-57 188 -166 188z" />
    <glyph glyph-name="approxequal" unicode="&#x2248;" 
d="M202 603c-120 0 -167 -84 -167 -188s64 -182 167 -182c113 0 166 78 166 182s-57 188 -166 188z" />
    <glyph glyph-name="Delta" unicode="&#x394;" 
d="M202 603c-120 0 -167 -84 -167 -188s64 -182 167 -182c113 0 166 78 166 182s-57 188 -166 188z" />
    <glyph glyph-name="guillemotleft" unicode="&#xab;" horiz-adv-x="764" 
d="M50 380v0s28 -35 146 -151c107 -104 133 -133 163 -158c0 0 28 -22 29 -6c-5 105 -4 123 -4 123s1 28 -16 41c-136 132 -212 208 -212 208s52 49 117 98c63 48 91 74 91 74s23 27 19 34c7 92 4 110 4 110s-3 18 -31 -6c-269 -220 -261 -212 -304 -255
c-8 -9 -11 -30 -11 -30s-3 -21 -1 -43c-1 -23 10 -39 10 -39zM360 380c0 0 28 -35 146 -151c107 -104 133 -133 163 -158c0 0 28 -22 29 -6c-5 105 -4 123 -4 123s1 28 -16 41c-137 132 -212 208 -212 208s52 49 116 98c64 48 92 74 92 74s23 27 19 34c7 92 4 110 4 110
s-3 18 -31 -6c-269 -220 -261 -212 -305 -255c-7 -9 -10 -30 -10 -30s-3 -21 -1 -43c-1 -23 10 -39 10 -39z" />
    <glyph glyph-name="guillemotright" unicode="&#xbb;" horiz-adv-x="776" 
d="M700 380v0s-27 -35 -146 -151c-107 -104 -133 -133 -163 -158c0 0 -28 -22 -29 -6c5 105 4 123 4 123s-1 28 16 41c137 132 212 208 212 208s-52 49 -116 98c-64 48 -91 74 -91 74s-24 27 -20 34c-7 92 -4 110 -4 110s3 18 31 -6c269 -220 261 -212 305 -255
c7 -9 10 -30 10 -30s4 -21 1 -43c1 -23 -10 -39 -10 -39zM390 380c0 0 -27 -35 -146 -151c-107 -104 -133 -133 -163 -158c0 0 -28 -22 -29 -6c5 105 4 123 4 123s-1 28 16 41c137 132 213 208 213 208s-53 49 -117 98c-64 48 -91 74 -91 74s-24 27 -20 34
c-7 92 -4 110 -4 110s3 18 31 -6c269 -220 261 -212 305 -255c7 -9 10 -30 10 -30s4 -21 1 -43c1 -23 -10 -39 -10 -39z" />
    <glyph glyph-name="ellipsis" unicode="&#x2026;" horiz-adv-x="717" 
d="M173 1v0s-3 -1 -77 0c-41 1 -51 2 -51 2s-10 0 -10 17c1 86 0 110 0 110s0 23 10 22c114 2 128 -3 128 -3v1s10 0 10 -18v-109s0 -24 -10 -22v0zM404 1v0s-3 -1 -76 0c-41 1 -52 2 -52 2s-9 0 -9 17c1 86 0 110 0 110s0 23 10 22c114 2 128 -3 128 -3v1s10 0 10 -18
c-1 -85 0 -109 0 -109s0 -24 -11 -22v0zM637 1c0 0 -3 -1 -77 0c-41 1 -51 2 -51 2s-10 0 -10 17c1 86 0 110 0 110s0 23 10 22c114 2 128 -3 128 -3v1s10 0 10 -18v-109s0 -24 -10 -22v0z" />
    <glyph glyph-name="nbspace" unicode="&#xa0;" 
d="M202 603c-120 0 -167 -84 -167 -188s64 -182 167 -182c113 0 166 78 166 182s-57 188 -166 188z" />
    <glyph glyph-name="Agrave" unicode="&#xc0;" 
d="M202 603c-120 0 -167 -84 -167 -188s64 -182 167 -182c113 0 166 78 166 182s-57 188 -166 188z" />
    <glyph glyph-name="Atilde" unicode="&#xc3;" 
d="M202 603c-120 0 -167 -84 -167 -188s64 -182 167 -182c113 0 166 78 166 182s-57 188 -166 188z" />
    <glyph glyph-name="Otilde" unicode="&#xd5;" 
d="M202 603c-120 0 -167 -84 -167 -188s64 -182 167 -182c113 0 166 78 166 182s-57 188 -166 188z" />
    <glyph glyph-name="OE" unicode="&#x152;" 
d="M202 603c-120 0 -167 -84 -167 -188s64 -182 167 -182c113 0 166 78 166 182s-57 188 -166 188z" />
    <glyph glyph-name="oe" unicode="&#x153;" 
d="M202 603c-120 0 -167 -84 -167 -188s64 -182 167 -182c113 0 166 78 166 182s-57 188 -166 188z" />
    <glyph glyph-name="endash" unicode="&#x2013;" horiz-adv-x="695" 
d="M613 409c0 0 -14 -1 -328 0c-176 1 -222 2 -222 2s-46 0 -41 18c-1 85 -1 109 -1 109s0 22 43 22c490 1 550 -3 550 -3v1s46 0 43 -18c1 -85 1 -109 1 -109s0 -24 -45 -22v0z" />
    <glyph glyph-name="emdash" unicode="&#x2014;" horiz-adv-x="908" 
d="M814 409c0 0 -19 -1 -436 0c-234 1 -295 2 -295 2s-61 0 -55 18c-1 85 -1 109 -1 109s0 22 57 22c651 1 731 -2 731 -2v0s61 0 57 -18c1 -85 1 -109 1 -109s0 -23 -60 -22h1z" />
    <glyph glyph-name="quotedblleft" unicode="&#x201c;" horiz-adv-x="459" 
d="M183 688v0c-7 4 -17 5 -18 17c-3 14 9 22 14 27c11 13 16 30 16 41c0 0 -1 32 -3 40c-6 23 -33 9 -33 9c-51 -27 -107 -79 -117 -112c0 0 -16 -53 0 -109c5 -17 15 -18 15 -18l-5 1s14 -5 128 -2c10 -2 10 22 10 22v66c0 11 -3 16 -7 18zM382 688c-7 4 -16 5 -18 17
c-2 14 9 22 14 27c12 13 17 30 16 41c0 0 0 32 -2 40c-6 23 -33 9 -33 9c-51 -27 -108 -79 -118 -112c0 0 -15 -53 0 -109c5 -17 15 -18 15 -18l-4 1s14 -5 127 -2c10 -2 10 22 10 22v66c0 11 -3 16 -7 18z" />
    <glyph glyph-name="quotedblright" unicode="&#x201d;" horiz-adv-x="454" 
d="M246 703v0c7 -4 17 -5 18 -17c2 -14 -9 -22 -14 -27c-11 -13 -16 -30 -16 -41c0 0 1 -32 2 -40c7 -23 34 -9 34 -9c51 27 107 79 117 112c0 0 16 53 0 109c-5 17 -15 18 -15 18l5 -1s-14 5 -128 2c-10 2 -10 -22 -10 -22v-66c0 -11 3 -16 7 -18zM47 703
c7 -4 16 -5 18 -17c2 -14 -9 -22 -14 -27c-12 -13 -17 -30 -16 -41c0 0 0 -32 2 -40c6 -23 33 -9 33 -9c51 27 108 79 118 112c0 0 15 53 0 109c-5 17 -15 18 -15 18l4 -1s-14 5 -128 2c-9 2 -9 -22 -9 -22v-66c0 -11 3 -16 7 -18z" />
    <glyph glyph-name="quoteleft" unicode="&#x2018;" horiz-adv-x="273" 
d="M183 684c-7 4 -17 5 -18 17c-3 13 9 22 14 26c11 14 16 30 16 42c0 0 -1 32 -3 39c-6 24 -33 9 -33 9c-51 -27 -107 -78 -117 -111c0 0 -16 -54 0 -110c5 -17 15 -17 15 -17h-5s14 -4 128 -2c10 -2 10 22 10 22v66c0 12 -3 16 -7 19z" />
    <glyph glyph-name="quoteright" unicode="&#x2019;" horiz-adv-x="273" 
d="M47 694c7 -4 16 -5 18 -17c2 -13 -9 -22 -14 -27c-12 -13 -17 -30 -16 -41c0 0 0 -32 2 -39c6 -24 33 -10 33 -10c51 28 108 79 118 112c0 0 15 54 0 109c-5 18 -15 18 -15 18l4 -1s-14 5 -128 3c-9 1 -9 -22 -9 -22v-67c0 -11 3 -16 7 -18z" />
    <glyph glyph-name="divide" unicode="&#xf7;" 
d="M202 603c-120 0 -167 -84 -167 -188s64 -182 167 -182c113 0 166 78 166 182s-57 188 -166 188z" />
    <glyph glyph-name="lozenge" unicode="&#x25ca;" 
d="M202 603c-120 0 -167 -84 -167 -188s64 -182 167 -182c113 0 166 78 166 182s-57 188 -166 188z" />
    <glyph glyph-name="ydieresis" unicode="&#xff;" 
d="M202 603c-120 0 -167 -84 -167 -188s64 -182 167 -182c113 0 166 78 166 182s-57 188 -166 188z" />
    <glyph glyph-name="Ydieresis" unicode="&#x178;" 
d="M202 603c-120 0 -167 -84 -167 -188s64 -182 167 -182c113 0 166 78 166 182s-57 188 -166 188z" />
    <glyph glyph-name="fraction" unicode="&#x2044;" 
d="M202 603c-120 0 -167 -84 -167 -188s64 -182 167 -182c113 0 166 78 166 182s-57 188 -166 188z" />
    <glyph glyph-name="currency" unicode="&#xa4;" 
d="M202 603c-120 0 -167 -84 -167 -188s64 -182 167 -182c113 0 166 78 166 182s-57 188 -166 188z" />
    <glyph glyph-name="guilsinglleft" unicode="&#x2039;" 
d="M202 603c-120 0 -167 -84 -167 -188s64 -182 167 -182c113 0 166 78 166 182s-57 188 -166 188z" />
    <glyph glyph-name="guilsinglright" unicode="&#x203a;" 
d="M202 603c-120 0 -167 -84 -167 -188s64 -182 167 -182c113 0 166 78 166 182s-57 188 -166 188z" />
    <glyph glyph-name="fi" unicode="&#xfb01;" 
d="M202 603c-120 0 -167 -84 -167 -188s64 -182 167 -182c113 0 166 78 166 182s-57 188 -166 188z" />
    <glyph glyph-name="fl" unicode="&#xfb02;" 
d="M202 603c-120 0 -167 -84 -167 -188s64 -182 167 -182c113 0 166 78 166 182s-57 188 -166 188z" />
    <glyph glyph-name="daggerdbl" unicode="&#x2021;" 
d="M202 603c-120 0 -167 -84 -167 -188s64 -182 167 -182c113 0 166 78 166 182s-57 188 -166 188z" />
    <glyph glyph-name="periodcentered" unicode="&#xb7;" 
d="M202 603c-120 0 -167 -84 -167 -188s64 -182 167 -182c113 0 166 78 166 182s-57 188 -166 188z" />
    <glyph glyph-name="quotesinglbase" unicode="&#x201a;" 
d="M202 603c-120 0 -167 -84 -167 -188s64 -182 167 -182c113 0 166 78 166 182s-57 188 -166 188z" />
    <glyph glyph-name="quotedblbase" unicode="&#x201e;" 
d="M202 603c-120 0 -167 -84 -167 -188s64 -182 167 -182c113 0 166 78 166 182s-57 188 -166 188z" />
    <glyph glyph-name="perthousand" unicode="&#x2030;" 
d="M202 603c-120 0 -167 -84 -167 -188s64 -182 167 -182c113 0 166 78 166 182s-57 188 -166 188z" />
    <glyph glyph-name="Acircumflex" unicode="&#xc2;" 
d="M202 603c-120 0 -167 -84 -167 -188s64 -182 167 -182c113 0 166 78 166 182s-57 188 -166 188z" />
    <glyph glyph-name="Ecircumflex" unicode="&#xca;" 
d="M202 603c-120 0 -167 -84 -167 -188s64 -182 167 -182c113 0 166 78 166 182s-57 188 -166 188z" />
    <glyph glyph-name="Aacute" unicode="&#xc1;" 
d="M202 603c-120 0 -167 -84 -167 -188s64 -182 167 -182c113 0 166 78 166 182s-57 188 -166 188z" />
    <glyph glyph-name="Edieresis" unicode="&#xcb;" 
d="M202 603c-120 0 -167 -84 -167 -188s64 -182 167 -182c113 0 166 78 166 182s-57 188 -166 188z" />
    <glyph glyph-name="Egrave" unicode="&#xc8;" 
d="M202 603c-120 0 -167 -84 -167 -188s64 -182 167 -182c113 0 166 78 166 182s-57 188 -166 188z" />
    <glyph glyph-name="Iacute" unicode="&#xcd;" 
d="M202 603c-120 0 -167 -84 -167 -188s64 -182 167 -182c113 0 166 78 166 182s-57 188 -166 188z" />
    <glyph glyph-name="Icircumflex" unicode="&#xce;" 
d="M202 603c-120 0 -167 -84 -167 -188s64 -182 167 -182c113 0 166 78 166 182s-57 188 -166 188z" />
    <glyph glyph-name="Idieresis" unicode="&#xcf;" 
d="M202 603c-120 0 -167 -84 -167 -188s64 -182 167 -182c113 0 166 78 166 182s-57 188 -166 188z" />
    <glyph glyph-name="Igrave" unicode="&#xcc;" 
d="M202 603c-120 0 -167 -84 -167 -188s64 -182 167 -182c113 0 166 78 166 182s-57 188 -166 188z" />
    <glyph glyph-name="Oacute" unicode="&#xd3;" 
d="M202 603c-120 0 -167 -84 -167 -188s64 -182 167 -182c113 0 166 78 166 182s-57 188 -166 188z" />
    <glyph glyph-name="Ocircumflex" unicode="&#xd4;" 
d="M202 603c-120 0 -167 -84 -167 -188s64 -182 167 -182c113 0 166 78 166 182s-57 188 -166 188z" />
    <glyph glyph-name="apple" 
d="M202 603c-120 0 -167 -84 -167 -188s64 -182 167 -182c113 0 166 78 166 182s-57 188 -166 188z" />
    <glyph glyph-name="Ograve" unicode="&#xd2;" 
d="M202 603c-120 0 -167 -84 -167 -188s64 -182 167 -182c113 0 166 78 166 182s-57 188 -166 188z" />
    <glyph glyph-name="Uacute" unicode="&#xda;" 
d="M202 603c-120 0 -167 -84 -167 -188s64 -182 167 -182c113 0 166 78 166 182s-57 188 -166 188z" />
    <glyph glyph-name="Ucircumflex" unicode="&#xdb;" 
d="M202 603c-120 0 -167 -84 -167 -188s64 -182 167 -182c113 0 166 78 166 182s-57 188 -166 188z" />
    <glyph glyph-name="Ugrave" unicode="&#xd9;" 
d="M202 603c-120 0 -167 -84 -167 -188s64 -182 167 -182c113 0 166 78 166 182s-57 188 -166 188z" />
    <glyph glyph-name="dotlessi" unicode="&#x131;" 
d="M202 603c-120 0 -167 -84 -167 -188s64 -182 167 -182c113 0 166 78 166 182s-57 188 -166 188z" />
    <glyph glyph-name="circumflex" unicode="&#x2c6;" 
d="M202 603c-120 0 -167 -84 -167 -188s64 -182 167 -182c113 0 166 78 166 182s-57 188 -166 188z" />
    <glyph glyph-name="tilde" unicode="&#x2dc;" 
d="M202 603c-120 0 -167 -84 -167 -188s64 -182 167 -182c113 0 166 78 166 182s-57 188 -166 188z" />
    <glyph glyph-name="macron" unicode="&#xaf;" 
d="M202 603c-120 0 -167 -84 -167 -188s64 -182 167 -182c113 0 166 78 166 182s-57 188 -166 188z" />
    <glyph glyph-name="breve" unicode="&#x2d8;" 
d="M202 603c-120 0 -167 -84 -167 -188s64 -182 167 -182c113 0 166 78 166 182s-57 188 -166 188z" />
    <glyph glyph-name="dotaccent" unicode="&#x2d9;" 
d="M202 603c-120 0 -167 -84 -167 -188s64 -182 167 -182c113 0 166 78 166 182s-57 188 -166 188z" />
    <glyph glyph-name="ring" unicode="&#x2da;" 
d="M202 603c-120 0 -167 -84 -167 -188s64 -182 167 -182c113 0 166 78 166 182s-57 188 -166 188z" />
    <glyph glyph-name="cedilla" unicode="&#xb8;" 
d="M202 603c-120 0 -167 -84 -167 -188s64 -182 167 -182c113 0 166 78 166 182s-57 188 -166 188z" />
    <glyph glyph-name="hungarumlaut" unicode="&#x2dd;" 
d="M202 603c-120 0 -167 -84 -167 -188s64 -182 167 -182c113 0 166 78 166 182s-57 188 -166 188z" />
    <glyph glyph-name="ogonek" unicode="&#x2db;" 
d="M202 603c-120 0 -167 -84 -167 -188s64 -182 167 -182c113 0 166 78 166 182s-57 188 -166 188z" />
    <glyph glyph-name="caron" unicode="&#x2c7;" 
d="M202 603c-120 0 -167 -84 -167 -188s64 -182 167 -182c113 0 166 78 166 182s-57 188 -166 188z" />
  </font>
</defs>
</svg>
