<?xml version="1.0" standalone="no"?>
<!DOCTYPE svg PUBLIC "-//W3C//DTD SVG 1.1//EN" "http://www.w3.org/Graphics/SVG/1.1/DTD/svg11.dtd" >
<svg xmlns="http://www.w3.org/2000/svg" width="100%" height="100%">
<metadata>
Created by FontXChange 20110222 at Sat Mar 15 23:34:32 2014
 By NC
</metadata>
<defs>
<font id="JuniorHigh-Shaded" horiz-adv-x="277" >
  <font-face 
    font-family="JuniorHigh"
    font-weight="400"
    font-stretch="normal"
    units-per-em="1000"
    panose-1="2 0 5 3 0 0 0 0 0 0"
    ascent="700"
    descent="-300"
    x-height="562"
    cap-height="723"
    bbox="4 -225 978 812"
    underline-thickness="20"
    underline-position="-133"
    stemh="27.082"
    stemv="36.016"
    unicode-range="U+0020-FB02"
  />
    <missing-glyph />
    <glyph glyph-name="NUL" 
d="M187 498c-4 0 -10 -1 -10 -6c0 -19 73 -16 73 -80c0 -5 -1 -10 -5 -14c-26 -31 -37 -48 -82 -56c-5 0 -10 -1 -16 -1c-35 0 -52 23 -52 56c0 42 19 79 55 101c4 2 34 18 34 22c0 3 -7 4 -9 4c-12 0 -26 -7 -35 -15v3c0 6 -4 9 -10 9c-4 0 -8 -1 -12 -3
c-61 -25 -98 -100 -98 -164c0 -47 27 -89 78 -89c49 0 125 42 133 94c27 13 37 37 37 65c0 50 -37 63 -77 74h-4zM107 292c-48 0 -69 29 -69 75c0 39 20 81 50 107c7 6 16 13 25 15c-24 -24 -38 -54 -38 -89c0 -42 15 -82 64 -82c26 0 49 17 71 30c-27 -38 -55 -56 -103 -56
z" />
    <glyph glyph-name="Eth" unicode="&#xd0;" 
d="M187 498c-4 0 -10 -1 -10 -6c0 -19 73 -16 73 -80c0 -5 -1 -10 -5 -14c-26 -31 -37 -48 -82 -56c-5 0 -10 -1 -16 -1c-35 0 -52 23 -52 56c0 42 19 79 55 101c4 2 34 18 34 22c0 3 -7 4 -9 4c-12 0 -26 -7 -35 -15v3c0 6 -4 9 -10 9c-4 0 -8 -1 -12 -3
c-61 -25 -98 -100 -98 -164c0 -47 27 -89 78 -89c49 0 125 42 133 94c27 13 37 37 37 65c0 50 -37 63 -77 74h-4zM107 292c-48 0 -69 29 -69 75c0 39 20 81 50 107c7 6 16 13 25 15c-24 -24 -38 -54 -38 -89c0 -42 15 -82 64 -82c26 0 49 17 71 30c-27 -38 -55 -56 -103 -56
z" />
    <glyph glyph-name="eth" unicode="&#xf0;" 
d="M187 498c-4 0 -10 -1 -10 -6c0 -19 73 -16 73 -80c0 -5 -1 -10 -5 -14c-26 -31 -37 -48 -82 -56c-5 0 -10 -1 -16 -1c-35 0 -52 23 -52 56c0 42 19 79 55 101c4 2 34 18 34 22c0 3 -7 4 -9 4c-12 0 -26 -7 -35 -15v3c0 6 -4 9 -10 9c-4 0 -8 -1 -12 -3
c-61 -25 -98 -100 -98 -164c0 -47 27 -89 78 -89c49 0 125 42 133 94c27 13 37 37 37 65c0 50 -37 63 -77 74h-4zM107 292c-48 0 -69 29 -69 75c0 39 20 81 50 107c7 6 16 13 25 15c-24 -24 -38 -54 -38 -89c0 -42 15 -82 64 -82c26 0 49 17 71 30c-27 -38 -55 -56 -103 -56
z" />
    <glyph glyph-name="Lslash" unicode="&#x141;" 
d="M187 498c-4 0 -10 -1 -10 -6c0 -19 73 -16 73 -80c0 -5 -1 -10 -5 -14c-26 -31 -37 -48 -82 -56c-5 0 -10 -1 -16 -1c-35 0 -52 23 -52 56c0 42 19 79 55 101c4 2 34 18 34 22c0 3 -7 4 -9 4c-12 0 -26 -7 -35 -15v3c0 6 -4 9 -10 9c-4 0 -8 -1 -12 -3
c-61 -25 -98 -100 -98 -164c0 -47 27 -89 78 -89c49 0 125 42 133 94c27 13 37 37 37 65c0 50 -37 63 -77 74h-4zM107 292c-48 0 -69 29 -69 75c0 39 20 81 50 107c7 6 16 13 25 15c-24 -24 -38 -54 -38 -89c0 -42 15 -82 64 -82c26 0 49 17 71 30c-27 -38 -55 -56 -103 -56
z" />
    <glyph glyph-name="lslash" unicode="&#x142;" 
d="M187 498c-4 0 -10 -1 -10 -6c0 -19 73 -16 73 -80c0 -5 -1 -10 -5 -14c-26 -31 -37 -48 -82 -56c-5 0 -10 -1 -16 -1c-35 0 -52 23 -52 56c0 42 19 79 55 101c4 2 34 18 34 22c0 3 -7 4 -9 4c-12 0 -26 -7 -35 -15v3c0 6 -4 9 -10 9c-4 0 -8 -1 -12 -3
c-61 -25 -98 -100 -98 -164c0 -47 27 -89 78 -89c49 0 125 42 133 94c27 13 37 37 37 65c0 50 -37 63 -77 74h-4zM107 292c-48 0 -69 29 -69 75c0 39 20 81 50 107c7 6 16 13 25 15c-24 -24 -38 -54 -38 -89c0 -42 15 -82 64 -82c26 0 49 17 71 30c-27 -38 -55 -56 -103 -56
z" />
    <glyph glyph-name="Scaron" unicode="&#x160;" 
d="M187 498c-4 0 -10 -1 -10 -6c0 -19 73 -16 73 -80c0 -5 -1 -10 -5 -14c-26 -31 -37 -48 -82 -56c-5 0 -10 -1 -16 -1c-35 0 -52 23 -52 56c0 42 19 79 55 101c4 2 34 18 34 22c0 3 -7 4 -9 4c-12 0 -26 -7 -35 -15v3c0 6 -4 9 -10 9c-4 0 -8 -1 -12 -3
c-61 -25 -98 -100 -98 -164c0 -47 27 -89 78 -89c49 0 125 42 133 94c27 13 37 37 37 65c0 50 -37 63 -77 74h-4zM107 292c-48 0 -69 29 -69 75c0 39 20 81 50 107c7 6 16 13 25 15c-24 -24 -38 -54 -38 -89c0 -42 15 -82 64 -82c26 0 49 17 71 30c-27 -38 -55 -56 -103 -56
z" />
    <glyph glyph-name="scaron" unicode="&#x161;" 
d="M187 498c-4 0 -10 -1 -10 -6c0 -19 73 -16 73 -80c0 -5 -1 -10 -5 -14c-26 -31 -37 -48 -82 -56c-5 0 -10 -1 -16 -1c-35 0 -52 23 -52 56c0 42 19 79 55 101c4 2 34 18 34 22c0 3 -7 4 -9 4c-12 0 -26 -7 -35 -15v3c0 6 -4 9 -10 9c-4 0 -8 -1 -12 -3
c-61 -25 -98 -100 -98 -164c0 -47 27 -89 78 -89c49 0 125 42 133 94c27 13 37 37 37 65c0 50 -37 63 -77 74h-4zM107 292c-48 0 -69 29 -69 75c0 39 20 81 50 107c7 6 16 13 25 15c-24 -24 -38 -54 -38 -89c0 -42 15 -82 64 -82c26 0 49 17 71 30c-27 -38 -55 -56 -103 -56
z" />
    <glyph glyph-name="Yacute" unicode="&#xdd;" 
d="M187 498c-4 0 -10 -1 -10 -6c0 -19 73 -16 73 -80c0 -5 -1 -10 -5 -14c-26 -31 -37 -48 -82 -56c-5 0 -10 -1 -16 -1c-35 0 -52 23 -52 56c0 42 19 79 55 101c4 2 34 18 34 22c0 3 -7 4 -9 4c-12 0 -26 -7 -35 -15v3c0 6 -4 9 -10 9c-4 0 -8 -1 -12 -3
c-61 -25 -98 -100 -98 -164c0 -47 27 -89 78 -89c49 0 125 42 133 94c27 13 37 37 37 65c0 50 -37 63 -77 74h-4zM107 292c-48 0 -69 29 -69 75c0 39 20 81 50 107c7 6 16 13 25 15c-24 -24 -38 -54 -38 -89c0 -42 15 -82 64 -82c26 0 49 17 71 30c-27 -38 -55 -56 -103 -56
z" />
    <glyph glyph-name="yacute" unicode="&#xfd;" 
d="M187 498c-4 0 -10 -1 -10 -6c0 -19 73 -16 73 -80c0 -5 -1 -10 -5 -14c-26 -31 -37 -48 -82 -56c-5 0 -10 -1 -16 -1c-35 0 -52 23 -52 56c0 42 19 79 55 101c4 2 34 18 34 22c0 3 -7 4 -9 4c-12 0 -26 -7 -35 -15v3c0 6 -4 9 -10 9c-4 0 -8 -1 -12 -3
c-61 -25 -98 -100 -98 -164c0 -47 27 -89 78 -89c49 0 125 42 133 94c27 13 37 37 37 65c0 50 -37 63 -77 74h-4zM107 292c-48 0 -69 29 -69 75c0 39 20 81 50 107c7 6 16 13 25 15c-24 -24 -38 -54 -38 -89c0 -42 15 -82 64 -82c26 0 49 17 71 30c-27 -38 -55 -56 -103 -56
z" />
    <glyph glyph-name="HT" 
d="M187 498c-4 0 -10 -1 -10 -6c0 -19 73 -16 73 -80c0 -5 -1 -10 -5 -14c-26 -31 -37 -48 -82 -56c-5 0 -10 -1 -16 -1c-35 0 -52 23 -52 56c0 42 19 79 55 101c4 2 34 18 34 22c0 3 -7 4 -9 4c-12 0 -26 -7 -35 -15v3c0 6 -4 9 -10 9c-4 0 -8 -1 -12 -3
c-61 -25 -98 -100 -98 -164c0 -47 27 -89 78 -89c49 0 125 42 133 94c27 13 37 37 37 65c0 50 -37 63 -77 74h-4zM107 292c-48 0 -69 29 -69 75c0 39 20 81 50 107c7 6 16 13 25 15c-24 -24 -38 -54 -38 -89c0 -42 15 -82 64 -82c26 0 49 17 71 30c-27 -38 -55 -56 -103 -56
z" />
    <glyph glyph-name="LF" 
d="M187 498c-4 0 -10 -1 -10 -6c0 -19 73 -16 73 -80c0 -5 -1 -10 -5 -14c-26 -31 -37 -48 -82 -56c-5 0 -10 -1 -16 -1c-35 0 -52 23 -52 56c0 42 19 79 55 101c4 2 34 18 34 22c0 3 -7 4 -9 4c-12 0 -26 -7 -35 -15v3c0 6 -4 9 -10 9c-4 0 -8 -1 -12 -3
c-61 -25 -98 -100 -98 -164c0 -47 27 -89 78 -89c49 0 125 42 133 94c27 13 37 37 37 65c0 50 -37 63 -77 74h-4zM107 292c-48 0 -69 29 -69 75c0 39 20 81 50 107c7 6 16 13 25 15c-24 -24 -38 -54 -38 -89c0 -42 15 -82 64 -82c26 0 49 17 71 30c-27 -38 -55 -56 -103 -56
z" />
    <glyph glyph-name="Thorn" unicode="&#xde;" 
d="M187 498c-4 0 -10 -1 -10 -6c0 -19 73 -16 73 -80c0 -5 -1 -10 -5 -14c-26 -31 -37 -48 -82 -56c-5 0 -10 -1 -16 -1c-35 0 -52 23 -52 56c0 42 19 79 55 101c4 2 34 18 34 22c0 3 -7 4 -9 4c-12 0 -26 -7 -35 -15v3c0 6 -4 9 -10 9c-4 0 -8 -1 -12 -3
c-61 -25 -98 -100 -98 -164c0 -47 27 -89 78 -89c49 0 125 42 133 94c27 13 37 37 37 65c0 50 -37 63 -77 74h-4zM107 292c-48 0 -69 29 -69 75c0 39 20 81 50 107c7 6 16 13 25 15c-24 -24 -38 -54 -38 -89c0 -42 15 -82 64 -82c26 0 49 17 71 30c-27 -38 -55 -56 -103 -56
z" />
    <glyph glyph-name="thorn" unicode="&#xfe;" 
d="M187 498c-4 0 -10 -1 -10 -6c0 -19 73 -16 73 -80c0 -5 -1 -10 -5 -14c-26 -31 -37 -48 -82 -56c-5 0 -10 -1 -16 -1c-35 0 -52 23 -52 56c0 42 19 79 55 101c4 2 34 18 34 22c0 3 -7 4 -9 4c-12 0 -26 -7 -35 -15v3c0 6 -4 9 -10 9c-4 0 -8 -1 -12 -3
c-61 -25 -98 -100 -98 -164c0 -47 27 -89 78 -89c49 0 125 42 133 94c27 13 37 37 37 65c0 50 -37 63 -77 74h-4zM107 292c-48 0 -69 29 -69 75c0 39 20 81 50 107c7 6 16 13 25 15c-24 -24 -38 -54 -38 -89c0 -42 15 -82 64 -82c26 0 49 17 71 30c-27 -38 -55 -56 -103 -56
z" />
    <glyph glyph-name="CR" 
d="M187 498c-4 0 -10 -1 -10 -6c0 -19 73 -16 73 -80c0 -5 -1 -10 -5 -14c-26 -31 -37 -48 -82 -56c-5 0 -10 -1 -16 -1c-35 0 -52 23 -52 56c0 42 19 79 55 101c4 2 34 18 34 22c0 3 -7 4 -9 4c-12 0 -26 -7 -35 -15v3c0 6 -4 9 -10 9c-4 0 -8 -1 -12 -3
c-61 -25 -98 -100 -98 -164c0 -47 27 -89 78 -89c49 0 125 42 133 94c27 13 37 37 37 65c0 50 -37 63 -77 74h-4zM107 292c-48 0 -69 29 -69 75c0 39 20 81 50 107c7 6 16 13 25 15c-24 -24 -38 -54 -38 -89c0 -42 15 -82 64 -82c26 0 49 17 71 30c-27 -38 -55 -56 -103 -56
z" />
    <glyph glyph-name="Zcaron" unicode="&#x17d;" 
d="M187 498c-4 0 -10 -1 -10 -6c0 -19 73 -16 73 -80c0 -5 -1 -10 -5 -14c-26 -31 -37 -48 -82 -56c-5 0 -10 -1 -16 -1c-35 0 -52 23 -52 56c0 42 19 79 55 101c4 2 34 18 34 22c0 3 -7 4 -9 4c-12 0 -26 -7 -35 -15v3c0 6 -4 9 -10 9c-4 0 -8 -1 -12 -3
c-61 -25 -98 -100 -98 -164c0 -47 27 -89 78 -89c49 0 125 42 133 94c27 13 37 37 37 65c0 50 -37 63 -77 74h-4zM107 292c-48 0 -69 29 -69 75c0 39 20 81 50 107c7 6 16 13 25 15c-24 -24 -38 -54 -38 -89c0 -42 15 -82 64 -82c26 0 49 17 71 30c-27 -38 -55 -56 -103 -56
z" />
    <glyph glyph-name="zcaron" unicode="&#x17e;" 
d="M187 498c-4 0 -10 -1 -10 -6c0 -19 73 -16 73 -80c0 -5 -1 -10 -5 -14c-26 -31 -37 -48 -82 -56c-5 0 -10 -1 -16 -1c-35 0 -52 23 -52 56c0 42 19 79 55 101c4 2 34 18 34 22c0 3 -7 4 -9 4c-12 0 -26 -7 -35 -15v3c0 6 -4 9 -10 9c-4 0 -8 -1 -12 -3
c-61 -25 -98 -100 -98 -164c0 -47 27 -89 78 -89c49 0 125 42 133 94c27 13 37 37 37 65c0 50 -37 63 -77 74h-4zM107 292c-48 0 -69 29 -69 75c0 39 20 81 50 107c7 6 16 13 25 15c-24 -24 -38 -54 -38 -89c0 -42 15 -82 64 -82c26 0 49 17 71 30c-27 -38 -55 -56 -103 -56
z" />
    <glyph glyph-name="DLE" 
d="M187 498c-4 0 -10 -1 -10 -6c0 -19 73 -16 73 -80c0 -5 -1 -10 -5 -14c-26 -31 -37 -48 -82 -56c-5 0 -10 -1 -16 -1c-35 0 -52 23 -52 56c0 42 19 79 55 101c4 2 34 18 34 22c0 3 -7 4 -9 4c-12 0 -26 -7 -35 -15v3c0 6 -4 9 -10 9c-4 0 -8 -1 -12 -3
c-61 -25 -98 -100 -98 -164c0 -47 27 -89 78 -89c49 0 125 42 133 94c27 13 37 37 37 65c0 50 -37 63 -77 74h-4zM107 292c-48 0 -69 29 -69 75c0 39 20 81 50 107c7 6 16 13 25 15c-24 -24 -38 -54 -38 -89c0 -42 15 -82 64 -82c26 0 49 17 71 30c-27 -38 -55 -56 -103 -56
z" />
    <glyph glyph-name="DC1" 
d="M187 498c-4 0 -10 -1 -10 -6c0 -19 73 -16 73 -80c0 -5 -1 -10 -5 -14c-26 -31 -37 -48 -82 -56c-5 0 -10 -1 -16 -1c-35 0 -52 23 -52 56c0 42 19 79 55 101c4 2 34 18 34 22c0 3 -7 4 -9 4c-12 0 -26 -7 -35 -15v3c0 6 -4 9 -10 9c-4 0 -8 -1 -12 -3
c-61 -25 -98 -100 -98 -164c0 -47 27 -89 78 -89c49 0 125 42 133 94c27 13 37 37 37 65c0 50 -37 63 -77 74h-4zM107 292c-48 0 -69 29 -69 75c0 39 20 81 50 107c7 6 16 13 25 15c-24 -24 -38 -54 -38 -89c0 -42 15 -82 64 -82c26 0 49 17 71 30c-27 -38 -55 -56 -103 -56
z" />
    <glyph glyph-name="DC2" 
d="M187 498c-4 0 -10 -1 -10 -6c0 -19 73 -16 73 -80c0 -5 -1 -10 -5 -14c-26 -31 -37 -48 -82 -56c-5 0 -10 -1 -16 -1c-35 0 -52 23 -52 56c0 42 19 79 55 101c4 2 34 18 34 22c0 3 -7 4 -9 4c-12 0 -26 -7 -35 -15v3c0 6 -4 9 -10 9c-4 0 -8 -1 -12 -3
c-61 -25 -98 -100 -98 -164c0 -47 27 -89 78 -89c49 0 125 42 133 94c27 13 37 37 37 65c0 50 -37 63 -77 74h-4zM107 292c-48 0 -69 29 -69 75c0 39 20 81 50 107c7 6 16 13 25 15c-24 -24 -38 -54 -38 -89c0 -42 15 -82 64 -82c26 0 49 17 71 30c-27 -38 -55 -56 -103 -56
z" />
    <glyph glyph-name="DC3" 
d="M187 498c-4 0 -10 -1 -10 -6c0 -19 73 -16 73 -80c0 -5 -1 -10 -5 -14c-26 -31 -37 -48 -82 -56c-5 0 -10 -1 -16 -1c-35 0 -52 23 -52 56c0 42 19 79 55 101c4 2 34 18 34 22c0 3 -7 4 -9 4c-12 0 -26 -7 -35 -15v3c0 6 -4 9 -10 9c-4 0 -8 -1 -12 -3
c-61 -25 -98 -100 -98 -164c0 -47 27 -89 78 -89c49 0 125 42 133 94c27 13 37 37 37 65c0 50 -37 63 -77 74h-4zM107 292c-48 0 -69 29 -69 75c0 39 20 81 50 107c7 6 16 13 25 15c-24 -24 -38 -54 -38 -89c0 -42 15 -82 64 -82c26 0 49 17 71 30c-27 -38 -55 -56 -103 -56
z" />
    <glyph glyph-name="DC4" 
d="M187 498c-4 0 -10 -1 -10 -6c0 -19 73 -16 73 -80c0 -5 -1 -10 -5 -14c-26 -31 -37 -48 -82 -56c-5 0 -10 -1 -16 -1c-35 0 -52 23 -52 56c0 42 19 79 55 101c4 2 34 18 34 22c0 3 -7 4 -9 4c-12 0 -26 -7 -35 -15v3c0 6 -4 9 -10 9c-4 0 -8 -1 -12 -3
c-61 -25 -98 -100 -98 -164c0 -47 27 -89 78 -89c49 0 125 42 133 94c27 13 37 37 37 65c0 50 -37 63 -77 74h-4zM107 292c-48 0 -69 29 -69 75c0 39 20 81 50 107c7 6 16 13 25 15c-24 -24 -38 -54 -38 -89c0 -42 15 -82 64 -82c26 0 49 17 71 30c-27 -38 -55 -56 -103 -56
z" />
    <glyph glyph-name="onehalf" unicode="&#xbd;" 
d="M187 498c-4 0 -10 -1 -10 -6c0 -19 73 -16 73 -80c0 -5 -1 -10 -5 -14c-26 -31 -37 -48 -82 -56c-5 0 -10 -1 -16 -1c-35 0 -52 23 -52 56c0 42 19 79 55 101c4 2 34 18 34 22c0 3 -7 4 -9 4c-12 0 -26 -7 -35 -15v3c0 6 -4 9 -10 9c-4 0 -8 -1 -12 -3
c-61 -25 -98 -100 -98 -164c0 -47 27 -89 78 -89c49 0 125 42 133 94c27 13 37 37 37 65c0 50 -37 63 -77 74h-4zM107 292c-48 0 -69 29 -69 75c0 39 20 81 50 107c7 6 16 13 25 15c-24 -24 -38 -54 -38 -89c0 -42 15 -82 64 -82c26 0 49 17 71 30c-27 -38 -55 -56 -103 -56
z" />
    <glyph glyph-name="onequarter" unicode="&#xbc;" 
d="M187 498c-4 0 -10 -1 -10 -6c0 -19 73 -16 73 -80c0 -5 -1 -10 -5 -14c-26 -31 -37 -48 -82 -56c-5 0 -10 -1 -16 -1c-35 0 -52 23 -52 56c0 42 19 79 55 101c4 2 34 18 34 22c0 3 -7 4 -9 4c-12 0 -26 -7 -35 -15v3c0 6 -4 9 -10 9c-4 0 -8 -1 -12 -3
c-61 -25 -98 -100 -98 -164c0 -47 27 -89 78 -89c49 0 125 42 133 94c27 13 37 37 37 65c0 50 -37 63 -77 74h-4zM107 292c-48 0 -69 29 -69 75c0 39 20 81 50 107c7 6 16 13 25 15c-24 -24 -38 -54 -38 -89c0 -42 15 -82 64 -82c26 0 49 17 71 30c-27 -38 -55 -56 -103 -56
z" />
    <glyph glyph-name="onesuperior" unicode="&#xb9;" 
d="M187 498c-4 0 -10 -1 -10 -6c0 -19 73 -16 73 -80c0 -5 -1 -10 -5 -14c-26 -31 -37 -48 -82 -56c-5 0 -10 -1 -16 -1c-35 0 -52 23 -52 56c0 42 19 79 55 101c4 2 34 18 34 22c0 3 -7 4 -9 4c-12 0 -26 -7 -35 -15v3c0 6 -4 9 -10 9c-4 0 -8 -1 -12 -3
c-61 -25 -98 -100 -98 -164c0 -47 27 -89 78 -89c49 0 125 42 133 94c27 13 37 37 37 65c0 50 -37 63 -77 74h-4zM107 292c-48 0 -69 29 -69 75c0 39 20 81 50 107c7 6 16 13 25 15c-24 -24 -38 -54 -38 -89c0 -42 15 -82 64 -82c26 0 49 17 71 30c-27 -38 -55 -56 -103 -56
z" />
    <glyph glyph-name="threequarters" unicode="&#xbe;" 
d="M187 498c-4 0 -10 -1 -10 -6c0 -19 73 -16 73 -80c0 -5 -1 -10 -5 -14c-26 -31 -37 -48 -82 -56c-5 0 -10 -1 -16 -1c-35 0 -52 23 -52 56c0 42 19 79 55 101c4 2 34 18 34 22c0 3 -7 4 -9 4c-12 0 -26 -7 -35 -15v3c0 6 -4 9 -10 9c-4 0 -8 -1 -12 -3
c-61 -25 -98 -100 -98 -164c0 -47 27 -89 78 -89c49 0 125 42 133 94c27 13 37 37 37 65c0 50 -37 63 -77 74h-4zM107 292c-48 0 -69 29 -69 75c0 39 20 81 50 107c7 6 16 13 25 15c-24 -24 -38 -54 -38 -89c0 -42 15 -82 64 -82c26 0 49 17 71 30c-27 -38 -55 -56 -103 -56
z" />
    <glyph glyph-name="threesuperior" unicode="&#xb3;" 
d="M187 498c-4 0 -10 -1 -10 -6c0 -19 73 -16 73 -80c0 -5 -1 -10 -5 -14c-26 -31 -37 -48 -82 -56c-5 0 -10 -1 -16 -1c-35 0 -52 23 -52 56c0 42 19 79 55 101c4 2 34 18 34 22c0 3 -7 4 -9 4c-12 0 -26 -7 -35 -15v3c0 6 -4 9 -10 9c-4 0 -8 -1 -12 -3
c-61 -25 -98 -100 -98 -164c0 -47 27 -89 78 -89c49 0 125 42 133 94c27 13 37 37 37 65c0 50 -37 63 -77 74h-4zM107 292c-48 0 -69 29 -69 75c0 39 20 81 50 107c7 6 16 13 25 15c-24 -24 -38 -54 -38 -89c0 -42 15 -82 64 -82c26 0 49 17 71 30c-27 -38 -55 -56 -103 -56
z" />
    <glyph glyph-name="twosuperior" unicode="&#xb2;" 
d="M187 498c-4 0 -10 -1 -10 -6c0 -19 73 -16 73 -80c0 -5 -1 -10 -5 -14c-26 -31 -37 -48 -82 -56c-5 0 -10 -1 -16 -1c-35 0 -52 23 -52 56c0 42 19 79 55 101c4 2 34 18 34 22c0 3 -7 4 -9 4c-12 0 -26 -7 -35 -15v3c0 6 -4 9 -10 9c-4 0 -8 -1 -12 -3
c-61 -25 -98 -100 -98 -164c0 -47 27 -89 78 -89c49 0 125 42 133 94c27 13 37 37 37 65c0 50 -37 63 -77 74h-4zM107 292c-48 0 -69 29 -69 75c0 39 20 81 50 107c7 6 16 13 25 15c-24 -24 -38 -54 -38 -89c0 -42 15 -82 64 -82c26 0 49 17 71 30c-27 -38 -55 -56 -103 -56
z" />
    <glyph glyph-name="brokenbar" unicode="&#xa6;" 
d="M187 498c-4 0 -10 -1 -10 -6c0 -19 73 -16 73 -80c0 -5 -1 -10 -5 -14c-26 -31 -37 -48 -82 -56c-5 0 -10 -1 -16 -1c-35 0 -52 23 -52 56c0 42 19 79 55 101c4 2 34 18 34 22c0 3 -7 4 -9 4c-12 0 -26 -7 -35 -15v3c0 6 -4 9 -10 9c-4 0 -8 -1 -12 -3
c-61 -25 -98 -100 -98 -164c0 -47 27 -89 78 -89c49 0 125 42 133 94c27 13 37 37 37 65c0 50 -37 63 -77 74h-4zM107 292c-48 0 -69 29 -69 75c0 39 20 81 50 107c7 6 16 13 25 15c-24 -24 -38 -54 -38 -89c0 -42 15 -82 64 -82c26 0 49 17 71 30c-27 -38 -55 -56 -103 -56
z" />
    <glyph glyph-name="minus" unicode="&#x2212;" 
d="M187 498c-4 0 -10 -1 -10 -6c0 -19 73 -16 73 -80c0 -5 -1 -10 -5 -14c-26 -31 -37 -48 -82 -56c-5 0 -10 -1 -16 -1c-35 0 -52 23 -52 56c0 42 19 79 55 101c4 2 34 18 34 22c0 3 -7 4 -9 4c-12 0 -26 -7 -35 -15v3c0 6 -4 9 -10 9c-4 0 -8 -1 -12 -3
c-61 -25 -98 -100 -98 -164c0 -47 27 -89 78 -89c49 0 125 42 133 94c27 13 37 37 37 65c0 50 -37 63 -77 74h-4zM107 292c-48 0 -69 29 -69 75c0 39 20 81 50 107c7 6 16 13 25 15c-24 -24 -38 -54 -38 -89c0 -42 15 -82 64 -82c26 0 49 17 71 30c-27 -38 -55 -56 -103 -56
z" />
    <glyph glyph-name="multiply" unicode="&#xd7;" 
d="M187 498c-4 0 -10 -1 -10 -6c0 -19 73 -16 73 -80c0 -5 -1 -10 -5 -14c-26 -31 -37 -48 -82 -56c-5 0 -10 -1 -16 -1c-35 0 -52 23 -52 56c0 42 19 79 55 101c4 2 34 18 34 22c0 3 -7 4 -9 4c-12 0 -26 -7 -35 -15v3c0 6 -4 9 -10 9c-4 0 -8 -1 -12 -3
c-61 -25 -98 -100 -98 -164c0 -47 27 -89 78 -89c49 0 125 42 133 94c27 13 37 37 37 65c0 50 -37 63 -77 74h-4zM107 292c-48 0 -69 29 -69 75c0 39 20 81 50 107c7 6 16 13 25 15c-24 -24 -38 -54 -38 -89c0 -42 15 -82 64 -82c26 0 49 17 71 30c-27 -38 -55 -56 -103 -56
z" />
    <glyph glyph-name="RS" 
d="M187 498c-4 0 -10 -1 -10 -6c0 -19 73 -16 73 -80c0 -5 -1 -10 -5 -14c-26 -31 -37 -48 -82 -56c-5 0 -10 -1 -16 -1c-35 0 -52 23 -52 56c0 42 19 79 55 101c4 2 34 18 34 22c0 3 -7 4 -9 4c-12 0 -26 -7 -35 -15v3c0 6 -4 9 -10 9c-4 0 -8 -1 -12 -3
c-61 -25 -98 -100 -98 -164c0 -47 27 -89 78 -89c49 0 125 42 133 94c27 13 37 37 37 65c0 50 -37 63 -77 74h-4zM107 292c-48 0 -69 29 -69 75c0 39 20 81 50 107c7 6 16 13 25 15c-24 -24 -38 -54 -38 -89c0 -42 15 -82 64 -82c26 0 49 17 71 30c-27 -38 -55 -56 -103 -56
z" />
    <glyph glyph-name="US" 
d="M187 498c-4 0 -10 -1 -10 -6c0 -19 73 -16 73 -80c0 -5 -1 -10 -5 -14c-26 -31 -37 -48 -82 -56c-5 0 -10 -1 -16 -1c-35 0 -52 23 -52 56c0 42 19 79 55 101c4 2 34 18 34 22c0 3 -7 4 -9 4c-12 0 -26 -7 -35 -15v3c0 6 -4 9 -10 9c-4 0 -8 -1 -12 -3
c-61 -25 -98 -100 -98 -164c0 -47 27 -89 78 -89c49 0 125 42 133 94c27 13 37 37 37 65c0 50 -37 63 -77 74h-4zM107 292c-48 0 -69 29 -69 75c0 39 20 81 50 107c7 6 16 13 25 15c-24 -24 -38 -54 -38 -89c0 -42 15 -82 64 -82c26 0 49 17 71 30c-27 -38 -55 -56 -103 -56
z" />
    <glyph glyph-name="space" unicode=" " 
d="M187 498c-4 0 -10 -1 -10 -6c0 -19 73 -16 73 -80c0 -5 -1 -10 -5 -14c-26 -31 -37 -48 -82 -56c-5 0 -10 -1 -16 -1c-35 0 -52 23 -52 56c0 42 19 79 55 101c4 2 34 18 34 22c0 3 -7 4 -9 4c-12 0 -26 -7 -35 -15v3c0 6 -4 9 -10 9c-4 0 -8 -1 -12 -3
c-61 -25 -98 -100 -98 -164c0 -47 27 -89 78 -89c49 0 125 42 133 94c27 13 37 37 37 65c0 50 -37 63 -77 74h-4zM107 292c-48 0 -69 29 -69 75c0 39 20 81 50 107c7 6 16 13 25 15c-24 -24 -38 -54 -38 -89c0 -42 15 -82 64 -82c26 0 49 17 71 30c-27 -38 -55 -56 -103 -56
z" />
    <glyph glyph-name="exclam" unicode="!" horiz-adv-x="260" 
d="M219 661c-34 0 -69 -1 -103 -2c-11 0 -20 -5 -27 -13c-20 -20 -37 -43 -54 -65c-1 -2 -2 -4 -2 -6s1 -4 4 -4c10 0 26 25 31 31c9 11 19 22 28 32c-4 -36 -7 -72 -7 -109c0 -18 1 -38 4 -57c8 -45 10 -93 13 -140c1 -26 1 -59 5 -85l-39 -35c-4 18 -16 26 -16 51
c0 28 -2 57 -4 85c-2 42 -4 84 -9 125c-2 26 -7 54 -7 80c0 5 -1 14 -8 14c-8 0 -8 -13 -8 -19c0 -26 6 -51 9 -77c6 -42 4 -86 4 -128c0 -30 5 -76 10 -106c2 -12 3 -27 14 -33c2 -1 5 -2 7 -2v-1c-1 -10 12 -17 19 -20c-10 -11 -44 -47 -44 -62v-2c4 -17 5 -34 5 -51
c0 -14 -1 -28 -5 -42c-1 -3 -2 -6 -2 -10s2 -9 7 -9c4 0 8 3 11 4c5 3 42 4 48 4c19 0 36 -2 55 -6h6c3 0 14 0 14 6c10 26 50 56 50 67v1c-3 25 -16 64 -17 87v30c0 9 0 19 -3 28c3 3 5 7 5 12c0 2 -1 5 -2 7c-8 0 -8 20 -8 25c0 8 1 17 2 25c12 84 33 168 33 254v75
c-3 1 -5 -9 -6 -12c-5 -20 -8 -39 -9 -60c-2 -30 -3 -60 -5 -90c-2 -28 -12 -57 -12 -85c0 -13 -4 -26 -6 -38c-5 -25 -9 -50 -9 -75c0 -8 1 -16 2 -23l-66 1c-1 39 -4 78 -7 117c-4 55 -17 110 -17 165c0 28 4 56 4 84c0 13 0 27 -1 40c23 0 46 0 69 1c13 0 27 2 40 2
c23 0 22 -13 28 -13c3 0 7 7 7 10c0 12 -22 17 -31 17zM54 49l2 77l35 39l-8 -85zM169 23c-15 3 -28 5 -43 5c-23 0 -46 -3 -68 -9l5 16l21 26c5 -1 12 -2 16 -2c11 0 21 2 31 4c15 4 33 4 49 4c8 0 16 -1 24 -1c-13 -8 -28 -31 -35 -43zM206 85c-7 0 -14 1 -21 1
c-22 0 -42 -6 -64 -6c-7 0 -14 1 -22 2c2 9 11 78 10 83h5c23 -1 47 8 65 8c9 0 17 -3 25 -6c2 -22 4 -43 4 -65c0 -2 0 -17 -2 -17zM173 221c5 0 12 -2 18 -3c-9 -13 -35 -33 -52 -33c-18 0 -38 5 -56 11c12 10 23 20 32 31c5 -10 12 -10 23 -10c12 0 24 4 35 4z" />
    <glyph glyph-name="quotedbl" unicode="&#x22;" horiz-adv-x="353" 
d="M247 776c-1 4 -3 11 -9 11c-8 0 -20 -15 -23 -21c2 10 6 22 6 31c0 4 -1 8 -6 8c-4 0 -8 -3 -12 -5c-23 -16 -55 -13 -82 -16c-5 -1 -14 -2 -14 -9c0 -11 16 -13 24 -13c21 0 42 4 63 9c-5 -51 -11 -101 -18 -152c-4 -29 -8 -60 -16 -88l-34 3c-9 55 -18 110 -18 165
c0 14 -5 96 -23 96c-4 0 -46 -37 -52 -42c-12 -20 -13 -38 -13 -61c0 -73 25 -142 25 -221c0 -11 -1 -22 -2 -34c-1 -4 -2 -10 -2 -14s0 -18 7 -18c9 0 12 11 15 17c129 21 68 16 118 95l1 50c21 -35 6 -98 20 -113c1 -2 2 -5 4 -7c5 -4 22 -7 28 -8s13 -1 19 -1
c20 0 44 6 50 27c8 30 25 55 27 87c6 74 10 147 13 221c-3 10 -15 13 -25 13c-23 0 -49 -7 -71 -10zM55 459c1 5 1 10 1 15c0 47 -11 95 -14 142c-1 31 -5 60 -5 90l1 20c6 5 8 12 12 18c3 3 26 29 29 29c8 0 11 -45 12 -50c5 -63 11 -124 14 -187c-13 -3 -45 -67 -50 -77z
M132 455c-13 -3 -27 -6 -41 -6c-1 0 -12 0 -12 3c0 9 25 49 29 57l50 -7zM209 511c0 21 -2 86 -17 101l16 117c4 -1 7 -3 11 -3c2 0 4 1 5 2c6 -34 20 -102 20 -136c0 -10 -1 -50 3 -58l-31 -56c-1 -1 -2 -2 -3 -2c-7 0 -4 30 -4 35zM282 464l-50 -2l29 59
c12 -8 33 -10 47 -9c-12 -10 -22 -34 -26 -48zM310 542c-7 -2 -14 -4 -21 -4c-9 0 -23 7 -24 17c-5 48 -8 96 -13 143c-2 18 -4 38 -8 55c22 3 45 7 67 10l15 -3c-1 -34 -5 -187 -16 -218z" />
    <glyph glyph-name="numbersign" unicode="#" horiz-adv-x="528" 
d="M442 498c11 41 22 78 39 117c3 5 5 11 5 17c0 13 -9 14 -19 14c-22 0 -45 -1 -67 -3c-25 -11 -48 -28 -72 -44c2 5 14 34 14 38c0 6 -6 6 -10 6l-68 2c-5 0 -12 -7 -14 -11c-15 -22 -55 -63 -73 -83l-6 -55c-4 0 -25 -1 -28 -4c-6 -4 -62 -26 -70 -29
c-2 -18 -5 -38 -5 -56c0 -5 13 -7 16 -8c19 -2 38 -7 57 -11l-12 -72c-10 0 -20 1 -30 1c-1 0 -62 -21 -67 -22c-5 -7 -12 -43 -12 -50s1 -11 7 -13c8 -5 68 -15 78 -17c-8 -18 -57 -132 -57 -143c0 -6 3 -10 8 -11c23 -5 62 -6 86 -8c16 14 34 30 46 47
c-5 -9 -12 -24 -12 -35c0 -3 0 -6 3 -7c4 -3 91 -22 93 -22c15 0 59 53 62 61c12 34 22 69 34 103l74 37c0 -1 1 -1 2 -1c6 0 10 12 11 17c5 20 10 40 15 61c1 1 1 2 1 3c0 11 -17 10 -25 10c-16 0 -32 1 -47 3l12 63l80 16c4 1 12 10 12 15c2 12 15 53 15 57
c0 5 -1 16 -9 16c-22 0 -45 1 -67 1zM375 612c2 0 3 -6 3 -7c0 -11 -14 -50 -16 -60c-4 -14 -7 -28 -12 -41c-2 -8 -6 -15 -9 -22l-46 2l27 94c5 3 45 34 53 34zM189 547l56 57c-7 -27 -14 -54 -20 -81c-3 -11 -4 -24 -8 -35c-1 -4 -10 -4 -13 -4c-11 0 -22 3 -33 5
c7 8 16 46 18 58zM81 426c0 8 1 18 3 25c1 3 3 6 6 6c16 4 32 11 47 17c-2 -5 -10 -34 -16 -37c-8 -5 -27 -13 -36 -13c-2 0 -4 0 -4 2zM82 411c2 4 33 11 37 12c19 -3 38 -6 56 -12c-3 -1 -23 -10 -26 -10c-22 0 -46 6 -67 10zM154 390c5 4 25 14 32 14l2 -1
c0 -6 -17 -77 -19 -88c-5 -1 -9 -1 -14 -1c-8 0 -16 -1 -16 9c0 17 10 50 15 67zM40 284c0 3 5 5 7 5c15 5 30 10 44 15l-11 -39c-9 -8 -36 -10 -47 -11c1 -1 0 -2 0 -2v0c0 7 5 26 7 32zM102 228c-5 0 -67 5 -68 12c3 6 37 9 43 9l6 -1c4 -5 31 -10 36 -11
c-3 -4 -13 -9 -17 -9zM116 218c1 1 31 22 32 22s1 0 1 -2c0 -6 -6 -18 -8 -23c-10 -24 -21 -48 -26 -74c-3 -15 -27 -33 -41 -39v0c-2 0 -2 3 -2 3c0 20 36 95 44 113zM141 64c-8 0 -72 4 -77 7c-2 1 -5 2 -5 5c0 2 3 4 5 5c2 2 45 30 50 29l55 -13zM233 241
c5 -3 33 -4 40 -4c2 0 12 0 12 -2c0 -14 -23 -78 -30 -94c-6 -14 -6 -32 -18 -43c-9 -7 -39 -21 -49 -26c13 57 30 113 45 169zM272 49c-4 0 -9 2 -14 3c-15 3 -34 4 -48 9c-1 0 -2 2 -2 3c0 5 41 26 44 28l65 7c-1 -4 -35 -47 -39 -48c-2 -2 -3 -2 -6 -2zM372 213
c0 4 3 38 10 38c17 0 34 -2 51 -3c-19 -13 -40 -24 -61 -35zM418 404c3 6 2 19 10 19c14 0 30 -4 44 -6zM486 435c-15 5 -32 9 -48 9c-8 0 -28 -2 -30 -13c-3 -14 -7 -28 -12 -42c-2 -8 -6 -15 -8 -23c-3 -14 -7 -29 -10 -44c8 -11 63 -15 73 -16l-11 -40l-63 3
c-9 0 -14 -6 -14 -15c-1 -15 -12 -45 -17 -59l-22 -76l-57 -6c5 15 41 127 38 142c1 1 2 1 2 3s-6 3 -8 3c-26 2 -52 3 -77 5c-4 -2 -8 -5 -8 -10c-3 -17 0 -33 -6 -50c-10 -27 -17 -55 -24 -82l-54 9c9 25 37 97 39 129c-3 2 -8 2 -11 2c-14 0 -27 -7 -41 -7
c-7 0 -11 3 -17 5l10 34l35 1c5 0 11 -3 16 -3c6 0 15 2 18 8c6 11 27 107 30 121c1 1 1 2 1 3c0 12 -26 8 -33 8c-12 0 -23 0 -34 4l8 33c3 1 6 2 9 2s6 -1 8 -2c14 -5 28 -7 42 -7c8 0 24 -2 24 8c0 7 -3 13 -3 19c0 18 9 43 16 59c9 21 5 44 20 75l52 1
c-9 -24 -44 -127 -44 -152c0 -16 49 -11 60 -10c2 -1 4 -2 7 -2c7 0 12 6 15 13c10 26 18 52 25 79l17 67l67 8c-13 -33 -44 -107 -44 -144c0 -5 0 -13 8 -13c11 0 23 2 35 2c10 0 21 0 31 -1zM288 424c-7 0 -11 -10 -12 -16l-25 -79c0 -10 7 -18 17 -18c15 0 29 1 44 2
c8 0 11 13 12 20c4 21 5 43 9 65c1 4 3 7 3 12c0 4 -2 9 -6 9c-16 0 -31 5 -42 5zM305 334h-35l20 70c4 1 9 3 13 3c3 0 9 -2 9 -5c0 -23 -4 -46 -7 -68z" />
    <glyph glyph-name="dollar" unicode="$" horiz-adv-x="468" 
d="M320 428c8 1 7 15 9 20c3 13 8 25 13 38l84 2l-25 -44c-17 -2 -36 -4 -53 -4c-6 0 -14 -3 -14 -9c0 -3 1 -6 3 -9h50c10 0 20 -3 31 -3c7 0 13 2 13 9s-5 11 -11 13l22 69c-13 67 -37 96 -85 140c-17 16 -54 20 -75 19c0 15 1 32 -3 47c-18 1 -36 4 -54 4
c-3 0 -7 0 -10 -2l-45 -50c-4 -4 -27 -17 -33 -22c-41 -32 -55 -62 -68 -111c-2 -8 -12 -22 -15 -30c-13 -29 -22 -60 -22 -90c0 -13 2 -25 6 -37c11 -38 59 -90 98 -99l48 -9l-1 -42c-7 15 -6 29 -17 43c-28 1 -56 3 -84 3c-9 0 -18 -1 -27 -1l-1 -4c-7 -3 -10 -8 -12 -15
c-5 -15 -10 -31 -19 -45c-4 -5 -6 -7 -6 -14c0 -4 1 -9 3 -13c4 -9 6 -19 8 -28c10 -34 25 -56 55 -74c28 -17 55 -34 84 -49c-3 -25 -6 -52 -7 -78l3 -6c0 -1 -1 -2 -1 -3c0 -4 6 -6 9 -6c9 0 18 5 28 5c11 0 21 -4 30 -4c5 0 5 6 5 9c2 12 12 27 19 36l17 22l11 3
c6 -2 11 -2 17 -2h8c18 3 50 28 63 41c26 25 48 72 54 107v0c28 32 35 68 35 110c0 60 -37 86 -74 125c-17 18 -41 30 -64 38zM331 492l-14 -36c-5 20 -9 48 -31 57l1 60c19 -3 40 -21 43 -41c2 -13 4 -26 7 -38zM312 431c-8 3 -17 6 -25 8l1 47c9 -6 13 -44 24 -55z
M214 697v-25h-27zM53 406c0 25 7 50 13 74c8 -81 84 -130 157 -149l-34 -47c-36 11 -75 28 -100 56c-19 21 -36 35 -36 66zM230 318l-2 -122c-8 1 -20 7 -26 11l-1 70zM170 58c-27 6 -71 23 -88 46c-13 18 -50 75 -50 95v2l25 39c5 -18 12 -36 20 -52
c29 -64 69 -91 136 -105l-25 -23c-2 1 -5 2 -9 2c-3 0 -7 -1 -9 -4zM184 26l39 38c0 -13 -2 -27 -2 -40c0 -3 0 -6 2 -8l-45 -40zM222 -40c-12 0 -28 1 -40 -3l49 53c7 -2 15 -3 22 -4c-6 -7 -31 -34 -31 -46zM290 25l4 52c38 0 76 28 103 52c-6 -48 -58 -102 -107 -104z
M305 97c-8 0 -15 5 -22 5c-6 0 -8 -7 -7 -13c-7 0 -8 -50 -8 -58h-30v70l-32 6c-54 10 -62 28 -97 63c-18 19 -29 60 -32 85c3 -5 25 -6 30 -6c16 0 33 2 49 5v-9c0 -25 12 -41 32 -53c12 -7 34 -15 47 -15c3 0 6 0 9 1c0 4 1 8 1 11c0 10 -1 19 -1 28l2 118l-8 16
c-10 6 -21 10 -32 15c-26 11 -75 37 -96 55c-20 18 -26 62 -26 87c0 14 1 28 5 41c11 41 78 115 125 115c10 0 11 -6 17 -6c2 0 5 2 5 4l-2 34l25 -1v-22c0 -24 37 -26 54 -30c11 -3 22 -6 33 -10c36 -15 63 -86 72 -119c-13 -4 -27 -6 -40 -6c-9 0 -18 1 -26 3
c-1 43 -22 74 -64 84h-5c-6 0 -15 -3 -15 -11c0 -45 1 -91 1 -136c0 -10 2 -22 13 -26c34 -12 62 -36 94 -54c42 -23 64 -71 64 -118c0 -43 -27 -78 -56 -107c-19 -19 -50 -46 -79 -46zM164 515c0 -31 25 -57 47 -75c5 -3 11 -6 16 -6c7 0 13 4 17 10l4 139c0 3 -4 4 -6 4
c-7 0 -14 -2 -21 -2c-27 0 -57 -46 -57 -70zM190 501c-1 -1 -2 -1 -4 -1c-7 0 -7 11 -7 16c0 21 19 39 36 48zM225 449c-10 1 -23 22 -27 30l28 50zM283 325c-2 0 -5 -2 -6 -4c-4 -20 -8 -44 -8 -65c0 -22 4 -45 4 -67c0 -7 5 -9 11 -9c23 0 53 37 53 59c0 25 -11 48 -28 66
l-15 12c-4 3 -6 8 -11 8zM286 200l2 94c13 -17 30 -16 30 -48c0 -20 -10 -44 -32 -46z" />
    <glyph glyph-name="percent" unicode="%" horiz-adv-x="719" 
d="M500 586c-7 0 -39 -27 -44 -36c-15 -23 -33 -45 -51 -67c-6 -9 -13 -19 -21 -27c-10 -11 -22 -19 -28 -34c-9 -22 -32 -57 -44 -78c-37 -63 -75 -127 -112 -190c-13 -21 -46 -72 -54 -90c-17 -37 -32 -75 -47 -112c-2 -5 -8 -25 -5 -31c-2 -3 -3 -6 -3 -9
c0 -11 15 -16 24 -18c12 -3 26 -15 31 -15c6 0 19 4 19 11c0 11 -46 30 -54 34c17 22 31 83 44 109c27 53 55 111 84 163c11 21 140 235 155 246c16 13 43 66 56 82c8 10 52 46 52 61c0 1 -1 1 -2 1zM144 -70c0 -7 9 -5 14 -5c22 0 44 3 66 5l34 105c0 2 10 16 12 19
c12 23 247 490 284 503c10 17 18 36 24 55c-1 2 -9 3 -11 3c-13 0 -29 -4 -41 -8c-3 -1 -21 -13 -22 -15l-323 -547c-7 -12 -37 -97 -37 -115zM211 -56c-13 -3 -25 -5 -38 -5c-1 0 -12 0 -12 4v1c2 8 6 16 9 25c8 22 16 44 23 66h47zM259 59l-53 -1l73 127
c40 68 79 137 120 205c12 19 25 38 37 58c15 25 74 117 79 138l43 6l-100 -168c-19 -33 -31 -51 -49 -84c-21 -36 -31 -57 -50 -94zM199 602c-18 0 -38 -7 -55 -13c-1 0 -17 -10 -19 -11c-31 -20 -81 -61 -92 -98c-8 -25 -13 -50 -13 -76c0 -44 14 -86 60 -101
c30 -9 62 -16 94 -16c54 0 95 10 120 64c28 25 49 59 49 97c0 10 -2 23 -6 32c-24 54 -71 122 -138 122zM211 308c-28 2 -55 4 -83 4c-29 0 -62 14 -79 39c-11 15 -15 41 -15 59c0 21 5 42 12 62c3 -23 5 -47 8 -70c6 -40 57 -73 93 -82c6 -2 13 -2 19 -2c33 0 69 9 100 19
c-6 -13 -44 -26 -55 -29zM164 339c-47 0 -84 40 -98 82c-1 2 -1 19 -1 21c0 34 7 75 31 100c6 6 11 9 17 14c25 17 45 28 76 28c72 0 106 -59 129 -117c3 -8 5 -16 5 -24c0 -41 -52 -83 -90 -91c-23 -5 -45 -13 -69 -13zM194 529c-4 0 -8 -2 -8 -7c0 -13 12 -14 20 -16
c13 -4 16 1 21 -17c3 -13 9 -27 9 -41c0 -10 -4 -15 -12 -22c1 6 1 11 1 16c0 25 -12 37 -31 49c-2 1 -5 2 -8 2c-8 0 -16 -3 -23 -6c3 8 6 16 6 24c0 2 0 5 -2 5c-3 0 -7 -4 -9 -6c-15 -19 -25 -42 -25 -67c0 -29 15 -53 46 -53c48 0 79 23 79 75c0 22 -13 52 -35 58
c-6 2 -27 1 -29 6zM151 437c0 9 2 19 5 28c10 0 20 6 30 6c19 0 19 -42 24 -55c-7 -5 -16 -7 -25 -7c-21 0 -34 5 -34 28zM553 331c-23 0 -45 -6 -65 -17c-7 -4 -13 -10 -20 -13c-60 -29 -93 -82 -93 -148c0 -41 17 -91 59 -106c32 -11 59 -24 94 -24c32 0 62 12 88 30
c26 17 75 51 88 80c4 10 5 21 5 32c0 76 -34 133 -109 157c-16 5 -30 9 -47 9zM395 150c0 45 15 88 50 118c-22 -20 -34 -54 -34 -83c0 -21 9 -58 22 -74c9 -12 57 -59 73 -65c-32 4 -99 23 -107 62c-3 14 -4 28 -4 42zM560 60c-57 0 -130 46 -130 109c0 28 13 56 24 82
c14 32 60 59 93 59c34 0 75 -22 102 -40c28 -20 40 -56 40 -89c0 -72 -59 -121 -129 -121zM497 181c0 -31 23 -65 57 -65c13 0 25 6 35 15c15 13 40 37 40 58c0 24 -38 62 -63 62c-10 0 -17 -4 -27 -8c-28 -13 -42 -30 -42 -62zM515 177c0 6 1 11 3 16h3c10 0 20 6 31 6
c20 0 18 -44 25 -57c-6 -3 -12 -4 -19 -4c-24 0 -43 14 -43 39zM589 150c1 7 2 13 2 20c0 25 -12 35 -31 49c-3 1 -6 2 -9 2c-4 0 -8 -1 -11 -2c6 4 14 7 21 7c3 0 5 0 7 -1c22 7 38 -17 38 -36c0 -14 -7 -29 -17 -39z" />
    <glyph glyph-name="ampersand" unicode="&#x26;" horiz-adv-x="593" 
d="M495 203c22 23 48 55 60 84c6 15 21 59 21 72c0 9 -9 13 -16 13s-14 -2 -22 -2c-27 0 -55 5 -82 9c-20 -10 -51 -25 -68 -42c-1 -1 -3 -2 -6 -2c-12 0 -26 18 -32 27c53 35 88 72 88 137c0 34 -9 78 -42 96c-39 21 -74 60 -122 60c-23 0 -39 -10 -59 -20v3c0 4 -3 6 -7 6
c-5 0 -10 -1 -15 -3c-38 -17 -96 -78 -101 -121c-2 -11 -2 -23 -2 -34c0 -36 8 -74 38 -97c-49 -10 -81 -64 -92 -110c-7 -33 -16 -68 -16 -102c0 -94 98 -159 185 -159c12 0 23 1 34 1c26 0 116 50 134 70c1 1 3 5 5 5c4 0 4 -17 4 -19c0 -18 -3 -36 -3 -54
c0 -7 -5 -13 -5 -20s7 -9 13 -9c43 0 93 8 135 12c11 36 61 51 61 86c0 31 -68 96 -88 113zM437 352c2 -2 3 -6 3 -10c0 -6 -9 -41 -17 -41c-7 0 -21 14 -24 22c13 9 27 18 38 29zM105 482c0 36 13 59 27 90c7 14 29 28 42 35c-14 -20 -27 -71 -27 -98c0 -33 9 -66 30 -92
c-6 -3 -32 -16 -37 -16c-24 0 -35 62 -35 81zM220 37c-3 0 -25 1 -27 1c-27 12 -55 23 -82 34c-9 4 -16 6 -24 11c-25 16 -46 50 -51 80c-1 10 -2 20 -2 30c0 32 8 61 20 89c4 10 9 21 12 31c5 17 41 48 56 54c21 10 44 17 65 27c-13 -12 -27 -24 -41 -34
c-19 -13 -41 -45 -53 -65c-12 -21 -17 -45 -17 -70c0 -16 2 -34 6 -50c16 -51 63 -93 110 -116c11 -6 70 -10 72 -16c-5 -5 -38 -6 -44 -6zM249 68c-25 0 -49 9 -71 20c-49 26 -72 57 -89 110c-2 8 -4 16 -4 24c0 42 40 82 61 117c15 25 23 29 50 29c11 0 13 8 13 17
c0 34 -46 67 -46 126c0 68 35 112 105 124c2 1 5 1 7 1c29 0 63 -23 88 -37c36 -21 61 -59 61 -101c0 -88 -90 -91 -90 -136c22 -27 61 -65 93 -77c23 12 31 55 32 78l94 -19l2 3c1 0 0 -1 0 -1c0 -10 -6 -23 -8 -33c-10 -40 -31 -66 -61 -93c-4 -4 -7 -9 -7 -14
c0 -10 7 -14 12 -20c4 -4 67 -81 67 -86v0c-5 0 -13 3 -20 3c-25 0 -51 -4 -75 -8c-4 6 -29 47 -29 54c0 4 2 8 2 12c0 3 -3 3 -6 3c-27 0 -100 -96 -181 -96zM415 141c5 -8 24 -40 24 -50c0 0 0 -1 -1 -1c-15 -10 -30 -27 -43 -40l-7 60zM516 23h-2c-10 0 -21 -3 -31 -5
c-20 -4 -40 -5 -60 -5c-9 0 -19 0 -28 1l54 62c4 -2 9 -3 13 -3c29 0 57 15 84 15c4 0 14 -1 14 -6c0 -1 -1 -2 -1 -3l-43 -56v-1h-1h1v1zM291 433c18 0 62 48 66 66c2 6 3 14 3 21c0 26 -23 49 -49 49c-16 0 -43 -13 -55 -20c2 -11 4 -23 4 -34c0 -12 18 -82 31 -82z
M344 522c0 -5 -5 -27 -9 -27c-1 0 -1 0 -1 1c-8 20 -22 45 -46 49c2 4 8 4 12 4c17 0 44 -7 44 -27zM318 469c-5 -6 -16 -18 -24 -18c-13 0 -19 66 -19 73c0 1 2 1 3 1c6 0 15 -6 20 -10c11 -10 18 -32 20 -46zM264 323c-3 4 -10 16 -16 16c-3 0 -5 -3 -6 -6
c-15 -19 -60 -80 -60 -107c0 -49 61 -64 101 -64c13 0 27 2 39 8c12 5 43 15 43 31c0 18 -49 68 -59 81c-3 3 -33 50 -42 41zM198 221c0 18 11 38 20 53c-1 -21 67 -63 67 -90c0 -3 -2 -5 -4 -5c-5 0 -11 3 -16 4c-18 6 -67 14 -67 38zM222 283l31 37c9 0 17 -6 22 -14
c3 -5 8 -11 12 -16c10 -14 19 -28 28 -42l33 -51c-10 -5 -31 -16 -42 -16c-2 0 -5 0 -6 2c-6 16 -12 32 -23 45c-10 12 -43 50 -55 55z" />
    <glyph glyph-name="quotesingle" unicode="'" horiz-adv-x="229" 
d="M112 731c1 1 1 3 1 5c0 7 -9 9 -15 8h-2c-15 -19 -47 -40 -66 -55c-7 -6 -10 -7 -10 -17c0 -20 8 -64 12 -83c1 -6 4 -13 10 -15c7 -2 57 -13 59 -13c5 0 16 1 16 9c0 15 -50 18 -58 19c14 23 26 25 51 25c14 0 27 -1 40 -2c-1 -26 -13 -56 -44 -57
c-11 -7 -65 -44 -65 -59c0 -8 12 -30 12 -47c0 -4 -1 -7 -1 -11c0 -6 4 -9 9 -9s15 1 16 6c7 -1 13 -2 20 -2c84 0 122 201 122 271c0 9 0 31 -14 31c-31 0 -62 -3 -93 -4zM88 636l-38 -27l-9 69c7 6 40 34 50 37zM72 468c-2 0 -2 9 -2 10c0 4 1 20 -4 20l32 30v-24
c-2 -3 -24 -36 -26 -36zM101 450c-5 0 -9 1 -14 3c3 4 21 31 21 33l51 30c-10 -17 -33 -66 -58 -66zM122 520h-2c-1 2 -2 5 -2 8c0 16 57 34 55 97v7l-64 1l1 74l89 5c1 -8 1 -16 1 -23c0 -35 -6 -74 -17 -107c-9 -25 -31 -63 -61 -62z" />
    <glyph glyph-name="parenleft" unicode="(" horiz-adv-x="298" 
d="M262 60c-3 4 -5 7 -7 12c-18 40 -53 77 -64 120c-10 42 -17 127 -17 172c0 25 1 50 6 74c8 35 3 73 18 107c13 31 38 106 55 128c7 9 35 41 35 50c0 2 -1 2 -3 2h-3c-25 -3 -51 -5 -76 -5c-16 0 -29 -12 -41 -20c-22 -16 -74 -86 -90 -111c-18 -29 -52 -144 -55 -179
c-1 -14 -1 -27 -1 -41c0 -46 -1 -109 7 -153c9 -47 44 -147 72 -184l35 -47c10 3 17 9 17 19c0 1 -1 2 -1 3c-6 12 -28 30 -37 41c-27 34 -43 70 -54 111c-15 56 -22 116 -22 174c0 57 12 164 41 214c19 35 35 77 63 107c5 6 11 9 16 14c9 8 17 15 25 23
c-32 -43 -64 -104 -75 -158c-14 -65 -31 -130 -31 -197c0 -19 1 -37 4 -56c11 -68 44 -131 80 -189c11 -18 27 -32 46 -41c-15 -12 -65 -69 -65 -80c0 -4 4 -6 7 -6c13 0 26 -3 38 -5c4 -1 8 -3 12 -3c7 0 8 13 11 19c10 20 32 47 49 60c4 3 8 7 9 12h2c2 1 5 3 5 5
c0 4 -8 7 -11 8zM92 349c0 21 1 44 6 65c5 23 10 46 14 69c2 12 2 25 5 37c5 19 14 44 22 64c9 26 54 107 75 121h44c-70 -109 -99 -204 -99 -331c0 -63 6 -177 36 -230c15 -26 34 -57 50 -81c-14 2 -27 4 -41 5c-67 60 -112 190 -112 281zM197 -25c-5 1 -34 7 -38 4
c14 15 36 47 51 58c6 3 11 7 15 11h23c-3 -11 -51 -55 -51 -73z" />
    <glyph glyph-name="parenright" unicode=")" horiz-adv-x="316" 
d="M186 718c-8 0 -18 -4 -26 -4l-53 -3c-2 4 -6 8 -10 8c-6 0 -10 -8 -9 -13c-6 -10 -51 -80 -51 -86c0 -4 8 -11 10 -13c22 -18 44 -50 53 -76c14 -38 24 -104 24 -144c0 -21 4 -43 4 -64c0 -62 -19 -123 -43 -180c-16 -39 -32 -78 -53 -115c-2 -2 -12 -18 -12 -20v0h6v-4
c-1 -8 3 -14 12 -14h4c19 5 38 7 57 7c5 0 12 0 17 -2c-3 -6 -5 -12 -5 -18c0 -3 0 -9 5 -9c10 0 24 28 27 36c7 20 19 27 29 42c2 2 10 18 9 21c1 4 28 54 30 58c23 41 70 125 82 170c9 32 13 65 13 97c0 94 -43 212 -92 289c-5 7 -20 37 -28 37zM144 346c0 18 -3 34 -3 51
c0 40 -16 118 -32 154c-9 20 -19 35 -35 50c-4 4 -18 15 -20 20v2c0 8 38 62 43 68c1 1 2 3 2 4c3 -5 9 -11 13 -15c54 -61 75 -205 75 -284c0 -94 -26 -255 -95 -323l-42 -40c26 55 46 112 67 169c16 44 27 98 27 144zM120 10c-15 0 -30 2 -45 2h-20l44 50
c8 -6 31 -8 40 -8c8 0 16 1 23 2c-20 -15 -23 -46 -42 -46zM167 72l-53 5c68 72 84 236 84 332c0 57 -6 121 -23 176c-8 26 -32 97 -54 115l64 -5c18 -30 60 -96 70 -130c17 -53 33 -120 33 -175c0 -71 -54 -208 -94 -267c-9 -13 -25 -37 -27 -51z" />
    <glyph glyph-name="asterisk" unicode="*" horiz-adv-x="356" 
d="M346 615c-2 8 -14 61 -29 61c-2 0 -4 -2 -6 -4l-46 -19c3 20 13 57 13 78c0 8 -3 17 -13 17h-4c-22 -2 -63 -3 -84 -11c-17 -6 -23 -40 -24 -54c-4 2 -36 21 -39 21c-8 0 -12 -7 -17 -12c-25 -31 -58 -58 -77 -93c2 -22 3 -44 7 -65c1 -7 3 -12 11 -12c18 0 37 20 70 20
c5 0 10 0 15 -1l-15 14l-52 -9l29 45l75 -5c-11 -13 -40 -45 -47 -61l-12 -7c-12 -16 -48 -62 -49 -85c32 -3 64 -9 96 -16l21 57l13 -1c9 -22 18 -45 30 -65c5 -8 15 -14 24 -16c5 2 63 29 68 29s9 7 11 10c0 5 -2 15 -9 11c0 11 13 58 16 68c10 4 7 18 7 26
c0 18 8 37 8 55c0 5 6 20 9 24zM171 717l6 -48l-11 7zM79 613l-34 -54l-5 47l50 56c-4 -14 -11 -34 -11 -49zM76 455l30 45c13 -10 31 -18 45 -26c-2 -7 -8 -34 -19 -34c-3 0 -6 2 -8 4c-8 7 -39 10 -48 11zM196 489l18 36l43 -54c-2 -6 -25 -51 -33 -51c-3 0 -10 27 -12 31
c-5 13 -10 25 -16 38zM290 433l-49 -14l27 54l42 30zM311 537l-21 45l30 8zM255 590l1 -2l48 -67l-36 -32l-14 14c-13 13 -28 48 -36 54c-1 1 -2 1 -3 1c-6 0 -11 -9 -13 -13l-25 -53l-53 22c4 12 41 60 53 77l-13 17c-13 -3 -26 -6 -39 -6s-27 0 -27 16c0 17 11 41 19 56
c16 -8 56 -29 75 -29c3 0 8 3 8 7s-4 7 -7 10v61c13 2 28 5 42 5c6 0 13 -5 17 -9c-1 -3 -12 -72 -12 -74c0 -8 2 -13 11 -13c19 0 48 15 64 24l11 -52c-20 -2 -41 -5 -61 -5c-5 0 -10 -4 -10 -9z" />
    <glyph glyph-name="plus" unicode="+" horiz-adv-x="565" 
d="M535 395c-13 0 -26 -3 -39 -3c-16 0 -32 3 -48 3c-23 1 -47 2 -70 2c-2 37 -5 75 -5 112c0 21 2 41 3 62c-3 4 -11 4 -16 4c-23 0 -48 -7 -70 -12c-8 -2 -18 -6 -27 -6c0 0 -1 0 -1 1c-4 4 -13 5 -19 5c-15 -14 -32 -27 -50 -38c-9 -5 -20 -16 -20 -27c0 -2 0 -4 1 -6
c-3 -1 -6 -3 -6 -6v-5c5 -11 11 -61 12 -73h-55c-2 2 -5 2 -8 2c-9 0 -14 -7 -19 -13c-12 -15 -49 -54 -67 -63c-8 -5 -11 -10 -11 -19c0 -12 6 -27 9 -38c11 -33 8 -69 8 -103c0 -4 -1 -15 5 -15c3 0 8 3 11 5c9 5 23 6 34 6c12 0 23 -2 35 -2c21 0 42 4 63 11
c7 -24 15 -64 15 -90c0 -14 -1 -28 -1 -43c0 -11 2 -47 19 -47c1 0 3 0 5 1l11 13c25 -7 72 -14 97 -14c21 0 19 2 26 17c8 17 19 33 27 50c1 2 21 58 21 62c0 8 -6 11 -13 12l3 41c21 -1 42 -4 62 -4c16 0 33 4 44 16c17 20 54 63 54 94c0 28 0 61 -5 89
c-1 11 -1 19 -15 19zM189 493c11 19 38 39 57 48c7 -30 8 -103 9 -134c-6 3 -42 2 -51 1l-9 8v21c0 15 -2 29 -8 43zM43 316c-1 8 56 56 58 59l-6 -88c-22 -20 -32 -49 -41 -76zM198 202h-4c-27 1 -55 -7 -83 -7c-14 0 -29 0 -44 1l28 57c6 4 11 10 15 16c22 10 65 17 89 17
c17 0 34 -2 50 -5zM217 31c-3 18 -5 38 -5 57c0 29 -3 59 -6 88c15 14 37 55 47 73c1 -29 5 -59 5 -88c0 -15 1 -39 7 -53zM346 23l-99 6c-3 2 -5 5 -5 8c0 7 34 55 38 61c5 0 10 5 11 10c29 3 65 4 93 12c-15 -30 -32 -64 -38 -97zM486 202c-8 -1 -16 -1 -24 -1
c-18 0 -57 1 -70 16l-6 32c33 0 66 11 100 11c13 0 26 -1 40 -2zM404 271c-24 0 -28 15 -37 15c-4 0 -5 -4 -5 -6s1 -4 1 -6c1 -6 4 -13 5 -19c5 -20 6 -40 6 -61c0 -18 -1 -37 -4 -55l-86 -4c-11 6 -10 57 -10 69c0 20 1 41 1 61c0 42 -21 41 -56 41c-36 0 -71 -7 -105 -18
l8 91c10 8 40 8 53 8c29 0 58 -4 87 -4c13 0 17 8 17 20c0 7 -2 15 -2 23c-3 36 -1 74 -2 111c26 10 55 14 82 18c-2 -43 -3 -86 -3 -128c0 -9 -3 -52 10 -52c18 0 36 3 54 3c24 0 44 -9 69 -9c16 0 31 2 46 4l4 -88c-27 -1 -55 -4 -82 -4c-14 0 -33 -10 -51 -10z" />
    <glyph glyph-name="comma" unicode="," horiz-adv-x="201" 
d="M161 201c-22 0 -45 -9 -66 -16c-13 -5 -26 -11 -35 -23l-37 -46c-3 -3 -3 -9 -3 -14c0 -28 4 -55 4 -83c0 -18 41 -11 52 -16c-9 -12 -49 -62 -49 -72c0 -17 12 -37 13 -56c3 -2 6 -4 10 -4c5 0 6 6 6 10c110 0 135 143 135 228c0 15 -2 29 -2 44c0 30 7 48 -28 48z
M34 98c0 3 0 11 2 13l39 40l-5 -81l-32 -35c-2 21 -4 42 -4 63zM53 22l19 32l-2 1h29h27c1 -1 9 -1 9 -2v-1c-9 -15 -20 -30 -31 -43l-7 9zM49 -92l-6 16c6 11 21 36 32 44l1 -15c-9 -16 -19 -30 -27 -45zM64 -99l16 33c25 4 59 18 73 39c-9 -20 -31 -47 -48 -60
c-11 -8 -29 -12 -41 -12zM94 -42l1 27c21 9 38 26 48 47c2 4 3 9 4 13c3 5 6 10 6 16s-4 11 -10 12l-57 2l4 84c20 14 50 22 75 22c5 -20 7 -40 7 -61c0 -14 -1 -30 -3 -44c-7 -51 -15 -108 -75 -118z" />
    <glyph glyph-name="hyphen" unicode="-" horiz-adv-x="473" 
d="M276 467c-31 0 -95 -3 -123 -18c-3 -1 -19 -9 -19 -13c0 -3 10 -6 12 -7v-104c-20 -13 -74 -53 -87 -74c-2 16 -13 106 -32 106c-6 0 -10 -1 -10 -8c0 -4 2 -8 3 -12c7 -20 13 -39 13 -61c0 -9 5 -55 17 -55c2 0 5 0 7 1l-3 1l13 7c28 0 65 -1 92 6c36 9 84 14 120 14
c6 0 14 0 20 -2c-1 -1 -1 -2 -1 -3c0 -10 33 -22 39 -25c4 0 10 1 10 6c0 6 -6 13 -10 17l-13 5c2 5 5 11 5 16s-3 8 -7 8c-26 0 -53 -5 -78 -6l-155 -11l37 38c77 13 129 9 213 9c9 0 38 -3 38 13c0 4 -1 6 -6 6c-7 0 -14 -2 -22 -2c-38 0 -77 2 -115 2c-22 0 -44 0 -66 -2
v117c34 7 70 10 106 10c44 0 89 -3 134 -5l3 -107c0 -6 2 -14 10 -14c14 0 13 18 13 29v82h4c13 -1 25 6 25 20c0 19 -80 12 -95 12c-30 0 -61 4 -92 4zM57 375c12 0 20 9 20 21c13 10 26 21 39 32c7 6 17 5 17 19c0 4 0 9 -5 9c-8 0 -13 -11 -19 -15l-62 -44
c-4 -2 -10 -7 -10 -12c0 -7 14 -10 20 -10zM354 237c0 -4 5 -19 11 -19c1 0 6 15 7 17c4 10 11 18 19 25c9 8 42 34 42 47c0 3 -1 7 -5 7c-10 0 -58 -52 -66 -59c-5 -5 -8 -11 -8 -18z" />
    <glyph glyph-name="period" unicode="." horiz-adv-x="220" 
d="M201 131c0 23 10 45 6 68c1 4 2 7 2 10c0 8 -6 10 -13 10c-19 0 -42 -9 -63 -9c-14 0 -30 -9 -36 -9c-2 0 -4 1 -6 1c-6 0 -9 -8 -12 -12c-9 -20 -27 -32 -38 -49c-6 -4 -16 -10 -16 -17c0 -4 4 -8 7 -8c12 0 54 57 58 63l2 -79l-40 -88c-2 23 -5 50 -13 72
c-2 4 -9 24 -14 24c-4 0 -5 -9 -5 -12c0 -20 11 -43 13 -64c1 -7 0 -34 11 -34v-2c0 -2 2 -3 4 -3c6 0 47 18 51 19c16 4 34 7 51 10c-2 -5 -4 -10 -4 -15c0 -3 2 -8 5 -8c9 8 11 20 16 30l42 72c1 1 1 2 1 4c0 9 -9 12 -9 26zM104 190c28 0 58 4 86 7l-3 -79
c-1 3 -6 2 -7 2c-19 0 -59 -12 -76 -18v88zM162 41h-4c-26 0 -62 -10 -86 -18l21 52c15 13 66 26 85 26c6 0 11 -1 16 -2c-12 -18 -22 -39 -32 -58z" />
    <glyph glyph-name="slash" unicode="/" horiz-adv-x="440" 
d="M334 600c-8 0 -14 -5 -19 -11c-31 -38 -62 -73 -96 -109c-2 -3 -7 -7 -7 -11s6 -6 9 -6c30 32 62 61 90 95c-7 -22 -13 -47 -22 -68c-14 -33 -31 -64 -46 -96c-9 -20 -117 -270 -114 -282l-76 -68l64 171c18 48 37 96 56 144c7 18 17 35 24 53c4 12 11 28 11 41
c0 1 -1 12 -5 12c-14 0 -30 -79 -33 -87c-6 -21 -16 -42 -24 -63c-16 -38 -31 -75 -48 -113c-16 -36 -30 -73 -43 -111c-5 -14 -10 -31 -16 -45c-4 -8 -19 -36 -19 -43c0 -4 3 -6 6 -6c10 0 25 9 45 9c21 0 43 -1 64 -3l10 3v-4c0 -3 1 -7 4 -7c2 0 5 1 6 2
c15 10 43 57 63 74c19 16 10 16 15 37c7 31 23 68 34 98c18 52 37 104 59 154c24 51 46 101 71 151c5 9 33 60 33 67c0 23 -81 20 -93 22h-3zM149 15c-3 13 -50 13 -60 13c-11 0 -23 0 -33 -5l65 63c18 -1 63 -2 81 -7zM214 93l-79 7c15 37 41 92 52 130c7 25 20 50 30 73
c19 44 39 87 59 130c22 48 47 97 64 148h55c0 -4 3 -10 7 -10c-33 -76 -66 -152 -98 -227c-23 -54 -45 -107 -64 -162c-10 -29 -21 -59 -26 -89z" />
    <glyph glyph-name="zero" unicode="0" horiz-adv-x="602" 
d="M349 671c3 3 4 6 4 9c0 11 -16 13 -23 13c-10 0 -17 -2 -26 -7c-45 -24 -65 -67 -68 -116c-3 -43 -3 -87 -3 -130v-52c0 -59 4 -192 88 -192c125 0 149 130 149 229c0 44 -5 89 -19 132c-15 47 -49 103 -102 114zM396 245c-27 -20 -46 -21 -78 -20c-3 -1 -7 -2 -10 -2
c-55 0 -56 194 -56 234c0 32 2 65 6 97h8c38 0 67 -19 90 -49c20 -27 47 -75 51 -108l7 -60c-11 -24 -20 -51 -20 -77c0 -5 0 -10 2 -15zM416 266c1 3 1 7 1 10c0 5 -1 11 -1 16c9 22 14 46 14 71c0 24 -4 48 -14 70c-18 42 -28 76 -62 109c-24 23 -58 40 -92 38
c4 19 9 38 19 55c7 10 27 39 40 39h7l2 -2c-6 -1 -23 -8 -23 -16c0 -10 32 -8 39 -8c14 0 22 -5 30 -15c26 -33 53 -69 61 -111c5 -28 12 -56 12 -85c0 -52 0 -128 -33 -171zM301 812c-22 0 -42 -9 -59 -21c-78 -9 -154 -129 -184 -195c-38 -85 -17 -125 -33 -205
c-1 -9 -5 -18 -5 -28c0 -88 20 -176 69 -249c11 -15 22 -30 36 -42c54 -49 129 -73 201 -73c23 0 46 1 68 7c49 13 96 73 119 116c15 31 70 130 70 159c0 3 -2 7 -6 8l-2 -1c14 40 17 79 17 120c0 87 -13 185 -52 264c-35 71 -89 134 -174 134c-22 0 -43 6 -65 6zM352 17
c-51 0 -158 19 -198 52c-82 66 -115 190 -115 292c0 33 12 63 15 96c3 35 4 69 16 103c15 48 40 100 75 137c-34 -66 -47 -171 -47 -245c0 -35 3 -70 9 -104c14 -80 62 -209 140 -244c29 -13 60 -19 91 -19c93 0 151 47 198 124c-33 -73 -89 -192 -184 -192zM347 101
c-32 0 -69 11 -97 27c-26 14 -58 59 -73 85c-19 34 -48 128 -54 168c-5 31 -4 62 -4 94c0 27 -1 55 3 83c3 30 26 115 41 140c9 14 78 73 93 81c7 4 29 14 36 14c6 0 11 -4 16 -6c12 -4 24 -3 36 -4c86 -5 122 -38 165 -110c42 -71 54 -155 66 -235c0 -5 1 -9 1 -14
c0 -48 -19 -125 -34 -171c-24 -80 -109 -152 -195 -152z" />
    <glyph glyph-name="one" unicode="1" horiz-adv-x="397" 
d="M46 567l38 52c7 4 13 12 13 20c0 3 -1 6 -4 6c-21 0 -67 -63 -67 -83c0 -6 4 -15 11 -15c6 0 9 16 9 20zM387 364c0 38 -2 75 -3 113c-1 74 -1 148 -1 222c-1 22 -2 47 -6 68c-3 11 -9 14 -20 14c-18 0 -39 -13 -56 -19c1 2 1 4 1 6c0 4 -2 6 -6 6c-20 0 -48 -69 -65 -85
c-34 -31 -40 -35 -87 -35c-5 0 -11 2 -16 2c-6 0 -19 -2 -19 -10c0 -14 25 -16 35 -16c75 0 108 55 145 110v0c24 3 47 13 70 19c6 -131 11 -262 11 -394c0 -70 -2 -139 -3 -209v-1c0 -6 -22 -8 -27 -9c-30 -2 -59 -11 -88 -20c0 20 -1 40 -2 60c-6 95 -12 191 -12 286
c0 15 2 30 2 45c0 9 -1 60 -12 60c-5 0 -11 -11 -13 -15c-1 15 -15 19 -27 19c-26 0 -51 -8 -75 -16c0 4 -2 9 -7 9c-2 0 -4 0 -6 -1c-10 -7 -40 -90 -46 -107c-2 7 -5 14 -6 22c-2 15 -1 56 -23 56c-4 0 -5 -7 -5 -10c0 -33 24 -63 24 -98c0 -8 5 -19 15 -19c4 0 5 5 5 8
c0 6 -1 12 -3 18c2 -1 3 -1 5 -1c22 0 46 32 82 32c3 0 7 -1 11 -1c5 0 11 1 15 6c0 7 -3 14 -9 19h-5c-27 0 -60 -12 -84 -22l21 62h-2c23 8 63 18 87 18c9 0 19 -2 28 -1c-10 -17 -27 -49 -27 -69c0 -5 1 -19 9 -19c11 0 11 16 12 23c1 14 9 29 16 40c1 -49 0 -98 1 -147
c1 -25 3 -50 4 -75c2 -24 1 -49 3 -74c2 -32 6 -65 8 -98c-17 -5 -41 -68 -48 -86c-3 80 -8 161 -8 241c0 45 5 89 5 134c0 8 0 40 -12 40c-8 0 -11 -30 -11 -36c0 -14 3 -28 3 -42c2 -30 2 -59 3 -89c1 -41 3 -81 3 -122c0 -18 -2 -36 -2 -54c0 -8 2 -17 2 -25
c3 -27 5 -54 5 -81c0 -3 0 -15 5 -15c9 0 20 28 23 35c5 -1 9 -2 14 -2c36 0 76 8 112 15c2 -1 3 -1 5 -1c17 0 31 69 34 84l11 5c3 76 7 152 7 227zM214 62c4 12 9 25 16 37c2 -2 5 -2 7 -2c33 0 62 26 94 26c7 0 14 -1 22 -3c-4 -15 -12 -43 -27 -51
c-15 -7 -91 -7 -112 -7z" />
    <glyph glyph-name="two" unicode="2" horiz-adv-x="526" 
d="M270 604c5 0 10 -1 16 -1c57 -5 49 -98 71 -98c6 0 6 10 6 13c0 14 -6 31 -9 45c-7 33 -26 64 -64 64c-46 0 -54 -18 -81 -50c-5 -6 -14 -17 -14 -24c0 -4 4 -6 7 -6c8 0 10 7 13 13c9 17 34 44 55 44zM512 111l-7 9l9 92c1 3 2 5 2 8c0 16 -23 11 -33 11h-2l10 3
c-53 -3 -107 -7 -160 -6h-12c9 22 31 39 50 52c47 31 79 74 111 119c21 29 34 72 34 108c0 19 -10 117 -27 122c-12 41 -38 93 -77 114c-50 29 -108 46 -166 46c-23 0 -50 -9 -68 -24c-16 -14 -31 -30 -46 -44c-9 -8 -18 -15 -25 -23c-18 -21 -34 -43 -53 -63
c-4 -4 -9 -8 -12 -13c-15 -20 -20 -51 -20 -74c0 -17 7 -78 25 -84l3 -4c19 0 129 -1 129 21c0 7 -3 14 -3 22c0 47 17 100 57 128c22 15 53 30 80 30c49 0 66 -63 66 -103c0 -23 -6 -46 -19 -65c-22 -34 -94 -86 -130 -107c-52 -31 -118 -76 -137 -137
c-16 -53 -40 -153 -40 -208c0 -9 5 -13 14 -14c13 -2 27 -2 40 -2c35 -2 70 -2 105 -3h15c52 -1 102 19 155 19c37 0 71 -22 109 -22c23 0 23 58 23 74v18zM405 567c0 56 -36 121 -98 121c-27 0 -53 -13 -72 -30c-6 -5 -10 -10 -16 -15c-7 -6 -14 -11 -20 -17
c-27 -31 -42 -96 -44 -136l-96 -3c-1 0 -3 1 -4 1c-8 22 -14 45 -14 69c0 19 4 35 16 50c30 41 66 84 108 112c23 16 50 46 80 46h7c27 -1 104 -15 126 -29c31 -21 61 -48 74 -83c10 -26 32 -57 32 -85c0 -64 -40 -119 -83 -162c-12 -12 -24 -23 -35 -36
c-10 -10 -18 -22 -29 -32c-19 -18 -101 -64 -101 -88c0 -5 4 -7 9 -7c12 0 23 10 28 21c24 15 49 31 68 52c26 27 58 50 80 80c8 11 18 19 27 29c27 32 44 73 48 115c1 -7 1 -13 1 -20c0 -45 -20 -89 -41 -128c-24 -41 -94 -93 -133 -123c-13 -10 -24 -20 -27 -37
c-23 5 -47 11 -71 11c-4 0 -16 0 -16 -6c0 -25 104 -29 124 -29c32 0 63 6 95 6c12 0 52 0 60 -10c1 -6 1 -12 1 -18c0 -18 -2 -36 -6 -53c-45 -5 -90 -9 -135 -9h-9c-14 3 -28 8 -42 11c-48 12 -97 21 -147 21c-21 0 -42 -1 -61 -6c4 38 19 100 44 129c34 39 79 66 122 94
c65 43 150 109 150 194zM485 44c-31 11 -84 21 -116 21c-49 0 -96 -21 -145 -21c-51 0 -103 2 -155 3l5 76c30 3 60 6 90 6c39 0 79 -5 117 -15c25 -7 51 -14 78 -14c25 0 49 7 75 7c14 0 44 1 55 -6z" />
    <glyph glyph-name="three" unicode="3" horiz-adv-x="516" 
d="M391 483c-8 0 -15 -1 -23 -3l3 -15c21 -7 43 -13 61 -25c39 -24 56 -97 56 -140c0 -9 0 -18 -1 -27l-2 1c-19 -5 -22 -63 -23 -79c1 -1 2 -3 2 -4c0 -16 -15 -22 -26 -31c-12 -10 -24 -21 -36 -31c-19 -17 -73 -18 -99 -21c-8 -2 -16 -2 -25 -2c-62 0 -138 28 -161 90
c-8 23 -12 48 -26 69c-6 9 -7 24 -6 36v8c14 2 28 3 42 3c18 0 37 -3 55 -6c1 -10 1 -21 2 -32c5 -41 58 -51 92 -51c10 0 25 0 33 6c34 24 62 22 62 74c0 26 -11 51 -24 72c-17 27 -50 41 -81 39v1c0 5 -4 6 -8 6s-7 0 -10 -1l-5 82c4 0 8 -1 12 -1c45 0 105 37 105 87
c0 10 -1 20 -2 30c-4 34 -55 65 -87 65c-36 0 -57 -34 -85 -52c-13 -9 -18 -29 -18 -45l-11 -4h-85c12 34 33 65 54 94c32 43 83 75 137 75c56 0 126 -41 154 -89c8 -14 15 -30 23 -45c8 -16 15 -32 15 -50c0 -14 -14 -52 -31 -52c0 0 -3 1 -4 1c-2 -4 -3 -9 -3 -13
c0 -5 2 -9 7 -9c31 0 52 53 52 79c0 32 -16 67 -34 94c-37 55 -110 102 -178 102c-47 0 -89 -28 -125 -55c-36 -28 -73 -98 -92 -141c-5 -11 -24 -58 -24 -67c0 -7 5 -11 11 -11c8 0 15 3 21 7c14 6 33 8 48 8c17 0 35 -6 52 -6c12 0 13 7 13 18c0 19 22 28 23 54v13
c0 20 23 36 36 49c14 13 31 19 50 19c36 0 65 -21 65 -59c0 -22 -7 -41 -26 -54c-11 48 -23 69 -74 79h-4c-18 0 -38 -14 -38 -33c0 -4 1 -11 7 -11c11 0 10 23 31 23c29 0 58 -32 58 -60c0 -2 0 -5 1 -7c-22 -12 -55 -9 -71 -28c-12 0 -47 -55 -56 -67c-5 -3 -7 -8 -7 -13
c0 -15 18 -53 24 -69c4 -10 6 -13 17 -13c60 0 97 -24 101 -86c0 -3 0 -6 2 -9c-12 -7 -22 -10 -36 -10c-38 0 -68 12 -68 55c0 7 2 15 2 23c0 11 -2 17 -15 17c-24 0 -48 1 -72 1h-29c-26 -3 -55 -81 -62 -104c-1 -3 -7 -22 -7 -23c0 -26 37 -87 52 -110
c59 -85 83 -92 185 -94h13c71 -1 148 45 182 108c10 19 15 41 21 63c4 5 9 10 12 16c10 19 21 97 21 120c0 39 -16 73 -27 109c-11 33 -55 62 -88 62zM142 528c-10 0 -21 2 -32 2c-16 0 -34 0 -50 -4c-2 -1 -5 -2 -8 -2c-1 0 -2 1 -3 2l20 37h34h22c6 0 39 2 39 -6
s-12 -29 -22 -29zM208 364h-2l-23 56l36 47l7 -48l8 -14c-9 -13 -19 -27 -26 -41zM228 361c3 11 9 21 17 29l2 -2c4 1 10 2 15 2c20 0 45 -13 61 -26c17 -15 28 -41 28 -63c0 -10 -2 -21 -5 -30c-9 -3 -18 -7 -26 -12c2 6 3 12 3 19c0 57 -46 78 -95 83zM277 33
c-28 0 -55 1 -83 2c-90 3 -123 106 -154 175c3 18 12 44 26 56c5 -36 43 -92 62 -124c27 -43 102 -58 150 -58c47 0 93 11 135 32c12 7 24 19 33 29c-18 -34 -35 -64 -71 -81c-45 -23 -44 -31 -98 -31z" />
    <glyph glyph-name="four" unicode="4" horiz-adv-x="582" 
d="M377 567c2 2 3 5 3 8c0 4 -2 9 -4 12c-2 1 -5 2 -7 2c-12 0 -13 -18 -13 -26c0 -30 3 -61 3 -91c0 -28 -1 -56 -1 -84l-10 -21l-38 3c0 8 -1 16 -1 24c0 18 3 36 3 53c0 8 0 28 -8 31c-9 -2 -13 -11 -14 -20c-2 -28 -1 -57 -1 -86l-58 6c25 38 127 188 127 224
c0 5 -2 10 -6 13c-14 -6 -23 -36 -28 -49c-11 -31 -29 -60 -47 -87l-56 -81c-6 -9 -15 -21 -15 -32c0 -5 3 -8 7 -9c22 -8 54 -6 77 -8l2 -7c3 -2 7 -10 10 -10c5 0 9 8 11 11l-1 4l26 -1c4 -3 8 -6 13 -6c29 0 29 85 29 105c0 31 -5 62 -5 93c0 10 1 20 2 29zM559 258
l-6 78c1 2 1 4 1 6c0 9 -12 15 -20 15c-4 0 -7 -1 -11 -1c-20 0 -33 15 -33 34c0 17 2 35 2 53c0 23 -4 46 -11 69c-7 24 -9 50 -9 76c0 17 4 34 4 51c0 34 -1 69 -1 103c1 7 -8 13 -14 16c-11 5 -86 15 -101 15c-17 0 -35 -8 -43 -24c-33 -64 -66 -129 -103 -192
c-7 -13 -14 -26 -23 -38c-34 -45 -69 -91 -91 -143l-9 -7l-67 -109c-3 -5 -4 -13 -4 -19c0 -24 34 -95 43 -123c1 -3 3 -9 8 -9c8 0 16 17 19 23c36 12 107 18 146 18c12 0 25 -1 38 -1c12 0 26 3 26 19c0 2 -1 4 -4 4c-2 0 -5 -1 -7 -2c-22 0 -43 1 -64 1
c-43 0 -86 -2 -128 -15l1 1c6 23 17 71 35 88c8 2 16 6 25 6c2 0 5 -1 7 -1c43 -10 90 -7 134 -11c7 -1 15 -2 23 -2c6 0 12 1 19 2v-8c-6 -15 -19 -47 -29 -58c-4 -5 -7 -10 -10 -15c-4 -7 -5 -13 -5 -21c0 -15 7 -99 25 -100h3v-2c0 -10 12 -13 19 -14
c33 -8 66 -13 99 -21c1 -1 3 -2 5 -2c8 0 8 22 8 28c0 4 1 14 -5 14c-10 0 -12 -4 -11 -13l-84 15l25 73l106 -8l2 -1c-3 -35 -25 -30 -25 -66c0 -3 1 -19 6 -19c6 0 30 55 33 64s5 20 8 29c1 3 4 6 4 9c0 5 -10 7 -14 7l-3 38c8 -13 18 -20 34 -20c9 0 17 3 17 14
c0 7 -5 15 -5 17c0 6 28 46 28 71c0 8 -7 10 -13 8zM72 152c-5 17 -25 74 -36 83c2 8 4 16 4 24l51 72l4 -73c0 -6 10 -13 16 -14zM331 49c-3 32 -10 64 -15 96c13 12 22 36 28 52l6 -71l5 -10h7c-4 -11 -27 -62 -31 -67zM477 261c-5 0 -10 -4 -12 -8c4 -40 7 -80 11 -120
l-111 8c2 14 2 28 2 43c0 22 -2 46 -8 68c-3 11 -8 14 -19 14c-20 0 -40 -1 -60 -1c-42 0 -84 2 -126 2c-12 0 -25 0 -37 -1c-1 28 -4 55 -4 83c0 4 0 9 1 14c9 13 19 24 25 40c5 14 35 56 45 73l66 109c16 26 73 116 79 138c13 15 13 26 36 26c29 0 57 -8 84 -14
c4 -10 6 -21 6 -31c0 -34 -2 -68 -2 -102c0 -22 0 -45 4 -67c7 -41 16 -81 16 -122c0 -12 -1 -25 -1 -37c-6 -2 -15 -7 -15 -14c0 -14 65 -32 78 -36l2 -78l-48 -3c-1 8 -3 16 -12 16zM537 203c-12 -1 -16 -13 -16 -23c-5 5 -17 14 -26 13c-1 10 -2 21 -3 31l49 -5z" />
    <glyph glyph-name="five" unicode="5" horiz-adv-x="544" 
d="M363 568c-31 0 -64 3 -93 16c-9 3 -18 8 -27 8s-12 -5 -12 -13v-5c4 -13 20 -10 31 -14c9 -3 17 -8 26 -12c-2 1 -4 1 -6 1c-18 0 -40 -8 -56 -16c-2 15 -3 30 -3 45c0 17 1 36 7 51c33 -7 66 -11 100 -11c41 0 82 3 124 3c9 0 18 0 26 -1l-36 -42c-6 -3 -14 -9 -14 -17
c0 -4 6 -16 12 -16c14 0 51 62 60 76c7 11 10 20 10 33c0 22 -3 45 -7 67c8 0 29 3 29 14s-28 11 -35 11c-26 0 -52 -2 -78 -2c-39 0 -191 9 -221 19c-6 2 -12 4 -18 4c-7 0 -17 -5 -17 -12c0 -22 134 -26 157 -29c53 -5 107 -4 161 -5c4 -22 8 -44 8 -67c0 -3 0 -5 -1 -7
c-66 -2 -133 -4 -200 -4h-19c-10 1 -20 7 -33 7c-27 0 -32 -16 -32 -40c0 -31 0 -63 -6 -94c-1 -5 -3 -11 -3 -16c0 -4 1 -9 5 -9c3 0 66 33 91 35c20 2 40 6 60 6c15 0 29 -3 43 -8c51 -22 69 -22 93 -77c17 -40 24 -91 24 -135c0 -63 -34 -135 -93 -161
c-38 -17 -79 -36 -121 -36c-33 0 -66 11 -96 25c-40 19 -82 44 -82 95c0 10 1 20 1 30c0 16 -1 31 -2 46l91 -6c-1 -6 -2 -12 -2 -18c0 -25 11 -53 34 -65c16 -8 46 -23 63 -23c4 0 7 1 11 2c65 17 89 74 89 137c0 65 -42 133 -113 133c-31 0 -68 -15 -85 -42
c-9 6 -37 9 -49 9c-13 0 -27 -1 -41 -4c18 74 21 149 25 224c1 23 5 43 11 65c2 7 3 14 3 21c0 5 0 17 -8 17c-2 0 -6 -1 -8 -3c-7 -6 -13 -16 -19 -24c-17 -22 -35 -44 -55 -64c-10 -10 -20 -20 -29 -31c-13 1 -17 -10 -17 -21c0 -44 1 -87 3 -131c2 -26 6 -53 6 -80
c0 -5 2 -29 10 -29c2 0 5 0 8 1l-7 -7c-4 -1 -8 -4 -8 -9c0 -4 3 -12 8 -12c7 0 15 13 18 19v-8c0 -10 6 -14 16 -14c26 0 63 9 91 11c4 3 12 8 12 14c0 5 -7 9 -11 10l-9 -5l-75 -2c-4 1 -7 2 -11 2c-3 0 -5 0 -7 -1c9 11 19 21 29 32c21 5 43 8 64 8c14 0 27 -7 41 -7
c-5 -12 -8 -24 -14 -35c-3 -4 -6 -8 -6 -14c0 -4 3 -9 8 -9c21 0 22 72 62 89c12 5 22 10 35 10c17 0 35 -7 50 -14c18 -19 40 -38 50 -62c0 -8 1 -17 1 -26c0 -36 -5 -101 -43 -119c18 22 23 71 23 99v13c-3 33 -40 74 -75 74c-26 0 -52 -17 -71 -35c-4 -5 -12 -13 -12 -20
c0 -4 4 -7 7 -7c12 0 31 44 73 44c38 0 59 -50 59 -82c0 -73 -30 -67 -36 -95h-3c-16 0 -28 5 -41 13c-29 17 -34 22 -34 57c0 9 3 18 3 27c0 8 -3 16 -12 16c-14 0 -32 -12 -52 -12c-19 0 -36 7 -55 9c-2 4 -5 9 -10 9c-3 0 -6 -2 -8 -5c-15 -13 -45 -78 -61 -100
c-6 -8 -17 -24 -17 -34c0 -4 3 -6 6 -6c5 0 13 10 16 14c0 -12 3 -24 7 -35c37 -97 106 -142 209 -142c44 0 88 10 126 33c53 33 117 88 135 149c3 10 4 20 5 30s4 20 5 29c3 23 5 46 5 68c0 104 -38 171 -133 213c-6 3 -6 3 -6 9c0 7 -27 5 -32 5zM106 442l-51 -55l-11 16
c-1 33 -4 65 -4 98c0 40 2 80 3 120l89 96c-7 -92 -12 -184 -26 -275zM63 240l34 46c2 -23 9 -92 19 -109c35 -58 119 -81 182 -81c64 0 125 22 175 63c-56 -65 -134 -111 -222 -111c-76 0 -166 49 -182 129c-4 21 -5 42 -6 63z" />
    <glyph glyph-name="six" unicode="6" horiz-adv-x="549" 
d="M539 584l-24 -12l-48 -57c-23 27 -55 52 -91 59l13 22c0 -2 1 -9 3 -9c6 0 9 18 9 23c0 47 -34 84 -82 84c-77 0 -91 -64 -109 -125c-5 -20 -11 -40 -11 -61c0 -9 1 -24 14 -24c24 0 77 71 137 71c57 0 106 -47 128 -97c16 -34 21 -72 21 -110c0 -51 -10 -85 -45 -123
c-14 -14 -29 -28 -41 -44c-14 -17 -37 -42 -62 -42c-3 0 -7 1 -11 2c-65 -1 -124 25 -161 81c-21 31 -74 140 -81 174c-7 33 -8 67 -8 101c0 25 1 51 6 75c10 45 71 130 110 153c53 32 84 46 147 46c72 0 137 -26 150 -104c5 -27 6 -57 13 -84c0 -2 2 -2 4 -2c5 0 12 5 16 9
c-4 39 -16 77 -28 115c-12 43 -34 65 -78 75c-12 3 -24 4 -36 6c-12 3 -24 4 -36 4c-31 0 -87 -8 -115 -21c-2 5 -8 5 -12 5c-5 0 -9 -1 -14 -2c-46 -10 -130 -120 -155 -162c-34 -53 -42 -141 -42 -204c0 -11 0 -24 2 -35c17 -102 118 -287 236 -287c18 0 35 4 53 6
c41 4 54 23 83 49c14 13 29 26 44 39c74 65 78 110 78 203c0 42 -14 83 -37 118c19 25 48 56 60 85zM224 507c-2 1 -3 2 -3 4c0 24 3 48 10 71v-4c-1 -12 1 -21 15 -21c4 0 10 0 10 6c0 5 -2 10 -4 15c-1 2 -3 5 -3 7c0 16 46 31 59 31c18 0 24 -20 23 -35v-6
c-31 -6 -80 -30 -97 -58c-3 -3 -6 -9 -10 -10zM356 583v-6h-5c1 5 2 10 2 15c0 33 -22 47 -53 47c-20 0 -41 -8 -56 -23c13 25 35 56 66 56c22 0 66 -27 66 -51c0 -9 -15 -30 -20 -38zM202 742c-40 -33 -105 -107 -123 -154c-7 -18 -8 -65 -8 -85c0 -35 0 -71 5 -106
c7 -47 56 -140 83 -181c32 -51 93 -99 156 -99c6 0 11 0 17 1c-18 -9 -38 -12 -57 -12c-76 0 -127 49 -167 109c-24 35 -61 119 -68 160c-2 12 -2 25 -2 37c0 55 4 127 28 176c23 48 77 109 119 142c5 4 11 8 17 12zM299 226c74 0 110 45 110 116c0 46 -21 102 -68 118
c-3 6 -11 6 -17 6c-14 0 -24 -6 -36 -13c-40 -23 -58 -46 -67 -91c-3 -16 -7 -33 -7 -50c0 -51 33 -86 85 -86zM302 441c5 2 9 2 14 2c35 0 76 -46 76 -79c0 -20 0 -40 -1 -60c-1 -13 -19 -39 -31 -44c-3 -2 -7 -3 -10 -4c17 17 20 43 20 66c0 7 0 14 -1 21
c-4 47 -46 67 -89 67c-4 0 -9 0 -13 -1c11 12 23 23 35 32zM242 372c3 -1 6 -1 9 -1c36 0 41 22 52 22c18 0 47 -45 47 -62l1 -18c0 -59 -32 -44 -36 -63h-10c-19 -1 -52 10 -64 26c-7 9 -8 32 -8 44c0 17 2 35 9 52z" />
    <glyph glyph-name="seven" unicode="7" horiz-adv-x="685" 
d="M387 774c-74 0 -148 6 -221 6c-20 0 -42 -13 -42 -35c0 -18 -5 -51 -8 -70c-4 -20 -31 -86 -42 -107c-4 -2 -7 -6 -7 -11c-1 14 -21 56 -28 70c22 40 45 80 69 119c3 4 18 25 18 28c0 2 -2 2 -4 2c-16 0 -78 -106 -91 -125c-5 -8 -11 -19 -11 -29c0 -6 2 -11 6 -14
c4 -16 20 -81 39 -81c7 0 12 9 15 15c13 0 44 21 73 21c31 0 63 -1 95 -1c17 0 36 2 53 0c6 -1 11 -3 16 -3c-117 -163 -155 -276 -176 -475c0 -4 -1 -8 -1 -12c0 -6 2 -24 10 -25c-1 -2 -2 -4 -2 -6c0 -4 4 -6 8 -6c1 0 3 1 5 1c25 6 51 8 77 8c11 0 21 -4 32 -4
c6 0 18 2 18 11c0 11 -51 8 -60 8c-18 0 -36 1 -54 2c6 10 31 57 37 60c5 2 16 2 21 2c28 0 56 -3 84 -7c-6 -15 -27 -40 -27 -55c0 -4 2 -9 7 -9c8 0 13 13 17 19c10 19 35 51 35 73c0 7 -2 14 -6 20c5 53 11 106 18 159c19 143 99 234 189 340c6 1 12 5 15 11
c-1 6 -1 13 -1 20c0 15 2 44 13 55c3 3 9 7 9 13c0 7 -36 12 -42 12h-156zM274 582c-41 0 -149 3 -182 -6c8 21 18 41 28 61c44 -1 87 -3 130 -5c26 -1 52 -1 78 -4c14 -3 29 -2 43 -1c-13 -14 -25 -30 -37 -46c-20 0 -40 1 -60 1zM547 692c-19 -32 -45 -59 -70 -87
c-46 -52 -81 -116 -111 -179c-15 -33 -27 -139 -35 -181c-4 -22 -7 -43 -7 -64c0 -13 3 -26 3 -39c0 -2 -1 -5 -1 -7c-37 8 -74 9 -112 11c0 15 5 33 8 47c13 64 54 167 82 227c25 52 61 100 93 147c13 18 24 38 39 54c6 6 22 21 22 29c0 3 -3 5 -5 5c-17 0 -33 -29 -42 -40
c-14 -16 -25 -24 -38 -44c-31 -41 -54 -88 -79 -133c-25 -43 -43 -90 -57 -138c-8 -26 -14 -52 -23 -78c-10 -30 -19 -62 -20 -95c-9 -19 -23 -34 -34 -51c1 74 34 239 66 302c21 40 79 146 109 173c22 19 38 42 59 61c6 5 12 10 12 19c6 1 26 5 26 12c0 9 -15 8 -21 8
c-15 0 -30 -1 -45 -1c-72 0 -146 6 -218 9c-3 5 -8 10 -15 12c0 20 1 51 7 70c6 16 35 20 50 20c13 0 25 -4 38 -4l327 -1z" />
    <glyph glyph-name="eight" unicode="8" horiz-adv-x="550" 
d="M310 221c61 0 98 40 98 100c0 52 -40 92 -92 92c-7 0 -14 -1 -21 -3c-6 6 -19 8 -26 8c-40 0 -66 -57 -66 -91c0 -65 42 -106 107 -106zM283 401v-2c0 -11 24 -9 31 -9c22 0 32 -2 48 -17c17 -15 28 -41 28 -63c0 -15 -5 -29 -13 -41c-3 26 -37 69 -59 81
c-15 8 -26 9 -43 9c-6 0 -22 1 -22 -7c0 -4 2 -8 5 -11c2 1 4 1 6 1c9 0 18 -3 26 -7c26 -16 51 -28 63 -58c3 -7 6 -16 9 -24c-14 -10 -32 -16 -49 -16c-49 0 -90 40 -90 89c0 29 16 64 46 71c5 1 10 2 14 4zM323 678c-14 0 -28 -2 -42 -6c-35 -8 -60 -56 -60 -90
c0 -13 3 -26 9 -38c19 -38 46 -26 80 -32c5 -1 10 -2 15 -2c17 0 31 8 41 22c4 -2 8 -4 12 -4c7 0 11 6 12 13c-4 3 -8 7 -11 11c10 14 18 28 18 46c0 42 -30 80 -74 80zM242 560c0 9 1 17 3 26c2 -3 7 -4 10 -4c15 0 24 16 38 16c29 0 53 -28 63 -53c-7 -9 -17 -16 -29 -16
c-19 0 -85 3 -85 31zM369 568c-22 33 -42 47 -84 47c-13 0 -31 -10 -39 -22c3 12 7 24 15 33s33 31 45 31c15 0 62 -15 67 -30c4 -9 6 -18 6 -27c0 -12 -5 -22 -10 -32zM405 478c-2 -1 -4 -4 -4 -7c0 -8 42 -17 53 -27c16 -14 43 -31 49 -52c7 -25 16 -46 16 -73
c0 -34 -11 -111 -37 -135l-21 -15c-39 -26 -117 -52 -164 -52c-7 0 -15 1 -22 2c-19 3 -40 6 -59 12c-63 19 -88 76 -109 134c-5 14 -8 28 -8 44c0 36 14 78 33 109c10 16 26 46 38 58l-5 -9c1 -2 3 -4 5 -4c5 0 7 19 7 23c-20 25 -47 66 -47 99c0 11 2 21 2 32
c0 45 6 75 37 109c25 27 56 45 94 45s124 -15 147 -48c36 -52 78 -59 78 -131c0 -16 -1 -33 -11 -46c-4 -5 -7 -9 -10 -14c-4 -7 -14 -31 -19 -34s-20 -8 -20 -15c0 -4 6 -4 9 -4c23 0 53 51 60 72c6 16 10 33 10 50c0 37 -18 65 -42 91c-34 35 -58 74 -108 88
c-27 7 -53 12 -81 12c-10 0 -21 0 -31 -2c-2 7 -9 10 -16 10c-18 0 -89 -45 -104 -59c-33 -28 -64 -100 -70 -142c-4 -22 -6 -44 -6 -66c0 -37 4 -61 36 -84c-43 -35 -65 -111 -65 -165c0 -32 0 -64 9 -94c3 -11 7 -21 10 -31c7 -22 11 -25 28 -40c21 -19 52 -45 81 -52
c20 -5 40 -16 60 -16c34 0 66 15 99 16c22 1 43 12 61 23c21 11 48 12 65 28c4 4 16 16 17 22l-3 2c24 15 49 35 64 60c19 30 29 102 29 138c0 5 0 10 -1 15c-3 42 -39 85 -73 108c-15 10 -35 16 -53 16zM128 449c-3 2 -7 3 -10 5c8 5 17 10 25 15c-5 -7 -10 -13 -15 -20z
M158 737c-38 -45 -51 -78 -51 -138c0 -27 5 -62 22 -83c7 -9 15 -18 22 -27c-17 -8 -33 -17 -49 -27c-31 17 -34 52 -34 85c0 57 25 142 72 177zM230 70c-18 0 -86 22 -104 30s-51 30 -60 47c-10 18 -28 98 -28 121c0 2 0 4 1 7c9 60 16 120 63 166c6 -2 12 -4 19 -3
c-22 -33 -44 -75 -44 -116v-7c4 -44 21 -112 48 -147c40 -52 104 -69 167 -69c26 0 51 2 76 8c-8 -4 -16 -8 -25 -11c-15 -5 -100 -26 -113 -26z" />
    <glyph glyph-name="nine" unicode="9" horiz-adv-x="573" 
d="M303 794c-11 0 -23 -1 -34 -3c0 6 -4 13 -11 13c-6 0 -11 -4 -15 -7c-15 -12 -34 -16 -51 -24c-69 -30 -112 -94 -142 -161c-8 -19 -10 -36 -23 -53c-7 -9 -7 -22 -7 -33c0 -37 13 -106 33 -136c15 -24 60 -76 85 -86c12 -5 26 -7 40 -9c-11 -3 -22 -4 -33 -4
c-8 0 -17 1 -26 1c-5 0 -16 0 -16 -8c-1 5 -3 9 -7 11c-12 -5 -55 -85 -55 -99c0 -5 4 -7 8 -7c6 0 11 4 14 8c24 -63 63 -107 130 -124c27 -6 55 -15 84 -15c14 0 104 13 118 17c25 8 38 20 52 42c13 19 25 38 37 58c12 19 18 39 27 59c25 58 40 109 40 172
c0 16 -2 32 -2 48c0 32 7 65 11 97c1 6 3 12 3 18c0 28 -41 80 -59 102c-49 61 -118 123 -201 123zM39 505c0 48 26 111 49 151c32 56 91 91 147 119c-42 -28 -117 -86 -133 -134c-13 -36 -19 -77 -19 -116c0 -41 9 -81 34 -115c18 -24 51 -56 80 -65c6 -2 11 -1 17 -2
c6 -2 13 -4 20 -6c21 -6 44 -9 66 -9c19 0 43 2 61 10c20 9 51 26 59 47c-1 -13 -1 -26 -1 -39c-2 -6 -5 -13 -8 -19c-2 2 -4 3 -7 3c-7 0 -12 -3 -17 -8c-24 -19 -45 -24 -75 -24c-25 0 -50 4 -75 6c-4 4 -10 2 -16 2c-8 0 -16 2 -24 4c-39 7 -76 20 -100 54
c-28 40 -58 91 -58 141zM404 315c-18 -31 -64 -78 -103 -78c-28 0 -56 20 -60 48c20 -2 40 -5 60 -5c27 0 86 15 103 35zM280 81c-42 0 -107 9 -139 38c-33 29 -55 59 -65 103c11 14 28 41 27 59c1 -3 3 -5 4 -8c18 -35 34 -82 65 -108c38 -32 81 -55 132 -55
c43 0 127 39 164 63c-8 -12 -31 -46 -40 -57c-22 -26 -114 -35 -148 -35zM516 298l-2 15c-1 0 -3 1 -3 1c-7 0 -8 -14 -9 -18c-2 -22 -4 -56 -14 -76c-4 -9 -13 -17 -21 -23c-33 -21 -72 -34 -107 -49c-22 -10 -40 -18 -65 -18c-55 0 -118 45 -146 92c-8 13 -13 28 -16 44
c0 0 -1 6 -2 6c26 0 68 3 90 16c4 -21 15 -48 37 -56c13 -5 27 -11 40 -11c48 0 121 75 137 117c6 16 9 46 9 63v11c-4 4 -8 7 -13 7c1 4 -1 7 -5 7c-7 0 -11 -16 -13 -21c-24 -43 -60 -61 -108 -61c-20 0 -40 3 -60 8c-108 29 -134 74 -142 182c-1 7 -1 13 -1 19
c0 41 13 96 45 125c20 17 41 33 62 51c11 10 22 21 36 30c13 8 46 13 62 13c29 0 115 -32 134 -55c22 -28 99 -114 99 -145c0 -33 -5 -64 -6 -96c-1 -26 0 -52 0 -78c0 -40 -3 -62 -18 -100zM322 665c-8 0 -15 -3 -22 -7c-41 -25 -65 -76 -65 -123c0 -32 10 -63 38 -81
c20 -12 45 -25 69 -25c49 0 91 50 91 97v8c-4 34 -48 82 -70 107c-11 12 -24 24 -41 24zM343 445c-29 0 -39 16 -64 25c-17 7 -26 44 -26 62c0 12 2 24 4 37h2c9 0 17 13 35 13c12 0 25 -6 35 -12c38 -21 45 -95 69 -98c-13 -13 -36 -27 -55 -27zM411 493
c-15 27 -34 53 -51 79c-13 21 -34 31 -58 31c-12 0 -26 -4 -37 -8c6 14 16 40 33 41c10 1 22 6 29 6c18 0 40 -33 52 -45c19 -20 37 -51 37 -78c0 -9 -2 -18 -5 -26z" />
    <glyph glyph-name="colon" unicode=":" horiz-adv-x="197" 
d="M167 592c-11 0 -21 -3 -31 -3c-12 0 -24 3 -36 2h-6c-21 0 -22 -13 -28 -31s-28 -43 -42 -55v-6c0 -4 0 -8 5 -8c17 0 49 64 55 76c-1 -17 0 -79 -10 -91l-28 -34c-2 6 -10 37 -20 37c-2 0 -6 -2 -6 -5c0 -2 1 -4 2 -6c1 -8 8 -61 23 -61c4 0 8 3 10 6c23 2 47 5 70 5
c4 0 9 1 12 4c3 13 12 24 18 35c15 29 32 73 32 106c0 14 -3 29 -20 29zM126 438l-63 -4c12 40 55 43 90 52zM160 501c-2 1 -6 1 -8 1c-18 0 -41 -7 -57 -14l2 83c5 3 11 5 17 5c4 0 8 -1 12 -3c5 -2 40 -2 47 -2c1 -4 1 -8 1 -12c0 -19 -4 -40 -14 -58zM183 323
c-3 2 -6 2 -9 2c-14 0 -28 -3 -43 -3c-13 0 -27 1 -41 1c-6 0 -7 -1 -11 -6l-56 -62c-2 -3 -3 -17 -3 -21v-4c1 -23 2 -65 5 -83c1 -5 9 -18 14 -20c7 -2 14 -2 21 -2h17c14 0 28 4 42 5c3 0 7 -1 10 -1c9 0 21 3 22 13c3 41 34 73 34 122c0 20 -3 40 -2 59zM38 153l-4 89
l49 62c-2 -32 -5 -63 -5 -95zM132 150l-78 -11c8 12 38 58 38 74c0 0 0 2 -1 2l73 20zM95 235l6 66l67 6l2 -52z" />
    <glyph glyph-name="semicolon" unicode=";" horiz-adv-x="325" 
d="M201 484c0 7 2 13 2 21c0 18 0 36 -1 54c0 9 -5 22 -16 22c-21 0 -41 -1 -62 -2c-3 -1 -8 -4 -8 -8c0 -8 13 -10 19 -10c3 0 7 1 10 1l36 -1h1c4 0 5 -10 5 -13c0 -17 0 -35 -1 -53h-12c-33 0 -50 -16 -53 -16c-12 0 -10 32 -10 41c0 14 1 29 1 43c0 5 -1 10 -6 10
c-3 0 -6 -1 -8 -2c0 3 -2 13 -7 13c-7 0 -66 -104 -67 -107c-2 -6 -3 -13 -4 -20c2 -18 23 -49 33 -63c1 -2 2 -5 4 -5c4 0 10 5 12 8c13 3 27 5 40 5c18 0 36 -3 53 -5c1 -3 3 -5 7 -5c8 0 12 14 15 19c5 10 27 51 27 60c0 10 -10 3 -10 13zM59 417l-24 43c3 3 4 11 4 16
l52 84h3l7 -79v0c-15 0 -38 -55 -42 -64zM198 475c-3 -6 -26 -59 -35 -59c-1 0 -2 1 -3 2c-27 3 -56 2 -83 2l27 48c5 -1 12 -1 18 -1c15 0 36 9 54 11c5 0 10 1 16 1c1 0 8 0 8 -2zM215 285c-1 0 -3 -2 -3 -2v10c0 11 -4 34 -21 30c-14 5 -28 7 -43 7c-9 0 -23 -1 -32 -4
c-3 3 -7 5 -12 5c-8 0 -15 -7 -19 -13c-13 -20 -30 -38 -48 -54c-4 -5 -9 -10 -9 -17c0 -6 4 -8 4 -11c0 -2 -3 -1 -3 -4c0 -2 0 -4 1 -5c7 -25 13 -50 19 -76v-2c0 -4 8 -5 11 -5c14 -2 28 -3 43 -5c-5 -8 -60 -92 -60 -98c0 -4 3 -9 6 -12c14 -15 16 -29 41 -29
c58 0 78 37 98 87c20 47 37 110 37 162c0 6 -1 36 -10 36zM57 180c0 9 -5 57 -17 62c6 6 56 62 57 70l6 -72l-3 -5c-7 -5 -36 -44 -43 -55zM80 25l-18 22l39 63c-2 -15 -11 -72 -21 -85zM94 16c4 10 16 44 16 55l13 18c17 12 63 46 69 68c-4 -53 -35 -134 -98 -141zM121 112
l-1 22c18 13 48 33 48 58c0 8 -4 15 -6 22c-8 4 -18 5 -27 5c-6 0 -25 0 -25 -9c0 -17 44 -3 44 -20c0 -10 -22 -30 -28 -36l-4 8l-54 1l9 16c12 22 21 26 37 43c3 3 5 7 5 11c0 23 -3 49 -5 72c12 4 25 6 37 6c15 0 30 -3 44 -9c2 -14 3 -29 3 -44c0 -29 -8 -54 -15 -81
c-7 -28 -38 -53 -62 -65z" />
    <glyph glyph-name="less" unicode="&#x3c;" horiz-adv-x="337" 
d="M325 606l2 40c-2 3 -7 6 -10 6c-4 0 -6 -3 -8 -6c-7 7 -20 9 -29 9c-14 0 -22 -6 -35 -10c-2 -1 -5 -1 -7 -1c-65 -14 -140 -97 -140 -165c0 -16 2 -33 2 -49c0 -29 -11 -71 -43 -80c-13 -4 -3 -12 -19 -19c-11 -5 -14 -19 -14 -29c0 -15 1 -29 1 -44c-2 -3 -5 -7 -5 -11
c0 -3 3 -4 6 -4c8 0 14 6 22 5c5 -4 10 -7 14 -12c15 -20 20 -78 23 -103c6 -60 30 -130 97 -144c36 -7 72 -1 108 -7c2 0 5 -1 7 -1c6 0 13 2 13 8c0 17 3 34 3 51c0 26 -50 6 -50 61c0 39 9 77 9 116s-10 97 -54 109c23 16 30 46 43 68c27 46 2 168 30 194
c6 -2 21 -6 27 -6c7 0 9 6 9 12c0 4 -2 9 -2 12zM98 142c0 8 1 15 1 23c0 28 -9 49 -19 74c-5 12 -18 20 -29 24c11 6 22 21 32 29c1 4 -1 10 -6 10c-6 0 -31 -21 -36 -25c0 13 0 26 1 39c15 7 30 17 45 23l5 6l-5 6c16 22 31 36 31 63c0 17 -4 34 -4 52c0 48 13 54 30 92
c7 17 25 33 40 42c-17 -13 -26 -69 -26 -88c0 -26 9 -50 9 -76c0 -53 -29 -71 -72 -96l1 -49c31 -2 39 -23 54 -47c12 -19 16 -56 16 -77c0 -15 -3 -30 -3 -44c0 -8 2 -17 4 -25c6 -33 20 -81 53 -98c-10 1 -42 5 -51 10c-41 21 -71 87 -71 132zM307 612
c-40 0 -51 -63 -51 -91v-27c0 -46 -6 -75 -21 -117c-8 -22 -27 -39 -48 -46c-4 -1 -14 -3 -14 -9c0 -4 4 -7 6 -9c21 -1 50 -6 58 -27c12 -30 17 -53 17 -85s-6 -63 -6 -94s12 -65 47 -72l-2 -28c-27 0 -67 10 -87 29c-30 29 -25 103 -25 141c0 27 -11 71 -22 95
c-7 17 -28 29 -45 33l1 29c32 21 52 30 65 70c4 10 6 20 6 30c0 13 -4 26 -6 38c-3 16 -4 31 -5 47v2c0 53 38 97 86 115c9 4 20 6 29 6c6 0 11 -1 17 -3v-27z" />
    <glyph glyph-name="equal" unicode="=" horiz-adv-x="643" 
d="M627 461c0 5 -2 12 -8 12c-4 0 -7 -2 -9 -4c-12 -16 -18 -41 -18 -61c0 -8 -1 -44 12 -44c9 0 8 35 9 41c1 15 2 29 10 42c2 5 4 9 4 14zM619 310c-72 0 -144 -4 -216 -6c-68 -2 -136 -7 -204 -12c3 2 5 5 5 9c0 3 -1 7 -3 10c-21 7 -57 14 -80 12c16 16 33 32 51 47
c3 -2 6 -3 9 -2v-1c0 -21 44 -16 54 -18c14 -1 28 -5 41 -5c7 0 18 3 15 13c48 6 98 9 147 9c40 0 80 -7 120 -6c-16 -14 -35 -24 -54 -34c-1 -2 -1 -5 -1 -7c0 -6 4 -8 9 -8h4c16 9 38 19 51 33c11 10 30 8 30 13c0 6 -12 18 -19 17c1 2 1 4 1 6c0 5 -3 19 -10 19
c-6 0 -7 -9 -8 -13l-4 -6c-45 3 -91 5 -136 5c-21 0 -41 0 -61 -2c-31 -3 -63 -8 -94 -8c-9 0 -17 2 -25 2c-7 0 -12 -3 -18 -7l-20 3c-3 2 -6 3 -9 3c-2 0 -5 -1 -7 -2c1 2 2 5 2 7c0 7 -6 11 -11 14l-3 67c30 -1 60 -2 90 -2c42 0 84 3 126 3s83 -2 125 -2
c13 0 26 -2 38 -2c9 0 32 1 32 15c0 2 -1 3 -3 4h-33c-37 0 -74 11 -111 11c-32 0 -64 -3 -97 -6c-14 -1 -29 -3 -43 -3c-50 0 -101 2 -152 3c1 0 4 0 4 1c0 4 -7 10 -12 10c-10 0 -19 -15 -22 -23l-97 -81c-2 -1 -4 -5 -4 -7c0 -4 6 -4 8 -4c10 6 49 15 44 30
c8 7 16 13 25 18c11 6 37 32 46 41c6 -3 10 -5 16 -5l5 -74c-20 -21 -39 -43 -60 -63c-7 8 -40 49 -54 49c-6 0 -9 -5 -9 -11c0 -7 22 -28 27 -35l12 -19c-2 -1 -3 -2 -3 -4s28 -16 32 -16c5 0 7 7 9 11c6 -1 49 -5 52 -6h-3c-24 -29 -52 -56 -80 -82l-3 -10
c-4 -2 -8 -6 -8 -11c0 -3 2 -7 4 -9c7 -11 17 -35 19 -47c1 -9 2 -19 4 -28c2 -7 6 -14 9 -21c0 -3 3 -4 5 -4c10 0 21 6 33 6c10 0 20 -3 31 -4c30 -3 61 -6 92 -9c20 -3 68 -12 86 -12c35 0 71 5 106 5c9 0 32 0 38 -8c2 -3 5 -6 9 -6c3 0 6 2 8 5c9 2 42 3 42 14
c0 3 -1 5 -2 8l-19 3l65 62c6 5 15 15 15 23s-10 10 -16 10c1 19 5 65 16 83c3 5 7 13 7 18c0 2 0 4 -3 4c5 3 12 8 12 14s-10 11 -14 11zM115 117c-3 14 -15 68 -26 79c30 26 53 44 80 73l-6 -60c0 -5 -2 -10 -2 -15c0 -7 3 -15 11 -13c-7 -19 -44 -51 -57 -64zM526 177
c18 0 35 6 53 4l13 -7l-79 -84c-25 -2 -51 -3 -77 -3c-47 0 -95 2 -141 9c-51 8 -104 16 -155 16l50 60c14 0 16 12 16 23c0 4 0 12 -6 12s-13 -8 -16 -13l9 78c42 0 85 0 127 6c60 7 136 5 198 7c24 1 49 2 74 3v-6c0 -5 2 -9 2 -14s-2 -11 -5 -15l-6 -46c-2 1 -4 1 -6 1
c-5 0 -10 -1 -14 -3c-4 -7 -63 -7 -69 -7c-63 0 -126 4 -189 9l-54 5c-3 0 -5 2 -9 2c-6 0 -13 -5 -13 -12c0 -14 28 -16 37 -17c48 -1 95 -2 143 -4c39 -1 79 -4 117 -4z" />
    <glyph glyph-name="greater" unicode="&#x3e;" horiz-adv-x="411" 
d="M274 454c0 25 3 50 3 75c0 31 -2 69 -28 91c-41 35 -72 49 -129 49c-12 0 -77 -47 -84 -52c-1 -1 -5 -6 -5 -9c0 -1 2 -2 3 -2c11 0 61 31 69 36l-2 -17c-15 -15 -50 -43 -60 -61l-7 32c-2 2 -5 4 -8 4c-4 0 -6 -7 -6 -11l8 -50c0 -1 1 -1 2 -1c8 0 16 11 29 11
c35 0 39 -51 39 -75c0 -17 -2 -35 -2 -52c0 -43 19 -84 59 -102c-27 -27 -58 -71 -58 -111c0 -29 13 -55 13 -80c0 -17 -38 -65 -53 -72c-19 -7 -18 -26 -21 -44c-1 -11 -2 -23 -1 -35c-1 -3 -2 -6 -2 -10c0 -3 2 -6 5 -6c15 0 56 39 82 39c3 0 6 -1 9 -1c43 0 92 21 115 57
c26 40 33 55 33 104c0 27 -4 54 -4 81c0 31 26 55 53 65h3c11 0 14 16 14 24c0 5 -1 11 -2 16c0 10 -15 16 -23 19c-38 14 -44 52 -44 88zM114 434c0 16 2 32 2 48c0 17 -5 32 -10 48c-7 21 -28 33 -49 30l40 39c2 2 11 3 13 3c29 0 57 -39 57 -66c0 -28 -12 -55 -12 -83
c0 -36 22 -77 55 -92c5 -2 23 -10 23 -17c0 -3 -3 -3 -5 -3c-16 -2 -32 -7 -48 -11c-1 -1 -1 -1 -2 -1c-8 0 -27 20 -33 26c-22 23 -31 47 -31 79zM49 -12l3 44h2c13 0 38 8 51 11v-11c0 -3 0 -15 -7 -15c-10 1 -42 -23 -49 -29zM82 57c21 17 47 50 47 79
c0 27 -18 51 -18 77c0 6 1 12 4 17c27 68 42 76 109 93c-41 -24 -59 -70 -59 -116c0 -23 5 -45 5 -68c0 -13 -2 -23 -9 -35c-6 -12 -32 -43 -45 -44c-11 -1 -23 -2 -34 -3zM256 225c0 -21 3 -41 3 -62c0 -88 -42 -142 -134 -143v17c46 21 58 74 58 120c0 20 -5 40 -5 55
c0 42 39 89 71 113c2 2 3 5 3 8c0 2 -1 5 -4 4c4 2 8 6 8 11c0 2 -2 5 -4 7c-13 8 -38 22 -48 34c-17 21 -28 47 -28 74c0 26 10 50 10 76c0 45 -26 70 -69 82l9 29c26 -1 71 -9 92 -28c33 -30 40 -49 40 -94v-9c1 -26 -3 -52 -3 -78c0 -40 15 -72 50 -91
c10 -6 18 -8 18 -20v-3c0 -6 -10 -10 -14 -11c-43 -13 -53 -49 -53 -91z" />
    <glyph glyph-name="question" unicode="?" horiz-adv-x="488" 
d="M257 652c-32 0 -47 -6 -76 -18c-8 -3 -17 -5 -25 -8c-20 -8 -54 -25 -66 -44c-28 -43 -70 -112 -70 -165c0 -11 2 -23 8 -33h2c14 0 28 20 46 20c17 0 33 -14 50 -14c4 0 8 2 8 6c0 -5 4 -8 9 -8c9 0 14 20 16 26c5 13 12 25 20 36c9 12 21 28 26 42c6 17 26 34 43 39
c-1 -1 -1 -2 -1 -3c0 -5 16 -5 20 -6c27 -6 33 -10 33 -39c0 -58 -60 -57 -89 -90c-6 -7 -14 -13 -21 -19c-21 -22 -28 -46 -28 -76c0 -9 0 -76 17 -76c3 0 2 8 2 8c0 22 -3 44 -3 67c0 28 0 56 28 70c27 13 75 45 91 69c10 15 23 29 23 49c0 27 -17 45 -42 55h7
c33 0 54 -47 54 -76c0 -23 -12 -30 -28 -44c-17 -15 -66 -67 -76 -86c-8 -17 -19 -69 -19 -88l-41 -47c-2 -8 36 -15 40 -16c5 1 19 3 19 10c0 3 -3 7 -6 9l-30 4l21 28v-1c27 -2 54 -5 81 -5l-22 -25c-2 -1 -5 -3 -5 -6c0 -1 1 -3 2 -4h-27c-3 -1 -15 -8 -15 -12
c0 -2 2 -3 3 -3c10 -3 53 -5 64 -5c0 -29 -2 -60 -6 -89l-80 -3l7 91c0 3 -2 4 -4 4c-11 0 -61 -37 -65 -46c-2 -3 -2 -8 -2 -12c0 -31 8 -61 8 -93c0 -2 -2 -6 -2 -9c0 -6 3 -12 10 -12c6 0 12 1 18 1c11 0 21 -2 32 -2c91 0 46 14 89 61c3 7 3 21 3 29c0 16 5 70 10 83
c1 2 3 5 3 7c0 6 -26 9 -31 9l3 6c2 9 15 23 22 30h5l3 8l11 5c-1 7 -2 14 -2 21c0 11 3 32 14 39c54 39 80 84 110 144c12 23 22 50 22 76c0 45 -25 54 -50 83c-26 29 -131 48 -171 48zM204 156c-6 -16 -5 -69 -5 -88l-24 -25c-5 22 -10 47 -10 70c0 3 -1 10 1 13
c4 7 31 26 38 30zM264 20l-8 -1c-20 0 -55 2 -74 9l23 32c29 4 59 6 88 7c-7 -19 -25 -18 -29 -47zM35 403v9c0 16 2 40 8 56c16 42 46 103 87 126c-27 -29 -49 -77 -49 -118c-14 -7 -36 -58 -44 -73h-2zM134 398c1 15 -29 16 -40 16c-14 0 -30 -4 -44 -7l27 46h40
c13 0 26 -2 39 -3l7 -4c-6 -10 -26 -37 -29 -48zM310 246l-75 2c1 7 0 15 0 23c0 106 120 124 120 193c0 19 -13 42 -21 60c-11 22 -30 32 -54 32c-54 0 -85 -39 -105 -86l-76 3c-1 4 -1 7 -1 11c0 38 16 75 45 101v3c13 35 81 50 115 50c31 0 63 -11 93 -17
c58 -12 63 -26 98 -66c10 -11 14 -23 14 -38c0 -34 -22 -75 -40 -103c-25 -41 -51 -74 -90 -102c-16 -10 -22 -49 -23 -66z" />
    <glyph glyph-name="at" unicode="@" horiz-adv-x="702" 
d="M458 338v9c-8 20 -25 37 -48 37c-37 0 -86 -61 -92 -95c-3 -18 -5 -36 -5 -54c0 -29 10 -68 47 -68c38 0 68 57 85 86c6 11 24 71 24 83c0 3 0 8 -5 8c-3 0 -5 -3 -6 -6zM362 183c-26 0 -35 52 -35 71c0 21 5 38 18 55c6 3 13 5 20 5c39 0 50 -55 52 -85
c-10 -12 -39 -46 -55 -46zM433 256c-2 20 -15 40 -26 56c-9 13 -35 13 -49 13c11 13 38 41 57 41c23 0 34 -27 39 -44c-5 -23 -12 -45 -21 -66zM509 83c15 0 31 2 44 11c19 12 43 30 52 52c47 35 86 88 87 148v41c0 96 -40 145 -124 190c-50 26 -107 37 -163 37
c-44 0 -141 -12 -177 -40c-37 -28 -77 -52 -108 -86c-59 -66 -100 -155 -100 -244c0 -35 6 -73 19 -107c52 -131 226 -178 355 -180h3c59 -1 144 28 189 65c10 9 17 19 26 29c13 14 29 26 29 48c0 12 -14 37 -20 48c-1 3 -2 12 -8 12c-3 0 -6 -3 -8 -5
c-48 -30 -106 -53 -163 -53c-62 0 -131 11 -185 42c12 -3 24 -4 36 -4c40 0 81 10 122 10c2 0 5 0 7 -1c29 -5 57 -13 87 -13zM410 -75c-40 0 -80 6 -119 14c-75 13 -195 66 -230 136c-17 33 -28 90 -28 127c0 56 17 81 34 129c13 33 61 88 84 113
c-45 -55 -60 -150 -60 -220c0 -17 1 -34 3 -51c20 -112 109 -155 209 -186c44 -14 95 -19 141 -19c52 0 107 9 152 38c-12 -16 -44 -38 -61 -47c-5 -3 -11 -5 -17 -7c-41 -18 -61 -27 -108 -27zM428 34c24 0 47 3 70 8c12 2 23 6 34 7c20 2 61 24 77 34l11 -38
c-11 -8 -23 -18 -35 -26c-17 -11 -92 -27 -117 -29c-12 -1 -25 -2 -37 -2c-75 0 -120 20 -191 37c-3 1 -25 15 -28 17c-47 32 -95 84 -104 142c-2 13 -2 29 -2 42c0 81 20 157 65 225c51 76 158 94 243 94c23 0 82 -2 104 -9c35 -13 127 -95 144 -128c12 -24 16 -55 16 -81
c0 -25 -3 -50 -12 -73c-12 -33 -43 -87 -73 -107c-22 -14 -59 -17 -85 -17c-39 0 -47 32 -63 32c-7 0 -27 -14 -35 -17c-13 -6 -26 -8 -41 -10h-10c-65 0 -118 39 -118 108v15c7 66 24 109 76 150c22 17 46 24 74 24c16 0 32 -3 47 -7c36 -10 46 -12 73 -38
c8 -8 10 -18 10 -29c0 -49 -31 -93 -31 -142c0 -27 21 -39 47 -39c31 0 60 34 79 55c17 19 23 41 23 66c0 28 -7 56 -14 83c-9 41 -40 67 -70 95c-22 21 -73 44 -104 44c-24 0 -49 -4 -73 -6c-28 -2 -95 -30 -118 -46c-19 -14 -59 -62 -75 -82c-23 -29 -34 -95 -34 -130
c0 -27 4 -54 14 -79c35 -95 86 -105 176 -131c28 -8 58 -12 87 -12zM172 209c-3 15 -4 29 -4 44c0 112 73 211 183 236c39 -5 113 -17 144 -38c38 -26 64 -50 73 -97c5 -28 12 -57 12 -86c0 -22 -5 -43 -16 -62c-8 -4 -17 -7 -26 -7c-21 0 -32 9 -32 30c0 50 42 94 42 132
c0 25 -14 42 -34 55c-35 20 -79 35 -119 35c-22 0 -44 -4 -64 -13c-5 1 -10 1 -15 1c-19 0 -35 -7 -52 -17c-27 -16 -53 -43 -66 -72c-17 -39 -29 -97 -26 -141zM407 499c12 1 24 1 35 1c26 0 53 -3 76 -14c54 -28 105 -115 105 -176c0 -26 -14 -59 -30 -79c5 20 8 40 8 61
c0 20 -3 39 -9 58c-46 127 -60 116 -185 149zM190 223c0 46 30 170 80 185c9 7 24 15 37 16c-44 -32 -78 -84 -78 -140c0 -54 -8 -124 54 -149c24 -9 50 -14 76 -14c22 0 44 3 64 12c6 2 16 7 22 7c10 0 28 -30 70 -30c19 0 36 5 53 13c-20 -24 -50 -21 -79 -21
c-21 0 -40 3 -60 9c-9 3 -18 5 -28 5c-21 0 -37 -12 -67 -12c-11 0 -21 -1 -32 -1c-44 0 -72 26 -97 61c-12 17 -15 39 -15 59z" />
    <glyph glyph-name="A" unicode="A" horiz-adv-x="671" 
d="M379 521c-6 0 -10 -5 -10 -11c-8 -10 -12 -26 -14 -38c-6 -29 -15 -60 -29 -86c-9 -16 -24 -45 -24 -62c0 -11 12 -12 20 -12c14 0 28 2 42 2c21 0 42 -4 63 -4c7 0 9 8 9 14c0 8 -8 9 -14 9s-12 -1 -19 -1c-8 0 -16 1 -24 1l-31 69c4 9 6 17 8 26c4 22 11 42 19 62
c11 -50 33 -95 52 -142c2 -7 5 -23 15 -23c4 0 8 2 8 7c0 30 -59 116 -59 169c0 9 -1 20 -12 20zM362 333c-14 0 -27 0 -41 -1c7 17 14 35 21 53c6 -18 12 -35 20 -52zM658 77v2c0 4 -8 19 -10 25c-6 15 -9 31 -14 47c-10 33 -21 65 -34 97c-40 105 -73 215 -119 318
c-12 26 -17 56 -22 85c0 3 -2 22 -7 22c-4 0 -8 -3 -11 -6v-10c-6 5 -95 14 -111 16c0 3 -4 4 -7 4c-2 0 -4 0 -6 -1l-117 -113c-21 -65 -42 -131 -64 -196c-18 -53 -39 -106 -57 -160c-6 -16 -8 -33 -13 -49c-6 -21 -12 -43 -19 -64c-5 -18 -27 -61 -27 -76c0 -2 1 -6 4 -6
c4 0 8 3 10 6c12 -9 65 -9 82 -9c9 0 18 1 27 2c7 4 17 4 25 4h14c2 -3 5 -8 9 -8c5 0 15 7 18 11c8 12 13 25 23 38s18 26 27 39l3 15c5 -5 12 -7 20 -8c35 -3 70 -2 106 -3v0v-2c0 -4 4 -7 7 -7s5 1 7 3c4 -10 12 -71 21 -71c6 0 10 13 10 17c0 6 -2 11 -4 16
c-4 13 -7 43 -20 50c12 27 27 51 42 76c5 -15 10 -30 16 -45c4 -11 5 -23 9 -34c3 -6 7 -6 14 -6l-2 -8c-4 0 -7 -2 -9 -5c-15 -19 -24 -41 -41 -59c-4 -3 -8 -6 -8 -12c0 -4 5 -6 9 -6c25 0 51 4 76 4c32 0 63 -7 94 -12c1 0 3 -1 4 -1c11 0 15 11 18 19s30 56 30 57
c0 2 -2 3 -3 4zM51 56c6 29 16 58 25 86c22 67 43 133 68 199c9 21 14 43 21 65c17 51 34 102 51 152c25 28 53 54 83 76c-23 -55 -97 -221 -102 -269c-14 -29 -21 -62 -34 -91c-15 -31 -23 -63 -34 -95c-9 -25 -19 -49 -28 -73c-18 -9 -37 -35 -50 -50zM205 35
c-3 1 -6 1 -9 1c-19 0 -38 -5 -57 -5c-26 0 -52 2 -77 3l45 55c7 2 15 2 22 2c15 0 103 -3 109 -6c-10 -9 -26 -36 -33 -50zM401 121c-1 1 -3 1 -5 1c-20 0 -39 -2 -59 -2c-19 0 -38 1 -58 2c-4 2 -9 4 -14 4c5 25 8 38 20 60c49 2 98 4 146 4c2 0 4 0 5 -1zM469 190
c-4 4 -15 23 -20 23c-3 0 -6 -3 -8 -5l-148 3c-1 4 -5 7 -10 7c-6 0 -10 -21 -12 -26c-11 -23 -17 -45 -23 -70c-1 -4 -4 -13 -9 -13c-31 0 -61 4 -92 4c-9 0 -18 0 -27 -2l4 11c-1 22 71 199 85 236c16 43 32 86 47 130c9 23 15 48 26 70c14 31 31 61 38 94l2 1
c13 0 26 -3 39 -5c29 -4 58 -8 86 -13v3v0c2 -9 3 -19 5 -29c4 -24 17 -49 25 -72l60 -172l84 -240c4 -11 3 -23 8 -34c-14 0 -28 -6 -42 -6c-31 0 -63 6 -93 12c0 4 1 9 1 14c0 11 -21 65 -26 79zM614 20c-34 5 -67 10 -101 10c-19 0 -38 -1 -56 -3l35 52
c11 -7 65 -13 80 -13c23 0 46 2 69 3l3 1c-10 -16 -16 -38 -30 -50z" />
    <glyph glyph-name="B" unicode="B" horiz-adv-x="612" 
d="M347 507c35 0 38 -9 59 -31c-19 -15 -45 -18 -69 -18c-16 0 -32 4 -49 4c-7 0 -32 -2 -32 -12c0 -11 42 -11 50 -11c53 0 141 9 141 78c0 16 -5 35 -13 49c-11 21 -28 19 -48 21c-19 2 -38 7 -58 7c-16 0 -79 -10 -79 -31c0 -3 6 -4 9 -4c26 12 51 17 80 17
c38 0 89 -6 89 -55c0 -9 -2 -18 -6 -27c-13 17 -37 33 -58 33c-20 0 -39 -5 -59 -5c-14 -1 -28 -1 -41 -2c-6 0 -13 0 -17 -4v11c0 14 0 28 -4 41c-2 2 -6 5 -9 5c-6 0 -7 -6 -7 -10c0 -23 5 -46 5 -69c0 -10 -2 -21 -2 -32c0 -4 0 -15 6 -15c11 0 11 54 11 63
c7 -8 27 -11 37 -11c22 0 42 8 64 8zM263 367c-10 0 -12 -8 -10 -16l-4 -1c-3 1 -3 -11 -3 -12c0 -10 1 -20 1 -30c0 -25 -5 -50 -5 -75c0 -5 1 -26 8 -26c11 0 14 50 14 59c3 -1 6 -1 9 -1c30 0 58 10 88 10c18 0 44 -11 44 -32c0 -3 1 -6 2 -9c-22 -10 -61 -11 -85 -11
c-13 0 -27 2 -40 2c-7 0 -26 -6 -26 -15c0 -8 30 -8 35 -8c37 0 75 1 112 8c34 7 49 33 60 65c2 4 3 9 3 14c0 19 -12 42 -23 57c-15 21 -56 19 -79 20c-34 1 -68 1 -101 1zM422 244c-8 40 -44 51 -81 51c-25 0 -54 -8 -77 -15c-1 12 1 61 -4 68c11 -1 22 0 33 0
c39 0 76 -1 114 -6c21 -3 38 -42 38 -60c0 -16 -11 -29 -23 -38zM594 244v9c1 35 -34 128 -70 137c-4 4 -9 6 -14 7c6 5 10 11 14 18c21 31 37 64 37 102c0 37 -20 110 -49 133c-31 26 -64 46 -105 46c-25 0 -50 -2 -75 -2c-39 0 -79 1 -118 1c-27 0 -50 -12 -75 -17
c-9 -1 -17 0 -23 -7c-7 -6 -12 -14 -18 -21c-14 -17 -27 -34 -43 -48c-5 -5 -12 -9 -12 -17c0 -6 2 -11 2 -17c0 -52 -4 -103 -5 -155c0 -13 -3 -25 -5 -38c-3 -32 -5 -65 -6 -98c-3 -86 -5 -173 -8 -259c0 -2 -1 -3 -1 -5c0 -3 2 -8 6 -7c2 -3 6 -4 10 -4c10 0 19 2 28 2
c54 0 106 -15 160 -15c38 0 76 4 114 6c26 1 53 0 78 8c11 3 22 8 33 13c45 18 84 83 115 120c21 24 38 72 38 104c0 4 -5 6 -8 4zM80 22c-12 0 -25 -1 -37 -4c12 13 62 65 62 81c0 2 -2 8 -6 8s-54 -65 -61 -74c3 24 3 48 3 73c2 58 4 117 6 176c4 69 8 138 8 206
c0 16 -2 32 -2 48c0 54 35 81 67 120l6 -1c1 -45 2 -90 2 -135c0 -16 -2 -32 -3 -47l-6 -96c-4 -74 -8 -148 -10 -222v-10c0 -14 1 -29 2 -43l5 -3c-4 -1 -9 -5 -9 -9c0 -6 7 -8 11 -8c45 0 94 2 139 -7c26 -5 53 -7 80 -7c39 0 80 4 114 22c35 18 73 36 102 63
c-8 -10 -15 -21 -23 -32c-21 -30 -50 -55 -75 -82c-24 -26 -81 -22 -113 -23c-42 -2 -84 -7 -125 -7c-35 0 -68 5 -103 9c-11 2 -22 4 -34 4zM329 86c-15 0 -30 1 -44 4c-48 8 -97 12 -146 12c-6 0 -12 0 -18 -1c4 5 4 11 4 17c5 61 5 123 6 185c4 113 12 226 12 339
c0 7 0 14 -2 21c22 8 48 16 71 16c11 0 21 -2 31 -2c30 0 60 2 89 2c12 0 23 -1 34 -3c13 -2 25 -3 38 -4c46 -5 83 -20 108 -60c18 -29 32 -66 32 -100c0 -61 -57 -99 -57 -117c0 -6 6 -6 10 -5c-1 -2 -1 -5 -1 -8c0 -9 10 -9 16 -11c16 -6 32 -31 39 -45
c17 -35 23 -51 23 -91c0 -13 -2 -24 -8 -36c-5 -8 -20 -29 -27 -34c-11 -7 -21 -15 -32 -23c-25 -18 -54 -33 -84 -42c-30 -10 -62 -14 -94 -14z" />
    <glyph glyph-name="C" unicode="C" horiz-adv-x="643" 
d="M423 412c6 0 9 22 9 26c0 38 -26 81 -68 81c-21 0 -44 -15 -57 -30c-28 -33 -63 -77 -63 -122c0 -12 4 -52 17 -58c5 1 13 5 13 12c0 5 -5 11 -9 14c-5 9 -6 19 -6 29c0 18 9 54 19 68c19 24 60 66 93 66c28 0 39 -33 43 -56c1 -4 5 -30 9 -30zM615 331c0 2 1 4 1 6
c0 11 -7 14 -17 14c-35 0 -75 -3 -108 -13c-13 -4 -43 -2 -49 -13c-4 -6 -6 -14 -9 -20c-10 -26 -24 -44 -53 -48c-18 -2 -37 -5 -55 -5c-35 0 -54 17 -67 48c-13 29 -20 62 -20 94c0 59 18 158 78 185c17 7 37 11 55 11c14 0 28 -3 41 -10s37 -20 42 -35
c4 -15 1 -55 13 -65c-5 -9 -8 -18 -13 -27c-7 -12 -22 -23 -22 -38c0 -4 3 -7 7 -7s7 3 9 6c10 -11 48 -23 63 -23c13 0 79 3 83 11c1 2 2 6 2 8c2 5 4 11 5 16c4 17 12 32 20 48c3 4 12 18 12 22c0 5 -7 6 -10 6l-1 3v6c0 32 -16 102 -40 123c-30 26 -89 73 -128 77
c-36 2 -73 8 -109 6c-4 7 -37 8 -44 8c-38 0 -75 -12 -106 -35c-77 -58 -121 -128 -148 -220c-15 -51 -27 -104 -27 -157c0 -76 27 -136 79 -192c54 -59 114 -120 201 -120c31 0 62 4 92 12c19 5 37 11 56 14c55 9 116 57 135 109c12 34 45 86 45 120c0 11 3 21 3 32
c0 4 -1 8 -4 10c2 6 4 13 4 19c0 8 -8 16 -16 14zM580 418c-21 -5 -43 -8 -64 -8c-23 0 -42 7 -62 17c10 18 22 36 30 55l116 7l6 -6c-10 -21 -21 -42 -26 -65zM308 40c-5 0 -11 0 -16 2c-41 14 -108 49 -143 74c-41 29 -55 45 -75 91c-15 36 -24 75 -24 113
c0 41 6 92 16 132c5 22 3 46 14 67c20 39 73 126 111 147c27 14 64 46 94 46c6 0 12 -1 17 -3c-34 -14 -101 -51 -120 -82c-52 -82 -72 -120 -72 -222c0 -37 4 -85 16 -120c29 -85 86 -191 189 -191c22 0 43 10 65 10c21 0 101 21 122 30c25 10 75 50 90 73
c-2 -7 -5 -14 -8 -20c-10 -22 -41 -75 -61 -87c-30 -20 -61 -33 -96 -39c-40 -6 -79 -21 -119 -21zM334 119c-109 0 -162 71 -186 170c-12 48 -21 98 -21 148c0 13 1 26 4 38c17 56 36 112 78 154c34 34 85 69 135 69h21c50 1 103 -1 145 -31c32 -23 68 -50 80 -90
c7 -22 15 -45 15 -68c-22 0 -44 -2 -67 -4c-18 -1 -36 -2 -54 -4c-2 0 -4 -1 -5 -3c0 12 -1 23 -3 34c-9 48 -78 80 -122 80c-83 0 -135 -110 -135 -182c0 -6 0 -13 1 -19c6 -63 11 -174 94 -181h22c33 0 70 2 93 29c13 15 17 35 28 51c4 8 12 4 19 4c21 0 40 13 62 13h57
c6 0 5 -7 13 -6c-5 -26 -6 -53 -18 -77c-43 -86 -166 -125 -256 -125z" />
    <glyph glyph-name="D" unicode="D" horiz-adv-x="620" 
d="M39 351v13c4 38 6 77 6 115c0 26 -2 53 -2 79c0 6 -2 27 -10 27s-8 -18 -8 -23c0 -18 3 -36 3 -55c0 -44 -1 -87 -6 -131c-2 -12 -2 -25 -2 -38c0 -52 4 -104 10 -155c3 -24 8 -48 9 -72c1 -23 1 -45 2 -68c0 -6 2 -16 9 -16c10 0 10 49 10 58c0 47 -10 94 -10 142
c0 41 -11 82 -11 124zM314 597c-17 0 -42 -7 -59 -12c-1 4 -3 12 -9 12c-14 0 -10 -16 -11 -26c4 -6 4 -43 4 -52c0 -45 -3 -90 -5 -134c-1 -25 -4 -50 -4 -75c0 -29 3 -58 3 -86c0 -2 0 -9 3 -9c7 -11 25 -13 38 -13c34 0 84 15 115 30c0 -2 1 -8 4 -8c7 0 11 11 12 16
c26 16 45 38 55 68c3 10 4 20 8 30c10 24 12 54 12 80c0 82 -20 105 -76 158c-14 14 -70 21 -90 21zM388 254c-32 -21 -66 -30 -103 -30c-15 0 -26 2 -40 8c4 22 5 44 5 66c2 64 5 129 5 193c24 -4 60 -6 81 -17c20 -9 47 -43 53 -64c6 -18 8 -39 8 -58c0 -8 -1 -16 -2 -25
c-4 -24 -7 -49 -7 -73zM406 267c1 13 1 25 5 37c6 17 7 34 7 52c0 80 -43 145 -127 151c-12 1 -24 1 -36 4c0 18 1 36 2 54c19 5 41 5 61 5h29c41 -3 72 -34 92 -67c14 -21 18 -44 18 -69c0 -28 -4 -56 -4 -85c0 -35 -19 -61 -47 -82zM322 713c-38 0 -76 -2 -114 -3
c-27 0 -52 1 -78 -4c-1 1 -2 2 -4 2s-4 -1 -5 -3c-1 1 -3 1 -4 1c-7 0 -8 -14 -7 -19c-14 -19 -63 -86 -63 -105c0 -3 1 -5 5 -5c10 0 15 15 19 23c9 21 25 39 37 58c-1 -26 -3 -53 -3 -80c0 -26 4 -52 5 -78c2 -36 2 -72 2 -108c0 -68 -6 -136 -6 -204c0 -20 0 -40 3 -59
c-12 -27 -50 -83 -50 -109c0 -5 2 -10 7 -10c6 0 9 9 9 13h3c17 -1 35 5 52 5c7 0 12 0 18 -3c46 -17 100 -33 149 -33c48 0 146 10 179 46c40 42 49 38 75 96c14 31 28 64 36 97c4 16 5 32 8 48c1 9 4 17 6 25c6 26 9 52 9 78c0 106 -34 217 -118 285c-14 11 -28 21 -44 28
c-27 11 -96 18 -126 18zM313 13c-41 0 -82 8 -121 19c-21 5 -39 15 -61 15c-14 0 -37 -1 -50 -8c11 32 30 59 47 87c14 -3 29 -1 44 -1c44 0 87 -9 130 -21c17 -4 35 -5 53 -5c23 0 46 2 68 9c43 14 103 35 129 74c-5 -16 -11 -32 -20 -46c-29 -47 -54 -89 -110 -105
c-35 -10 -72 -18 -109 -18zM350 119c-22 0 -43 7 -64 10c-43 5 -121 21 -161 15c1 7 2 14 2 21c0 32 -4 64 -4 96c0 12 0 23 2 35c6 38 7 76 7 114c0 28 -1 56 -4 83c-6 50 -8 99 -8 149c0 12 1 24 3 37l9 12c39 0 78 0 117 3c12 0 23 1 35 1c26 0 51 -2 77 -8
c23 -6 49 -4 72 -11c30 -10 82 -66 102 -91c31 -41 28 -41 43 -87c12 -37 14 -61 14 -99c0 -14 3 -28 3 -42c0 -20 -32 -119 -44 -137c-39 -59 -63 -77 -132 -91c-23 -5 -46 -10 -69 -10z" />
    <glyph glyph-name="E" unicode="E" horiz-adv-x="551" 
d="M458 22c-31 2 -62 4 -93 4c-22 0 -44 -5 -66 -5c-28 0 -56 5 -84 7c-47 4 -94 8 -142 13c7 31 36 52 43 83h4c15 0 29 5 43 5c51 0 100 -12 151 -12c31 0 62 1 93 1c20 0 40 6 61 6c19 0 25 -15 35 -15c6 0 9 6 9 11c0 13 -19 21 -30 21c-28 0 -55 -4 -82 -4
c-24 0 -48 2 -72 3c-54 2 -107 4 -161 4c-12 0 -24 0 -37 -2c-5 2 -10 3 -16 3s-17 -3 -17 -11c0 -4 4 -7 7 -8l-3 -1c-12 -19 -23 -38 -35 -56c-10 -16 -14 -34 -23 -50c0 -2 -2 -3 -2 -4c0 -4 7 -5 9 -5c9 0 15 4 18 12c19 -4 39 -6 58 -6c46 0 91 -15 136 -15
c38 0 74 7 111 7c26 0 52 -5 77 -7c-1 -6 4 -10 10 -10c13 0 13 23 15 32c5 27 46 60 46 77c0 5 -2 8 -6 8c-8 0 -16 -14 -19 -20c-11 -23 -24 -44 -38 -66zM529 253l-4 2c-48 2 -96 2 -144 2c-17 0 -35 0 -52 -1c-8 -1 -18 -3 -26 -3c-5 0 -13 2 -18 3c-13 2 -26 3 -38 3
h-4v2c0 12 -3 25 -3 38c0 20 3 41 2 61c11 6 27 6 39 6c27 0 54 -4 80 -4c29 0 57 6 86 6c11 0 20 -3 31 -5c-14 -13 -33 -55 -36 -74c-5 -4 -20 -3 -27 -3c-15 0 -30 1 -45 2c-29 3 -58 11 -87 11c-7 0 -14 -1 -21 -3c-4 0 -17 -6 -17 -12c0 -5 23 -3 27 -3
c19 0 38 -7 57 -9c22 -3 44 -3 65 -4c13 -1 25 -3 38 -3c10 0 27 1 27 15c0 2 -1 3 -2 4c10 25 24 48 34 73l3 4h3c6 0 15 2 15 9c0 2 -2 5 -3 7c3 20 2 43 2 63c0 7 0 29 -7 32v5c0 19 -16 14 -29 14c2 4 3 9 3 14c0 6 -3 6 -3 9c0 2 10 14 12 19c5 14 13 26 19 39
c5 12 18 9 18 17c0 3 -1 6 -3 9v21c0 19 6 38 6 57l-1 13c0 28 -32 35 -54 35c-15 0 -29 -1 -44 -2c-60 -3 -120 -4 -181 -4c-44 0 -91 1 -136 -5c-20 -3 -33 -40 -42 -56c-14 -26 -29 -52 -42 -78c-7 -13 -7 -63 -7 -80c0 -43 2 -86 3 -129c1 -76 3 -152 3 -228
c0 -31 -5 -62 -5 -93c0 -6 0 -31 10 -31c9 0 18 25 18 32c0 2 -1 6 -4 4c1 7 1 15 1 22c0 128 -3 256 -6 384c-1 25 -2 50 -2 74c0 16 3 32 5 48c16 20 29 43 39 66c4 8 6 16 11 23c-1 -60 -3 -121 -3 -182c0 -74 5 -149 5 -224c0 -36 -2 -72 -3 -108c1 -2 4 -8 8 -8
c12 0 13 82 13 96c0 71 -7 142 -7 213c0 74 1 147 3 221c0 4 0 9 1 13h17c35 0 69 2 104 3c55 1 109 3 164 5c25 1 50 4 76 4c13 0 37 -7 37 -24c0 -14 -7 -55 -11 -70c-32 0 -69 2 -101 -6c-30 -8 -117 -6 -153 -6c-4 0 -24 0 -24 -6c0 -35 2 -70 3 -105
c-6 -2 -13 -6 -13 -13c0 -9 12 -9 19 -9c50 0 99 8 149 8c8 0 16 -1 24 -1c31 -3 61 -3 91 -2v-8c0 -23 1 -52 -6 -73c-45 -1 -89 -9 -134 -9c-26 0 -51 7 -77 7c-13 0 -28 0 -41 -4c-1 0 -3 1 -4 1c-5 0 -6 -9 -6 -13c0 -16 1 -105 5 -114c-5 -1 -11 -3 -12 -8
c28 -8 57 -13 86 -13c22 0 44 5 66 5c51 0 104 2 154 -5c-5 -33 -12 -65 -12 -98c0 -5 0 -23 7 -23c14 0 14 46 14 56c0 20 2 44 9 63c0 4 -2 22 -8 22c-1 0 -3 -2 -4 -3zM241 485c-3 0 -4 4 -4 6c15 4 31 5 46 5c20 0 40 -4 60 -6c-34 -1 -68 -5 -102 -5zM453 514h-109
c-18 0 -36 3 -54 3c-16 0 -32 -6 -49 -5h-5l1 1l-1 -1c1 22 4 43 7 65c15 4 31 8 47 8c26 0 52 -4 79 -4c9 0 18 0 27 2c23 8 58 7 83 7c5 0 10 0 15 3c0 -3 0 -5 2 -7c-5 -12 -10 -27 -19 -38c-8 -11 -17 -22 -24 -34z" />
    <glyph glyph-name="F" unicode="F" horiz-adv-x="537" 
d="M524 673c-2 0 -3 1 -4 1c-11 0 -13 -22 -13 -29c0 -21 -1 -42 -5 -63c-76 0 -153 2 -230 2c-5 0 -23 0 -23 -9c0 -5 3 -8 8 -10c-4 -1 -8 -4 -11 -8c-3 -36 -7 -72 -7 -109c0 -10 4 -16 15 -16c7 0 14 2 22 4c8 3 17 2 27 2c22 0 44 -2 66 -2c32 0 65 2 97 4l1 -80
c-21 -3 -43 -8 -65 -8c-41 0 -82 7 -123 7c-8 0 -30 0 -33 -9c-14 0 -17 -44 -17 -54l-3 -158c-23 0 -47 -5 -70 -11c-9 -2 -16 -5 -25 -5c-10 0 -10 39 -10 46c0 94 0 188 2 282c2 62 9 125 10 188v7c1 12 -1 24 -1 36c39 1 79 2 119 2c9 0 17 -3 26 -4c19 -2 39 -3 58 -3
c21 0 42 4 62 4c9 0 20 0 27 -6c30 2 59 3 88 3c6 0 10 4 10 10c0 11 -15 11 -23 11c-14 0 -28 -2 -42 -2c-19 0 -38 4 -57 4c-13 0 -27 -1 -41 -1c-60 0 -119 8 -179 8c-10 0 -48 0 -55 -4c-7 -5 -11 -13 -12 -22c-24 -34 -50 -69 -64 -109c-22 -1 -17 -42 -17 -57
c0 -32 1 -63 2 -95c1 -24 4 -48 4 -72c0 -9 0 -17 -1 -26c-4 -54 -6 -108 -11 -162c-4 -38 -6 -75 -6 -113c0 -7 0 -42 9 -42c12 0 10 68 10 78c0 9 1 18 2 28c10 92 13 184 13 277c0 26 -5 51 -5 77c0 28 3 56 7 84c12 5 31 61 37 75c6 12 12 24 20 36v-35
c0 -24 0 -48 -1 -71c-5 -130 -9 -260 -9 -390c0 -15 0 -31 2 -46l-54 -97c-4 -2 -10 -7 -10 -12c0 -12 47 -8 55 -8c22 0 43 -3 65 -3c12 0 50 0 57 10c5 8 2 10 2 18c0 14 33 55 33 78c0 5 -2 6 -7 6c-7 0 -10 -5 -10 -11c0 -14 -29 -50 -30 -70l-3 -8l-133 4l47 77
c4 -1 7 -2 11 -2c24 0 46 14 70 14c11 0 21 -3 32 -3c12 0 21 3 21 16c0 4 -3 7 -7 8c1 58 -1 116 7 174c1 9 2 29 14 29c32 0 64 -6 96 -6c36 0 74 1 110 7c-15 -13 -26 -46 -31 -64c-34 9 -70 8 -105 8c-13 0 -83 -1 -83 -17c0 -9 15 -10 21 -10c24 0 48 5 72 5
c29 0 57 -7 86 -10c3 -3 7 -6 12 -6c9 0 12 14 10 21c6 16 12 33 22 47c5 7 12 13 15 21c2 2 2 4 2 7c0 2 0 4 -2 5l1 1c-4 13 -5 83 -5 99c0 4 1 8 1 12c0 6 -7 6 -11 6c-26 0 -52 -1 -77 -1c-20 0 -40 2 -61 2c-26 0 -53 -3 -79 -7l2 26c3 -2 6 -2 10 -2c2 0 5 0 8 1
c29 5 58 8 88 8c18 0 63 0 79 -5c5 -2 10 -4 15 -4c13 0 19 11 25 20c9 18 17 35 24 53c7 7 13 15 13 24c0 4 -2 7 -2 11c0 18 6 36 6 55c0 9 -1 19 -3 28zM467 509c-23 1 -47 2 -70 2h-30c-26 0 -83 -1 -105 -10c1 18 2 35 2 53c0 3 0 7 -2 10c5 -1 10 -2 15 -2
c57 0 113 -4 169 -4c15 0 30 1 44 2c-7 -17 -14 -34 -23 -51z" />
    <glyph glyph-name="G" unicode="G" horiz-adv-x="637" 
d="M151 578c1 0 1 1 1 1zM478 464c4 -2 9 -2 13 -2c28 0 56 5 84 5c11 0 21 -2 32 -2c14 0 20 8 20 22c0 18 -9 43 -16 60c-27 61 -66 92 -126 119c-41 19 -46 26 -95 26c-32 0 -65 -3 -97 -13c2 1 4 4 4 6c0 3 -5 3 -7 3s-4 0 -6 -1c-40 -5 -104 -38 -133 -66
c-35 -33 -78 -108 -96 -154c-19 -49 -35 -103 -35 -156c0 -74 45 -157 95 -209c29 -31 109 -67 150 -78c13 -3 25 -4 38 -4c29 0 58 8 85 19c22 9 43 25 68 25c5 0 12 0 16 -3l3 -50c1 -9 12 -10 19 -8c1 -7 8 -11 15 -10l61 5c2 -1 5 -2 8 -2c8 0 13 6 13 13
c0 32 17 60 17 92c6 2 10 7 10 13c0 96 -2 193 -2 289c0 8 -1 17 -10 18c-12 2 -27 1 -39 1c-30 1 -61 2 -92 2c-8 0 -16 -1 -25 -2c-23 -2 -47 -2 -70 -2c-6 0 -13 -2 -15 -8v1c-15 -38 -29 -76 -48 -111c-3 -5 -6 -10 -6 -16c0 -2 16 -77 17 -80c2 -3 4 -6 7 -9
c-26 4 -57 28 -75 47c-11 12 -15 31 -18 47c1 -1 3 -1 5 -1c2 -1 4 -4 7 -4s3 5 3 7c0 18 -8 35 -11 53c3 -7 4 -14 6 -21c1 34 14 81 33 109c18 27 48 41 79 41c17 0 39 -5 49 -21c1 -8 5 -20 14 -20c6 0 9 6 9 11c0 11 -9 26 -15 34c-11 14 -29 16 -46 16
c-24 0 -58 -7 -77 -24c-25 -24 -53 -80 -62 -114c-1 10 -2 20 -2 30c0 41 31 146 68 166c18 10 43 12 63 12c54 0 74 0 107 -48c-4 -2 -7 -7 -7 -11c0 -5 3 -9 5 -12c-5 -10 -32 -62 -32 -68c0 -2 1 -3 3 -3c27 0 25 24 37 41zM458 84c-41 0 -79 -40 -121 -40
c-46 0 -101 0 -141 25c-13 8 -26 15 -38 22c-37 23 -55 49 -74 87c-21 39 -43 75 -43 121c0 58 9 116 36 168c14 29 29 58 45 86c14 26 62 71 87 86c15 9 29 17 44 24c-95 -49 -165 -154 -165 -263c0 -69 38 -218 83 -272c45 -53 97 -57 162 -64c2 0 5 -1 7 -1
c35 0 107 41 135 63zM495 37c-1 17 -6 40 -16 53l30 66c2 -8 0 -23 0 -33c0 -6 0 -14 4 -19c-9 -21 -16 -44 -18 -67zM571 19l-61 -1c5 26 9 54 20 79c19 0 38 0 58 1v-6c0 -20 -19 -45 -17 -73zM376 281c7 3 10 11 11 18c32 -1 63 -4 95 -7v-3c0 -32 -32 -64 -59 -77
c1 7 -8 8 -12 8c-19 0 -37 -9 -56 -9c-3 0 -3 5 -3 6c0 17 16 49 24 64zM330 284c2 13 6 25 13 36c10 14 15 30 21 46c0 -17 -1 -35 -1 -52c0 -4 0 -9 3 -12c-12 -22 -17 -46 -24 -69zM389 589c-24 0 -48 -2 -71 -9c-50 -15 -76 -74 -92 -119c-10 -28 -12 -57 -12 -86
c0 -34 2 -68 5 -101c5 -60 69 -99 126 -99c88 0 151 47 160 137c-13 5 -98 8 -119 8l-2 76c34 6 68 7 102 7c37 0 73 -2 109 -7c-2 -8 -3 -16 -3 -24c0 -85 3 -169 6 -254l-71 4c-1 9 1 66 -10 66c-4 0 -78 -63 -88 -71c-30 -25 -53 -34 -92 -34c-23 0 -46 3 -68 9
c-87 23 -103 85 -126 162c-16 52 -35 105 -35 161c0 11 1 23 4 34c11 56 56 128 99 166c42 36 112 58 167 58c75 0 142 -46 193 -96c21 -20 33 -56 37 -83c-19 0 -106 -5 -122 -10l-1 6l5 5c3 0 9 1 9 5c0 3 -7 20 -9 24c-8 19 -34 51 -54 59c-13 5 -33 6 -47 6z" />
    <glyph glyph-name="H" unicode="H" horiz-adv-x="593" 
d="M454 695c-6 0 -20 -12 -23 -17c-21 -31 -41 -62 -63 -93l-1 -6c-8 1 -14 -4 -14 -11c0 -14 2 -27 4 -39c0 -3 -1 -7 -1 -10c0 -9 4 -19 15 -19c7 0 11 5 11 12c0 13 -10 25 -10 41v16c7 2 11 9 14 14c13 26 31 47 49 69c-6 -46 -12 -110 -11 -155c-29 1 -57 2 -86 2
c-12 0 -55 0 -65 -4c-7 0 -15 -1 -23 -2c2 7 2 19 2 26c0 14 -3 27 -3 41c0 38 4 76 4 115c0 8 -5 16 -13 18c-21 6 -47 6 -69 7c-8 1 -15 0 -23 2c-3 1 -7 2 -11 2c-9 0 -14 -6 -14 -14c0 -13 12 -10 20 -10c22 0 44 0 67 -1c7 -1 16 -3 19 -10c4 -35 3 -71 4 -106l1 -71
l3 -2c-5 -2 -9 -6 -9 -11c0 -8 7 -10 14 -10c13 0 25 4 37 6c10 1 21 1 31 1c30 0 61 -1 91 -1c9 0 28 0 34 7c9 10 9 45 9 58c2 35 6 69 6 104c0 7 1 26 10 28c17 5 40 6 58 6c6 0 40 -2 43 -5v-4c3 -56 -3 -113 -3 -169c0 -37 2 -73 2 -110c0 -78 -4 -156 -4 -234
c0 -12 -1 -21 -4 -33c-20 9 -43 16 -65 16c-17 0 -34 -6 -49 -13l4 263c0 3 2 7 2 11s-1 9 -7 9c-5 0 -9 -4 -12 -8v-11l-9 -9c-65 -1 -130 -3 -196 -2l-1 -1c-7 -2 -6 -19 -6 -25c0 -8 2 -17 2 -25c0 -34 -2 -69 -2 -103c0 -28 0 -56 2 -84c-33 4 -67 8 -100 6
c1 18 1 35 1 52c0 35 -1 70 -1 105c0 21 -1 73 4 92c-5 10 -5 75 -5 91c0 74 4 148 8 223c-2 1 -4 3 -6 3c-3 0 -5 -2 -6 -4c-10 -15 -67 -113 -67 -123c0 -5 5 -15 11 -15s7 18 8 22c2 15 34 62 44 77c-2 -45 -4 -90 -4 -135c0 -26 2 -52 2 -78c0 -21 -3 -41 -4 -62
c-3 -65 -6 -131 -6 -197c0 -19 1 -37 2 -56c-4 -2 -6 -7 -8 -11c-2 -5 -3 -11 -5 -16c-9 -23 -21 -44 -33 -65c1 40 3 80 3 120c0 29 -2 58 -3 88c-4 101 -9 203 -9 304c0 3 1 6 1 9c0 6 -3 13 -10 13c-13 0 -12 -55 -12 -65c0 -19 1 -39 2 -58c4 -99 11 -198 12 -297
c1 -47 0 -100 3 -147c1 -4 1 -9 7 -9c5 0 9 5 11 9c6 -4 26 -6 34 -6c20 0 40 4 60 4c11 0 23 0 33 4c2 -2 4 -2 6 -2c16 0 16 23 17 34c2 25 14 48 21 72h1c10 0 10 15 10 22c0 41 -4 82 -5 124v44v0c14 0 27 1 41 1c30 0 61 -2 91 -5c-2 -55 -5 -110 -5 -164
c0 -24 2 -48 3 -72c0 -10 -1 -45 13 -45c9 0 11 8 11 15c0 5 -2 10 -2 15c-2 18 -3 36 -3 54c-2 32 -3 65 -3 98c0 32 4 64 6 96l39 52c-2 -51 -3 -101 -3 -152c0 -19 -1 -72 2 -87l-29 -81c-3 -7 -9 -12 -9 -20c0 -6 5 -11 11 -11c11 0 36 85 40 99c17 5 34 9 51 9
c22 0 47 -7 68 -14c-2 -5 -36 -75 -36 -84c0 -5 2 -11 8 -11c12 0 17 19 17 28c8 17 16 35 25 51c4 9 12 15 12 25c0 3 -1 6 -3 8c-1 19 -2 39 -2 58c0 75 6 149 6 223c0 38 -2 75 -2 113c0 45 1 90 1 135c0 11 3 22 3 32c0 7 -5 15 -12 15zM182 38c-27 -3 -55 -7 -82 -7
c-12 0 -24 4 -36 3l41 86c1 3 3 5 4 8c30 -3 60 -6 90 -4l3 -3c-7 -27 -15 -55 -20 -83zM374 331c-35 3 -70 6 -106 6c-12 0 -25 -2 -37 -6v23v6l168 2zM432 119v0v0zM390 4c-3 -3 -7 -8 -7 -13c0 -7 9 -8 14 -8c17 0 34 2 50 2h21c7 0 28 0 35 -3c5 -2 11 -3 17 -3
c7 0 16 2 16 10s-8 13 -15 13c-44 0 -87 1 -131 2z" />
    <glyph glyph-name="I" unicode="I" horiz-adv-x="304" 
d="M281 680c6 -1 13 1 13 10c0 7 -7 12 -13 14c0 4 -1 11 -7 11c-5 0 -8 -3 -8 -9c-21 3 -42 5 -62 7c-10 1 -19 1 -29 2c-5 1 -9 2 -14 2c-7 0 -18 -4 -18 -13c0 -20 56 -13 67 -13c18 0 36 -5 53 -8c-1 -18 -2 -35 -2 -53c0 -52 4 -105 4 -157c0 -75 -9 -149 -15 -223
l-8 -102c-43 -5 -86 -12 -129 -13c4 30 8 61 8 92c0 29 -3 57 -3 86c0 130 13 260 17 390c0 3 -1 20 -5 20c-6 0 -19 -27 -23 -32c-17 -27 -37 -52 -55 -78c-11 -15 -14 -29 -14 -47c0 -36 1 -73 1 -109c0 -62 -5 -124 -8 -187c-3 -74 -6 -147 -11 -221v-14
c0 -6 0 -40 9 -40c12 0 9 74 9 85c0 52 5 104 8 156c13 27 8 260 8 310c0 27 20 31 18 67l45 63v-61c0 -38 -1 -77 -3 -115c-1 -15 -3 -30 -4 -45c-4 -70 -6 -139 -6 -209c0 -40 -5 -81 -5 -121c0 -3 0 -6 2 -9c-12 -19 -50 -79 -50 -99c0 -4 2 -8 7 -8c22 0 80 35 115 35
c9 0 17 -1 26 -3c-1 -4 -2 -8 -2 -12c0 -6 1 -14 8 -14c6 0 8 6 9 11c6 18 12 36 20 53c3 8 18 27 18 34c0 4 -5 5 -8 5c-13 0 -31 -46 -35 -57c-6 6 -27 6 -35 6c-27 0 -75 -18 -101 -29l41 72c43 8 86 14 129 18c1 -1 3 -1 4 -1c14 0 12 30 12 39c0 36 4 71 7 107
c5 67 15 134 15 202c0 41 -1 81 -1 121v84h1z" />
    <glyph glyph-name="J" unicode="J" horiz-adv-x="464" 
d="M446 680c0 10 -2 18 -13 18c-3 0 -6 -1 -9 -1l-80 -10v2c1 3 -2 9 -6 9c-7 0 -12 -4 -11 -11c-3 1 -5 1 -7 1c-6 0 -11 -3 -12 -9c-15 -19 -29 -38 -45 -56c-9 -10 -16 -24 -16 -39h-2c-7 0 -14 -3 -14 -12c0 -8 5 -18 7 -26c11 -52 10 -108 10 -161c0 -32 0 -65 -3 -97
c-1 -21 -5 -43 -6 -64c-9 25 -9 63 -9 90c0 10 -4 18 -14 18c-28 0 -61 -15 -96 -15c-10 0 -20 0 -29 1c0 5 -4 8 -8 8c-9 0 -15 -15 -18 -21c-6 -13 -37 -81 -37 -88c0 -5 5 -9 10 -9c11 0 11 14 11 22l25 50v-6v-3c3 -92 59 -189 161 -189c49 0 130 23 163 60
c-15 -31 -36 -61 -63 -83c-15 -12 -38 -30 -58 -30c-5 0 -10 2 -15 2c-24 0 -47 -10 -71 -10c-15 0 -29 2 -42 9c-48 26 -64 23 -92 75c-8 14 -19 36 -19 52c0 10 3 20 3 30c0 7 -4 14 -11 14c-10 0 -10 -16 -10 -23c0 -14 3 -28 3 -42c0 -32 40 -85 68 -100
c31 -17 62 -36 99 -36c21 0 42 7 63 7c3 0 5 -1 7 -1c23 0 47 7 64 23c12 13 27 22 40 34c41 38 62 85 69 140l-1 1c11 27 18 60 18 90v112c0 29 0 57 1 86c1 12 2 23 2 35s-1 25 -3 38c-1 5 -3 10 -3 15c0 28 7 56 7 84c0 7 -1 14 -8 16zM264 596l49 69c1 -4 7 -5 11 -5
c0 -49 1 -97 1 -146c0 -59 -5 -118 -10 -178c-3 -37 -3 -77 -11 -114c-3 -13 -8 -26 -23 -26c-9 0 -19 5 -27 10c16 63 13 155 13 221c0 50 -9 100 -18 149c9 2 13 12 15 20zM250 108c-15 0 -30 0 -44 3c-78 12 -113 106 -113 176c6 1 11 3 15 7c28 3 56 5 83 12
c5 1 9 2 14 2c2 0 4 0 6 -1c0 -22 3 -74 15 -92c12 -16 27 -39 49 -39c4 0 8 0 11 1c35 10 35 45 38 75c4 49 9 98 12 147c2 19 4 38 4 57c0 57 -2 114 -2 171c0 13 0 27 2 40c22 2 44 3 65 8c8 2 15 3 23 3h5c1 -12 1 -23 1 -34c0 -21 -2 -41 -2 -61c0 -51 5 -103 5 -155
c0 -17 -1 -34 -2 -52c-3 -62 -4 -166 -47 -214c-36 -40 -86 -54 -138 -54z" />
    <glyph glyph-name="K" unicode="K" horiz-adv-x="704" 
d="M489 13c4 6 7 13 7 20c0 4 -1 6 -1 9c0 9 3 17 3 26c0 3 0 7 -3 9c-5 -12 -34 -78 -34 -84c0 -4 2 -5 5 -5c52 0 103 9 154 9c8 0 17 3 17 12c0 10 -25 10 -31 10c-16 0 -31 -4 -47 -4c-23 -1 -47 -1 -70 -2zM33 487c0 -133 -13 -265 -13 -398c0 -14 1 -87 7 -93
c2 -2 4 -4 7 -4c7 0 7 18 7 23c0 30 -3 61 -3 91c0 49 0 99 1 148c2 32 4 64 5 96c3 61 2 122 5 183c0 5 1 9 1 14s-1 20 -8 20c-13 0 -9 -69 -9 -80zM453 422v3c60 46 109 104 160 160c24 25 49 58 78 77c2 3 3 7 3 11c0 2 -1 3 -3 4c-20 4 -43 7 -63 7
c-31 0 -62 -2 -93 -3c-1 6 -4 12 -10 12c-3 0 -7 -1 -9 -2c-8 -6 -16 -14 -24 -21c-21 -17 -42 -35 -62 -54c-26 -26 -49 -55 -73 -83c-10 -11 -58 -61 -58 -72c0 -2 1 -3 4 -3c7 0 13 7 17 13c15 22 37 38 53 59c38 50 90 92 136 133l148 -4c-2 -8 -27 -39 -34 -46
c-18 -18 -40 -32 -57 -51c-19 -22 -35 -45 -57 -63c-11 -8 -85 -75 -85 -80c0 -7 10 -13 14 -16c9 -7 17 -21 23 -30c17 -24 42 -41 57 -67c19 -30 47 -69 75 -90c26 -21 40 -51 61 -75c8 -9 23 -25 23 -37h-32c-37 0 -92 -5 -128 -16v2v2c-58 77 -112 156 -167 235
c2 2 3 6 3 9c0 4 -2 10 -7 10c-7 0 -14 -7 -19 -12c-17 -19 -48 -51 -49 -76l-4 -151c-45 0 -90 -3 -135 -6v6c0 36 -2 72 -2 108c0 43 1 85 6 127c3 27 2 54 3 82l9 176c1 23 2 46 6 69h8c41 0 80 19 122 19c7 0 13 0 20 -1c-3 -7 -1 -39 -1 -49c0 -44 -10 -88 -21 -131
c-3 -12 -11 -27 -11 -40c0 -3 1 -7 6 -7c10 0 13 8 15 16c7 31 15 62 21 92c9 41 10 86 10 128c0 6 -1 26 -10 26c-6 0 -10 -10 -11 -15c-33 0 -67 -9 -99 -18c-8 -2 -16 -3 -25 -3c-13 0 -26 2 -38 4c1 2 2 4 2 6c0 4 -5 7 -8 7c-8 0 -13 -7 -16 -14
c-15 -15 -85 -85 -85 -102c0 -4 3 -12 8 -12c6 0 9 12 11 16c26 30 51 60 77 90c1 -5 6 -8 10 -9c-10 -180 -26 -361 -26 -541c0 -14 1 -28 4 -42c-10 -12 -66 -75 -66 -85c0 -3 3 -7 6 -8l3 3c2 -1 4 -1 6 -1c27 0 52 10 85 10c29 0 55 -5 84 -7h3c6 -1 13 2 16 8
c5 13 7 29 10 42c4 13 9 26 13 38l11 -1c2 2 6 6 6 9c0 5 -6 8 -9 8c-1 18 -2 35 -2 52v34c1 15 4 30 6 45c7 -18 19 -33 28 -50c7 -12 12 -24 19 -35c10 -16 104 -148 112 -148c4 0 7 6 7 9c0 9 -28 44 -34 53s-11 18 -17 27c-12 19 -25 38 -39 56c-29 36 -51 77 -73 118
c14 12 13 41 38 51c53 -81 108 -160 164 -240h4v-5c0 -5 3 -7 8 -7c40 0 78 18 119 18c12 0 25 -1 38 -1c-5 -15 -24 -62 -24 -74c0 -4 2 -10 7 -10c9 0 13 20 15 26c2 9 5 17 8 25c6 19 11 39 16 58c-11 31 -54 89 -79 111c-21 20 -43 41 -58 67c-15 25 -30 50 -49 73
c-13 17 -30 29 -45 45c-5 5 -8 12 -8 19zM248 38c-1 2 -3 3 -6 3c-5 0 -8 -2 -8 -7c0 -4 2 -8 4 -11c-29 0 -56 7 -85 7c-22 0 -44 -5 -66 -10c15 19 28 39 43 58h2c2 0 4 4 5 6c40 3 80 7 120 7c5 0 10 0 15 -1z" />
    <glyph glyph-name="L" unicode="L" horiz-adv-x="557" 
d="M547 230c0 7 -2 29 -12 29s-7 -15 -7 -22c-3 4 -8 6 -13 8c-30 10 -204 9 -248 9c-8 0 -8 34 -8 40v21c5 83 6 167 12 250c1 11 3 22 4 32c4 25 6 50 6 74c0 27 -4 40 -34 40s-60 -3 -90 -3h-19v3c0 2 -2 3 -2 5l-1 2c-2 3 -5 5 -8 5c-7 0 -6 -9 -7 -14c-2 0 -4 -2 -4 -5
c-12 -18 -76 -110 -76 -123c0 -6 4 -8 9 -8h3c22 35 46 68 68 102v-47c0 -123 -8 -245 -16 -367c-4 -48 -8 -95 -7 -143c-18 -31 -37 -67 -46 -102l-15 2c1 20 2 40 2 60c0 31 -2 61 -2 92c0 71 0 141 3 212c2 52 8 103 8 155c0 4 0 30 -6 30c-4 0 -10 -1 -10 -7
c0 -18 1 -37 1 -55c0 -22 -2 -44 -3 -67c-4 -93 -9 -185 -9 -278v-91c0 -13 0 -58 3 -68v-3c0 -5 2 -11 7 -11l2 1l2 5c8 -1 15 -1 23 -1c40 0 79 4 118 13c20 4 40 3 60 3c35 0 69 6 103 6c45 0 88 -13 133 -13c8 0 12 1 12 10c0 14 -22 13 -31 14c-35 2 -70 7 -106 7
c-30 0 -60 -3 -91 -3c-9 0 -18 1 -28 1c-45 0 -88 -17 -134 -17c-8 0 -17 1 -26 1c10 31 21 62 38 89c5 2 9 7 12 11l-1 8c34 -12 70 -19 106 -19c5 0 10 0 15 1c72 4 144 14 216 14c21 0 41 -5 62 -9c-7 -31 -24 -63 -24 -95c0 -8 3 -19 12 -19c8 0 7 28 8 33
c3 19 23 70 23 82l1 3c0 3 -1 6 -3 8c-1 5 -1 10 -1 15c0 32 16 62 16 94zM515 132c-21 7 -43 8 -65 8c-67 0 -133 -16 -200 -16c-46 0 -92 6 -137 16v5c0 11 1 23 2 34l5 81c5 81 9 162 14 243c2 43 4 86 4 129c0 20 0 39 -1 59c10 -1 20 -2 30 -2c24 0 48 8 73 7h10l16 -8
c-11 -65 -16 -132 -16 -198c0 -21 1 -42 1 -64c0 -51 -2 -102 -8 -153c-1 -15 -4 -30 -4 -45c0 -8 1 -20 11 -20h3c39 5 77 15 117 17c27 1 55 3 82 3c24 0 47 -6 71 -8l5 6c-2 -32 -17 -62 -13 -94z" />
    <glyph glyph-name="M" unicode="M" horiz-adv-x="716" 
d="M307 731v-1h1v0c-1 0 -1 1 -1 1zM701 265c0 56 -5 112 -5 168c0 24 1 49 3 73c1 11 3 22 3 33c0 37 -1 74 -1 111c0 25 -3 24 -25 24c-13 0 -52 16 -65 22c-15 8 -21 10 -38 10s-35 2 -52 4c-7 2 -14 4 -22 4c-9 0 -10 -18 -10 -24c-9 -7 -18 -50 -20 -62
c-19 -104 -41 -206 -63 -309c-9 34 -20 68 -25 103c-4 23 -9 46 -18 67c-6 17 -9 36 -11 53c-3 23 -9 46 -14 69l-14 71c-1 9 -2 19 -5 28c-3 7 -7 14 -12 20c-10 3 -20 8 -31 8c-20 0 -38 -12 -59 -12c-11 0 -23 2 -35 2c-19 0 -39 -3 -57 -10c-1 4 -6 5 -10 5
c-9 0 -9 -15 -12 -21l-39 -85c-10 -21 -18 -44 -27 -65c-1 2 -3 6 -6 6c-10 0 -10 -32 -10 -39c0 -138 5 -276 5 -414c0 -19 -2 -39 -4 -58c-1 -4 -2 -8 -2 -13c0 -6 3 -17 11 -17c9 11 9 119 9 139c0 93 -1 186 -1 279c0 32 2 64 1 96c16 36 47 117 68 144
c-2 -29 -4 -57 -4 -85c0 -29 6 -58 6 -87c0 -96 -18 -191 -18 -288c0 -23 3 -46 2 -70v-10c-25 -31 -33 -58 -49 -93c-1 -4 -5 -8 -5 -13c0 -8 10 -9 16 -9c26 0 50 14 76 17c11 1 22 2 34 2c20 0 40 -5 59 -13c5 1 19 4 19 10c0 5 -8 10 -11 11l28 61l-3 3c3 2 5 5 5 9
c0 7 -8 11 -14 13c0 115 7 230 5 344c23 -121 50 -243 86 -361c-12 -22 -33 -52 -39 -75c0 4 -1 7 -2 10c-10 35 -15 71 -20 107c1 2 2 4 2 7c0 5 -5 8 -10 8c-9 0 -9 -12 -9 -19c0 -47 16 -71 21 -111c1 -6 -1 -27 9 -27c1 0 3 0 4 1c1 -2 2 -4 4 -4c-4 -3 -6 -7 -6 -11
c0 -8 11 -9 17 -9c23 0 46 11 70 11c8 0 17 -1 25 -1c10 0 27 0 27 14c0 9 -28 11 -35 11c-24 0 -69 -4 -91 -12c18 25 28 55 41 83h14c23 0 49 -6 72 -3c-3 -11 -11 -31 -11 -42c0 -5 4 -8 9 -8c13 0 18 47 19 58c19 15 17 44 23 66c5 20 13 38 19 58c1 -49 0 -97 1 -145
c0 -16 -1 -32 1 -48c1 -6 10 -21 16 -25c17 -10 55 -10 75 -10c28 0 55 5 82 5c13 0 13 13 13 23c0 18 12 33 12 51c0 2 0 5 -1 8c1 -2 3 -2 4 -2s3 0 4 1c5 15 6 32 6 48c0 33 -6 66 -6 98c0 11 1 22 1 33zM218 51c-24 6 -50 7 -75 7c-23 0 -60 -3 -80 -15v4
c10 24 21 47 36 68c2 -4 6 -8 11 -8s6 7 6 11c22 2 43 5 65 5c21 0 41 -12 61 -15c-6 -12 -23 -44 -24 -57zM509 250c2 3 4 6 4 10c0 3 0 7 -4 7l-4 -1c5 13 29 79 29 86c0 5 -1 9 -1 13c0 6 1 11 3 16c10 25 12 50 15 77c1 12 6 24 10 35c1 -20 3 -41 3 -62
c0 -51 -8 -103 -9 -154c-2 -47 -11 -93 -11 -142c0 -5 1 -10 2 -15l-2 1c-3 0 -6 -10 -6 -13c-6 -21 -15 -41 -26 -61c-1 57 -4 114 -4 171c0 11 0 22 1 32zM668 34l-9 -9h-131l-1 12c6 16 23 57 24 72c2 -2 4 -4 7 -4c4 0 6 5 6 8c1 -3 2 -5 4 -8c6 -9 17 -10 27 -10
c13 0 76 -2 81 -15c1 -2 1 -5 1 -8c0 -13 -4 -26 -9 -38zM691 89c-14 33 -83 26 -113 35c-2 1 -5 2 -8 2s-5 -1 -6 -3c-4 19 -5 39 -5 59c0 17 3 34 5 51c3 38 7 75 9 112c2 27 1 53 1 80c1 36 6 73 6 110c0 5 0 27 -7 27c-10 0 -11 -40 -12 -47h-3c-2 0 -4 0 -6 -1
c-4 -13 -9 -26 -14 -39c-11 -26 -3 -56 -14 -82c-5 -13 -3 -26 -8 -38c-18 -57 -37 -114 -53 -172c-4 -13 -6 -26 -10 -38c-2 -8 -5 -17 -10 -24l-90 -1c1 2 1 5 1 7c0 7 -2 13 -6 18c-24 93 -50 186 -68 281c-7 37 -11 74 -17 111c-1 8 -7 31 -18 31c-12 0 -8 -12 -8 -19
c0 -138 -2 -275 -2 -413c-37 7 -76 7 -115 5c1 4 -1 7 -4 8c-3 33 -6 66 -6 99c0 64 15 127 15 192c0 50 -2 101 -2 152c0 20 1 41 4 61c1 7 2 13 2 20s0 14 -2 21c31 22 75 8 111 18c10 3 20 4 30 4s20 -1 29 -2c10 -15 33 -189 52 -233c7 -17 11 -36 15 -55
c5 -23 11 -47 18 -70c3 -10 5 -20 6 -30c1 -7 2 -46 12 -46c3 0 6 2 8 3c23 21 62 289 76 342c4 17 11 52 19 65c31 -9 64 -6 94 -17c25 -10 58 -21 85 -20c3 -13 3 -26 3 -38c0 -59 -5 -118 -5 -177c0 -58 3 -116 3 -174c0 -51 10 -102 10 -153c0 -7 -3 -14 -2 -22z" />
    <glyph glyph-name="N" unicode="N" horiz-adv-x="653" 
d="M494 667c0 4 -1 11 -6 11c-6 0 -8 -9 -7 -13l-5 11h-2c-14 0 -24 -31 -28 -42c-12 -28 -30 -53 -48 -78l4 -52c-35 58 -71 115 -107 172c-2 2 -5 3 -8 3c-6 0 -7 -8 -7 -12l-131 12c-8 1 -15 -6 -20 -11c-34 -36 -64 -76 -96 -114c-12 0 -13 -17 -13 -25
c0 -68 3 -137 3 -205c0 -79 -3 -158 -3 -238c0 -9 1 -62 13 -62c8 0 8 24 8 30c0 35 -7 70 -7 105c0 126 2 252 2 378l84 96v-84c0 -21 0 -43 -2 -64c-1 -12 -3 -24 -3 -36c0 -29 3 -58 3 -86c0 -25 0 -49 -2 -74c-2 -40 -8 -79 -8 -120c0 -19 0 -39 4 -58
c-4 -1 -10 -5 -10 -10c0 -15 23 -17 34 -17c30 0 57 14 87 14c10 0 26 -6 35 -11c-7 -22 -15 -44 -25 -65c-11 4 -50 18 -59 18c-15 0 -106 -26 -120 -34c-3 -1 -8 -4 -8 -8c0 -5 7 -8 11 -9c22 5 101 31 115 31c18 0 37 -6 55 -11c-2 -4 -3 -8 -3 -12c0 -2 1 -8 4 -8
c5 0 11 12 13 15c7 -2 16 -6 23 -6c6 0 11 8 11 13c0 7 -9 12 -15 12c-5 0 -9 -3 -10 -7l-3 1c6 19 24 62 24 80c0 7 -1 13 -5 19l-1 -4c1 37 3 74 3 111c0 18 -1 35 -1 52c21 -31 41 -62 62 -93c11 -18 24 -37 33 -57c21 -45 47 -87 73 -130c-1 -1 -2 -2 -2 -4
c0 -7 14 -9 19 -9c27 0 52 8 79 8h21s30 0 30 10c0 11 -24 11 -32 11c-32 0 -63 -4 -95 -6v0l36 83c11 1 21 3 30 7c26 9 42 9 69 9h4c-6 -30 -13 -60 -13 -91c0 -4 0 -10 4 -12l4 2c1 1 6 33 6 34c8 41 26 81 26 124c0 58 -1 116 -1 174c0 35 1 69 2 104c1 18 4 36 5 54
c3 52 3 104 3 156c8 4 13 12 13 20c0 3 -2 5 -5 5s-5 -2 -8 -3c-11 -4 -45 -4 -58 -4h-78zM418 556c8 2 12 12 10 19c17 25 35 51 48 79c0 -51 2 -101 2 -152c0 -39 -6 -77 -8 -116c-19 30 -35 62 -53 93c-1 14 -3 29 -3 43c0 11 3 23 4 34zM446 20c-36 60 -74 119 -109 180
c-17 29 -33 59 -54 86c-2 3 -5 7 -9 7c-5 0 -7 -7 -8 -11v69c0 32 3 65 5 98c20 -23 74 -90 82 -115c7 -23 16 -44 27 -66c19 -35 38 -71 56 -106c6 -12 18 -32 21 -45c4 -13 -7 -32 16 -30zM603 297c0 -34 2 -69 2 -103c0 -24 -1 -48 -6 -71c-6 1 -12 1 -18 1
c-14 0 -27 0 -40 -2c-19 -3 -36 -9 -55 -9c-4 0 -8 0 -11 1c-11 11 -54 103 -63 124c-33 72 -81 192 -139 244c0 7 0 38 -9 38c-6 0 -7 -15 -8 -20c-2 3 -5 6 -9 6c-6 0 -7 -7 -7 -12c0 -11 10 -21 18 -29v-2c3 -54 -5 -108 -7 -161c0 -40 1 -79 1 -119c0 -21 -1 -43 -2 -64
c-3 0 -7 1 -11 1c-31 0 -60 -11 -91 -11c-9 0 -17 0 -26 2c2 10 3 21 3 31c0 16 -1 32 -1 49c0 76 10 151 10 227c0 22 -1 43 -1 65c0 57 4 114 4 171c5 5 12 5 18 5c45 0 90 -8 135 -12c24 -37 48 -73 71 -110c12 -21 22 -44 35 -65c24 -40 53 -77 72 -120
c-1 -10 -1 -19 -1 -29c0 -3 0 -18 5 -18c4 0 8 6 9 8c0 7 -1 13 -1 20c3 -4 8 -9 13 -9c6 0 8 10 9 15c-7 11 -15 21 -22 32c1 14 2 29 4 43c7 49 4 98 8 147c3 28 3 56 2 85c30 -1 60 -2 90 -2c10 0 20 0 30 1l-6 -250c-1 -33 -5 -65 -5 -98zM102 113c0 2 0 5 -3 5
s-8 -3 -10 -6c-6 -6 -56 -95 -56 -102c0 -2 1 -4 4 -4c23 0 36 63 52 79c6 6 13 19 13 28z" />
    <glyph glyph-name="O" unicode="O" horiz-adv-x="681" 
d="M359 620c-8 0 -28 -4 -28 -15c0 -4 2 -8 2 -11c-90 -24 -123 -138 -123 -220c0 -52 15 -132 52 -169c27 -26 70 -34 106 -34c18 0 38 2 55 8c61 23 118 186 118 247c0 57 -47 128 -95 155c-13 8 -27 13 -39 22c-15 11 -29 17 -48 17zM418 202c-25 -6 -51 -7 -77 -7h-19
c-32 0 -81 83 -87 111c-4 22 -8 46 -8 69c0 34 10 69 19 102c25 22 47 29 80 29c18 0 38 -2 54 -12c18 -12 53 -46 58 -67c7 -32 16 -64 16 -97c0 -32 -5 -57 -20 -87c-5 -10 -17 -30 -16 -41zM442 213c2 5 6 10 8 14c18 28 27 80 27 113c0 40 -23 123 -56 149
c-18 15 -63 37 -86 37c-22 0 -57 -8 -76 -20c6 10 11 21 18 31c11 17 49 34 67 42c8 3 16 7 16 16c20 -3 40 -8 58 -16c36 -15 75 -68 92 -103c7 -14 9 -36 9 -52c0 -36 -8 -73 -20 -107c-10 -27 -37 -86 -57 -104zM656 359c-2 35 -10 143 -21 170c-14 34 -59 68 -85 93
c-38 37 -149 85 -202 85c-6 0 -11 -1 -17 -3c-1 5 -6 6 -10 6c-19 0 -87 -38 -100 -52c-3 3 -6 4 -10 4c-10 0 -20 -8 -27 -14c-12 -10 -84 -91 -90 -103c-7 -12 -10 -26 -14 -39c-26 -77 -60 -162 -60 -244c0 -35 6 -98 24 -128s100 -93 133 -107c30 -13 110 -32 142 -32
c31 0 72 5 99 20c39 22 82 41 118 68c26 20 66 72 78 103c13 31 37 85 37 118c0 31 20 52 20 64c0 3 0 8 -4 9c-5 -4 -8 -12 -11 -18zM333 8c-24 0 -45 11 -68 16c-30 6 -57 5 -83 22c-100 66 -147 83 -147 215c0 57 36 219 70 260c-19 -59 -29 -126 -29 -188
c0 -61 33 -137 82 -175c23 -17 96 -54 124 -64s64 -14 93 -14c15 0 29 1 43 4c32 8 84 25 108 47c31 29 58 62 87 93c-11 -32 -31 -73 -53 -98c-35 -39 -84 -60 -129 -85c-30 -17 -62 -33 -98 -33zM367 100c-45 0 -67 15 -106 34c-18 9 -36 16 -55 23
c-84 32 -114 121 -114 204c0 70 17 160 60 216c36 49 94 92 152 108c-1 -2 -3 -5 -3 -9c0 -2 1 -3 3 -3c17 0 32 12 48 12c49 0 140 -48 179 -79c44 -35 87 -74 99 -133c5 -21 6 -43 6 -64c0 -45 -7 -95 -22 -137c-38 -107 -134 -172 -247 -172z" />
    <glyph glyph-name="P" unicode="P" horiz-adv-x="611" 
d="M242 115c-15 -3 -31 -6 -46 -6c-27 0 -36 16 -50 16c-12 0 -12 -22 -12 -30c0 -7 8 -7 13 -8c15 -1 30 -4 45 -4c9 0 17 1 25 1l8 -3c-10 -25 -14 -50 -21 -76c-1 -3 -4 -6 -4 -10c0 -3 2 -6 5 -6c10 0 31 80 31 93v9c5 2 15 6 15 13c0 4 -5 8 -9 11zM293 702
c-26 0 -53 -3 -80 -9c-23 -6 -47 -16 -71 -16c-6 0 -14 -3 -14 -10c-17 -32 -37 -64 -59 -93c-12 -15 -32 -42 -34 -61c-3 -33 -2 -68 -2 -102v-46c0 -50 7 -100 7 -151v-9c-7 -44 -11 -88 -16 -132c-2 -17 -4 -33 -4 -50c0 -6 1 -35 9 -35c9 0 8 16 8 22c0 14 -1 28 -1 42
c0 7 0 14 2 21c14 55 18 123 18 180c0 62 -8 124 -8 186c0 25 2 49 3 74c24 38 48 76 76 111c0 -42 2 -84 2 -126s1 -91 -10 -131c-6 -20 -6 -61 -6 -82c0 -47 4 -93 4 -140c0 -3 -1 -6 -1 -10s1 -12 7 -12c8 0 8 30 8 35c0 13 -1 27 -1 40c0 154 13 307 19 461
c38 9 85 24 124 24c46 0 102 -4 146 -14c36 -9 105 -35 124 -69c16 -31 40 -63 40 -99c0 -33 -8 -94 -31 -118c-28 -30 -73 -56 -112 -68c-32 -9 -54 -25 -89 -25c-22 0 -50 6 -70 14c-5 2 -10 5 -15 6l-1 12c-3 2 -7 4 -11 4c-8 0 -9 -9 -8 -14c-4 -2 -7 -6 -7 -10
s4 -8 7 -9c0 -9 1 -18 1 -27c0 -16 -1 -32 -1 -47c-3 -3 -7 -9 -7 -14c0 -4 4 -4 6 -3c0 -22 -1 -43 -1 -65c0 -6 1 -29 11 -29c6 0 6 40 6 46v20v30c6 1 13 1 19 1c16 0 33 -2 49 -2c38 0 87 15 117 37c14 10 30 16 43 26c22 16 50 65 65 90c23 39 47 86 47 133
c0 27 -9 55 -18 80c-39 104 -191 133 -290 133zM323 219c-20 0 -40 7 -61 6c1 19 6 38 6 57c27 -10 56 -14 85 -14c50 0 121 39 165 63c-27 -41 -46 -71 -96 -88c-32 -10 -65 -24 -99 -24zM72 -6c16 20 36 48 43 73c6 7 14 18 14 28c0 2 -1 7 -4 7c-6 0 -18 -25 -21 -31
c-15 -31 -35 -58 -58 -85v-4c0 -8 9 -10 15 -10c16 0 32 6 48 6h75c2 -1 5 -1 7 -1c6 0 9 5 9 11c0 8 -10 11 -16 11c-4 0 -8 -1 -12 -2zM237 398c0 -8 18 -9 24 -9c47 0 93 10 140 10c44 0 77 34 77 77c0 33 -28 65 -54 82c-24 15 -72 24 -100 24c-21 0 -41 -7 -58 -19
l5 -5c-5 3 -13 9 -19 9c-4 0 -7 -4 -7 -7l7 -151l-2 2c-4 -1 -13 -9 -13 -13zM268 550c10 14 41 15 57 15c64 0 73 -7 116 -50c13 -13 20 -30 20 -48c0 -41 -45 -55 -79 -55c-23 0 -46 -2 -69 -5c-13 -1 -25 -3 -37 -3c-3 0 -6 1 -6 4s1 5 3 7l-5 130v5z" />
    <glyph glyph-name="Q" unicode="Q" horiz-adv-x="662" 
d="M587 190c15 26 43 79 43 108c0 28 3 56 3 84c0 76 -19 139 -64 200c-13 18 -28 34 -40 53c-32 45 -101 62 -154 62c-48 0 -111 -9 -150 -38c-36 -10 -75 -42 -96 -72c-59 -84 -86 -103 -101 -210c-5 -31 -8 -63 -8 -95c0 -75 24 -127 76 -179c55 -54 141 -103 219 -103
c37 0 105 27 136 46l16 -3l65 -51c5 0 10 3 10 9c0 3 -3 11 -5 13l-59 42l13 47l55 -40l3 -63c0 -5 2 -16 10 -16c12 0 66 57 75 69h5c8 0 13 2 13 11c0 8 -2 16 -3 24c-6 31 2 40 -23 65c-13 13 -28 23 -39 37zM465 68c-2 2 -6 3 -9 3c-15 0 -80 -51 -139 -51
c-48 0 -104 27 -145 52c-67 41 -136 112 -136 195v13c7 60 9 132 36 186c14 28 43 92 69 105c-42 -48 -57 -126 -57 -188c0 -53 12 -104 36 -150c10 -19 23 -35 31 -55c22 -48 86 -91 137 -101c29 -5 58 -9 86 -9c37 0 68 14 100 31c-2 -10 -3 -21 -9 -31zM550 85
c-21 15 -47 22 -57 47c-5 10 -10 30 -23 30c-4 0 -9 -2 -9 -7c0 -3 12 -26 14 -31c-9 -4 -16 -9 -24 -16c-22 -19 -55 -26 -83 -26c-19 0 -38 3 -55 9c-24 7 -48 14 -69 25c-85 42 -142 175 -142 267c0 73 28 144 70 204c10 14 21 28 34 39c33 26 103 50 145 50
c36 0 92 -7 123 -26c32 -21 56 -53 79 -84c33 -46 52 -66 61 -125c5 -26 7 -52 7 -78c0 -50 -15 -120 -46 -161c-3 -3 -6 -7 -6 -12c0 -10 35 -41 44 -49c1 0 5 -1 5 -4c0 -1 -43 -47 -48 -53c-3 3 -7 5 -12 5c-3 0 -6 -1 -8 -4zM569 13c-5 0 -6 14 -6 18c0 9 0 18 1 27h1
c14 -1 51 49 60 62l4 -52c-7 -7 -57 -55 -60 -55zM399 614c-26 0 -59 -10 -85 -15c-52 -12 -93 -89 -106 -136c-7 -24 -7 -53 -7 -79c0 -38 7 -102 26 -135c28 -51 79 -66 134 -66c12 0 50 0 50 17c0 4 -1 7 -2 9c-3 1 -4 3 -4 6c0 7 7 12 7 20c0 11 -19 22 -27 27l42 48
c7 -4 30 -28 34 -28c7 0 11 9 14 15c21 36 30 76 30 117c0 31 -5 63 -7 94c-3 34 -63 106 -99 106zM385 213l-11 -9l-7 -1c3 17 4 34 5 50c4 -3 13 -13 13 -18v-22zM463 312c-6 11 -19 28 -33 28h-3c-19 -21 -43 -41 -59 -64c-2 1 -3 1 -5 1c-8 0 -9 -10 -9 -16
c0 -19 1 -39 1 -58h-3c-19 0 -37 2 -53 11c-47 28 -65 47 -74 102c-4 28 -7 57 -7 85c0 12 1 24 2 35c33 39 76 103 131 103c26 0 50 -14 68 -31c32 -32 46 -85 54 -128c2 -10 4 -20 4 -31c0 -8 -9 -29 -14 -37zM485 407c-17 62 -48 151 -126 151c-39 0 -73 -33 -101 -55
c-10 -8 -20 -17 -27 -27c14 45 58 107 109 111c17 1 34 3 51 3c37 0 61 -33 77 -62c14 -25 20 -46 20 -75c0 -15 -2 -30 -3 -46z" />
    <glyph glyph-name="R" unicode="R" horiz-adv-x="584" 
d="M112 689c0 3 -1 7 -5 7c-16 0 -27 -34 -30 -47c-8 -12 -32 -46 -32 -59c0 -2 1 -4 3 -4c14 0 64 88 64 103zM221 123c-8 0 -11 -7 -10 -14l-30 -76c-5 1 -11 2 -17 2c-14 0 -112 -5 -112 -27c0 -4 4 -8 8 -8c7 0 24 8 34 10c24 3 48 5 72 5c3 0 6 1 8 -1
c-1 -2 -3 -5 -3 -8c0 -2 3 -7 6 -7s8 8 9 11c5 -2 9 -4 14 -4c2 0 5 1 5 4c0 6 -6 13 -10 17c6 14 10 28 17 41c6 11 7 23 11 34c1 5 4 9 4 14c0 3 -2 7 -6 7zM554 129c1 5 1 10 1 14c0 43 -17 85 -25 127c-8 40 -19 67 -55 88c25 7 62 26 70 53c11 36 29 69 29 107
c0 147 -224 178 -335 178c-35 0 -73 -8 -105 -23v4c0 7 -3 17 -11 17c-6 0 -8 -20 -8 -24c-2 -21 -4 -41 -6 -62c-3 -46 -3 -92 -3 -139c0 -65 3 -130 3 -195c0 -27 -1 -55 -3 -83v-8c0 -5 2 -17 9 -17c5 0 6 21 6 25c6 80 2 162 2 243c0 73 3 146 5 219c28 10 54 23 85 23
c21 0 43 -2 65 -4c22 -3 45 -4 68 -7c79 -12 177 -44 206 -127c2 -6 2 -23 2 -29c0 -36 -13 -79 -38 -105c-16 -16 -45 -22 -67 -24c-4 -3 -9 -7 -9 -12c0 -13 38 -22 49 -50c28 -72 41 -109 47 -188h-12c-33 0 -65 -2 -97 -4v2c0 14 -3 27 -3 41c0 40 -18 76 -33 112
c-7 15 -15 34 -26 46c-11 13 -44 19 -60 19s-32 -3 -49 -3c-8 0 -17 1 -26 1s-15 -3 -16 -12c-1 -10 0 -20 0 -30c-1 -23 -1 -46 -2 -69c0 -28 -7 -54 -3 -82c-39 0 -77 -9 -115 -14v-14l-7 3c-9 -24 -25 -49 -43 -68c-3 30 -7 60 -7 91c0 2 0 4 1 6c4 64 15 128 15 192
c0 58 -17 114 -17 172c0 16 4 32 4 48c0 6 -2 15 -9 15c-12 0 -11 -34 -11 -42v-31c0 -48 21 -93 19 -141v-9c-14 -21 -14 -161 -14 -193c0 -39 2 -77 4 -115c16 -3 4 -33 15 -33c14 0 44 83 52 98h14c11 0 22 2 33 4c23 3 45 6 68 6c4 0 20 0 20 7c0 2 -1 4 -2 6
c1 3 1 7 1 11c0 7 -2 13 -2 19l-2 75c1 -1 3 -1 4 -1c18 0 33 12 52 12s43 -12 59 -22c25 -16 30 -50 30 -77c0 -31 -7 -62 -7 -94c0 -7 0 -28 11 -28c12 0 9 31 9 38c0 29 4 58 4 87c0 36 -18 71 -42 96c-15 16 -39 22 -60 22c-19 0 -39 -6 -56 -14c-2 10 -3 20 -3 30
c0 33 10 32 39 32c24 0 50 -1 73 -8c23 -8 37 -42 45 -62c13 -34 17 -61 17 -98c0 -12 0 -28 8 -37c-2 -2 -4 -5 -4 -8s5 -3 7 -2c-2 -5 -3 -11 -4 -16c-5 -26 -10 -52 -17 -77c-1 -3 -2 -6 -2 -10c0 -3 1 -6 5 -6c3 0 6 2 9 4c16 8 32 9 49 9c25 0 51 0 73 -13
c4 -2 8 -5 13 -5c12 0 9 24 9 32c0 30 20 57 20 87c2 1 7 3 7 6c0 8 -15 8 -20 8zM531 27c-27 3 -55 6 -82 6c-9 0 -32 0 -39 -4c4 15 21 73 20 84h107l1 -5v1l3 -8c-7 -24 -7 -49 -10 -74zM336 439c35 0 61 17 81 46c5 8 25 35 25 44c0 7 -17 22 -22 28
c-35 39 -42 50 -97 50c-28 0 -94 -5 -112 -26l7 -113c0 -7 13 -12 18 -12c22 -4 43 -4 64 -11c12 -3 23 -6 36 -6zM233 478l-1 35c13 3 27 5 41 5c24 0 69 -7 78 -32c3 -7 5 -16 6 -24c-5 -1 -10 -1 -16 -1c-36 0 -73 7 -108 17zM333 586c32 0 83 -30 87 -65h-2
c-9 -20 -21 -40 -40 -51c-1 51 -40 60 -81 66c-10 2 -20 3 -31 3c-12 0 -24 -1 -35 -5l-1 35c15 17 54 15 76 16c9 0 18 1 27 1z" />
    <glyph glyph-name="S" unicode="S" horiz-adv-x="578" 
d="M227 249c22 -28 72 -4 90 -35c2 -4 8 -20 13 -20s10 10 10 14c0 9 -6 17 -11 23c-18 21 -42 16 -66 23c-7 2 -18 8 -26 8c-7 0 -9 -8 -10 -13zM567 252l-3 1c1 52 -25 110 -67 141c20 24 32 55 44 83l-6 8c0 2 0 4 -1 5c-5 33 -12 66 -22 98c-9 30 -34 51 -62 62
c-35 14 -98 37 -135 37c-41 0 -96 -13 -132 -34c-19 -10 -34 -25 -49 -40c-36 -33 -85 -61 -102 -109c-12 -33 -27 -68 -27 -104c0 -15 4 -41 12 -54c10 -17 45 -50 64 -58h-15c-8 -15 -62 -115 -62 -121c0 -3 1 -6 3 -7c-2 -3 -3 -6 -3 -10c0 -15 12 -33 19 -45
c20 -33 30 -70 71 -83c44 -14 70 -36 120 -36c52 0 142 28 192 48c36 15 76 42 99 74c29 40 63 74 63 127c0 6 -1 11 -1 17zM521 471l-40 -66c-32 19 -69 30 -106 37l14 29h84c7 0 15 4 23 4s17 -1 25 -4zM21 414c0 39 27 86 49 117c-3 -22 -7 -44 -7 -66
c0 -30 12 -65 29 -90c32 -48 156 -72 212 -84c14 -4 48 -10 59 -17c13 -7 29 -21 29 -37c0 -4 0 -8 -2 -11c-9 -22 -84 -42 -107 -42c-24 0 -64 9 -64 39c0 21 12 39 12 60c0 6 -2 13 -10 13c-4 0 -7 -2 -11 -3h2c1 0 1 -1 2 -2l-91 -2c-24 10 -62 28 -76 50
c-13 23 -26 49 -26 75zM233 8c-34 1 -65 4 -95 19c-15 7 -29 15 -44 21c-28 11 -54 58 -62 86c-3 9 -5 20 -12 27c6 9 9 19 14 29c10 23 23 45 35 67c6 -54 21 -133 78 -154c26 -10 54 -15 82 -22c11 -11 29 -18 45 -18c56 0 114 3 163 35c28 18 57 37 82 60
c-7 -13 -12 -26 -21 -38c-19 -26 -68 -55 -99 -65c-61 -21 -95 -47 -163 -47h-3zM321 81c-11 0 -22 1 -33 3c0 4 -3 6 -6 9c-19 14 -109 16 -149 44c-33 23 -41 91 -42 129c16 2 32 5 49 5c24 0 47 -1 71 -2c-4 -14 -10 -28 -10 -43c0 -42 36 -65 75 -65c41 0 130 29 130 80
c0 19 -10 32 -23 45c-13 14 -87 29 -109 33c-82 16 -191 43 -191 146c0 20 4 40 11 60c17 51 38 61 73 97c29 29 56 31 93 40c14 3 28 8 42 8c29 0 96 -16 122 -29c14 -7 27 -16 40 -24c34 -19 43 -78 43 -115v-5c-37 -11 -79 -8 -117 -10c-14 49 -51 87 -104 87
c-42 0 -94 -35 -94 -81c0 -20 11 -35 29 -44c25 -13 56 -13 84 -15c69 -5 130 -28 186 -69c32 -22 54 -83 54 -120c0 -44 -56 -92 -91 -115c-11 -7 -23 -13 -35 -20c-31 -21 -60 -29 -98 -29zM270 507c-17 0 -47 -3 -60 -16c-1 2 -1 5 -1 7c0 32 43 61 73 61
c23 0 45 -11 60 -28c11 -11 26 -29 30 -44l-17 -41l-8 1v2c-8 37 -40 58 -77 58zM324 450c-33 4 -75 6 -103 26c14 5 29 12 44 12c22 0 48 -20 59 -38z" />
    <glyph glyph-name="T" unicode="T" horiz-adv-x="618" 
d="M27 585c10 0 21 16 26 23c15 18 31 35 46 53c5 7 8 15 8 24c0 1 -1 4 -3 4c-6 0 -82 -83 -82 -99c0 -2 2 -5 5 -5zM605 591v7c0 16 -5 33 -8 50c-1 14 2 37 -17 40c-4 1 -9 1 -13 1c-28 0 -55 -3 -83 -3c-40 0 -79 6 -119 6c-79 0 -158 -9 -237 -7
c-12 -5 -17 -22 -17 -35c0 -32 1 -64 2 -96c-21 -30 -34 -65 -47 -99c-2 -1 -6 -3 -6 -5c0 -4 7 -8 11 -8c2 0 4 1 6 3c36 10 74 21 112 21c10 0 20 -1 30 -3c-1 -50 -3 -101 -3 -151c0 -78 1 -156 4 -234c0 -17 2 -35 2 -53c0 -4 0 -14 7 -14c6 0 14 8 16 14
c-1 -11 9 -13 17 -13c20 0 40 6 60 6c25 0 45 -19 69 -19c8 0 13 6 15 14h-3l7 3c6 2 6 49 6 58c0 7 0 33 -5 38c-3 33 -8 65 -8 98s2 67 3 100c1 13 1 27 3 41c0 5 2 11 2 17c0 12 -1 24 -1 37c0 48 7 97 12 146c1 7 3 15 3 23c0 4 -2 6 -6 6c-10 0 -15 -28 -16 -36
c-9 -73 -15 -147 -15 -221c0 -71 2 -143 6 -214c-8 5 -38 6 -48 6c-15 0 -29 -1 -43 -2l1 12c0 31 -4 62 -4 93c0 44 3 88 3 133c0 55 -6 110 -6 165c0 9 1 18 2 27c0 7 3 13 3 20c0 6 -2 8 -8 8c-2 0 -5 -2 -6 -4v4c-15 10 -77 15 -97 15c-22 0 -45 -3 -66 -12l2 87
c35 12 90 8 128 8h104c18 0 37 1 55 1c5 0 11 0 16 -1c22 -4 45 -3 67 -3c25 0 50 -1 75 3l11 -76c-24 -20 -127 -2 -127 -32c0 -6 2 -9 9 -9c12 0 23 6 35 8c21 2 65 0 81 4l-25 -76c-40 1 -81 3 -121 3c-4 0 -18 -6 -18 -11c0 -10 40 -12 48 -12c6 0 12 2 18 1l69 -4
c5 -1 10 -4 15 -4c8 0 12 5 12 12c0 5 -1 9 -2 13c2 7 31 96 31 98c0 3 -1 6 -3 7zM288 95c2 -3 6 -4 9 -4c19 0 37 8 56 8c16 0 37 -13 44 -12l-2 -58c-24 5 -48 11 -73 11c-24 0 -48 -4 -72 -8c12 22 25 42 38 63zM285 210c0 -29 0 -59 -2 -88c-15 -19 -27 -44 -40 -65
c-3 31 -8 62 -8 94c0 49 3 98 3 147v114c0 17 -1 35 -1 53c0 1 1 2 2 3c18 25 33 52 44 81c-1 -6 -2 -12 -2 -18c0 -107 4 -214 4 -321zM127 554c15 8 32 11 49 11c31 0 61 -5 91 -7l-38 -75c-10 1 -21 2 -32 2c-37 0 -76 -10 -113 -15l1 7l22 45c5 12 13 22 20 32zM29 579
c-7 0 -9 -6 -9 -12c0 -10 6 -18 9 -27c6 -28 15 -57 15 -86c0 -6 1 -18 9 -18c7 0 8 19 8 24c0 21 -4 43 -11 62c-3 11 -12 34 -12 44c0 6 -2 13 -9 13z" />
    <glyph glyph-name="U" unicode="U" horiz-adv-x="593" 
d="M578 625c-22 -8 -106 -10 -133 -10c-10 0 -14 -3 -19 -10c-6 -8 -50 -87 -50 -90c0 -5 5 -14 10 -14c8 0 8 12 11 17l43 70l7 -13c2 -48 7 -97 7 -146c0 -52 -2 -106 -6 -158c-2 -26 -29 -107 -61 -107c-2 0 -4 0 -6 1c19 9 24 46 23 65v8l-4 111c-1 22 -7 147 -33 147
c-7 0 -9 -5 -9 -11c0 -24 10 -49 15 -72c3 -12 3 -25 4 -38c4 -40 8 -79 8 -119c0 -6 0 -11 -1 -16c-3 -36 -5 -82 -53 -82c-65 0 -93 59 -93 116c0 7 1 15 1 22c0 32 -1 64 -1 97c0 65 -2 148 15 211c3 2 6 7 6 11c0 5 -4 9 -8 12c-15 1 -30 3 -46 3c-12 0 -63 -1 -63 -19
c0 -2 1 -4 3 -4c18 0 36 4 55 4c13 0 26 -3 39 -4c-17 -8 -19 -127 -19 -148c0 -23 3 -46 3 -69c0 -35 -4 -69 -4 -103c0 -45 4 -107 48 -132c18 -10 42 -20 62 -20c22 0 44 10 64 16c42 11 63 61 69 100c7 46 11 95 11 142c0 32 -2 64 -5 96c-1 13 -3 26 -3 40
c0 23 3 46 5 70c8 -2 16 -3 25 -3c21 0 42 3 62 8c3 -61 7 -121 7 -182c0 -20 0 -41 -5 -61c-2 -8 -4 -16 -4 -24c0 -17 3 -33 3 -50c0 -132 -77 -224 -214 -224c-74 0 -131 39 -177 94c-30 35 -37 133 -37 179c0 25 1 50 3 75c2 12 4 25 4 38v156c0 6 -1 13 -1 19l-16 4
c0 2 1 3 1 4c0 6 -5 9 -10 9c-13 0 -16 -24 -19 -33c-12 -32 -47 -73 -67 -101c-3 -4 -5 -8 -5 -13c0 -8 7 -13 14 -15c-5 -56 -10 -112 -10 -168c0 -16 1 -33 1 -49c0 -52 15 -86 39 -130c32 -59 40 -78 101 -113c40 -22 85 -29 130 -29c27 0 54 1 82 1c40 0 64 21 91 47
c27 25 93 97 84 135c26 51 28 215 29 279l1 125c0 7 1 14 1 21c0 9 0 20 -5 27zM342 11c-41 0 -81 1 -120 12c-40 10 -93 38 -111 76c-17 35 -46 64 -61 100c-5 11 -11 76 -11 91c0 33 5 167 12 192c4 13 5 25 5 39l64 89v-125c0 -75 -5 -149 -5 -223
c0 -97 44 -146 124 -193c31 -18 67 -30 104 -30c66 0 139 37 180 88c-5 -10 -17 -32 -25 -39c-5 -4 -11 -7 -16 -11c-36 -26 -58 -61 -106 -65c-11 -1 -23 -1 -34 -1z" />
    <glyph glyph-name="V" unicode="V" horiz-adv-x="610" 
d="M586 678c-23 5 -46 9 -69 9c-13 0 -43 -2 -48 -15c-8 -19 -13 -40 -19 -59c-13 -41 -26 -81 -38 -122c-20 -65 -38 -131 -59 -196c-1 -2 -2 -7 -5 -7c-4 0 -8 9 -9 12c-7 16 -10 34 -14 51c-9 37 -17 73 -25 110c-4 16 -6 34 -11 50c-2 7 -6 14 -9 21
c-14 30 -34 73 -40 105c-3 20 -7 23 -26 28c-17 5 -67 5 -86 4h-45c-6 0 -9 -7 -8 -12c22 -65 43 -132 75 -193c19 -37 33 -76 47 -116c26 -74 53 -147 79 -221c-10 -12 -33 -72 -42 -91c-15 46 -32 93 -43 140c-3 14 -4 28 -7 41c-6 30 -57 123 -75 153
c-25 42 -42 93 -59 139c-6 17 -9 34 -9 52c0 19 11 66 21 82c6 9 10 15 10 26c0 3 -2 15 -7 15c-8 0 -13 -28 -15 -34c-5 -20 -30 -87 -30 -101c0 -21 21 -63 28 -85c10 -29 24 -55 37 -82c24 -50 49 -99 71 -149c31 -72 50 -148 67 -224c1 -3 4 -15 9 -15
c12 0 45 101 51 117c9 -15 17 -18 34 -18c26 0 49 3 75 9c-1 -29 -12 -60 -22 -88c0 -2 -2 -3 -2 -5c0 -3 4 -4 7 -4c9 0 21 37 23 45c5 18 6 38 9 56c6 2 7 8 7 13c0 3 0 6 -1 9c2 8 4 15 7 22c24 55 42 115 53 173c8 44 38 81 45 124c8 47 36 96 52 142c10 29 21 59 30 89
c-1 2 -4 5 -7 5s-6 -3 -7 -5zM396 127c-15 -5 -28 -14 -45 -14c-18 0 -36 4 -53 9c-13 22 -20 47 -26 72c-6 21 -12 41 -22 61c-6 12 -10 25 -14 38l-33 88c-19 53 -40 105 -66 155c-19 37 -32 76 -45 115c15 1 29 1 43 1c16 0 72 -1 82 -10c2 -2 4 -5 6 -7
c10 -32 19 -65 30 -96c5 -15 14 -29 19 -44c14 -43 23 -88 34 -131c4 -17 29 -107 45 -107c21 0 35 95 41 113c10 31 24 61 33 92c8 30 40 186 58 195c12 8 27 10 41 10c21 0 30 -4 49 -13c-21 -55 -41 -111 -61 -166c-10 -27 -20 -54 -28 -82c-25 -95 -56 -187 -88 -279z
M333 28c-26 0 -52 -5 -77 -11c-2 -2 -6 -6 -6 -9c0 -5 8 -5 12 -5c15 0 31 4 46 4c13 0 24 -6 37 -6c8 0 11 7 11 14v4c0 9 -17 9 -23 9z" />
    <glyph glyph-name="W" unicode="W" horiz-adv-x="856" 
d="M333 590c8 9 14 19 20 29c10 19 46 55 46 74c0 1 -1 3 -1 4c-1 0 -2 1 -2 1c-7 0 -67 -85 -67 -98c0 -3 3 -8 4 -10zM333 590l-1 -1h1v0v1v0zM39 555c0 7 0 15 -4 20l4 3c8 19 37 93 48 103c11 -56 24 -111 44 -164c25 -64 39 -132 55 -200l27 -118c4 -19 10 -38 13 -58
c1 -9 2 -48 14 -48c3 0 4 10 4 13c0 55 -16 113 -29 166c-12 52 -26 104 -40 156c-10 37 -20 75 -33 111c-15 42 -30 84 -41 127c-1 6 -3 13 -5 20c4 1 8 1 13 1c14 0 28 -6 43 -6c19 0 38 4 55 11v-4c0 -24 42 -136 52 -172c20 -77 30 -155 45 -233c1 -4 5 -24 11 -24
c4 0 7 14 8 18c2 9 2 18 3 28c2 19 5 39 10 58c12 58 35 113 51 170c11 41 15 84 24 125c20 6 42 12 62 12c18 0 33 -12 50 -12c4 0 8 1 12 1c30 -80 42 -168 55 -253c3 -16 2 -32 4 -48c-3 -13 -10 -34 -10 -46c0 -2 0 -7 3 -7c9 0 14 11 16 18c2 -5 6 -6 10 -6
c3 0 4 1 4 4c0 11 -3 21 -4 31l60 176c9 27 20 53 26 80c4 16 11 58 11 73c0 2 0 5 -3 5c-7 0 -82 -77 -94 -89l-14 -133v-5c0 -5 1 -13 8 -13c18 0 17 56 17 68c0 28 5 56 10 83l58 59c-4 -28 -11 -56 -21 -82c-21 -59 -43 -118 -64 -177c-12 68 -26 136 -39 205
c-4 23 -8 46 -17 68v0v4c1 3 -1 6 -5 6c-3 0 -7 -2 -11 -2c-24 0 -47 10 -71 10c-16 0 -31 -2 -47 -6l1 3c0 4 -3 8 -7 8c-7 0 -10 -8 -11 -13c-3 -11 -4 -23 -6 -35c-4 -19 -8 -39 -12 -59c-8 -45 -16 -96 -37 -137c-16 -31 -24 -90 -27 -125c-4 23 -18 75 -19 95
c2 -1 4 -3 6 -3c9 0 7 28 7 34c0 44 20 85 20 130c0 4 0 9 -1 14c-2 1 -5 2 -7 2c-6 0 -8 -5 -9 -10c-5 -24 -6 -49 -11 -73c-4 -23 -8 -47 -9 -70c-11 57 -26 113 -44 168c-5 13 -11 26 -14 39c-4 18 -6 37 -11 55c-1 4 -2 8 -8 8c-9 0 -17 -5 -26 -7c-13 -2 -26 -2 -40 -2
c-11 0 -23 1 -35 1c-10 0 -20 -3 -30 -5c-14 -3 -16 -5 -20 -19c-7 -22 -46 -91 -46 -104c0 -2 0 -3 1 -5c-2 -4 -2 -8 -2 -12c0 -41 18 -100 27 -141c12 -56 22 -112 36 -167c9 -39 20 -77 31 -116c8 -29 34 -108 34 -134c0 -6 3 -12 10 -12c5 0 7 2 7 7c0 25 -9 51 -14 75
c-6 36 -20 70 -31 105c-12 37 -21 76 -28 115c-11 59 -22 117 -35 175c-6 29 -18 59 -18 88zM843 681c1 6 3 11 3 16c0 3 -1 8 -5 8c-7 0 -14 -18 -15 -24h-31c-11 0 -22 0 -33 2c-12 2 -24 9 -36 9c-6 0 -9 -2 -9 -8c0 -30 82 -23 102 -23c-24 -73 -49 -146 -70 -220
c-7 -26 -13 -51 -22 -77c-11 -35 -25 -69 -37 -104c-17 -47 -42 -105 -42 -155c0 -8 -37 -9 -43 -9c-16 0 -33 4 -49 3c1 4 1 9 1 15c0 59 -14 119 -26 177c-11 51 -22 102 -31 153c-5 24 -5 49 -7 73c0 6 -2 30 -11 30c-6 0 -5 -39 -5 -45c-1 3 -4 8 -7 8
c-6 0 -10 -13 -11 -18c-12 -41 -20 -82 -33 -123c-5 -15 -11 -29 -16 -43c-14 -35 -27 -70 -35 -107c-8 -30 -15 -59 -21 -89c-3 -14 -10 -25 -23 -30c-15 -5 -39 -9 -55 -9c-9 0 -19 3 -28 5c-3 -4 -6 -9 -6 -14c0 -10 14 -10 21 -10c15 0 29 4 44 7c12 1 24 3 36 4
c-3 -18 -10 -36 -18 -53c-39 0 -78 -11 -114 -20l25 53l-5 28c-7 -12 -54 -94 -54 -99c0 -6 7 -6 11 -6c40 0 78 28 117 28c6 0 12 -4 19 -4c9 0 12 10 15 17c8 25 18 50 25 75c7 30 15 59 22 89c4 15 7 31 12 45c13 37 30 73 39 111c0 -7 2 -13 3 -20c8 -33 4 -64 8 -97
c5 -41 13 -82 17 -123c3 -33 4 -66 4 -98c0 -5 1 -15 7 -15s6 26 6 30c0 40 -4 79 -8 119l-17 173v4c0 15 -4 34 -15 46c13 43 30 88 35 134c3 -69 24 -136 37 -203c12 -66 23 -134 28 -201c-16 -12 -48 -96 -57 -119c1 0 1 0 3 8c0 2 3 15 7 15c5 0 13 -12 15 -8
c32 0 63 -1 94 -1c6 0 14 3 14 10c0 4 -2 7 -4 9c-7 7 -80 6 -94 6c11 24 23 46 34 70c6 -4 22 -11 30 -11c23 0 46 5 69 6c-5 -25 -12 -50 -12 -76c0 -1 0 -6 2 -6c12 0 32 81 32 95c0 7 -8 4 -12 4c2 10 3 20 4 30c4 49 27 92 43 136c29 81 52 163 77 244
c13 42 22 85 39 126c4 10 8 20 11 31c5 2 9 6 9 11c0 3 -1 5 -3 5z" />
    <glyph glyph-name="X" unicode="X" horiz-adv-x="607" 
d="M54 14c1 6 1 11 1 17c0 18 25 34 25 38c0 5 -6 9 -9 12c-4 0 -7 -4 -10 -6c4 9 5 18 8 28c4 17 10 34 18 49c11 22 96 185 101 188l51 39l4 1c-31 -56 -63 -112 -95 -167c-13 -23 -26 -45 -40 -68c-6 -9 -12 -18 -18 -28c-1 -3 -3 -6 -3 -9s2 -5 5 -5c20 0 18 21 29 32
c9 9 18 5 22 21c8 27 23 66 38 90c23 38 47 74 70 112c9 13 15 30 15 46c0 7 -1 15 -9 15c-5 0 -9 -4 -12 -7v-1c-11 -4 -24 -20 -31 -21c-2 1 -1 3 -1 4c-14 31 -108 92 -132 134v8c0 9 2 17 5 26c8 24 12 48 17 73l1 2v-1c-1 -20 58 -97 74 -111c20 -17 35 -39 49 -60
c5 -8 16 -44 24 -44c5 0 7 3 7 8c0 17 -24 56 -34 71c-19 28 -68 75 -79 100c-5 11 -19 43 -33 43c-2 0 -3 0 -4 -1c1 3 2 5 2 8c0 5 -6 10 -11 10c-9 0 -13 -25 -13 -31c-4 -32 -15 -60 -24 -90c-1 -3 -2 -6 -2 -10c0 -9 6 -18 13 -25c35 -29 66 -62 97 -95
c-5 -1 -6 -6 -6 -10c0 -11 5 -22 9 -32c-5 -16 -9 -32 -16 -47c-18 -39 -126 -252 -124 -274c1 -3 4 -5 6 -5c-5 -11 -9 -23 -12 -35c-3 -4 -7 -9 -7 -14c0 -6 7 -7 12 -7c4 0 8 1 12 2c27 5 52 12 80 12c11 0 22 -2 33 -2c10 0 23 4 23 16c0 9 -30 9 -36 9
c-30 0 -60 -3 -90 -8zM188 96c-6 0 -11 -4 -16 -6c-8 -3 -18 -3 -27 -3c-15 0 -31 2 -46 3c-4 7 -9 16 -17 16c-7 0 -12 -8 -12 -14c0 -8 4 -12 11 -14c7 -3 41 -7 49 -7c12 0 79 1 79 15c0 6 -16 10 -21 10zM283 219c7 17 34 42 34 58c0 1 0 3 -1 3c-11 0 -31 -26 -36 -35
c-4 -9 -9 -16 -14 -24c-18 -36 -35 -72 -51 -108c-3 -6 -9 -10 -9 -16c0 -8 10 -5 10 -8c0 -2 -3 -5 -4 -7c-6 -9 -16 -52 -16 -63c0 -5 1 -8 6 -8c10 0 26 65 26 76c0 4 -1 7 -4 10c16 36 32 72 51 106c4 -9 10 -17 13 -27c2 -7 3 -15 5 -23c14 -52 34 -103 52 -154
c2 -1 4 -2 6 -2c7 0 12 11 13 17c-9 15 -17 31 -23 48c-13 29 -21 61 -29 92c-4 11 -5 23 -10 33c-2 6 -13 30 -19 32zM583 653l2 -1c8 0 12 7 12 14c0 5 -3 8 -8 8c-12 0 -24 -5 -36 -5c-17 0 -79 4 -93 9c-4 2 -10 6 -14 6c-2 0 -4 -1 -5 -2h-6c-4 0 -18 0 -18 -6
c0 -5 6 -6 6 -10c0 -3 -60 -61 -68 -69c-1 -2 -1 -4 -1 -6c0 -3 1 -4 4 -4c17 0 53 43 64 56l3 2c-10 -39 -28 -69 -53 -100c-9 -11 -20 -21 -28 -34c-2 -3 -5 -10 -9 -10c-3 0 -5 5 -6 7c7 17 21 62 21 79c0 2 0 6 -3 6c-13 0 -23 -54 -27 -65c-21 38 -36 80 -51 121
c1 1 3 3 3 4c0 5 -14 12 -18 12c-10 0 -9 -9 -19 -9c-26 0 -72 9 -95 20c-3 2 -7 4 -11 4c-7 0 -11 -5 -11 -11c0 -15 72 -30 86 -30c15 0 30 0 45 2c19 -45 38 -91 63 -134c-1 -3 -3 -8 -3 -12c0 -2 1 -7 4 -7c4 0 6 2 8 5c4 -6 10 -16 18 -16c6 0 10 8 13 13
c19 31 48 59 61 94c11 27 25 53 39 79c35 -4 70 -7 105 -9c-48 -84 -92 -175 -154 -250c-7 0 -13 -3 -13 -10c0 -5 2 -10 5 -14c15 -26 39 -47 52 -75c15 -29 34 -71 56 -95c23 -25 40 -54 59 -81c-28 -7 -66 -18 -94 -18c-13 0 -26 1 -38 5c-16 28 -78 139 -78 164
c0 8 -3 16 -10 21c-9 0 -9 -13 -9 -19c0 -42 61 -144 84 -184h2c-7 -15 -37 -80 -37 -90c0 -3 1 -5 2 -7c0 -1 -1 -3 -1 -4c0 -11 10 -13 18 -13c10 0 19 2 29 4c12 3 24 3 36 3c27 0 54 -1 81 -1c2 0 8 0 10 1c-14 17 -13 17 -36 17c-26 0 -52 -3 -78 -3c-14 0 -29 0 -43 3
c12 19 29 65 34 87c5 -1 10 -2 15 -2c30 0 58 15 88 15c14 0 28 -3 41 -4c-7 -23 -20 -66 -20 -89c0 -2 0 -10 3 -10c13 0 31 91 34 106c-1 4 -4 10 -8 11l-3 -1c-11 26 -28 49 -46 71c-49 62 -73 139 -126 198c19 28 39 55 58 84c37 60 70 123 113 179z" />
    <glyph glyph-name="Y" unicode="Y" horiz-adv-x="674" 
d="M27 571c-4 0 -7 -2 -7 -6c0 -11 14 -25 21 -32c21 -20 36 -45 51 -70c4 -8 8 -17 14 -25c39 -59 80 -116 117 -176c1 -1 3 -1 4 -1c5 0 7 4 7 8c0 33 -106 169 -130 205c-14 20 -52 97 -77 97zM39 584c21 0 47 106 47 126c0 4 -1 14 -5 16c-12 -2 -12 -17 -13 -26
c-2 -11 -14 -62 -18 -70c-6 -10 -17 -26 -17 -39c0 -4 2 -7 6 -7zM241 107c0 32 11 64 11 97c0 19 -2 39 -11 56c-4 1 -7 2 -10 2c-7 0 -11 -5 -11 -12c0 -16 14 -29 14 -49c0 -27 -6 -54 -10 -81c-2 -16 -2 -31 -2 -47c0 -8 -1 -41 11 -41c9 0 9 23 9 29c0 15 -1 30 -1 46z
M499 733c-1 4 -4 7 -8 7c-12 0 -33 -25 -42 -34c-15 -16 -49 -47 -49 -69c0 -8 7 -12 15 -12c4 0 6 3 6 7c0 3 -1 6 -3 9c9 12 54 71 65 72l13 1c-20 -23 -37 -50 -56 -75c-22 -30 -44 -61 -59 -95c-4 -8 -7 -17 -12 -24l3 8c-2 -3 -3 -6 -6 -7c0 1 -1 3 -1 3
c0 38 27 80 27 116l-1 3l-2 -1c-1 0 -2 1 -3 1c-10 0 -14 -14 -16 -22c-7 -29 -14 -59 -21 -88c-18 71 -45 138 -69 207c0 1 1 3 1 4c0 9 -10 11 -17 11c-3 0 -6 0 -9 -1c-36 -5 -101 -18 -134 -18c-5 0 -12 -1 -13 -7c-1 4 -7 14 -12 14c-6 0 -8 -10 -8 -14
c35 -101 98 -191 147 -286c19 -36 35 -74 54 -110l-47 -57v-3c0 -4 0 -11 6 -11c11 0 45 45 53 56c-1 -61 -5 -121 -5 -181c0 -12 1 -24 3 -36l-4 6c-11 -21 -50 -92 -65 -102c-2 -2 -5 -3 -5 -5c0 -6 11 -8 15 -8c6 0 10 2 15 5c18 12 74 13 98 13c8 0 17 0 26 -2
c14 -2 34 -15 46 -15c6 0 8 4 8 10c0 20 -57 27 -72 27c-29 0 -59 -5 -88 -7l29 68c1 -2 3 -4 6 -4c5 0 5 16 5 20h116l13 -5l-9 -63c-1 -5 -4 -8 -4 -13c0 -3 2 -7 6 -7c3 0 6 0 9 2c10 8 16 65 16 79c0 7 0 16 -7 21c5 1 6 7 6 11c0 8 -2 16 -5 24c-8 33 -12 68 -12 102
c0 7 2 14 2 21c2 18 3 36 3 54c19 8 31 53 42 71c40 70 81 141 120 212c16 29 35 58 47 90c5 5 8 12 8 19c0 11 -8 15 -18 15c-49 0 -98 -5 -147 -7zM446 349c-1 6 -2 13 -6 19c-1 1 -3 1 -4 1c-9 0 -9 -19 -9 -25c0 -22 4 -43 4 -65c0 -19 -3 -38 -3 -57
c0 -24 0 -81 19 -98c-44 11 -91 1 -135 8c-1 7 -1 14 -1 22l2 154c0 12 3 23 3 34c0 2 0 15 -3 15c-8 0 -10 -7 -10 -12c-15 25 -29 51 -43 77c-31 58 -64 115 -93 174c-19 38 -34 79 -51 117c1 -1 4 -2 6 -2c4 0 7 1 11 2c18 5 37 5 55 9l58 11h5h9c9 -20 18 -39 25 -60
c22 -58 40 -118 60 -178l2 -1c1 -4 4 -11 9 -11c16 0 40 57 45 72c17 55 103 119 115 161c44 5 87 5 131 6c-7 -13 -16 -25 -25 -36c-16 -19 -33 -95 -51 -126c-24 -42 -50 -84 -76 -126c-16 -27 -39 -55 -49 -85z" />
    <glyph glyph-name="Z" unicode="Z" horiz-adv-x="624" 
d="M29 509c0 -4 -2 -7 -2 -11c0 -5 2 -13 9 -13c8 0 9 40 9 47c0 31 -4 62 -4 94c0 12 68 93 81 108v-33c0 -29 -5 -58 -5 -86c0 -5 4 -8 9 -8s9 2 14 4c20 9 36 9 58 9c21 0 43 2 65 3l122 5c-10 -6 -48 -59 -58 -72c-4 4 -24 3 -31 3c-77 0 -144 -16 -210 -57l56 89v7
s0 6 -3 6c-2 0 -5 -2 -6 -4l-77 -107c-3 -4 -5 -13 -5 -17c0 -3 1 -7 5 -7c6 0 16 12 20 17c0 -4 2 -8 7 -8c10 0 67 33 82 40c36 15 78 19 117 19c16 0 31 -1 47 -3h3c3 0 6 1 8 3c-13 -18 -26 -35 -40 -52c-58 -68 -116 -137 -173 -206c-21 -27 -41 -54 -55 -85
c-6 -12 -40 -55 -40 -62c0 -4 5 -5 9 -5l4 1c23 34 46 69 70 104c0 -11 3 -74 16 -74c6 0 8 40 8 47c0 18 -2 37 -2 56c30 38 61 76 93 113l135 158c16 19 64 80 61 103c2 1 7 4 7 7c0 8 -44 6 -51 6c-83 0 -165 3 -247 -15c2 30 4 61 4 91c0 9 0 51 -14 51
c-7 0 -6 -20 -14 -29c-10 -12 -21 -24 -31 -37c-20 -26 -39 -54 -59 -82v-6c0 -8 1 -16 2 -24c4 -29 6 -59 6 -88zM393 629h13c-20 -29 -41 -58 -62 -87c2 4 3 8 3 12c11 13 47 59 46 75zM614 589c0 10 -3 14 -13 15c4 4 12 12 12 18c0 5 -7 9 -11 9c-6 0 -11 -7 -13 -11v19
c0 21 5 57 11 77c2 3 3 6 3 10c0 14 -17 20 -28 22c-43 7 -88 9 -132 13c-30 3 -60 8 -91 8c-34 0 -128 -12 -156 -27c-5 1 -9 1 -13 1c-7 0 -31 0 -31 -11c0 -9 11 -11 18 -11c43 0 80 27 123 27c31 0 61 -1 92 -2c14 -1 27 0 41 -2c50 -6 101 -13 151 -19
c-5 -29 -10 -58 -10 -86c0 -10 1 -33 7 -39c-19 -26 -39 -51 -60 -75c-39 -45 -82 -87 -120 -133c-38 -45 -72 -94 -108 -140v-1c-1 -6 1 -11 8 -11c2 0 3 1 4 1c38 51 75 102 115 151c60 70 125 136 183 207v-3c1 -2 0 -4 -1 -6c-10 -30 -28 -97 -28 -126c0 -6 1 -17 9 -17
s16 1 16 12c0 12 -3 24 -3 36c0 33 25 60 25 94zM27 113c-6 0 -7 -9 -7 -13c0 -6 3 -13 3 -19l6 -83c2 -4 7 -16 13 -16c8 0 8 21 8 27c0 26 -12 51 -12 78c0 7 -2 26 -11 26zM582 181l-1 49c1 2 2 4 2 7c0 11 -20 13 -28 13c-23 0 -45 -3 -68 -4c-37 -3 -74 -6 -110 -8
c19 25 35 54 54 78c35 44 69 89 106 130c2 -1 3 -1 5 -1c8 0 10 13 10 19c0 2 0 9 -4 9c-22 0 -165 -197 -193 -236c-23 -1 -45 0 -68 0c-8 0 -27 -2 -27 -14c0 -7 3 -10 10 -10c6 0 12 1 17 1c8 0 15 -1 22 -1c81 0 162 10 243 17l9 -3l-1 -52c-30 -11 -118 -21 -152 -21
c-14 0 -28 1 -42 1c-79 0 -157 -6 -235 -6c-11 0 -27 -15 -27 -27c0 -5 5 -8 10 -7c-10 -27 -21 -54 -30 -81l-12 -36c0 -2 -2 -10 -1 -10s4 12 9 12c11 0 16 24 19 32c10 31 23 61 34 91l11 6c67 3 135 7 202 7c15 0 29 -1 43 -1c46 0 92 9 138 9c11 0 22 2 33 5v-15
c0 -32 -4 -63 -8 -94c-112 -10 -224 -24 -336 -24c-24 0 -48 -3 -72 -3c-4 0 -9 -1 -9 -6c0 -14 23 -14 32 -14c98 0 194 20 292 20h95c1 -1 3 -2 5 -2c11 0 14 26 14 34c2 24 3 48 6 72c1 14 4 27 3 42c5 3 9 8 9 14c0 5 -4 9 -9 8z" />
    <glyph glyph-name="bracketleft" unicode="[" horiz-adv-x="298" 
d="M262 60c-3 4 -5 7 -7 12c-18 40 -53 77 -64 120c-10 42 -17 127 -17 172c0 25 1 50 6 74c8 35 3 73 18 107c13 31 38 106 55 128c7 9 35 41 35 50c0 2 -1 2 -3 2h-3c-25 -3 -51 -5 -76 -5c-16 0 -29 -12 -41 -20c-22 -16 -74 -86 -90 -111c-18 -29 -52 -144 -55 -179
c-1 -14 -1 -27 -1 -41c0 -46 -1 -109 7 -153c9 -47 44 -147 72 -184l35 -47c10 3 17 9 17 19c0 1 -1 2 -1 3c-6 12 -28 30 -37 41c-27 34 -43 70 -54 111c-15 56 -22 116 -22 174c0 57 12 164 41 214c19 35 35 77 63 107c5 6 11 9 16 14c9 8 17 15 25 23
c-32 -43 -64 -104 -75 -158c-14 -65 -31 -130 -31 -197c0 -19 1 -37 4 -56c11 -68 44 -131 80 -189c11 -18 27 -32 46 -41c-15 -12 -65 -69 -65 -80c0 -4 4 -6 7 -6c13 0 26 -3 38 -5c4 -1 8 -3 12 -3c7 0 8 13 11 19c10 20 32 47 49 60c4 3 8 7 9 12h2c2 1 5 3 5 5
c0 4 -8 7 -11 8zM92 349c0 21 1 44 6 65c5 23 10 46 14 69c2 12 2 25 5 37c5 19 14 44 22 64c9 26 54 107 75 121h44c-70 -109 -99 -204 -99 -331c0 -63 6 -177 36 -230c15 -26 34 -57 50 -81c-14 2 -27 4 -41 5c-67 60 -112 190 -112 281zM197 -25c-5 1 -34 7 -38 4
c15 16 35 46 51 58c6 3 11 7 15 11h23c-3 -11 -51 -55 -51 -73z" />
    <glyph glyph-name="backslash" unicode="\" horiz-adv-x="430" 
d="M399 141l-15 42c-7 20 -14 40 -23 58c-3 7 -8 14 -11 21c-14 34 -24 93 -33 131c-11 52 -38 100 -55 151c-8 25 -23 49 -28 76c-1 6 -5 36 -14 36c-7 0 -9 -11 -10 -15c-22 -3 -45 -8 -68 -8c-5 0 -10 2 -16 2c-8 0 -11 -3 -17 -9c-28 -32 -59 -62 -89 -92
c-1 -1 -2 -3 -2 -5c0 -4 7 -5 10 -5c6 -16 10 -33 15 -49c6 -20 16 -39 25 -58c14 -31 29 -62 44 -92c33 -67 71 -132 107 -198c11 -19 41 -68 47 -87s9 -34 20 -51h10c12 1 33 0 44 -5c3 -1 6 -2 10 -2c8 0 8 9 9 15c2 15 28 69 38 81c8 8 11 17 20 25c2 2 3 4 3 7
c0 11 -13 24 -21 31zM174 620c8 0 17 3 26 3c18 0 18 -24 27 -37c20 -12 67 -161 73 -182c8 -26 13 -52 21 -78c16 -56 33 -111 52 -165l14 -41c-9 -3 -34 -12 -44 -12c-11 0 -12 30 -13 35c-7 30 -15 60 -23 90c-15 61 -31 121 -56 179c-16 36 -32 73 -49 109
c-12 24 -33 61 -41 86v4c0 8 7 9 13 9zM283 45c-61 115 -122 231 -185 346c-32 59 -34 65 -50 133c-3 1 -5 4 -5 7c0 1 0 3 1 4c21 19 44 38 63 58c4 5 20 26 25 26c1 0 3 -1 4 -2s38 -81 39 -84c16 -35 31 -69 46 -103c8 -18 18 -37 23 -55c16 -54 48 -120 55 -174
c4 -32 12 -63 21 -93zM341 3l-47 3c-3 17 22 69 30 84c4 -4 9 -6 15 -6c11 0 44 16 54 20c-15 -34 -34 -68 -52 -101z" />
    <glyph glyph-name="bracketright" unicode="]" horiz-adv-x="316" 
d="M186 718c-8 0 -18 -4 -26 -4l-53 -3c-2 4 -6 8 -10 8c-6 0 -10 -8 -9 -13c-6 -10 -51 -80 -51 -86c0 -4 8 -11 10 -13c22 -18 44 -50 53 -76c14 -38 24 -104 24 -144c0 -21 4 -43 4 -64c0 -62 -19 -123 -43 -180c-16 -39 -32 -78 -53 -115c-2 -2 -12 -18 -12 -20v0h6v-4
c-1 -8 3 -14 12 -14h4c19 5 38 7 57 7c5 0 12 0 17 -2c-3 -6 -5 -12 -5 -18c0 -3 0 -9 5 -9c10 0 24 28 27 36c7 20 19 27 29 42c2 2 10 18 9 21c1 4 28 54 30 58c23 41 70 125 82 170c9 32 13 65 13 97c0 94 -43 212 -92 289c-5 7 -20 37 -28 37zM144 346c0 18 -3 34 -3 51
c0 40 -16 118 -32 154c-9 20 -19 35 -35 50c-4 4 -18 15 -20 20v2c0 8 38 62 43 68c1 1 2 3 2 4c3 -5 9 -11 13 -15c54 -61 75 -205 75 -284c0 -94 -26 -255 -95 -323l-42 -40c26 55 46 112 67 169c16 44 27 98 27 144zM120 10c-15 0 -30 2 -45 2h-20l44 50
c8 -6 31 -8 40 -8c8 0 16 1 23 2c-20 -15 -23 -46 -42 -46zM167 72l-53 5c68 72 84 236 84 332c0 57 -6 121 -23 176c-8 26 -32 97 -54 115l64 -5c18 -30 60 -96 70 -130c17 -53 33 -120 33 -175c0 -71 -54 -208 -94 -267c-9 -13 -25 -37 -27 -51z" />
    <glyph glyph-name="asciicircum" unicode="^" horiz-adv-x="455" 
d="M42 366l1 76c57 96 93 209 144 309c14 0 27 1 40 1c14 0 28 -3 42 -3c7 0 17 1 17 10c0 11 -33 10 -40 11c-19 1 -38 1 -56 4h-3c-7 0 -11 -7 -13 -12c-31 -76 -65 -151 -98 -226c-10 -22 -41 -73 -45 -93c-4 -27 -6 -55 -11 -83v-2c0 -13 26 -9 33 -9c26 0 52 -2 78 -4
c2 2 8 6 8 10c0 5 -8 6 -12 6c-28 3 -57 3 -85 5zM296 355l4 63c0 3 1 5 1 8c0 4 -3 10 -8 10c-4 0 -5 -8 -5 -11c-2 -24 -6 -48 -10 -72c-2 -3 -5 -6 -5 -9c0 -5 7 -7 10 -7c17 0 35 3 52 3c26 0 52 -1 78 -1c6 -3 11 -6 18 -6c6 0 14 4 14 11c0 9 -19 11 -25 11h-124z
M239 568c-4 4 -9 10 -15 10c-1 0 -4 -1 -5 -3c5 13 10 26 14 39c1 2 5 13 8 13h1c3 -21 5 -41 9 -61c1 -9 7 -20 10 -28c8 -24 16 -49 21 -74c2 -8 7 -27 18 -27c3 0 6 2 8 4c-4 31 -19 65 -29 95c-5 17 -10 34 -15 50c-5 15 -7 31 -7 47c0 3 -1 18 -6 18h-1
c-5 1 -10 -2 -11 -7c-1 0 -2 1 -2 1c-8 0 -14 -14 -16 -19c-12 -32 -23 -64 -35 -95c-10 -27 -20 -53 -28 -80c-4 -2 -6 -7 -8 -10c-18 2 -35 4 -53 6c-11 1 -22 4 -33 4c-3 0 -10 0 -10 -5c0 -24 90 -25 100 -26c-3 -21 -7 -44 -7 -65c0 -7 1 -23 12 -23c5 0 6 8 6 12
c0 5 -1 10 -1 15c0 23 2 47 8 69c4 17 5 34 11 50c11 31 23 62 35 93c-1 -2 -1 -4 -1 -5c0 -5 14 -44 16 -54c5 -23 10 -47 15 -71c2 -10 6 -22 7 -33c1 -6 1 -56 14 -56c6 0 6 17 6 20c0 54 -20 143 -36 196zM408 448c-30 -2 -60 -5 -90 -5c-7 0 -13 -4 -13 -12
c0 -7 6 -9 12 -9c7 0 13 2 20 2c21 0 45 8 65 8c11 1 21 0 31 0c3 2 10 6 10 10c0 7 -22 7 -27 6v3c1 28 -22 86 -32 111l-67 167c-4 10 3 41 -11 41c-8 0 -9 -13 -9 -18c0 -41 70 -197 79 -219c7 -17 13 -34 19 -50c4 -12 6 -25 13 -35z" />
    <glyph glyph-name="underscore" unicode="_" horiz-adv-x="742" 
d="M77 49c10 7 66 52 75 52c4 0 5 -4 5 -7c1 -14 1 -28 2 -42l-8 -15c-9 -7 -82 -67 -84 -79c0 0 0 -1 -1 -1v0c0 2 0 4 -1 5l-2 18c-2 15 -7 51 -21 59c-4 2 -8 3 -13 3c-6 0 -9 -4 -9 -10c0 -4 1 -7 3 -10c21 -34 18 -45 27 -81c-7 0 -20 -4 -20 -13c0 -10 14 -12 21 -12
h4l153 10c27 2 56 2 84 5c23 3 48 2 72 2c69 0 137 -2 206 -3c-3 -4 -6 -8 -6 -13c0 -10 16 -12 24 -12c6 0 20 2 20 10s-9 6 -14 6c-1 0 -2 0 -2 1c0 12 47 8 45 29c24 17 49 33 72 49c6 4 20 13 20 21c0 4 -5 5 -8 6l4 64c3 7 7 15 7 23c0 11 -8 19 -19 19
c-9 0 -13 -9 -14 -17c-2 -24 -2 -48 -3 -72h-391c-8 0 -60 5 -60 -12c0 -5 0 -9 6 -9c9 0 18 2 27 2c78 0 156 5 234 5c43 0 86 -5 129 -5c18 0 37 1 55 2v-9c-18 -10 -82 -49 -96 -65c-125 -2 -251 -3 -377 -7c-46 -1 -92 -4 -138 -6c6 9 48 68 59 72l10 3c2 -4 6 -6 10 -6
c10 0 31 20 31 30c0 5 -7 5 -11 5v62c43 3 86 5 129 8l146 10c28 2 44 5 73 5h117c11 0 25 -9 38 -9c3 0 9 1 9 6s-6 12 -10 15c-9 3 -56 2 -65 2c-137 0 -275 -8 -412 -14c-1 0 -29 5 -32 5c-2 3 -6 4 -9 4s-6 -1 -9 -2c-13 -7 -55 -47 -67 -57l-25 -22c-1 -2 -2 -5 -2 -8
s1 -6 4 -6c4 0 6 3 8 6z" />
    <glyph glyph-name="grave" unicode="`" 
d="M187 498c-4 0 -10 -1 -10 -6c0 -19 73 -16 73 -80c0 -5 -1 -10 -5 -14c-26 -31 -37 -48 -82 -56c-5 0 -10 -1 -16 -1c-35 0 -52 23 -52 56c0 42 19 79 55 101c4 2 34 18 34 22c0 3 -7 4 -9 4c-12 0 -26 -7 -35 -15v3c0 6 -4 9 -10 9c-4 0 -8 -1 -12 -3
c-61 -25 -98 -100 -98 -164c0 -47 27 -89 78 -89c49 0 125 42 133 94c27 13 37 37 37 65c0 50 -37 63 -77 74h-4zM107 292c-48 0 -69 29 -69 75c0 39 20 81 50 107c7 6 16 13 25 15c-24 -24 -38 -54 -38 -89c0 -42 15 -82 64 -82c26 0 49 17 71 30c-27 -38 -55 -56 -103 -56
z" />
    <glyph glyph-name="a" unicode="a" horiz-adv-x="565" 
d="M387 3c5 19 10 38 14 57c30 2 60 5 90 5c9 0 17 -1 25 -1s14 10 14 17c0 5 -7 11 -12 11s-9 -1 -12 -3l-93 -7c-5 0 -10 2 -14 2c-9 0 -28 -2 -28 -14c0 -7 5 -12 9 -17l-14 -50c-7 8 -13 18 -19 28v3c0 12 8 39 16 48l16 3c-3 14 -2 28 -2 42c0 4 -2 19 -8 19
c-8 0 -36 -28 -44 -35c-27 -23 -64 -27 -98 -27c-22 0 -46 19 -63 31c-6 5 -13 7 -19 10c-28 16 -35 55 -35 84c0 34 14 70 33 98c34 51 230 29 230 105c0 24 -10 26 -23 42c-10 13 -37 13 -52 13c-13 0 -27 -1 -40 -1c-30 0 -48 -37 -57 -61l-68 2h-1v4c0 41 33 91 69 111
c35 18 72 35 111 35c42 0 72 -12 109 -29c62 -29 93 -89 93 -156c0 -70 -12 -139 -12 -209c0 -21 18 -51 31 -67c4 -1 8 -2 12 -2c6 0 7 7 7 11c0 11 -18 39 -23 50c-8 18 -11 38 -11 58c0 15 2 29 4 44c6 38 9 76 9 115c0 23 0 46 -5 68c-9 54 -56 72 -90 107
c-17 18 -90 32 -115 32c-30 0 -63 -13 -91 -22c-32 -12 -55 -29 -75 -55c-8 -9 -14 -19 -22 -28c-14 -13 -19 -50 -21 -69c-8 -3 -12 -6 -12 -15l-3 -63c-60 -27 -77 -85 -77 -146c0 -9 0 -17 1 -26c6 -64 79 -122 137 -139c7 -2 23 -2 30 -2c21 0 42 1 63 3l40 24
c-1 -6 6 -9 10 -9s8 3 10 6h14c6 -10 16 -61 28 -61c3 0 13 6 15 7l4 -5c47 2 95 4 143 4c8 0 16 5 16 14c0 6 -6 9 -11 9c-44 0 -89 -2 -133 -3zM232 364c12 17 34 38 56 38c16 0 22 -4 31 -17c-22 -14 -61 -16 -87 -21zM216 402c12 15 20 34 36 45c7 0 14 1 21 1h23
c17 0 56 -11 56 -32c0 -8 -9 -19 -18 -20l-2 1c-6 16 -17 24 -34 24s-34 -7 -50 -12c-8 -3 -27 -23 -33 -30zM116 388c9 0 17 -5 26 -5c14 0 27 1 41 2l10 8l7 -3l-1 -33c-7 0 -33 -10 -43 -12l-12 3c-1 2 -5 9 -8 9s-15 -11 -18 -13h-7c0 6 -4 44 5 44zM201 38
c-11 0 -21 0 -32 1c-77 12 -126 77 -126 154c0 58 23 108 80 132c0 -1 3 -2 3 -3c0 -16 -31 -56 -31 -93c0 -30 0 -104 33 -118c43 -18 52 -47 107 -47c29 0 58 6 85 19c-2 -15 -57 -40 -72 -43s-32 -2 -47 -2zM209 221c0 -24 0 -66 32 -69c6 -1 12 -1 18 -1
c41 0 73 17 99 49c16 21 30 46 30 73c0 8 -1 41 -13 41c-3 0 -73 -39 -113 -39c-42 0 -53 -13 -53 -54zM266 173c-3 3 -5 8 -5 12c0 17 41 46 54 56c12 8 36 14 50 19c-2 -9 -5 -18 -8 -26c-12 -32 -58 -59 -91 -61zM246 173c-16 1 -20 11 -20 26v18c0 15 2 36 23 36
c7 0 14 -1 21 -1c20 0 78 26 99 35v-3v-3c-16 -8 -31 -14 -49 -17c-30 -6 -64 -35 -72 -65c-2 -8 -4 -18 -2 -26zM552 89h-2c-15 0 -23 -53 -23 -66c0 -5 4 -10 9 -10c10 0 10 25 11 31c1 14 7 28 8 42z" />
    <glyph glyph-name="b" unicode="b" horiz-adv-x="550" 
d="M325 575c-14 0 -30 -1 -42 -10c-13 -10 -71 -73 -71 -87c0 -4 2 -9 7 -9c18 0 39 77 91 83c10 1 19 1 29 1c23 0 51 -1 71 -15c11 -8 24 -14 35 -22c29 -20 44 -54 55 -87c13 -41 27 -85 27 -129c0 -58 -34 -117 -76 -154c-28 -25 -75 -64 -114 -64c-15 0 -29 5 -41 13
c-15 10 -52 29 -52 50v10c0 2 0 4 -2 5c-4 -3 -15 -15 -15 -21c0 -31 92 -78 117 -78c40 0 70 45 105 60c-10 -24 -28 -53 -49 -69c-12 -9 -56 -30 -71 -33c-8 -2 -16 -3 -24 -3c-25 0 -50 10 -70 26c-13 3 -18 18 -18 30c0 15 2 29 2 44c0 10 -1 23 -14 23
c-7 0 -9 -5 -9 -11c0 -8 2 -15 2 -22c0 -4 -1 -8 -1 -12c-22 -2 -57 -4 -77 -13c-4 -2 -8 -4 -13 -4c-4 0 -4 4 -4 7c0 14 3 27 5 41c7 57 6 117 6 175c0 52 -1 104 -5 156c-1 13 -2 27 -4 40c-1 7 -4 13 -4 20c-3 58 -3 116 -6 175c19 -2 38 -2 56 -5c8 -1 43 -13 48 -17
c-1 -26 -2 -52 -2 -78c0 -14 0 -62 21 -62c6 0 7 8 7 13c0 14 -5 6 -10 16c-3 7 -3 25 -3 33c0 15 2 77 15 84c3 4 7 8 7 14c0 8 -10 12 -17 12c-8 0 -12 -7 -12 -15c-25 24 -79 30 -113 29c-1 5 -6 15 -12 15c-5 0 -8 -8 -8 -12c0 -1 1 -3 2 -4l-50 -80l-4 -1
c2 -75 3 -149 7 -224c1 -17 4 -35 5 -52c4 -74 9 -148 11 -223c2 -53 3 -106 4 -159l9 -14c1 0 2 -1 3 -1c7 0 12 10 15 15c5 14 13 25 22 37c17 -3 34 -5 51 -5c12 0 26 1 38 6c4 -2 8 -4 13 -4c10 0 11 13 10 21l4 12c9 -7 16 -15 25 -22c18 -15 54 -26 77 -26
c37 0 86 28 109 57c30 36 57 79 75 122c5 11 11 20 17 29c18 28 25 53 25 86c0 59 -41 214 -87 247c-12 8 -25 12 -37 18c-27 15 -61 22 -91 22zM65 -2l-10 216l-6 121c-1 19 -3 38 -3 57c0 8 1 16 1 24c0 65 -11 130 -11 195c0 3 0 10 1 12l38 63c6 -73 14 -146 14 -219
c0 -7 -1 -15 -1 -22c0 -26 6 -52 6 -78v-29c0 -36 2 -71 2 -107c0 -12 0 -24 -2 -36c-7 -41 -11 -83 -11 -124c0 -8 4 -16 13 -16c3 0 6 0 9 1c-20 -14 -27 -38 -40 -58zM182 32l-73 -2c5 7 18 22 14 31c14 5 22 10 38 10c13 0 26 -2 39 -4c0 -7 -8 -36 -16 -36zM208 286
c0 -36 24 -109 53 -131c14 -10 30 -16 47 -16c66 0 99 70 111 125c1 5 1 10 1 15c0 57 -39 179 -110 179c-10 0 -20 -2 -30 -6c-55 -20 -75 -66 -87 -120c-1 -6 -2 -11 -2 -18c0 -11 4 -25 17 -28zM318 156c-34 0 -50 14 -65 42c-14 25 -29 70 -29 99c0 55 32 56 77 56
c27 0 56 -11 66 -38c4 -12 17 -58 17 -69s0 -21 2 -32c-17 -25 -33 -58 -68 -58zM310 443c9 0 15 -4 22 -10c24 -19 40 -32 54 -60c12 -26 19 -60 19 -89c0 -15 -2 -30 -6 -44c-3 13 -6 21 -6 35c0 26 -12 58 -33 75c-17 12 -36 24 -57 24c-7 0 -15 1 -22 1
c-26 0 -50 -9 -67 -28c5 29 24 62 50 78c13 8 30 18 46 18z" />
    <glyph glyph-name="c" unicode="c" horiz-adv-x="513" 
d="M299 590c-13 0 -26 -1 -39 -2v4c0 4 -2 6 -7 6c-41 0 -117 -82 -144 -113c-73 -80 -89 -141 -89 -248c0 -39 27 -119 53 -148c14 -15 74 -77 89 -80c27 -6 54 -16 82 -16c24 0 103 27 129 38c36 14 43 33 66 61c5 5 9 11 9 19c0 3 -1 6 -3 8c10 14 47 96 47 112
c0 2 0 6 -3 6c-7 0 -14 -6 -22 -6c-25 0 -47 13 -72 13c-18 0 -24 -22 -30 -35c-10 -22 -35 -43 -60 -43c-48 0 -61 50 -61 90c0 48 4 52 39 85c2 2 5 3 8 3c14 0 18 -20 18 -30c0 -8 -2 -15 -2 -22c0 -2 0 -8 4 -8c8 0 19 21 19 30c0 19 -10 51 -34 51
c-11 0 -20 -5 -28 -12c11 17 29 45 52 45c25 0 36 -19 35 -42v-10c-7 -12 -25 -47 -25 -60c0 -2 1 -5 4 -5c2 0 4 1 5 1v0c29 -8 57 -11 88 -11c14 0 45 0 50 18l-1 13c5 11 9 26 9 39c0 2 0 7 -4 7c-2 0 -5 -3 -6 -5c-3 -13 -12 -44 -25 -49c-8 -3 -18 -3 -26 -3
c-25 0 -50 4 -75 8c4 11 10 22 15 33c1 -2 6 -12 9 -12c11 0 10 17 24 17c10 0 20 -1 31 -1c10 0 40 0 40 16c0 3 -2 10 -6 10s-6 -7 -22 -7c-22 0 -44 0 -66 1v0c-8 23 -17 59 -48 59c-8 0 -17 -3 -25 -7c-38 -19 -50 -56 -67 -92c-3 -7 -7 -13 -11 -20
c-1 -11 -1 -22 -1 -34c0 -42 13 -114 68 -114c29 0 68 18 86 42c4 6 12 26 13 27c2 3 10 3 14 3c19 0 41 -6 60 -12c-5 -14 -8 -28 -14 -41c-33 -75 -90 -93 -168 -93c-51 0 -74 8 -115 37c-16 12 -45 40 -53 58c-17 36 -28 99 -28 138c0 34 6 68 24 96c28 47 72 97 122 121
c3 2 17 9 17 13c0 1 -2 1 -3 1c-45 0 -93 -50 -118 -84c-8 -10 -15 -22 -22 -33c-17 -23 -29 -40 -34 -70c-2 -10 -3 -20 -3 -30c0 -36 9 -72 9 -108c0 -39 35 -65 49 -99c4 -12 58 -39 73 -48c17 -11 38 -12 58 -12c27 0 55 3 82 5c31 3 71 29 94 49
c-4 -33 -72 -62 -99 -75c-30 -13 -62 -22 -95 -22c-16 0 -33 2 -48 8c-50 18 -106 82 -132 128c-16 30 -23 98 -23 133c0 57 21 117 54 164c19 24 48 39 68 62c22 24 78 59 110 61c16 2 32 4 48 4c59 0 91 -48 126 -88c31 -36 33 -79 42 -123c1 -5 2 -16 10 -16s9 9 9 15
c0 81 -73 184 -143 221c-18 10 -41 10 -61 10z" />
    <glyph glyph-name="d" unicode="d" horiz-adv-x="564" 
d="M279 502c-49 0 -83 -84 -84 -125v-30c0 -59 6 -115 70 -136c10 -3 20 -6 30 -6c65 0 91 73 91 127c0 45 -19 144 -64 163c-14 6 -28 7 -43 7zM303 222c-21 0 -44 15 -61 26c-26 18 -33 69 -33 98c0 25 4 49 13 72c9 22 33 62 60 62c7 0 14 -1 21 -1c-2 -3 -3 -7 -3 -11
c0 -9 35 -18 44 -27c19 -19 28 -67 28 -94c0 -38 -18 -125 -69 -125zM526 372c0 59 0 119 4 178c1 15 3 29 3 43c0 38 -8 75 -8 113c0 12 -2 29 -18 29c-13 0 -24 -8 -37 -8c-30 0 -56 18 -86 18c-9 0 -14 -4 -14 -14c0 -13 7 -30 12 -43c6 -20 7 -66 7 -88
c0 -23 -1 -47 -2 -70c-15 57 -73 77 -127 77c-46 0 -92 -13 -131 -37c-5 -3 -11 -6 -15 -11c-34 -34 -81 -131 -86 -179c-2 -21 -8 -41 -8 -62c0 -46 17 -96 33 -138c15 -41 34 -103 77 -121c27 -11 82 -29 111 -29c38 0 73 14 101 39h5l-3 -14l30 -59c2 -3 4 -8 10 -8
c4 0 9 3 12 7c3 1 7 1 11 1c29 0 56 -15 85 -15c6 0 25 2 25 11c0 8 -19 9 -25 10c-28 2 -97 4 -114 29c3 -3 6 -4 10 -4c6 0 8 6 8 11c0 3 -1 5 -1 8v45c12 4 37 11 49 11c18 0 34 -8 52 -8c12 0 24 0 35 2c1 -7 2 -13 2 -19c0 -33 -17 -33 -17 -46c0 -8 6 -13 14 -13
c11 0 9 6 10 14l8 62c4 4 6 10 6 16c0 8 -4 11 -8 17c-18 23 -20 205 -20 245zM237 48c-49 0 -109 15 -135 59c-35 60 -51 130 -62 198c-1 1 -1 2 -1 3c0 55 8 142 52 181c-21 -41 -30 -91 -30 -136c0 -35 5 -70 15 -103c23 -77 101 -147 181 -163c6 -1 12 -1 19 -1
c33 0 65 9 94 23l3 -8c-14 -4 -31 -10 -44 -19c-5 -3 -10 -7 -15 -11c-21 -15 -51 -23 -77 -23zM375 41c0 -4 1 -7 3 -9c-6 10 -11 22 -15 34h1l16 28c1 -7 2 -14 2 -21c0 -12 -7 -22 -7 -32zM451 124c-18 0 -36 -6 -53 -10v26c-4 5 -9 8 -15 8c-15 0 -19 -15 -28 -23
c-17 -16 -71 -16 -95 -16c-43 0 -107 55 -135 85c-36 40 -47 96 -47 149c0 69 21 155 70 206c8 8 18 17 28 22c17 8 62 10 82 10c23 0 46 -1 69 -5l55 -59c2 -8 8 -17 17 -17c11 0 12 12 12 20c0 32 -4 175 -15 196c4 1 8 2 12 2c9 0 16 -5 25 -7c12 -4 26 -6 39 -6
c10 0 23 1 31 6c5 -42 13 -83 12 -125v-10c-5 -12 -6 -90 -6 -108c0 -23 1 -46 1 -68l3 -163c1 -26 4 -97 18 -117c-6 -3 -14 -4 -21 -4c-20 0 -39 8 -59 8zM250 410c-8 0 -16 -1 -24 -3c-4 -3 -9 -9 -9 -14s7 -6 10 -6c6 0 13 1 18 2c20 -3 39 -6 58 -10
c33 -7 26 -43 26 -69c0 -13 2 -26 18 -26c4 0 12 1 12 7c0 3 -2 7 -5 9c-5 1 -9 4 -9 10c0 10 4 20 4 30c0 45 -61 70 -99 70z" />
    <glyph glyph-name="e" unicode="e" horiz-adv-x="549" 
d="M313 545h-11c-92 -6 -165 -9 -227 -86c-40 -49 -55 -116 -55 -178c0 -34 5 -87 23 -116c18 -30 48 -50 63 -83c30 -62 123 -80 186 -80c51 0 118 15 152 58c11 15 22 29 35 43c2 2 5 6 5 9s-3 4 -5 4c17 13 32 36 35 58h4c8 0 13 4 13 12c0 21 -12 17 -27 17
c-14 0 -29 1 -43 2l51 49c1 3 2 7 2 10c0 5 -3 8 -8 8h-2l-11 -8l-259 14c1 7 -5 11 -11 11c-3 0 -6 -2 -7 -5c-6 -1 -13 -6 -13 -13c0 -4 2 -8 5 -11c1 -15 6 -62 15 -73c19 -24 74 -63 105 -63c29 0 72 30 77 59l91 -1v-2c1 -17 -18 -37 -29 -49c-18 -19 -30 -34 -56 -43
c-37 -13 -36 -25 -81 -25c-46 0 -97 11 -137 35c-48 29 -74 91 -74 146c0 80 12 232 99 265c30 12 78 17 110 17c81 0 115 -39 146 -108c14 -32 32 -60 39 -94c2 -10 7 -63 19 -63c8 0 7 8 7 13c0 56 -25 107 -51 156c-5 10 -11 20 -16 31c-4 9 -7 18 -13 27
c-30 44 -95 57 -146 57zM406 206c0 3 -4 4 -6 4c-6 0 -9 -4 -8 -10c-4 -11 -11 -34 -22 -40c-7 -4 -8 -1 -15 -7c-5 -6 -8 -7 -16 -7c-15 0 -40 9 -55 14c-24 9 -47 30 -54 56c7 -1 13 0 19 0c25 0 49 -5 73 -5c38 0 76 2 114 3l1 -7zM439 217v10c-25 5 -50 4 -74 5
c-45 1 -90 3 -135 4v19l244 -14l-21 -19h-2c-5 0 -10 0 -12 -5zM101 261c0 -152 91 -217 235 -217c46 0 51 20 86 22c-9 -9 -19 -13 -30 -18c-9 -4 -17 -9 -26 -13c-21 -10 -49 -12 -72 -12c-70 0 -131 13 -173 74c-7 10 -12 21 -18 31c-17 29 -42 34 -53 69
c-9 30 -10 65 -10 96c0 12 0 23 1 35c3 34 28 101 52 125c21 21 59 51 87 58c-66 -58 -79 -168 -79 -250zM302 456c-29 0 -53 -19 -73 -38c-12 -13 -36 -35 -36 -53c0 -11 8 -20 17 -26c29 -7 59 -13 89 -13c33 0 66 4 99 4c6 0 12 2 12 9c0 5 -3 9 -6 12c0 6 1 11 1 17
c0 58 -50 88 -103 88zM211 360l-1 4l1 1l4 -1c20 1 36 13 57 13c27 0 51 -14 76 -24c-7 -6 -28 -6 -37 -6c-17 0 -88 5 -100 13zM372 353c2 1 3 3 3 5s-1 4 -2 5c-20 11 -73 33 -94 33c-20 0 -40 -6 -58 -13c20 20 51 52 81 52c24 0 80 -24 80 -51l1 -30z" />
    <glyph glyph-name="f" unicode="f" horiz-adv-x="396" 
d="M323 638v-3c0 -3 3 -4 6 -4c11 0 23 4 35 4s22 6 22 18c0 20 -4 40 -4 60c0 24 -15 36 -38 36c-11 0 -22 -2 -33 -2c-8 0 -15 1 -22 1l1 3c-8 0 -15 1 -23 1c-21 0 -45 -2 -65 -9c-37 -14 -65 -45 -93 -72c-10 -10 -22 -27 -22 -43s1 -33 1 -49c-27 -10 -30 0 -55 -24
l-13 -94l12 -6l-4 -6l12 -11l60 -5l6 -8l-4 -4c-1 -31 -3 -63 -3 -94c0 -12 4 -24 5 -35c3 -29 2 -58 3 -86c2 -50 4 -100 5 -150c0 -8 -1 -55 6 -58l2 2h7l4 12h6l2 -4c23 -2 47 -2 71 -2c19 0 37 -8 56 -8c12 0 19 8 19 20c0 4 -1 7 -4 10c7 22 15 44 21 66
c-7 32 -7 67 -8 100c-3 69 0 139 -9 208c10 -4 19 -9 27 -17c2 -2 4 -4 6 -4c5 0 7 10 9 14c9 25 28 43 32 71c5 0 18 -1 18 8c0 2 0 3 -1 5c1 28 4 56 4 84c0 4 -2 14 -8 14l-81 -3v12c0 16 7 17 13 30c3 8 9 20 19 22zM232 732c-19 -12 -33 -29 -49 -45
c-21 -21 -25 -70 -24 -99c-16 0 -34 5 -50 2c0 13 -2 26 -2 39c0 3 4 10 5 13c15 33 56 61 86 81c9 6 23 8 34 9zM41 471l6 67c1 3 7 4 9 5c7 2 13 7 16 13l20 4c-2 -18 -4 -35 -5 -53l-46 -37v1zM42 458v1l3 -2zM53 453l-1 1l38 31c2 -5 21 -5 26 -5c7 0 14 1 22 1h7
l-32 -34c-2 2 -5 4 -9 5zM316 413l-33 9c-1 10 -2 19 -2 30c0 7 1 15 1 23v0v0c5 0 18 -14 38 -14c7 0 14 1 20 2c-6 -18 -15 -34 -24 -50zM269 572c0 -8 1 -15 6 -22l11 1c3 5 8 10 14 13l5 -4l51 -4l-3 -68h-46l-12 7l-14 -1l-6 -12l-13 -10c6 -100 12 -200 17 -300
c1 -27 4 -54 4 -81c0 -9 -23 -73 -30 -73v0c-15 13 -86 9 -107 8c6 7 31 32 31 39c0 5 -4 9 -9 9c-9 0 -31 -29 -37 -37v4c0 8 -3 17 -4 25c-2 16 -2 32 -2 48c0 28 1 55 1 83c0 35 -2 70 -7 105c-2 15 -2 30 -2 45c0 24 5 61 3 81c11 4 23 18 30 28c0 -27 -1 -53 -1 -80
c0 -17 0 -35 2 -52c4 -39 5 -77 5 -116c0 -40 -2 -80 -2 -120c0 -15 62 -15 73 -15c12 0 48 0 48 17c0 6 -7 7 -11 7c-13 0 -26 -3 -38 -3c-18 0 -35 2 -52 6c-2 25 0 51 0 77c0 18 -2 37 -2 55c-4 88 -3 176 -3 264l-59 6l3 59l6 5l40 -2l2 -4c5 -2 9 -4 14 -4
c6 0 9 4 9 10c0 5 0 13 -6 15c1 68 10 96 66 136c8 6 17 10 27 10c8 0 17 -3 26 -3c10 0 20 3 30 3c36 0 39 -24 39 -54c0 -7 -1 -14 -1 -21c-14 1 -28 3 -42 3c-12 0 -33 -27 -40 -37c-8 -13 -14 -30 -14 -46z" />
    <glyph glyph-name="g" unicode="g" horiz-adv-x="594" 
d="M207 91c8 0 55 -1 55 8c0 11 -27 13 -34 13c-10 0 -19 -1 -28 -1c-32 0 -34 10 -59 22c-24 12 -56 44 -70 67c-22 37 -29 81 -29 123c0 77 32 141 80 199c25 31 73 56 112 66c-19 -7 -51 -40 -65 -56c-53 -59 -69 -118 -69 -197c0 -42 9 -82 28 -120
c26 -51 84 -93 138 -109c16 -5 33 -7 50 -7c23 0 55 4 75 16c11 7 41 32 46 43c3 6 6 13 6 19s-4 11 -10 11c-2 0 -3 -2 -4 -4c-20 -39 -44 -65 -91 -65s-61 6 -104 25c-39 17 -65 53 -91 87c-20 27 -25 86 -25 119c0 25 2 49 9 73c17 53 34 69 70 109c24 27 56 50 89 64
c12 5 32 4 45 4c29 0 36 -4 58 -24c-2 -3 -4 -7 -4 -11s5 -9 8 -9s5 3 5 5l3 4c9 -10 19 -20 28 -30c1 -4 4 -16 10 -16c3 0 7 1 10 3l2 12l4 1l12 10l-8 24v10v11c23 -3 45 -9 69 -9c4 0 17 0 17 6c0 9 -12 12 -19 13c-22 5 -45 8 -68 12c-1 6 -6 8 -11 8
c-4 0 -8 -2 -12 -2v-2c-2 0 -4 1 -6 1c-7 0 -23 -18 -28 -23c-27 22 -45 26 -79 26c-57 0 -95 -5 -143 -38v1c-1 0 -3 1 -3 1c-35 0 -86 -71 -105 -98c-35 -49 -51 -108 -51 -168c0 -23 2 -47 7 -70c17 -77 51 -102 116 -139c22 -12 40 -18 64 -18zM429 592h2h3l-1 -29
c-6 6 -12 12 -18 19c3 3 9 10 14 10zM574 76c9 40 10 80 10 121c0 92 -1 184 -1 275c0 29 0 57 -4 86c-2 10 -2 48 -16 48c-4 0 -12 -4 -12 -9c0 -4 2 -6 4 -8c11 -17 7 -241 7 -280c0 -36 1 -71 1 -106c0 -55 -5 -148 -27 -197c-18 -41 -69 -58 -108 -72
c-15 -5 -29 -6 -44 -6c-16 0 -49 2 -63 7c-32 11 -62 23 -95 30c-16 4 -37 24 -47 36c-11 13 -25 47 -31 63l101 4c0 -56 43 -74 91 -74c66 0 134 52 134 122c0 8 -6 45 -16 45c-4 0 -6 -5 -7 -7c3 -12 7 -25 7 -38c0 -21 -15 -43 -27 -60c-22 -29 -55 -41 -91 -41
c-26 0 -53 8 -67 32c-6 12 -3 23 -3 35c0 6 -4 10 -10 10l-117 -3l-11 5c-2 4 -5 11 -10 11s-7 -4 -9 -7c-15 -25 -28 -52 -42 -78c1 -5 6 -5 10 -5h6c10 3 27 48 31 59l17 -5l-2 -3c-4 -3 -8 -8 -8 -14s3 -9 6 -14c11 -18 19 -38 32 -55c27 -37 48 -42 90 -53
c39 -11 78 -27 119 -27c72 0 89 27 150 48c-10 -10 -17 -26 -24 -38c-29 -45 -73 -54 -122 -66c-13 -3 -28 -5 -42 -5c-40 0 -81 11 -120 21c-23 6 -84 42 -100 60c-16 19 -24 46 -28 69c-1 7 -2 22 -11 22c-11 0 -14 -9 -14 -18c0 -27 19 -73 37 -92
c49 -51 157 -85 226 -85c89 0 165 36 211 114c10 16 18 34 27 51c12 22 22 58 22 83c0 4 -5 13 -10 9zM340 513c-70 0 -108 -111 -108 -169c0 -53 25 -127 88 -127c4 0 8 0 11 1c71 10 108 55 108 126c0 21 -4 42 -7 63c2 4 3 9 3 13c0 39 -57 93 -95 93zM271 383
c14 0 29 30 53 30c38 0 86 -73 86 -108c0 -45 -47 -68 -87 -68c-62 0 -71 78 -71 125c0 40 38 130 86 130c28 0 53 -26 67 -48h-3c-2 0 -5 -2 -4 -5c9 -12 14 -56 16 -72c-10 26 -54 67 -84 67c-18 0 -67 -17 -67 -40c0 -4 2 -11 8 -11z" />
    <glyph glyph-name="h" unicode="h" horiz-adv-x="561" 
d="M40 609c8 0 11 5 10 13l59 86l105 -3c4 3 8 8 8 13c0 10 -21 10 -28 10c-32 0 -63 -10 -95 -10c-5 0 -5 4 -8 6v-4c0 -3 0 -5 1 -7c-9 -12 -66 -90 -66 -96s9 -8 14 -8zM541 89c-2 0 -4 -1 -6 -2c0 1 1 2 1 3c0 6 -3 11 -10 11c-3 0 -7 -3 -10 -3l-74 -4c2 41 5 82 5 123
c0 30 -4 59 -8 88c-3 17 -6 34 -6 52c0 46 -8 117 -68 117c-53 0 -58 -2 -96 -36c-18 -17 -17 -91 -17 -115c0 -54 5 -107 5 -160c0 -9 -1 -18 -1 -27c0 -6 0 -18 9 -18c8 0 10 8 10 14c0 42 -1 85 -2 127c0 22 1 57 -3 77c1 -1 3 -4 5 -4c8 0 11 37 37 37c3 0 5 0 7 -1
c20 -4 33 -65 33 -83c0 -89 -8 -178 -8 -268c0 -7 -1 -40 11 -40c6 0 18 22 21 27c25 7 57 19 83 19c25 0 32 -18 48 -18c11 0 14 9 17 17c5 14 27 48 27 59c0 5 -5 8 -10 8zM362 24c1 25 0 51 0 76c0 60 10 119 10 178c0 17 0 34 -6 50c-8 21 -18 64 -46 64
c-16 0 -35 -14 -47 -24c7 44 16 87 70 87c63 0 73 -42 73 -95c0 -31 5 -61 10 -91c2 -11 5 -22 5 -32c0 -44 -1 -88 -2 -132c-13 -1 -56 -67 -67 -81zM508 28c-14 6 -31 14 -47 14c-24 0 -48 -5 -71 -10l37 45c8 -4 18 -6 27 -6c15 0 64 8 78 14c-8 -9 -19 -44 -24 -57z
M254 527c9 0 14 18 18 24c16 27 82 40 112 40c79 0 112 -117 130 -177c8 -25 8 -56 8 -82c0 -56 -5 -113 -9 -170c-1 -11 -2 -22 -2 -33c0 -7 0 -22 10 -22c11 0 14 9 14 18c0 20 -2 40 -2 60c0 30 2 59 6 89c3 25 8 50 8 76c0 66 -49 214 -109 247c-17 9 -45 16 -64 16
c-40 0 -79 -17 -110 -41c-4 43 -9 85 -9 128c0 8 2 16 2 24c0 11 -14 18 -24 18c-9 0 -11 -17 -11 -24c0 -8 10 -3 13 -12v-36c1 -28 2 -106 9 -130c2 -4 4 -13 10 -13zM248 113c-1 16 -20 16 -32 16c-28 0 -55 -4 -82 -7c4 34 11 70 11 105c0 16 -4 32 -5 48
c-2 34 -3 67 -5 100c-4 79 -6 156 -6 235c0 23 0 47 -2 71c-1 4 -2 20 -8 20c-7 0 -12 -19 -12 -25c0 -75 1 -149 4 -223c2 -42 3 -84 10 -125c4 -24 5 -48 5 -73c0 -45 -4 -91 -10 -136l-49 -72c-1 37 -1 74 -1 111c0 26 3 52 3 78c0 56 -13 111 -17 167
c-3 37 -5 75 -8 113c-1 19 -3 38 -3 57c0 5 1 10 1 15c0 7 -1 11 -10 11s-12 -11 -12 -19c0 -60 8 -122 12 -183c5 -55 15 -110 20 -166v-7c0 -62 -4 -125 -4 -188c0 -6 0 -27 10 -27c7 0 14 12 17 17c15 -2 30 -4 45 -4c21 0 43 7 64 7c8 0 16 0 24 -1c2 -6 7 -17 14 -17
c8 0 11 30 13 36c5 16 13 31 19 47c3 1 8 3 8 7c0 6 -9 11 -14 12zM214 47c-43 -2 -87 -4 -130 -5l27 47c27 9 56 15 85 15c13 0 26 -5 39 -5c-8 -17 -14 -34 -21 -52z" />
    <glyph glyph-name="i" unicode="i" horiz-adv-x="269" 
d="M259 501c0 24 -4 47 -4 70c0 12 -7 18 -18 18s-22 -4 -33 -6l26 40h2c7 0 8 15 8 20c0 28 -8 57 -8 85c0 11 -13 17 -23 17c-15 0 -27 -10 -42 -10c-3 0 -5 0 -7 1c1 4 2 8 2 11s-2 7 -5 7c-12 0 -24 -20 -24 -31c0 -12 13 -13 22 -13c17 0 31 10 47 10c3 0 6 0 8 -1
c5 -24 5 -50 7 -75l-90 3c-4 4 -4 9 -4 14c0 24 6 47 6 70c0 19 0 21 -19 21c-11 0 -18 -1 -24 -10c-23 -37 -46 -77 -60 -118c-3 -3 -6 -7 -6 -12c0 -6 24 -49 29 -58c1 -3 3 -8 8 -8c2 0 4 1 6 2c2 -3 6 -5 10 -5c6 0 10 6 12 11l4 1c-9 -13 -29 -46 -40 -55
c-7 -5 -8 -5 -16 -5c-3 0 -3 -2 -3 -4c0 -7 2 -13 2 -20c0 -21 -2 -42 -2 -64c-2 -67 -2 -135 -2 -202c0 -66 8 -131 8 -197c0 -6 0 -19 9 -19c10 0 22 17 28 24c8 -4 18 -6 27 -6c27 0 54 5 81 5c11 0 17 -8 21 -8s8 11 9 14c9 24 23 44 38 64c6 8 8 15 8 25s-2 20 -4 29
c-11 50 -7 114 -7 165c0 14 1 28 3 42c4 24 2 49 2 74c0 31 8 54 8 84zM130 625c11 -2 23 -3 35 -3c14 0 29 2 43 2c-5 -9 -22 -29 -22 -39c0 -1 1 -3 2 -4c-9 -1 -18 -2 -26 -2c-11 0 -22 1 -32 4c-4 2 -7 3 -11 3s-11 -7 -13 -10l-9 1c10 16 23 32 33 48zM67 560h-1
c-2 17 -26 55 -26 59s3 6 5 8c7 7 20 46 29 59c9 15 19 28 28 42l5 1l-3 -77c0 -7 2 -15 7 -20zM54 22c-3 73 -7 146 -7 219c0 80 3 160 5 240c22 25 42 50 62 76v-428c0 -3 0 -6 1 -9v7l2 -13c-13 -12 -51 -73 -63 -92zM194 30c-23 2 -46 3 -68 3c-14 0 -27 0 -41 -1
c12 19 20 42 36 59l1 -9l102 3c-11 -15 -26 -37 -30 -55zM226 314c0 -68 4 -135 7 -203l-97 -2c-2 25 -4 50 -4 75c0 22 3 45 3 68c0 47 -2 93 -2 140c0 43 4 85 4 128c0 13 0 26 -2 39c11 -2 21 -3 31 -3c12 0 29 2 40 7c6 3 12 8 19 8s9 -5 9 -11c0 -16 1 -33 1 -50
c0 -12 0 -24 -1 -35c-5 -54 -8 -107 -8 -161z" />
    <glyph glyph-name="j" unicode="j" horiz-adv-x="320" 
d="M295 459c0 21 4 43 4 64c0 3 0 16 -4 16c0 6 -5 10 -11 10s-11 -5 -10 -12h-72c1 5 -1 13 -8 13c-4 0 -12 -5 -17 -7h-27c9 16 19 31 28 46c24 -4 48 -5 72 -4c-4 -11 -11 -25 -11 -36c0 -3 2 -9 7 -9c11 0 18 36 21 45h7c1 0 2 -1 4 -1c12 0 13 27 13 35
c0 28 -7 63 -16 89c0 10 -3 18 -14 18c-18 0 -34 -17 -59 -17c-10 0 -20 4 -30 4c-1 0 -1 -1 -1 -1c-2 -5 -2 -10 -3 -15c0 5 -3 17 -10 17s-12 -15 -14 -20c-11 -29 -24 -58 -42 -83c1 -4 4 -12 9 -12c6 0 12 11 14 15c12 22 24 43 37 63l-2 -82l-29 -52
c-19 8 -10 56 -32 56c-5 0 -9 -2 -9 -7c0 -7 5 -18 7 -24c9 -27 12 -46 46 -46c4 0 7 1 11 1l-47 -78c5 -18 4 -39 5 -58c7 -125 7 -251 8 -376l-5 -3l-5 -12c-21 -10 -42 -20 -64 -30c0 6 0 20 -8 20c-16 0 -12 -21 -12 -31v-3c-3 -2 -6 -6 -6 -10c0 -5 3 -9 6 -12
c-1 -17 -1 -35 -1 -52c0 -29 2 -68 32 -83c22 -11 34 -20 60 -20c57 0 99 22 132 69c26 37 61 137 61 182c0 79 -6 158 -6 237c0 66 -9 131 -9 196zM188 687c2 -2 5 -3 8 -3c14 0 43 14 57 22c17 -25 18 -64 18 -94c0 -5 -1 -7 -7 -7c-29 0 -57 2 -86 4c2 26 3 53 10 78z
M167 514l11 -2v0l1 -2c0 -16 -4 -32 -4 -48c0 -57 12 -114 12 -171c0 -63 0 -126 -1 -189c-1 -44 -5 -87 -45 -114v23v10c-2 81 -9 161 -12 241c-2 60 -3 120 -4 180c13 25 27 49 42 72zM47 -134v52c16 18 33 36 56 45c0 -10 1 -21 1 -31c0 -17 -1 -33 -2 -49l5 -3l-13 -15z
M108 -202c-16 0 -29 9 -43 15c7 11 20 28 32 35c8 3 15 7 19 15c13 -2 26 -3 39 -3c18 0 42 2 59 9c14 5 39 18 47 31c-6 -12 -15 -35 -20 -45c-25 -43 -87 -57 -133 -57zM181 -116h-46l3 8c0 6 -9 5 -14 5l-2 58c20 5 38 17 52 31c34 34 34 97 34 141c0 73 -2 145 -8 218
c-3 27 -6 54 -6 81c0 29 4 58 7 87h70c7 2 6 -21 6 -24v-18c0 -54 2 -109 4 -164c2 -58 7 -117 7 -176c0 -29 2 -59 2 -88c0 -19 0 -38 -9 -55c-19 -37 -28 -76 -69 -96c-7 -3 -22 -8 -31 -8z" />
    <glyph glyph-name="k" unicode="k" horiz-adv-x="561" 
d="M389 367c0 23 138 103 138 131c0 4 -3 6 -6 6c-8 0 -12 -7 -17 -11c-15 -15 -34 -27 -49 -42c-18 -18 -42 -27 -61 -43c-8 -6 -29 -29 -29 -39c0 -6 3 -8 7 -12c11 -12 27 -51 37 -68c23 -37 51 -70 71 -109c14 -28 26 -57 41 -86l-1 -4c-22 -1 -44 -1 -66 -1
c-12 0 -24 1 -35 3c-8 2 -16 4 -24 4c-9 0 -17 -2 -17 -12s17 -12 24 -12c19 -1 38 -3 56 -4h57l-6 -28c-3 -4 -6 -8 -6 -14c0 -5 3 -11 9 -11c5 0 8 5 10 10c4 8 21 57 21 64l-1 4c-13 18 -21 39 -31 60c-16 37 -40 70 -58 106c-12 25 -64 85 -64 108zM360 35l3 -3l14 65
c-4 4 -10 9 -16 9c-2 0 -4 -1 -5 -2c-5 10 -11 19 -16 29c-21 43 -44 90 -41 138c-3 3 -13 10 -16 10c-11 0 -69 -56 -69 -65c0 -5 4 -8 7 -10v-92h-85c3 109 5 218 5 326c0 17 -1 33 -4 49c-8 34 -7 68 -8 102l-3 105c5 -1 10 -2 15 -2c35 0 69 2 103 3c1 -17 2 -35 2 -53
c0 -9 0 -19 -1 -29c-5 -70 -5 -140 -7 -211c1 -1 3 -3 6 -3c17 0 18 91 19 107c0 40 0 79 1 119c1 24 1 51 4 75c0 3 2 7 2 10c0 10 -9 18 -19 18c-8 0 -14 -6 -18 -13h-28c-28 0 -55 5 -83 5c-9 0 -11 -5 -15 -12c-8 -15 -39 -64 -50 -75c-7 -7 -17 -20 -17 -30
c0 -4 3 -6 7 -6c11 0 17 9 19 19l43 59c3 -63 2 -127 11 -190c4 -27 5 -55 5 -82c0 -92 -1 -184 -7 -276c0 -3 -1 -6 -1 -9c0 -8 1 -29 13 -29c5 0 11 2 17 2c22 0 46 -1 68 -2c-4 -24 -15 -47 -23 -70l-114 -2c11 21 21 44 34 63c3 4 6 7 6 12c0 6 -6 8 -11 8l-1 1
c-12 0 -36 -79 -47 -79l-1 1c-7 75 -16 151 -16 227c0 77 5 154 5 231c0 17 0 113 -20 113c-6 0 -7 -8 -7 -12s1 -9 5 -11c2 -54 6 -108 6 -162c0 -44 -5 -88 -5 -132c0 -43 1 -86 3 -129c2 -33 7 -65 10 -97c1 -23 3 -46 4 -69c2 -2 5 -6 8 -6c7 0 12 14 15 19l115 1
c2 -5 8 -8 13 -8s9 4 8 9c7 0 16 3 16 12c0 4 -2 9 -6 11c9 22 18 46 20 70c8 0 9 4 9 11c0 4 0 7 -3 9l4 1l7 7c25 -29 50 -64 67 -99c3 -8 13 -42 24 -42c8 0 6 24 6 29c10 -9 20 -14 33 -15c32 -3 65 -2 98 -2c8 0 20 -1 20 10c0 6 -3 12 -7 16h-103c-10 0 -25 7 -27 18z
M260 158l-18 -16l-3 80l35 34c1 -5 1 -9 1 -14c0 -29 -7 -57 -15 -84zM339 16l-1 1l2 -2zM338 18c-4 13 -12 25 -18 37c-11 25 -26 46 -41 67l4 18c-2 4 -4 9 -6 14c0 19 7 38 11 57c10 -33 40 -102 59 -130c-4 -21 -7 -42 -9 -63zM533 537c-36 0 -75 3 -110 12
c-12 3 -26 10 -39 10c-6 0 -18 -5 -18 -13c0 -9 19 -14 26 -14c-55 -49 -108 -100 -161 -151c-7 -6 -18 -13 -18 -23c0 -2 1 -5 4 -5c14 0 55 48 66 59c32 37 74 61 110 93c8 7 15 14 23 21h9c33 1 69 -10 104 -10c10 0 22 6 22 18c0 5 -15 3 -18 3z" />
    <glyph glyph-name="l" unicode="l" horiz-adv-x="250" 
d="M146 752c-6 0 -17 0 -22 4c-6 -1 -10 -7 -13 -12c-11 -20 -26 -37 -39 -56c-7 -9 -12 -19 -19 -28c-8 -8 -21 -20 -21 -32c0 -7 7 -9 13 -9c14 0 15 19 18 29c5 18 33 50 46 64c-9 -113 -11 -226 -11 -339c0 -78 3 -156 5 -234c-18 -23 -33 -51 -43 -77l-2 132
c-1 81 0 162 -7 243l-10 108c0 10 1 59 -14 59c-6 0 -7 -5 -7 -10c0 -37 6 -74 10 -111c6 -69 13 -138 13 -207c0 -93 -2 -186 -2 -279c0 -4 1 -13 7 -13c3 0 7 2 9 4l5 17h11c27 -1 55 2 83 2c11 0 23 -3 35 -3c7 0 19 3 19 12c0 7 -4 12 -11 12c-2 0 -5 -1 -7 -1
c5 13 12 26 19 39c13 22 17 53 18 78c6 195 6 391 8 586c2 4 3 9 3 14c0 12 -11 15 -21 15c-11 0 -22 -3 -33 -5c-13 -2 -27 -2 -40 -2zM173 27h-49c-19 0 -38 0 -57 -5c8 25 18 70 37 89c4 -3 9 -6 14 -6c14 0 27 8 40 10c18 2 36 3 53 4c-4 -14 -7 -29 -14 -43
c-7 -12 -23 -36 -24 -49zM212 142c-18 -2 -35 -4 -53 -6c-12 -2 -25 -6 -38 -6c-2 63 -5 126 -5 189c0 82 -3 167 7 248c2 20 2 39 2 58c0 35 -2 70 -3 105h20c16 0 31 2 46 6c7 1 13 2 19 2c4 0 7 0 10 -1v-42c0 -33 2 -67 2 -100c0 -69 -4 -139 -5 -208z" />
    <glyph glyph-name="m" unicode="m" horiz-adv-x="795" 
d="M224 497c-4 -6 -11 -14 -11 -22c0 -3 1 -7 5 -7c2 0 4 2 6 3c-1 -6 -1 -23 8 -23s18 10 18 18c0 5 -2 9 -4 12v21c4 6 8 12 14 16c22 21 80 42 110 42c59 0 89 -47 119 -89c8 -1 16 8 20 13c20 22 71 58 101 58c16 0 51 -20 67 -28c10 -4 44 -20 48 -27
c7 -13 29 -87 29 -101c0 -21 3 -42 3 -63c6 -9 7 -85 7 -100c0 -36 1 -86 -3 -120c0 -5 -2 -9 -2 -13c0 -6 3 -14 10 -14c13 0 12 9 12 18c0 84 -1 167 -6 250c-3 50 -10 108 -34 152c-2 4 -7 13 -9 15c-5 4 -12 8 -18 12c-31 20 -68 37 -106 37c-12 0 -24 -1 -35 -7
c-28 -14 -56 -33 -78 -55c-27 48 -72 80 -128 80c-42 0 -90 -25 -120 -53c1 8 1 16 1 24c0 4 -2 9 -8 9c-15 0 -15 -47 -16 -58zM781 72c-9 0 -17 -6 -17 -15l-21 -51l-7 2l3 -2l-1 -1c-7 1 -18 5 -24 7c-13 5 -27 6 -41 6c-20 0 -40 -2 -60 -6c6 7 37 51 37 55
c0 5 -7 8 -11 9l-33 -38l15 155c2 23 4 45 4 68c0 21 -3 75 -15 92c-8 12 -24 33 -40 33c-13 0 -28 -13 -38 -21c8 29 31 94 67 94c37 0 47 -52 56 -80c5 -14 5 -51 5 -67v-99c0 -35 -9 -70 -15 -105c-1 -5 -2 -10 -2 -14c0 -12 2 -24 15 -26c22 -3 44 -2 66 -6h7
c6 0 17 3 17 11s-11 10 -17 10c-19 0 -37 -3 -56 -3c-14 0 -15 6 -15 19c0 17 5 35 10 52c11 39 11 133 11 177s-16 151 -74 151c-55 0 -93 -73 -96 -121c-3 -38 0 -77 0 -115c0 -48 -3 -91 -11 -138c-15 -1 -30 -4 -46 -4c-12 0 -23 5 -34 10c2 28 5 56 5 84
c0 23 -3 45 -4 67c-2 30 -3 60 -5 90c-3 43 -26 123 -80 123c-47 0 -76 -60 -98 -95c-13 -21 -14 -100 -14 -128c0 -42 2 -84 2 -126c0 -14 -1 -27 -1 -40l-98 2l-2 -2c-1 9 0 18 -1 26l-1 98v102c0 31 0 62 1 93c0 14 2 27 2 40c0 27 -1 53 -3 80c6 -4 13 -4 20 -4
c20 0 40 5 60 5c6 0 24 1 24 10c0 8 -11 11 -18 11c-4 0 -7 -1 -11 -2c-14 -4 -28 -5 -43 -5c-11 0 -22 3 -34 5c1 2 1 3 1 4c0 6 -5 11 -10 11c-9 0 -10 -7 -13 -13l-69 -118c-5 -3 -10 -8 -10 -15c0 -6 5 -11 10 -14c-2 -5 -1 -15 -1 -20c0 -84 11 -168 11 -252
c0 -39 0 -78 -5 -117c-1 -7 -1 -14 0 -22c-2 -4 -2 -8 -2 -12c0 -8 1 -11 9 -11c16 0 32 7 47 10c12 3 24 3 35 3c26 0 52 -2 78 -2c7 0 20 0 20 10c0 3 -4 13 -8 8c1 31 10 41 21 68c1 -1 2 -1 3 -1c10 0 9 16 9 23c0 13 -3 26 -3 39c-2 43 -2 85 -2 128c0 33 0 67 7 101
c2 -2 4 -2 6 -2c17 0 -1 24 42 35h4c16 0 22 -26 33 -35h1c8 0 12 -41 13 -48c2 -24 5 -48 5 -72c0 -13 -1 -25 -4 -38c-11 -48 -24 -96 -24 -146c0 -13 1 -42 11 -52c-1 -2 -5 -15 -5 -16c0 -6 1 -9 8 -9h4c39 7 70 26 112 26c8 0 15 -5 23 -5c13 0 19 29 22 38
c6 18 13 36 17 54c4 2 4 5 4 9l7 84c1 14 3 28 3 42c0 10 -2 20 -3 31c-1 24 -2 47 -2 71c0 3 0 7 1 10c7 8 32 35 43 35l1 -1c11 -2 26 -25 31 -35s6 -66 6 -81c0 -66 -10 -132 -19 -198c-1 -13 -3 -25 -3 -38c0 -3 1 -21 4 -21c5 0 10 5 12 8c3 -1 6 -1 10 -1
c16 0 32 2 48 2c36 0 43 -3 75 -16c3 -2 7 -3 11 -3c7 0 7 3 9 8c4 11 8 23 13 34c6 14 17 26 17 42c0 3 -1 7 -4 7zM45 425l58 89c5 -13 6 -69 6 -86c0 -98 -3 -196 -3 -294c0 -17 3 -33 4 -50h-5l-53 -74c4 42 8 84 8 126c0 7 1 16 -1 23v5c0 21 -5 42 -7 62
c-4 59 -4 119 -4 178c0 7 0 14 -3 21zM190 -6h-83c-18 0 -36 -4 -54 -9c15 32 40 54 60 83l107 -3c-10 -10 -25 -56 -30 -71zM477 16h-12c-35 0 -75 -9 -109 -22c5 9 28 52 32 56c6 5 17 12 17 21c0 5 -4 8 -8 8c-15 0 -20 -15 -27 -25c-7 -11 -16 -22 -24 -32v20
c0 36 2 73 10 109c10 41 15 84 15 127c0 14 -1 30 -5 44c-7 21 -14 28 -21 45c-7 14 -19 43 -38 43c-11 0 -29 -11 -38 -17c10 17 40 58 61 58c17 0 35 -21 44 -33c29 -38 30 -132 30 -179c0 -46 -3 -92 -5 -137v-4c-1 -5 0 -9 2 -14c32 -2 65 -5 97 -5z" />
    <glyph glyph-name="n" unicode="n" horiz-adv-x="581" 
d="M214 95c-3 0 -6 -1 -8 -4c-8 1 -16 2 -25 2c-22 0 -43 -5 -65 -6c3 48 2 97 3 146l3 264l7 11c-1 7 -5 19 -11 24c10 6 37 10 48 10c12 0 22 -9 32 -9c4 0 7 4 7 8c0 15 -28 21 -40 21s-51 -9 -62 -15l-66 -77c-4 -4 -9 -9 -9 -15c0 -3 2 -6 5 -6c15 0 40 40 50 51
c7 8 15 16 22 23c-5 -71 -2 -143 -2 -215c0 -74 -6 -148 -6 -222c0 -18 18 -20 32 -20c17 0 33 8 51 8c6 0 12 -1 19 -2l-44 -65c-26 -1 -53 -1 -80 -1c-8 0 -21 -2 -21 -13c0 -5 2 -7 7 -7c11 0 22 5 34 5h51c0 -1 -1 -2 -1 -3c0 -5 7 -6 11 -6c5 0 9 4 11 8h18s9 6 9 12
c0 8 -11 7 -17 6c12 21 22 45 36 64c4 5 9 9 9 15c0 5 -4 8 -8 8zM89 80c-7 0 -38 -49 -43 -57c0 71 -1 141 -3 212c-1 18 -3 36 -3 53c-1 46 0 92 0 138c0 7 -3 18 -12 18c-11 0 -7 -22 -7 -28c-1 -6 -1 -22 -1 -29c0 -61 3 -123 7 -184c1 -27 4 -54 4 -81
c0 -29 -4 -58 -4 -87c0 -8 3 -47 15 -44l1 -1c9 1 32 47 38 56c6 8 16 16 16 26c0 5 -4 8 -8 8zM338 33c0 -7 0 -18 10 -18c8 0 16 10 16 18c0 14 18 41 18 51c0 6 -4 12 -10 12c-4 0 -7 -2 -9 -5c3 66 7 132 7 199c0 34 -1 96 -49 96c-27 0 -58 -23 -77 -42
c4 27 11 67 27 89c12 17 39 21 58 21c12 0 25 -1 38 -5c37 -13 35 -77 41 -109c2 -14 3 -28 3 -42c0 -31 -3 -63 -6 -93c-4 -36 -11 -72 -11 -108c0 -8 1 -21 12 -21c6 0 8 6 8 11c0 2 0 4 -1 6l-1 -7l3 53c3 49 11 99 11 148c0 37 0 164 -41 177c-16 5 -33 7 -49 7
c-15 0 -29 -1 -44 -4c-39 -9 -58 -51 -62 -88c-6 -63 -14 -126 -14 -190c0 -15 3 -99 22 -99c5 0 5 10 5 14c0 9 -4 18 -4 28l-1 62c-3 7 -2 17 -2 25c0 32 2 65 5 97c16 20 56 48 82 48c27 0 28 -42 28 -61c0 -63 -1 -126 -5 -188c-1 -17 -1 -35 -3 -52
c-2 -10 -5 -20 -5 -30zM365 567c-16 0 -32 0 -47 -4c-28 -6 -62 -38 -83 -57l1 11c0 10 -1 31 -16 31c-8 0 -9 -18 -9 -23c0 -19 1 -38 1 -57c0 -6 3 -17 11 -17c17 0 12 23 12 34c56 48 63 63 141 63c14 0 29 0 43 -3c13 -3 44 -20 50 -32c6 -13 8 -15 18 -25
c17 -14 29 -51 29 -73v-20c0 -26 3 -52 3 -79c0 -54 -22 -108 -22 -162c0 -5 1 -23 9 -23c9 0 12 7 12 15c0 6 -1 12 -1 17c0 38 9 80 14 117c-3 -45 -1 -90 -1 -135c0 -10 0 -21 -2 -31c-36 -2 -75 0 -110 -9c-1 -3 -1 -6 -1 -9c0 -7 5 -10 11 -10c32 0 66 5 98 7l-1 -11
c-8 -9 -15 -20 -24 -29c-4 -5 -11 -7 -11 -14c0 -5 5 -10 10 -10c11 0 36 38 43 48l3 18c0 -5 1 -22 8 -22c13 0 10 64 10 75c1 36 1 73 3 109c1 20 4 39 4 59c0 23 -1 49 -7 72c-4 18 -19 35 -28 51c-8 12 -14 25 -19 38c-7 18 -15 36 -33 46c-11 5 -20 19 -29 28
c-18 16 -66 16 -90 16zM546 118c-1 9 -3 18 -3 28c0 24 2 49 2 74c0 57 0 113 -2 170c8 -19 9 -40 9 -61c0 -70 -5 -141 -6 -211zM365 11c-8 0 -15 2 -23 2c-6 0 -11 -2 -11 -9c0 -13 17 -14 27 -14c41 0 82 11 123 11c8 0 34 0 34 13c0 8 -17 8 -23 8c-14 0 -28 -4 -42 -6
c-28 -3 -57 -5 -85 -5z" />
    <glyph glyph-name="o" unicode="o" horiz-adv-x="607" 
d="M363 176c15 0 35 1 48 8c58 28 85 91 85 154c0 49 -12 91 -49 125c-18 18 -50 24 -75 24c-20 0 -86 -13 -86 -37c0 -8 5 -8 10 -6c-13 -11 -25 -24 -34 -38c-13 -24 -21 -80 -21 -108c0 -23 3 -47 16 -66s43 -46 65 -52c13 -3 28 -4 41 -4zM378 477c-3 0 -7 -1 -11 -1
c3 0 6 1 9 1h2zM367 471c20 0 52 -7 65 -24c14 -18 41 -46 41 -70c0 -16 1 -32 1 -48c0 -18 0 -38 -7 -54c-14 54 -58 115 -119 115c-13 0 -50 -4 -59 -12l-21 -8c12 36 56 101 99 101zM264 352c22 0 44 18 71 18c19 0 34 -5 49 -15c17 -11 49 -34 53 -54
c3 -17 2 -47 11 -61c-21 -34 -55 -45 -94 -45c-66 0 -93 69 -93 125c0 11 1 22 3 32zM569 200c17 35 28 70 28 109c0 48 0 105 -39 139c-20 18 -33 39 -49 60c-45 56 -99 72 -168 72c-27 0 -53 -2 -79 -7c1 1 5 5 5 6c0 5 -5 8 -10 8c-4 0 -51 -15 -57 -18
c-72 -35 -140 -133 -160 -209c-11 -43 -20 -88 -20 -133c0 -36 8 -72 18 -107c15 -56 84 -95 139 -103c27 -4 55 -9 82 -17c24 -7 39 -12 65 -12c27 0 65 8 83 29c25 11 53 22 75 39c21 16 37 37 53 57c21 26 39 43 38 79v8h-4zM283 557c24 0 49 -2 72 -4
c45 -4 71 -34 107 -55c25 -15 38 -43 57 -65c32 -38 65 -86 65 -138c0 -41 -20 -78 -46 -109c-7 -9 -12 -20 -19 -29c-34 -49 -89 -56 -145 -56c-42 0 -84 5 -125 16c-28 26 -57 49 -88 72c-36 27 -37 73 -37 113c0 54 7 121 35 168c16 28 58 67 87 81c12 5 24 6 37 6z
M338 11c-47 0 -96 7 -140 19c-16 5 -32 7 -48 11c-42 13 -84 48 -100 88c-9 24 -12 81 -12 108c0 116 51 246 156 304c-78 -81 -86 -141 -86 -249c0 -20 0 -58 8 -75c10 -21 61 -61 81 -78c6 -6 11 -13 18 -18c32 -29 117 -36 158 -36c87 0 141 23 186 99
c-6 -37 -47 -79 -71 -108c-18 -20 -104 -59 -131 -64c-7 -1 -13 -1 -19 -1z" />
    <glyph glyph-name="p" unicode="p" horiz-adv-x="635" 
d="M60 470c-2 -5 -8 -18 -15 -18c-6 0 -9 8 -9 13c0 19 37 70 49 89c8 13 16 26 22 41c1 17 18 18 31 18l150 5c6 0 6 -13 6 -17c0 -11 -1 -23 -1 -35c39 38 56 46 111 46c51 0 98 -19 133 -55c10 -11 44 -63 48 -76c9 -31 19 -62 29 -92c7 -23 11 -46 11 -69
c0 -24 -4 -54 -16 -75c-35 -66 -115 -146 -194 -146c-54 0 -102 44 -132 86c-4 6 -8 12 -8 20s8 14 15 14c3 0 8 -19 8 -23c30 -33 74 -72 121 -72c53 0 99 39 136 72c36 33 47 59 47 107c0 53 -21 148 -47 194c-35 61 -90 91 -160 91c-75 0 -93 -55 -116 -55
c-4 0 -8 4 -8 7l-1 53h-129l-2 1c-20 -1 -61 -110 -79 -124zM120 593c14 -56 16 -116 16 -174c0 -74 -8 -148 -14 -223v-21c0 -20 1 -40 1 -60c0 -58 -1 -117 -9 -175v-9c0 -12 6 -21 19 -21c30 0 56 25 86 25c10 0 20 5 31 5c3 0 7 -1 10 -1c20 0 18 37 18 50
c0 44 -2 90 4 134c1 5 2 10 2 15c0 6 -2 17 -11 17c-12 0 -12 -31 -12 -39c0 -11 2 -21 2 -31c0 -42 -3 -83 -4 -125l-13 1c-23 0 -50 -5 -71 -16c-10 -5 -21 -11 -33 -11c-10 0 -13 6 -13 14c0 10 5 37 6 50c3 38 5 76 6 114c4 135 9 270 9 405c0 13 0 89 -16 89
c-6 0 -11 -8 -14 -13zM20 423c0 -7 1 -14 2 -21c5 -28 4 -56 6 -85v-3c2 -46 13 -90 13 -136c0 -19 -3 -37 -4 -55c-1 -37 0 -73 -2 -110c-3 -53 -10 -107 -10 -161c0 -7 2 -21 11 -21c29 0 43 68 71 82c1 3 1 5 1 8c0 2 0 7 -4 7c-10 0 -55 -61 -61 -72c4 83 7 166 10 249
c1 27 3 54 3 81c0 15 -4 29 -5 44c-4 37 -8 74 -8 112c0 12 1 25 1 37s0 59 -17 59c-7 0 -7 -10 -7 -15zM272 89c15 -53 67 -88 122 -88c24 0 42 8 60 24c19 17 63 52 76 71c22 35 64 120 70 159l13 12l-5 10c-14 -1 -24 -10 -28 -23c-8 -30 -19 -79 -35 -105
c-17 -27 -50 -75 -76 -92c-12 -7 -30 -18 -44 -18c-4 0 -7 1 -10 1c-9 0 -12 -11 -9 -17c-6 -1 -12 -2 -17 -2c-24 0 -50 10 -65 28c-5 5 -28 34 -27 38c-2 6 -7 16 -15 16c-6 0 -12 -6 -13 -11zM333 414c26 0 61 -13 73 -38c4 -11 12 -63 26 -63c8 0 16 13 16 20
s-3 8 -8 11c-14 7 -6 88 -103 88c-22 0 -49 -8 -62 -27c-2 -5 -9 -15 -9 -20v-1c16 12 47 30 67 30zM333 503c-15 0 -34 -16 -45 -26c-18 -15 -27 -42 -27 -65c0 -6 0 -12 2 -19c-2 -5 -2 -11 -2 -17c0 -17 2 -45 12 -58c19 -24 35 -51 54 -76c10 -12 21 -19 37 -19
c22 0 46 13 63 25c42 28 50 81 50 128c0 22 -2 47 -18 65c-6 7 -13 13 -19 21c-15 22 -55 26 -79 34c-9 2 -18 7 -28 7zM381 242c-5 0 -10 1 -15 2c-29 4 -80 87 -85 115c-1 8 -2 17 -2 26c0 33 8 96 53 96c42 0 113 -30 125 -74c4 -15 6 -30 6 -46c0 -28 -8 -57 -25 -81
c-14 -18 -32 -38 -57 -38z" />
    <glyph glyph-name="q" unicode="q" horiz-adv-x="578" 
d="M559 -98v49c0 33 3 66 3 99c0 55 -2 110 -2 165c0 72 1 143 1 215c0 34 1 70 -2 104c-2 13 -10 14 -21 15l-71 1c-11 0 -22 5 -33 5c-20 0 -23 -12 -23 -29c0 -6 0 -13 2 -19c-8 36 -42 50 -75 50c-24 0 -47 -2 -70 -9c-1 10 -8 16 -18 16h-8c-78 -17 -114 -48 -155 -114
c-35 -57 -67 -126 -67 -194c0 -13 1 -26 4 -39c11 -65 23 -116 77 -160c39 -32 98 -54 148 -59c6 -7 54 -19 64 -19c11 0 21 5 31 7c-2 -40 -4 -80 -4 -120c0 -15 -1 -57 8 -68c5 0 11 1 15 5c31 -17 67 -19 101 -19c11 0 20 2 20 15c0 8 -26 5 -31 5c-13 0 -65 7 -74 14
l45 60c4 5 8 5 8 12c0 6 -3 12 -7 16c-2 24 -3 48 -3 72c0 34 5 68 5 102c0 8 0 20 -11 16c0 2 1 3 1 4c0 3 -1 5 -3 7c-1 1 -2 2 -4 2c-6 0 -15 -10 -19 -15c-23 -26 -68 -28 -100 -28c-51 0 -92 30 -126 65c-12 13 -45 63 -52 79c-4 13 -5 33 -5 47c0 67 25 162 71 212
c30 33 74 63 119 63c33 0 60 -20 70 -20c7 0 13 3 20 3c9 0 17 -45 32 -45c11 0 11 46 11 54l5 5c33 -1 70 3 102 -6c1 -40 4 -81 4 -122l-1 -390c0 -37 -2 -74 -3 -111c-13 -6 -27 -9 -41 -9c-12 0 -25 3 -38 3c-9 0 -14 -4 -14 -13c0 -16 32 -13 42 -13c15 0 42 0 55 8
c1 -1 2 -3 2 -5c0 -10 -28 -47 -28 -70c0 -4 2 -9 7 -9c15 0 26 47 32 58s13 23 13 37c0 6 -3 12 -9 15zM339 0c-9 -2 -19 -3 -29 -3c-6 0 -11 1 -17 2c20 2 39 10 57 18c-4 -6 -8 -11 -11 -17zM407 66v-19c0 -41 -4 -82 -4 -122c0 -11 3 -22 4 -32l-45 -66
c0 18 0 130 5 137c3 5 11 12 11 18c0 8 -12 9 -17 10l1 13zM91 251c0 -78 37 -115 90 -165c31 -29 67 -40 108 -40c23 0 73 7 93 16l-8 -11c-36 -22 -58 -33 -102 -33c-21 0 -42 3 -62 8c-80 20 -128 58 -158 136c-9 26 -13 54 -13 81c0 59 16 132 50 181
c28 40 68 103 125 98l11 5c-15 -10 -29 -20 -44 -31c-69 -54 -90 -162 -90 -245zM343 432c-50 0 -82 -34 -110 -71c-13 -18 -17 -38 -17 -60c0 -19 3 -37 7 -55c12 -54 37 -85 96 -85c86 0 139 47 139 135c0 31 -12 60 -25 87c-5 12 -10 25 -26 25c-4 0 -9 -1 -9 -5
c0 -7 13 -18 17 -25c19 -28 26 -66 26 -100c0 -65 -52 -96 -111 -96c-58 0 -95 49 -95 104c0 54 37 125 98 125c52 0 54 -48 66 -48c7 0 7 9 7 13v6c-7 34 -29 50 -63 50zM300 356c-16 0 -56 -6 -56 -28c0 -3 3 -13 7 -13c5 0 20 23 52 23c29 0 77 -31 83 -60
c3 -14 6 -30 7 -45c0 -4 0 -14 6 -14c10 0 20 18 20 26c0 4 -3 23 -11 18c0 55 -57 93 -108 93z" />
    <glyph glyph-name="r" unicode="r" horiz-adv-x="424" 
d="M66 -7c0 -4 3 -10 7 -10c7 0 17 7 24 9c15 5 30 8 46 11c3 -1 6 -1 9 -1c12 0 21 8 21 21c-5 3 -11 4 -17 4c-9 0 -17 -3 -26 -4c-14 -3 -64 -11 -64 -30zM269 549c0 3 -1 6 -1 9c0 15 5 30 5 45c0 4 0 6 -4 6c-9 0 -16 -11 -18 -18c-1 5 -5 7 -9 7c-18 0 -35 -7 -53 -7
h-32c-21 0 -37 -1 -50 -19c-13 -21 -26 -43 -38 -65c-6 -10 -10 -22 -17 -31c-3 -5 -8 -9 -8 -15c0 -7 7 -13 13 -13c9 0 8 18 9 24c1 14 43 65 54 79v-42c0 -44 -4 -89 -6 -134c-2 -48 -4 -97 -6 -145c-1 -35 0 -70 -8 -104c-2 -10 -3 -20 -3 -30c-14 -11 -31 -45 -39 -61
c0 60 1 121 1 181c0 57 -2 131 -12 186c-1 5 -3 11 -4 16c-1 6 0 22 -9 22c-11 0 -14 -5 -14 -15c0 -22 7 -42 10 -63c4 -23 4 -46 5 -69c1 -13 3 -25 4 -38c2 -30 3 -59 3 -88c0 -51 -3 -103 -6 -154c-1 -8 -3 -16 -3 -23c0 -5 1 -19 8 -19c12 0 36 58 44 70
c7 12 30 35 26 50l87 1c-2 -12 -13 -39 -13 -50c0 -4 3 -10 9 -10c13 0 24 53 26 60c13 -1 25 16 30 27c-8 28 -8 57 -8 86c0 49 2 96 9 145c21 15 58 35 84 35c7 0 13 -2 20 -2c14 0 10 3 17 12c8 12 11 61 29 75c6 4 10 8 10 16c0 5 -2 11 -2 17c0 23 5 45 5 68
c0 8 -2 20 -12 20c-41 0 -103 -11 -133 -42zM357 410c-53 -7 -55 -6 -101 -36c1 8 3 16 7 22c25 44 39 86 98 86c7 0 14 -1 20 -4zM389 503c-9 1 -17 1 -26 1c-18 0 -35 -3 -51 -13c-41 -26 -63 -60 -75 -107c-10 -42 -15 -86 -15 -129v-74c0 -12 1 -57 7 -65
c-7 -1 -14 -3 -21 -3l-90 1l9 162c5 93 12 186 12 280v10c21 2 97 5 109 17c-3 -14 -3 -28 -3 -42c0 -6 1 -36 9 -36c11 0 17 11 24 18c9 10 42 30 54 36c13 5 27 7 41 7c7 0 13 0 20 -1c-2 -21 0 -42 -4 -62z" />
    <glyph glyph-name="s" unicode="s" horiz-adv-x="532" 
d="M468 349c7 0 13 7 13 14c0 8 -30 4 -35 4c-19 14 -43 18 -65 24l5 23c14 -6 36 -6 51 -6c13 0 26 0 39 1c-2 -6 -7 -24 -7 -29s4 -9 9 -9c10 0 16 34 17 41c9 3 10 10 10 19c0 4 -1 7 -6 5v9c0 11 -4 23 -8 33c-13 27 -32 51 -50 73c-25 31 -80 52 -119 52
c-48 0 -93 -17 -133 -43c-12 -8 -22 -17 -33 -25c-40 -24 -66 -42 -88 -84c-13 -23 -22 -44 -27 -70c-4 -20 -11 -40 -11 -60c0 -26 32 -53 49 -69h3c-4 -6 -6 -15 -6 -22c0 -16 17 -52 23 -68c7 -18 28 -42 45 -52c23 -16 51 -25 76 -35c18 -7 35 -10 54 -10c9 0 18 0 27 1
c22 2 109 34 131 45c17 9 32 22 45 36c-33 -93 -158 -138 -249 -138c-32 0 -102 10 -126 30c-32 27 -56 74 -63 115c8 21 31 76 31 95c0 3 -1 5 -4 5c-12 0 -26 -57 -31 -67l-15 -30v-16s7 -19 7 -21c14 -38 32 -85 70 -104c39 -19 84 -28 127 -28c52 0 102 15 152 28
c20 6 72 45 84 62c13 20 26 30 32 55c4 14 9 28 11 43c13 15 19 28 19 49c0 7 -2 15 -4 22c-12 59 -2 60 -50 102zM52 333c0 19 2 36 9 53c7 18 22 66 37 77c-8 -17 -11 -36 -11 -54v-10c3 -36 23 -56 50 -77c35 -28 67 -51 112 -60c34 -7 71 -10 103 -24
c7 -3 30 -13 30 -21c0 -9 -34 -20 -41 -23c1 2 2 4 2 7c0 13 -55 36 -67 36c-10 0 -50 -8 -50 -21c0 -5 3 -11 9 -11c7 0 24 11 38 11c16 0 38 -15 49 -25c-15 -1 -31 -1 -46 -1c-21 0 -34 4 -50 18c-14 11 -16 17 -18 34c0 7 -3 16 -11 16h-3c-1 -3 -6 -2 -8 -2
c-24 0 -48 5 -72 7c-11 2 -19 7 -27 15c-22 22 -35 19 -35 55zM279 90c-40 0 -113 28 -144 54c-8 7 -17 24 -17 34c0 6 -12 23 -16 29l-5 24l10 6l75 -4c9 -17 23 -40 37 -53c12 -11 21 -13 36 -13c10 0 20 1 30 1c12 0 25 -1 38 -1c34 0 80 18 80 58c0 16 -14 22 -26 28
c-61 32 -99 20 -156 39c-44 14 -117 66 -117 117c0 34 37 77 58 102c5 6 9 12 15 17c18 15 44 25 65 35c23 12 49 16 74 16c19 0 50 -3 63 -18c17 -8 52 -26 63 -41c17 -26 31 -52 41 -82l-1 -4c-2 0 -4 1 -7 1c-14 0 -28 -6 -43 -6s-29 5 -42 13c-6 51 -33 69 -83 69
c-35 0 -69 -14 -91 -43c-4 -5 -7 -11 -7 -18c0 -16 16 -33 27 -43c41 -38 98 -30 149 -40c37 -8 66 -40 96 -62c12 -10 15 -38 14 -53v-4c-6 4 -6 -14 -6 -17c-2 -17 -1 -35 -5 -52c-5 -16 -60 -45 -76 -53c-40 -20 -83 -36 -129 -36zM297 454c-16 0 -42 -12 -57 -19
c-4 1 -6 6 -6 11c0 27 51 41 73 41c15 0 30 -7 43 -14c22 -12 10 -25 20 -45l-8 -33l-11 2c1 3 2 7 2 10c0 29 -30 47 -56 47zM335 400c-24 4 -65 4 -83 20c9 9 22 15 35 15c21 0 39 -16 48 -35z" />
    <glyph glyph-name="t" unicode="t" horiz-adv-x="392" 
d="M344 539c-11 0 -21 -2 -31 -4c-4 2 -8 3 -13 3c-7 0 -11 -5 -11 -12c0 -6 0 -13 7 -13s14 3 21 3c6 0 11 -1 16 -1c4 0 7 0 11 1l16 -54l-1 -5c-10 0 -20 1 -30 1c-13 0 -67 -3 -71 -18c-2 -10 -1 -22 -1 -32v-64c0 -47 -8 -159 31 -197c3 -2 9 -8 13 -8l47 -2l2 -64
c-36 -3 -72 -5 -108 -5c-5 0 -9 0 -14 1c-36 7 -54 68 -55 99c-4 94 -2 188 -2 282l-66 3l5 84l2 1c1 -3 3 -16 7 -16c5 0 9 1 9 6c0 4 -1 7 -2 10c13 -1 25 -6 37 -11c11 0 13 27 13 35c0 28 -5 57 -7 86c14 5 55 6 72 6h27c1 -22 1 -44 1 -66c0 -11 -2 -22 -2 -33
c0 -8 1 -21 12 -21c7 0 11 5 11 12c0 4 -1 8 -3 12c0 21 -1 98 -11 112c-5 8 -19 7 -27 7c-21 0 -42 -3 -62 -8c-5 -1 -10 -2 -15 -2s-11 1 -16 1c-7 0 -28 -5 -28 -14c0 -5 8 -8 12 -9l-34 -40l-2 -7l-5 -6c1 -10 2 -20 4 -30c-10 -2 -17 -9 -22 -17
c-13 -20 -26 -39 -39 -58c-9 -13 -22 -29 -22 -46c0 -3 1 -6 2 -10c7 -22 12 -45 15 -68c2 -9 4 -38 16 -38c7 0 21 11 34 11c7 0 14 -4 21 -4c11 0 14 7 14 17c0 2 0 3 -1 5c15 19 22 44 32 65c-1 -30 -2 -60 -2 -90c0 -42 4 -85 4 -127c0 -9 -2 -19 -2 -28
c0 -24 5 -66 22 -84c20 -20 27 -40 59 -40h91l-16 -35c-10 -1 -21 -2 -31 -2c-65 0 -135 23 -144 97c-3 28 -3 56 -3 83c0 18 0 36 -1 54c-1 8 -3 17 -3 25v4c0 13 -4 43 -22 43c-5 0 -10 -1 -10 -7c0 -16 11 -33 13 -50c3 -31 8 -63 8 -94c0 -12 -2 -24 -2 -36
c0 -34 6 -79 34 -103c36 -28 89 -38 134 -38c50 0 48 22 63 62l14 3h1c8 -1 8 36 8 41c0 12 1 25 0 37c-2 47 -74 -9 -88 69c-4 21 -4 42 -4 63c0 54 1 109 3 163c18 7 45 5 65 5l-23 -58c-3 -7 -6 -11 -14 -11c-6 0 -10 3 -16 3c-4 0 -4 -10 -4 -13c0 -12 16 -13 25 -13
c12 0 18 9 22 18c8 15 26 61 28 75c9 2 20 5 20 16c0 19 -14 50 -20 68c-1 5 -2 12 -5 16c-1 4 -10 4 -13 4zM150 628c2 -24 3 -48 3 -72c-10 0 -20 1 -30 4c-2 11 -3 21 -6 32zM55 366l-16 87c16 23 29 49 49 68c-4 -25 2 -53 -3 -77c-6 -26 -21 -53 -30 -78zM104 360h-6
c-9 1 -18 -2 -26 -5l32 78c12 -1 23 0 35 -1z" />
    <glyph glyph-name="u" unicode="u" horiz-adv-x="549" 
d="M419 555c-8 0 -27 -55 -31 -64c-5 -13 -16 -41 -27 -48c-4 -3 -7 -4 -7 -9c0 -6 2 -11 2 -17c0 -31 3 -63 3 -94c0 -21 -1 -66 -8 -84c-7 -17 -13 -33 -16 -51c-10 -1 -19 -2 -29 -2c-44 0 -68 18 -82 59c-8 23 -15 47 -15 72c0 12 3 25 3 37c0 35 -5 69 -5 103
c0 24 6 49 10 73c1 1 3 4 3 6c0 18 -62 20 -76 22c-5 1 -11 3 -17 3c-8 0 -19 -3 -19 -12c0 -13 21 -11 30 -11c20 0 40 -4 59 -7c-4 -25 -9 -49 -9 -74c0 -24 5 -48 5 -71c0 -9 -1 -17 -1 -25c0 -36 3 -110 19 -141c20 -38 48 -47 89 -53c5 0 9 -1 14 -1c44 0 89 33 100 76
c8 33 14 66 20 99c2 11 6 23 6 34v100c0 18 -3 36 -4 53l74 -1l5 -13c-3 -57 -5 -113 -5 -169c0 -28 3 -55 3 -82c0 -47 -1 -133 -15 -175l-77 -2c-6 0 -6 10 -6 14c0 20 12 39 12 59c0 7 -4 10 -10 10c-10 0 -11 -11 -11 -18c-2 -1 -3 -3 -4 -4c-18 -21 -69 -45 -97 -45
c-11 0 -22 1 -33 1c-18 0 -36 -4 -54 -4c-12 0 -20 2 -28 12c-7 8 -15 17 -21 26c-25 40 -47 157 -47 205c0 7 1 15 1 23c0 51 0 104 -6 155c0 3 1 6 1 9c0 9 -7 15 -16 14c1 3 2 7 2 10c0 4 -2 9 -6 9c-3 0 -9 -4 -10 -6l-62 -121c-6 -11 -6 -57 -6 -72
c0 -55 4 -150 24 -201c19 -45 21 -84 62 -118c37 -31 85 -43 133 -43c22 0 94 14 107 31l8 11l13 -4c1 -14 1 -32 4 -46c2 -7 11 -12 18 -12c14 0 28 3 41 3c16 0 30 -10 46 -10c15 0 30 26 30 40c0 5 -1 10 -1 15c0 19 11 27 11 35c0 4 -1 8 -3 11c12 135 26 269 26 404
c0 19 -1 38 -1 57c0 9 -10 9 -17 9c-21 2 -70 0 -87 5c-4 1 -10 5 -15 5zM356 195c2 5 4 9 6 13c11 26 17 79 17 108c0 36 -2 72 -4 108c6 6 10 12 12 20c7 23 19 43 30 64h1c1 -35 2 -70 2 -105c0 -36 -6 -71 -11 -107c-1 -9 -1 -19 -4 -28c-5 -22 -31 -61 -49 -73zM399 98
l1 -28l4 -2l-18 -43v3c0 7 -7 10 -7 18c0 19 15 34 20 52zM234 23c-18 0 -55 5 -71 12c-42 17 -78 65 -92 107c-20 55 -32 113 -32 171c0 40 3 79 5 118c18 35 35 71 54 105v-5c0 -9 2 -17 4 -26s2 -20 2 -29c0 -51 -2 -102 -2 -153c0 -56 9 -117 36 -167
c20 -34 36 -79 82 -79c19 0 39 5 58 4h22c30 0 52 8 78 22l-3 -17c-33 -7 -17 -35 -50 -49c-21 -9 -68 -14 -91 -14zM491 32c-8 -7 -6 -20 -6 -29c0 -1 0 -5 -1 -5c0 0 -1 1 0 2c-2 -4 -6 -5 -9 -5c-5 0 -9 2 -13 3c-18 7 -39 6 -57 6l14 58l80 2c-4 -10 -6 -21 -8 -32z" />
    <glyph glyph-name="v" unicode="v" horiz-adv-x="583" 
d="M466 588c-8 0 -13 -5 -15 -12c-12 -32 -23 -65 -35 -97c-27 -68 -56 -134 -81 -202c-13 31 -27 61 -40 92s-15 67 -31 98c-11 20 -32 62 -36 85c3 0 7 2 7 6s-6 7 -9 8c-1 7 -6 16 -14 16c-7 0 -9 -5 -8 -11c-10 2 -20 2 -31 3c-28 1 -55 12 -83 12c-11 0 -11 -5 -13 -13
c-15 -47 -35 -93 -42 -142c-2 1 -4 1 -6 1c-5 0 -9 -5 -9 -9c0 -10 10 -17 14 -24c42 -65 72 -138 107 -207c23 -46 48 -92 61 -142c3 -12 12 -71 21 -71c4 0 10 12 11 16c37 -8 74 -8 111 -7c1 -1 3 -2 5 -2c9 0 11 24 12 30c1 18 6 35 12 51c8 1 15 7 15 16c0 4 0 8 -3 11
c17 36 26 80 34 119c14 78 77 192 112 267c5 10 41 84 41 87c0 10 -15 12 -22 13c-25 2 -51 0 -76 6c-3 1 -6 2 -9 2zM95 565h3l-4 -1zM51 412c3 43 22 92 37 133c39 -94 75 -190 112 -285c7 -16 14 -32 19 -48c11 -37 21 -74 31 -111l-25 -75c-25 106 -70 177 -117 273
c-19 38 -37 76 -57 113zM341 19c-13 -8 -31 -9 -46 -9c-17 0 -35 2 -53 5c8 21 13 44 22 65c31 -3 63 -2 93 -9c-8 -17 -12 -35 -16 -52zM368 97h-8c-4 0 -7 0 -10 1c-26 7 -52 6 -79 6c-10 47 -19 95 -37 139s-35 88 -51 133c-21 57 -46 138 -79 188c35 -6 69 -13 104 -14
c3 -16 6 -31 12 -46c10 -24 22 -47 31 -71c9 -27 18 -53 28 -79c8 -18 33 -74 34 -89c1 -8 5 -44 15 -44c16 0 27 49 29 62c4 23 12 46 24 66c3 6 8 11 11 17c8 16 13 34 20 50c19 49 36 99 58 146l75 -7c-34 -80 -74 -157 -107 -237c-8 -21 -17 -42 -23 -64
c-14 -53 -26 -106 -47 -157z" />
    <glyph glyph-name="w" unicode="w" horiz-adv-x="786" 
d="M232 40c-8 0 -15 1 -23 1c-9 0 -43 -1 -43 -14c0 -9 11 -10 18 -10c14 0 27 3 40 3c9 0 19 -2 28 -2c10 0 27 1 27 15c0 9 -40 7 -47 7zM610 120c-3 0 -6 0 -5 -1l-3 -57c-1 -7 -5 -13 -5 -20c0 -6 2 -14 9 -14c13 0 20 63 20 75s-2 17 -16 17zM766 625
c-16 2 -32 4 -47 8c-18 5 -33 16 -52 16c-7 0 -30 -2 -30 -12c0 -4 3 -7 6 -9c-23 -98 -46 -196 -84 -290c-5 17 -11 33 -15 50c-6 26 -44 234 -49 240c-3 6 -8 8 -15 8c-9 0 -17 -3 -26 -3c-26 0 -51 3 -77 3c-10 0 -19 -5 -21 -15l-72 -263c-17 56 -65 190 -65 242
c0 2 0 5 1 8c-1 5 -5 26 -12 26c-5 0 -9 -7 -11 -12c-10 9 -34 12 -47 12c-21 0 -41 -4 -60 -9c-3 2 -7 4 -11 4c-7 0 -10 -7 -12 -13c-12 -47 -30 -91 -47 -136h3c-3 -5 -3 -11 -3 -17c0 -20 22 -96 29 -121c20 -77 40 -154 57 -232c5 -25 11 -50 15 -75c1 -5 1 -16 10 -16
c2 0 4 1 6 2c15 10 36 79 55 100c4 4 8 9 8 15c0 5 -4 12 -10 12c-9 0 -47 -75 -54 -87c-16 70 -31 140 -48 210c-10 37 -21 74 -31 111c-5 17 -10 34 -12 52c-1 16 -3 31 -5 47c10 31 21 61 33 92c13 -46 72 -248 98 -270c11 -18 36 -110 36 -131c0 -6 -2 -11 -2 -17
c0 -9 6 -10 13 -10c29 0 56 -11 85 -15c-6 -27 -13 -54 -13 -81c0 -4 2 -17 8 -17s8 14 9 18c5 26 9 53 15 79c12 3 16 15 14 26c12 49 23 99 41 147c6 -14 12 -28 17 -42c8 -20 11 -42 25 -60c11 -50 19 -102 32 -152c1 -6 4 -12 9 -15l1 1c-1 -6 -7 -32 -7 -34
c0 -6 3 -9 9 -9c8 0 9 7 18 7h24c9 0 18 0 27 -1c10 -2 20 -7 31 -7c7 0 19 3 19 11c0 17 -24 15 -35 15c-23 0 -47 4 -70 6l11 98c1 4 3 8 3 13c0 4 -2 10 -8 10c-11 0 -16 -67 -17 -79c-2 31 -18 83 -25 116l-6 29l1 4c-4 6 -16 61 -16 70c0 6 2 13 2 20c0 6 -1 25 -6 27
c-13 -2 -14 -26 -13 -36l-15 42c3 8 6 15 10 23c13 26 19 55 25 83c25 -75 44 -147 44 -227c0 -10 3 -72 20 -66c34 -10 82 -26 117 -26c8 0 24 1 21 13c24 94 61 186 94 277c10 30 57 184 57 207c0 3 -1 6 -5 6c-2 0 -3 -1 -5 -1zM597 144c-3 0 -6 0 -9 1
c-30 11 -60 17 -91 23h-3c-3 0 -9 27 -9 32c-5 26 -7 53 -9 80c-1 9 -1 19 -2 28c-4 27 -34 165 -45 181c-2 3 -4 7 -8 7c-9 0 -11 -33 -11 -40c0 -23 -36 -114 -46 -140c-19 -46 -33 -105 -47 -153v-4c1 -8 -4 -12 -12 -12c-23 0 -47 20 -71 20c-2 0 -4 0 -7 -1
c-4 38 -12 85 -28 119c-33 69 -99 246 -108 318c19 5 38 10 58 10c16 0 50 -11 57 -26c3 -7 4 -15 6 -23l18 -65l49 -177c2 -3 5 -5 8 -5c9 0 12 21 13 27c4 31 10 60 19 89c18 59 35 118 56 176l94 6c11 1 17 -9 19 -18c7 -36 6 -73 12 -109c7 -38 18 -75 27 -113
c6 -22 9 -46 18 -67c3 -7 5 -11 14 -11h5c9 8 8 19 11 28c5 16 12 31 17 47c4 11 6 21 10 32c8 24 19 46 25 71c4 14 6 29 10 43c6 26 14 52 21 78c3 9 5 21 9 30c1 3 4 5 8 5c12 0 49 -25 81 -26c-16 -73 -40 -144 -65 -215c-12 -33 -21 -67 -33 -100
c-14 -42 -30 -83 -43 -125c-3 -11 -5 -21 -18 -21z" />
    <glyph glyph-name="x" unicode="x" horiz-adv-x="607" 
d="M241 86c-16 0 -23 -53 -23 -66c0 -4 2 -9 7 -9c14 0 16 24 17 33c1 11 9 23 9 32c0 5 -4 10 -10 10zM102 558c0 6 -4 29 -11 29c-9 0 -14 -35 -14 -43c-5 -34 -11 -69 -22 -102c2 -3 5 -5 8 -5c20 0 29 83 34 100c2 7 5 14 5 21zM59 39c-2 0 -15 -1 -15 -4
c0 -15 26 -16 37 -17c35 -2 67 -18 101 -18c5 0 24 1 24 8c0 15 -69 21 -82 23c-21 3 -43 8 -65 8zM275 117c-7 0 -9 -7 -18 -7c-43 0 -101 12 -145 17c4 5 10 12 10 18s-7 9 -12 9s-11 -14 -13 -18c-6 -6 -12 -12 -17 -18c7 18 15 36 23 54c10 24 69 114 69 130
c0 2 -1 5 -4 5c-9 0 -21 -14 -25 -22c-14 -23 -27 -46 -39 -70c-14 -29 -25 -58 -40 -86c-8 -17 -18 -33 -28 -49c-5 -6 -11 -14 -15 -22c-1 -2 -1 -7 -1 -10c0 -6 3 -14 11 -14s44 19 44 28c0 5 -9 8 -9 9c0 6 29 36 35 42c21 -9 138 -26 164 -26c10 0 19 10 19 20
c0 6 -3 10 -9 10zM446 95c1 3 1 5 1 8c0 13 -9 28 -19 37c-1 3 -4 7 -8 7c-2 0 -4 -1 -6 -3c-13 21 -24 48 -28 72c-2 16 -3 51 -22 55c-5 1 -13 1 -17 3c-24 -40 -50 -80 -69 -124c-7 -4 -12 -10 -12 -18c0 -6 4 -15 11 -15c6 0 8 6 10 10c6 20 32 71 44 88
c5 7 14 13 20 20c0 -19 -4 -41 -14 -57c1 -6 4 -11 10 -11c8 0 11 17 12 23l11 17c4 -14 7 -28 12 -41c5 -12 30 -67 37 -74c-3 1 -6 1 -9 1c-7 0 -13 -3 -13 -10c0 -11 11 -16 20 -16l-17 -47l-63 126c-2 6 -8 15 -15 15c-6 0 -10 -7 -10 -12c0 -6 68 -138 68 -138
c21 -19 25 -20 54 -20c33 0 63 14 96 14h5c2 -2 4 -3 6 -3c5 0 9 3 13 6c15 12 12 28 12 46c0 16 3 32 9 47c1 1 2 2 2 4c0 4 -14 4 -17 4c-38 0 -76 -8 -114 -14zM544 26c-32 0 -66 -4 -98 -9c-2 -1 -5 -2 -8 -2c-11 0 -3 11 -15 16l14 39l100 14s13 -2 15 -3
c-5 -9 -7 -43 -8 -55zM464 356c15 13 29 28 42 43c5 6 11 12 17 17c10 6 14 4 21 15c2 2 3 4 3 7c0 4 -4 5 -7 6c-1 1 -1 3 -1 5c0 10 3 18 7 26c11 22 16 46 26 68c3 8 9 16 9 25c0 5 -2 10 -6 13c3 4 6 10 6 15c0 2 -1 5 -4 5c-7 0 -20 -18 -24 -24c-10 -1 -20 -1 -30 -1
c-28 0 -56 2 -83 11c-7 3 -14 5 -22 5s-18 -3 -19 -12l-62 -97c-22 26 -13 99 -24 106c-1 1 -3 2 -5 2l-3 -1l-6 -3c-15 6 -30 8 -45 8c-20 0 -40 -3 -59 -9c-11 -4 -34 -11 -44 -11c-7 0 -14 4 -21 4c-8 0 -16 -2 -16 -11c0 -5 2 -10 4 -14c18 -35 26 -76 54 -105
c25 -25 51 -50 76 -75h-1l-49 -48c-5 14 -25 19 -37 25c-36 19 -63 47 -87 77c-3 3 -6 7 -11 7s-10 -7 -10 -12c0 -28 107 -107 136 -107c-2 -2 -3 -5 -3 -7c0 -4 3 -8 7 -8l17 10c-17 -27 -34 -54 -52 -81c-13 -20 -29 -39 -40 -61c0 -7 2 -18 11 -18c13 0 16 17 18 27
c6 23 69 82 89 100l-3 12c12 15 65 75 65 89c0 5 -4 6 -8 6c-6 0 -13 -2 -18 -5c-14 17 -88 104 -97 131c-7 20 -9 39 -36 38h-3l-3 8h10c34 -1 64 18 98 18c28 0 37 -5 61 -18c3 -25 12 -89 28 -106c3 -3 9 -11 14 -11c8 0 18 29 18 36c0 3 -1 6 -2 9c9 15 45 78 59 81
c30 -6 62 -9 93 -9c9 0 18 0 27 1c-24 -30 -47 -61 -71 -92c-14 -17 -51 -51 -51 -72c0 -6 5 -7 10 -7c8 0 12 7 16 13c12 18 24 34 38 51c24 31 47 62 71 93c-7 -17 -29 -78 -29 -93c0 -3 0 -7 1 -10c-12 -5 -53 -54 -65 -67l-20 -1c-2 -3 -2 -6 -2 -9
c0 -15 66 -150 79 -169c-4 3 -8 7 -11 10c-4 4 -46 72 -49 80c-13 29 -19 63 -28 94l-9 11c-3 1 -6 2 -9 2c-7 0 -8 -9 -8 -14c0 -18 27 -86 37 -104c11 -21 82 -138 100 -138c5 0 7 11 8 14c5 -6 38 -49 40 -49c6 0 10 17 10 21c0 15 -27 35 -37 45c-50 52 -72 123 -96 189
z" />
    <glyph glyph-name="y" unicode="y" horiz-adv-x="575" 
d="M329 345c11 0 8 13 8 19c0 39 3 77 6 116c8 9 19 24 20 35c2 13 36 53 46 65c5 5 12 13 12 20c0 5 -5 9 -10 9c-27 -40 -54 -79 -82 -118c-8 -41 -8 -90 -8 -132c0 -4 2 -14 8 -14zM52 437c9 0 14 27 15 34c3 14 5 28 8 43c4 19 12 37 12 57c0 4 -1 16 -6 16
c-16 0 -12 -23 -14 -33c-2 -16 -5 -31 -8 -46c-3 -20 -12 -38 -12 -58c0 -3 0 -13 5 -13zM190 124c0 -22 -10 -80 -7 -95c-8 2 -10 9 -20 9c-7 0 -9 -8 -9 -14c0 -9 6 -13 14 -13c62 0 99 31 99 94c0 43 -11 62 -26 100c-26 63 -20 106 -57 171c-23 39 -66 127 -69 170
c-1 6 0 12 0 18c0 9 0 42 -14 42c-9 0 -10 -23 -10 -29c0 -31 17 -90 31 -117c17 -31 35 -61 51 -92c10 -19 30 -77 34 -98c4 -28 12 -55 21 -81s23 -70 23 -96s-29 -47 -50 -58c5 20 6 41 6 61c0 37 -13 88 -31 120c-20 37 -46 72 -70 106c-15 21 -31 42 -40 66
c-4 9 -10 30 -22 30c-6 0 -10 -6 -10 -12c0 -8 7 -15 12 -21c10 -13 13 -28 21 -42c8 -12 18 -23 26 -35c3 -5 5 -10 8 -15c6 -13 15 -24 24 -34c21 -23 65 -105 65 -135zM530 610c-18 0 -36 0 -53 6c-6 3 -10 4 -17 4c-15 0 -31 -6 -37 -22c-8 -21 -9 -45 -15 -67
c-16 -57 -32 -113 -49 -169c-9 -27 -22 -53 -31 -80l-14 106c-7 57 -22 114 -34 170c-5 29 -13 58 -49 58c-21 0 -41 -10 -62 -10c-13 0 -25 4 -38 4c-8 0 -13 -2 -13 -11c0 -14 35 -13 44 -13c22 0 43 8 65 8c8 0 13 -1 18 -7c4 -4 17 -37 19 -44c5 -24 5 -48 13 -71
c10 -27 15 -54 16 -83c0 -44 10 -89 21 -131c2 -9 7 -19 17 -19c15 0 15 42 17 52c4 27 19 50 28 75l30 102c12 39 19 80 34 118l17 12c18 -7 36 -10 55 -10c9 0 18 2 27 2c2 0 6 0 6 -3s-6 -7 -8 -9c-10 -16 -22 -42 -22 -61c0 -25 -8 -48 -11 -72c-2 -17 -8 -34 -12 -50
c-10 -36 -20 -71 -31 -107c-22 -76 -43 -143 -75 -216c-11 -27 -70 -111 -92 -129c-23 -19 -44 -34 -75 -34c-26 0 -66 8 -89 20l8 109c0 3 -4 9 -8 9c-5 0 -9 -7 -12 -10c-25 -35 -52 -68 -74 -105c-2 -1 -4 -2 -4 -5c0 -5 8 -11 12 -11c10 0 52 73 60 85l4 3l-4 -72
c0 -3 -2 -6 -2 -9c0 -8 5 -16 13 -20c-22 -30 -38 -63 -61 -92c-5 27 -11 55 -18 81c-1 7 -5 22 -13 22c-6 0 -11 -6 -11 -11c0 -8 6 -18 7 -26c4 -19 23 -71 23 -84c0 -3 1 -5 4 -5c13 0 31 21 38 30l21 -14c13 -9 49 -14 64 -14c35 0 73 1 97 29c21 23 46 47 60 75
c33 64 85 171 98 239c8 38 27 75 45 109v3c0 5 -1 16 -8 15c13 44 23 87 34 131c5 20 15 40 15 61c0 26 27 100 39 125c3 7 8 15 8 23c0 15 -26 10 -35 10zM202 -193c-24 0 -48 3 -72 9l-26 19c14 19 24 41 34 62c16 -4 63 -10 79 -10c25 0 57 8 74 27c33 35 60 76 88 115
c-23 -69 -91 -222 -177 -222z" />
    <glyph glyph-name="z" unicode="z" horiz-adv-x="587" 
d="M60 126c0 -3 3 -3 5 -3c20 0 57 89 57 108c0 3 -1 8 -5 8c-13 0 -24 -38 -27 -49c-5 -14 -10 -28 -19 -41c-3 -5 -11 -17 -11 -23zM62 371c0 -2 -1 -4 -1 -6c0 -9 12 -11 19 -11c13 0 25 3 37 7c26 6 53 10 79 10c8 0 15 -3 23 -3c6 0 12 3 12 10c0 3 -2 6 -3 9
c-5 1 -21 7 -25 7c-41 0 -83 -10 -124 -17c17 29 56 96 64 125c-1 4 -8 4 -12 4c-8 0 -11 -12 -11 -18l-49 -88l-24 103c7 4 21 14 21 23c0 4 -4 7 -7 8c13 13 26 26 43 37c10 6 27 23 27 37c0 4 -4 12 -10 12s-13 -19 -16 -23c-9 -16 -25 -25 -38 -37c-4 -4 -8 -9 -12 -14
c-8 -9 -17 -18 -27 -27c-3 -4 -8 -9 -8 -15c0 -5 6 -8 10 -9c15 -17 21 -96 32 -124zM51 117c-8 0 -10 -5 -10 -13c0 -21 10 -49 19 -68c3 -5 6 -9 8 -14c5 -11 8 -22 13 -33c0 -1 2 -4 4 -4c6 0 13 14 13 19c0 3 -28 56 -31 76c-1 7 -6 37 -16 37zM561 522l-19 -18
c0 13 -1 25 -1 38c0 21 1 43 2 65c5 3 9 9 9 16c0 4 -5 5 -8 4v10c0 6 -5 10 -11 10c-9 0 -11 -16 -12 -23c-31 -3 -63 -4 -95 -6c-50 -2 -99 -6 -149 -6c-29 0 -57 3 -86 8c-2 0 -5 1 -8 1c-7 0 -20 -5 -19 -14c-1 2 -3 2 -5 2c-14 0 -11 -13 -11 -22c0 -22 -3 -44 -3 -65
c0 -17 1 -33 2 -49l1 -2c6 0 14 11 17 16c12 -5 25 -6 38 -6c43 0 85 12 127 12c4 0 8 -1 11 -2c-72 -95 -142 -192 -221 -282c0 -3 -1 -6 -1 -8c0 -3 1 -7 4 -7c5 0 13 7 16 11c6 -25 4 -51 4 -77c0 -8 3 -14 12 -15l-5 -4c-8 -18 -45 -98 -45 -110c0 -3 2 -7 6 -7
c3 0 5 2 6 4c4 -2 9 -2 14 -2c19 0 39 2 59 2c30 0 59 -2 89 -7c45 -7 92 -12 138 -21c7 -2 14 -2 21 -2c9 0 22 1 28 8c11 13 65 107 65 120c0 5 -4 9 -10 9c-7 0 -10 -8 -12 -14c-15 -32 -31 -65 -46 -97l-18 -7c-49 2 -97 8 -145 18c-58 13 -118 13 -177 13
c7 28 40 62 40 88c0 3 0 6 -1 9c6 0 13 1 20 2c57 6 114 8 170 17c11 2 22 3 33 3c20 0 40 -6 60 -11c28 -6 56 -7 84 -7v0c2 -5 6 -8 12 -8c13 0 10 42 10 50c0 15 4 31 4 46c0 9 -1 19 -12 19c-9 0 -12 -11 -13 -18c-2 -23 -3 -46 -4 -68h-23c-19 0 -39 1 -58 6
c-14 4 -28 5 -43 5c-79 0 -158 -15 -237 -16v10c0 25 -3 54 -12 78c8 7 12 18 18 26c15 20 34 37 49 57c20 25 38 51 57 76c28 36 56 72 85 107c3 -1 5 -1 7 -1c4 0 6 1 6 5c0 3 -2 7 -4 9c1 3 3 6 3 9c0 4 -3 7 -7 7c-3 0 -6 -1 -9 -2l-4 -5c-8 3 -17 6 -27 6
c-32 0 -63 -6 -95 -10c-12 -1 -24 -3 -36 -3c-10 0 -19 2 -28 5v47s-1 33 -3 49c10 -11 97 -12 116 -12c6 0 12 0 17 1c32 7 63 9 96 9c15 0 31 -2 46 -2c27 0 54 1 81 2v-4v-112c-15 -16 -27 -33 -38 -51c-10 -16 -52 -64 -66 -77c-35 -30 -71 -61 -105 -93v-2
c0 -21 37 -21 51 -21c13 0 26 1 38 1c39 0 77 -4 115 -4c20 0 23 9 23 26c0 8 -4 12 -12 12c-6 0 -9 -5 -8 -11h-120c10 17 58 52 75 66c12 9 22 17 23 33c2 31 61 94 63 126c6 6 17 18 17 27c0 5 -4 6 -7 6s-6 -1 -9 -1zM476 356c-24 -17 -96 -68 -109 -91h-26
c14 14 27 28 40 42c27 27 59 48 83 78c9 11 55 74 61 77c-17 -34 -39 -69 -49 -106z" />
    <glyph glyph-name="braceleft" unicode="{" horiz-adv-x="337" 
d="M325 606l2 40c-2 3 -7 6 -10 6c-4 0 -6 -3 -8 -6c-7 7 -20 9 -29 9c-14 0 -22 -6 -35 -10c-2 -1 -5 -1 -7 -1c-65 -14 -140 -97 -140 -165c0 -16 2 -33 2 -49c0 -29 -11 -71 -43 -80c-13 -4 -3 -12 -19 -19c-11 -5 -14 -19 -14 -29c0 -15 1 -29 1 -44c-2 -3 -5 -7 -5 -11
c0 -3 3 -4 6 -4c8 0 14 6 22 5c5 -4 10 -7 14 -12c15 -20 20 -79 23 -103c6 -60 30 -130 97 -144c36 -7 72 -1 108 -7c2 0 5 -1 7 -1c6 0 13 2 13 8c0 17 3 34 3 51c0 26 -50 6 -50 61c0 39 9 77 9 116s-10 97 -54 109c23 16 30 46 43 68c27 46 2 168 30 194
c6 -2 21 -6 27 -6c7 0 9 6 9 12c0 4 -2 9 -2 12zM98 142c0 8 1 15 1 23c0 28 -9 49 -19 74c-5 12 -18 20 -29 24c11 6 22 21 32 29c1 4 -1 10 -6 10c-6 0 -31 -21 -36 -25c0 13 0 26 1 39c15 7 30 17 45 23l5 6l-5 6c16 22 31 36 31 63c0 17 -4 34 -4 52c0 48 13 54 30 92
c7 17 25 33 40 42c-17 -13 -26 -69 -26 -88c0 -26 9 -50 9 -76c0 -53 -29 -71 -72 -96l1 -49c31 -2 39 -23 54 -47c12 -19 16 -56 16 -77c0 -15 -3 -30 -3 -44c0 -8 2 -17 4 -25c6 -33 20 -81 53 -98c-10 1 -42 5 -51 10c-41 21 -71 87 -71 132zM307 612
c-40 0 -51 -63 -51 -91v-27c0 -46 -6 -75 -21 -117c-8 -22 -27 -39 -48 -46c-4 -1 -14 -3 -14 -9c0 -4 4 -7 6 -9c21 -1 50 -6 58 -27c12 -30 17 -53 17 -85s-6 -63 -6 -94s12 -65 47 -72l-2 -28c-27 0 -67 10 -87 29c-30 29 -25 103 -25 141c0 27 -11 71 -22 95
c-7 17 -28 29 -45 33l1 29c32 21 52 30 65 70c4 10 6 20 6 30c0 13 -4 26 -6 38c-3 16 -4 31 -5 47v2c0 53 38 97 86 115c9 4 20 6 29 6c6 0 11 -1 17 -3v-27z" />
    <glyph glyph-name="bar" unicode="|" 
d="M187 498c-4 0 -10 -1 -10 -6c0 -19 73 -16 73 -80c0 -5 -1 -10 -5 -14c-26 -31 -37 -48 -82 -56c-5 0 -10 -1 -16 -1c-35 0 -52 23 -52 56c0 42 19 79 55 101c4 2 34 18 34 22c0 3 -7 4 -9 4c-12 0 -26 -7 -35 -15v3c0 6 -4 9 -10 9c-4 0 -8 -1 -12 -3
c-61 -25 -98 -100 -98 -164c0 -47 27 -89 78 -89c49 0 125 42 133 94c27 13 37 37 37 65c0 50 -37 63 -77 74h-4zM107 292c-48 0 -69 29 -69 75c0 39 20 81 50 107c7 6 16 13 25 15c-24 -24 -38 -54 -38 -89c0 -42 15 -82 64 -82c26 0 49 17 71 30c-27 -38 -55 -56 -103 -56
z" />
    <glyph glyph-name="braceright" unicode="}" horiz-adv-x="411" 
d="M274 454c0 25 3 50 3 75c0 31 -2 69 -28 91c-41 35 -72 49 -129 49c-12 0 -77 -47 -84 -52c-1 -1 -5 -6 -5 -9c0 -1 2 -2 3 -2c11 0 61 31 69 36l-2 -17c-15 -15 -50 -43 -60 -61l-7 32c-2 2 -5 4 -8 4c-4 0 -6 -7 -6 -11l8 -50c0 -1 1 -1 2 -1c8 0 16 11 29 11
c35 0 39 -51 39 -75c0 -17 -2 -35 -2 -52c0 -43 19 -84 59 -102c-27 -27 -58 -71 -58 -111c0 -29 13 -55 13 -80c0 -17 -38 -65 -53 -72c-19 -7 -18 -26 -21 -44c-1 -11 -2 -23 -1 -35c-1 -3 -2 -6 -2 -10c0 -3 2 -6 5 -6c15 0 56 39 82 39c3 0 6 -1 9 -1c43 0 92 21 115 57
c26 40 33 55 33 104c0 27 -4 54 -4 81c0 31 26 55 53 65h3c11 0 14 16 14 24c0 5 -1 11 -2 16c0 10 -15 16 -23 19c-38 14 -44 52 -44 88zM114 434c0 16 2 32 2 48c0 17 -5 32 -10 48c-7 21 -28 33 -49 30l40 39c2 2 11 3 13 3c29 0 57 -39 57 -66c0 -28 -12 -55 -12 -83
c0 -36 22 -77 55 -92c5 -2 23 -10 23 -17c0 -3 -3 -3 -5 -3c-16 -2 -32 -7 -48 -11c-1 -1 -1 -1 -2 -1c-8 0 -27 20 -33 26c-22 23 -31 47 -31 79zM49 -12l3 44h2c13 0 38 8 51 11v-11c0 -3 0 -15 -7 -15c-10 1 -42 -23 -49 -29zM82 57c21 17 47 50 47 79
c0 27 -18 51 -18 77c0 6 1 12 4 17c27 68 42 76 109 93c-41 -24 -59 -70 -59 -116c0 -23 5 -45 5 -68c0 -13 -2 -23 -9 -35c-6 -12 -32 -43 -45 -44c-11 -1 -23 -2 -34 -3zM256 225c0 -21 3 -41 3 -62c0 -88 -42 -142 -134 -143v17c46 21 58 74 58 120c0 20 -5 40 -5 55
c0 42 39 89 71 113c2 2 3 5 3 8c0 2 -1 5 -4 4c4 2 8 6 8 11c0 2 -2 5 -4 7c-13 8 -38 22 -48 34c-17 21 -28 47 -28 74c0 26 10 50 10 76c0 45 -26 70 -69 82l9 29c26 -1 71 -9 92 -28c33 -30 40 -49 40 -94v-9c1 -26 -3 -52 -3 -78c0 -40 15 -72 50 -91
c10 -6 18 -8 18 -20v-3c0 -6 -10 -10 -14 -11c-43 -13 -53 -49 -53 -91z" />
    <glyph glyph-name="asciitilde" unicode="~" 
d="M187 498c-4 0 -10 -1 -10 -6c0 -19 73 -16 73 -80c0 -5 -1 -10 -5 -14c-26 -31 -37 -48 -82 -56c-5 0 -10 -1 -16 -1c-35 0 -52 23 -52 56c0 42 19 79 55 101c4 2 34 18 34 22c0 3 -7 4 -9 4c-12 0 -26 -7 -35 -15v3c0 6 -4 9 -10 9c-4 0 -8 -1 -12 -3
c-61 -25 -98 -100 -98 -164c0 -47 27 -89 78 -89c49 0 125 42 133 94c27 13 37 37 37 65c0 50 -37 63 -77 74h-4zM107 292c-48 0 -69 29 -69 75c0 39 20 81 50 107c7 6 16 13 25 15c-24 -24 -38 -54 -38 -89c0 -42 15 -82 64 -82c26 0 49 17 71 30c-27 -38 -55 -56 -103 -56
z" />
    <glyph glyph-name="DEL" 
d="M187 498c-4 0 -10 -1 -10 -6c0 -19 73 -16 73 -80c0 -5 -1 -10 -5 -14c-26 -31 -37 -48 -82 -56c-5 0 -10 -1 -16 -1c-35 0 -52 23 -52 56c0 42 19 79 55 101c4 2 34 18 34 22c0 3 -7 4 -9 4c-12 0 -26 -7 -35 -15v3c0 6 -4 9 -10 9c-4 0 -8 -1 -12 -3
c-61 -25 -98 -100 -98 -164c0 -47 27 -89 78 -89c49 0 125 42 133 94c27 13 37 37 37 65c0 50 -37 63 -77 74h-4zM107 292c-48 0 -69 29 -69 75c0 39 20 81 50 107c7 6 16 13 25 15c-24 -24 -38 -54 -38 -89c0 -42 15 -82 64 -82c26 0 49 17 71 30c-27 -38 -55 -56 -103 -56
z" />
    </font>
</defs>
</svg>
